<?xml version="1.0" encoding="utf-8"?>
<!-- Generator: Adobe Illustrator 22.0.1, SVG Export Plug-In . SVG Version: 6.00 Build 0)  -->
<svg version="1.1" id="Ebene_1" xmlns="http://www.w3.org/2000/svg" xmlns:xlink="http://www.w3.org/1999/xlink" x="0px" y="0px"
	 viewBox="0 0 28 28" style="enable-background:new 0 0 28 28;" xml:space="preserve">
<style type="text/css">
	.st0{fill:#FFFFFF;}
	.st1{fill:#663399;}
</style>
<g>
	<g>
		<path class="st0" d="M25,14h-7v2h4.8c-0.7,3-2.9,5.5-5.8,6.5L5.5,11c1.2-3.5,4.6-6,8.5-6c3,0,5.7,1.5,7.4,3.8l1.5-1.3
			C20.9,4.8,17.7,3,14,3C8.8,3,4.4,6.7,3.3,11.6l13.2,13.2C21.3,23.6,25,19.2,25,14z"/>
		<path class="st0" d="M3,14.1c0,2.8,1.1,5.5,3.2,7.6c2.1,2.1,4.9,3.2,7.6,3.2L3,14.1z"/>
	</g>
	<path class="st1" d="M14,0C6.3,0,0,6.3,0,14s6.3,14,14,14s14-6.3,14-14S21.7,0,14,0z M6.2,21.8c-2.1-2.1-3.2-4.9-3.2-7.6L13.9,25
		C11.1,24.9,8.3,23.9,6.2,21.8z M16.4,24.7L3.3,11.6C4.4,6.7,8.8,3,14,3c3.7,0,6.9,1.8,8.9,4.5l-1.5,1.3C19.7,6.5,17,5,14,5
		c-3.9,0-7.2,2.5-8.5,6L17,22.5c2.9-1,5.1-3.5,5.8-6.5H18v-2h7C25,19.2,21.3,23.6,16.4,24.7z"/>
</g>
</svg>
