<?xml version="1.0" encoding="UTF-8"?>
<svg width="1182px" height="662px" viewBox="0 0 1182 662" version="1.1" xmlns="http://www.w3.org/2000/svg" xmlns:xlink="http://www.w3.org/1999/xlink" style="background: #FFFCFF;">
    <!-- Generator: Sketch 43.2 (39069) - http://www.bohemiancoding.com/sketch -->
    <title>load-cost-usd</title>
    <desc>Created with Sketch.</desc>
    <defs>
        <linearGradient x1="41.1313949%" y1="0%" x2="50%" y2="100%" id="linearGradient-1">
            <stop stop-color="#C700EB" offset="0%"></stop>
            <stop stop-color="#EBB2F6" offset="100%"></stop>
        </linearGradient>
        <linearGradient x1="50%" y1="0%" x2="50%" y2="100%" id="linearGradient-2">
            <stop stop-color="#C700EB" offset="0%"></stop>
            <stop stop-color="#EBB2F6" offset="100%"></stop>
        </linearGradient>
    </defs>
    <g id="Page-1" stroke="none" stroke-width="1" fill="none" fill-rule="evenodd">
        <g id="load-cost-usd">
            <rect id="Baseline" fill="#382A2C" x="1" y="575" width="1180" height="5"></rect>
            <g id="OSCON" transform="translate(805.600000, 349.000000)">
                <rect id="Rectangle-Copy-6" fill="url(#linearGradient-1)" x="0" y="0" width="160" height="221"></rect>
                <path d="M36.82,262.42 C33.49,262.42 30.76,261.37 28.6,259.3 C26.44,257.23 25.36,254.65 25.36,251.53 C25.36,248.44 26.47,245.83 28.66,243.73 C30.85,241.63 33.58,240.58 36.88,240.58 C40.18,240.58 42.91,241.63 45.1,243.7 C47.26,245.77 48.34,248.38 48.34,251.47 C48.34,254.59 47.26,257.2 45.07,259.27 C42.88,261.37 40.15,262.42 36.82,262.42 Z M36.82,247.27 C34.57,247.27 33.01,249.04 33.01,251.47 C33.01,253.9 34.6,255.73 36.88,255.73 C39.13,255.73 40.69,253.96 40.69,251.53 C40.69,249.1 39.07,247.27 36.82,247.27 Z M56.47,254.38 C58.66,255.01 59.14,255.28 59.14,255.79 C59.14,256.3 58.66,256.54 57.67,256.54 C56.68,256.54 55.45,256.27 53.98,255.7 C52.51,255.13 51.13,254.44 49.9,253.63 L49.81,253.69 L50.5,260.44 C52.39,261.64 55.12,262.36 57.79,262.36 C63.19,262.36 66.49,259.69 66.49,255.34 C66.49,253.57 66.01,252.16 65.02,251.11 C64.03,250.06 62.26,249.19 59.71,248.47 C57.76,247.9 57.19,247.6 57.19,247.12 C57.19,246.67 57.58,246.46 58.42,246.46 C59.32,246.46 60.43,246.64 61.75,247.03 C63.04,247.42 64.18,247.9 65.17,248.44 L65.23,248.44 L65.23,242.11 C63.34,241.18 60.94,240.64 58.42,240.64 C55.81,240.64 53.71,241.27 52.18,242.53 C50.62,243.82 49.84,245.5 49.84,247.6 C49.84,249.31 50.35,250.66 51.34,251.71 C52.33,252.76 54.04,253.66 56.47,254.38 Z M78.61,262.33 C81.22,262.33 83.29,261.82 85.24,260.65 L86.11,253.24 L85.99,253.18 C84.19,254.71 82.09,255.52 80.02,255.52 C77.17,255.52 75.49,254.02 75.49,251.5 C75.49,249.1 77.23,247.51 79.9,247.51 C81.79,247.51 83.95,248.5 85.63,250.15 L85.72,250.12 L85.72,242.77 C83.92,241.42 81.46,240.67 78.82,240.67 C75.61,240.67 72.94,241.69 70.87,243.76 C68.8,245.83 67.75,248.44 67.75,251.53 C67.75,254.68 68.77,257.29 70.84,259.3 C72.88,261.31 75.46,262.33 78.61,262.33 Z M99.46,262.42 C96.13,262.42 93.4,261.37 91.24,259.3 C89.08,257.23 88,254.65 88,251.53 C88,248.44 89.11,245.83 91.3,243.73 C93.49,241.63 96.22,240.58 99.52,240.58 C102.82,240.58 105.55,241.63 107.74,243.7 C109.9,245.77 110.98,248.38 110.98,251.47 C110.98,254.59 109.9,257.2 107.71,259.27 C105.52,261.37 102.79,262.42 99.46,262.42 Z M99.46,247.27 C97.21,247.27 95.65,249.04 95.65,251.47 C95.65,253.9 97.24,255.73 99.52,255.73 C101.77,255.73 103.33,253.96 103.33,251.53 C103.33,249.1 101.71,247.27 99.46,247.27 Z M134.92,241 L127.42,241 L127.51,248.92 L120.61,241 L113.2,241 L113.2,262 L120.7,262 L120.61,252.67 L128.77,262 L134.92,262 L134.92,241 Z" fill="#382A2C"></path>
            </g>
            <g id="CSS-Dev-Conf" transform="translate(1002.000000, 20.000000)">
                <rect id="Rectangle-Copy-5" fill="url(#linearGradient-1)" x="0" y="0" width="160" height="550"></rect>
                <path d="M27.445,591.33 C30.055,591.33 32.125,590.82 34.075,589.65 L34.945,582.24 L34.825,582.18 C33.025,583.71 30.925,584.52 28.855,584.52 C26.005,584.52 24.325,583.02 24.325,580.5 C24.325,578.1 26.065,576.51 28.735,576.51 C30.625,576.51 32.785,577.5 34.465,579.15 L34.555,579.12 L34.555,571.77 C32.755,570.42 30.295,569.67 27.655,569.67 C24.445,569.67 21.775,570.69 19.705,572.76 C17.635,574.83 16.585,577.44 16.585,580.53 C16.585,583.68 17.605,586.29 19.675,588.3 C21.715,590.31 24.295,591.33 27.445,591.33 Z M43.465,583.38 C45.655,584.01 46.135,584.28 46.135,584.79 C46.135,585.3 45.655,585.54 44.665,585.54 C43.675,585.54 42.445,585.27 40.975,584.7 C39.505,584.13 38.125,583.44 36.895,582.63 L36.805,582.69 L37.495,589.44 C39.385,590.64 42.115,591.36 44.785,591.36 C50.185,591.36 53.485,588.69 53.485,584.34 C53.485,582.57 53.005,581.16 52.015,580.11 C51.025,579.06 49.255,578.19 46.705,577.47 C44.755,576.9 44.185,576.6 44.185,576.12 C44.185,575.67 44.575,575.46 45.415,575.46 C46.315,575.46 47.425,575.64 48.745,576.03 C50.035,576.42 51.175,576.9 52.165,577.44 L52.225,577.44 L52.225,571.11 C50.335,570.18 47.935,569.64 45.415,569.64 C42.805,569.64 40.705,570.27 39.175,571.53 C37.615,572.82 36.835,574.5 36.835,576.6 C36.835,578.31 37.345,579.66 38.335,580.71 C39.325,581.76 41.035,582.66 43.465,583.38 Z M61.375,583.38 C63.565,584.01 64.045,584.28 64.045,584.79 C64.045,585.3 63.565,585.54 62.575,585.54 C61.585,585.54 60.355,585.27 58.885,584.7 C57.415,584.13 56.035,583.44 54.805,582.63 L54.715,582.69 L55.405,589.44 C57.295,590.64 60.025,591.36 62.695,591.36 C68.095,591.36 71.395,588.69 71.395,584.34 C71.395,582.57 70.915,581.16 69.925,580.11 C68.935,579.06 67.165,578.19 64.615,577.47 C62.665,576.9 62.095,576.6 62.095,576.12 C62.095,575.67 62.485,575.46 63.325,575.46 C64.225,575.46 65.335,575.64 66.655,576.03 C67.945,576.42 69.085,576.9 70.075,577.44 L70.135,577.44 L70.135,571.11 C68.245,570.18 65.845,569.64 63.325,569.64 C60.715,569.64 58.615,570.27 57.085,571.53 C55.525,572.82 54.745,574.5 54.745,576.6 C54.745,578.31 55.255,579.66 56.245,580.71 C57.235,581.76 58.945,582.66 61.375,583.38 Z M93.385,580.53 C93.385,577.8 91.705,576.39 88.495,576.39 L87.595,576.39 L87.595,584.61 L88.495,584.61 C91.705,584.61 93.385,583.17 93.385,580.53 Z M88.555,591 L80.095,591 L80.095,570 L88.555,570 C96.595,570 101.035,573.75 101.035,580.47 C101.035,583.77 99.955,586.35 97.765,588.21 C95.575,590.07 92.515,591 88.555,591 Z M119.545,584.85 L110.605,584.85 L110.605,583.05 L117.865,583.05 L117.865,577.98 L110.605,577.98 L110.605,576.15 L119.455,576.15 L118.705,570 L103.255,570 L103.255,591 L118.795,591 L119.545,584.85 Z M145.165,570 L137.305,570 L132.925,582.03 L128.545,570 L120.325,570 L128.875,591.09 L136.615,591.09 L145.165,570 Z M48.43,621.33 C51.04,621.33 53.11,620.82 55.06,619.65 L55.93,612.24 L55.81,612.18 C54.01,613.71 51.91,614.52 49.84,614.52 C46.99,614.52 45.31,613.02 45.31,610.5 C45.31,608.1 47.05,606.51 49.72,606.51 C51.61,606.51 53.77,607.5 55.45,609.15 L55.54,609.12 L55.54,601.77 C53.74,600.42 51.28,599.67 48.64,599.67 C45.43,599.67 42.76,600.69 40.69,602.76 C38.62,604.83 37.57,607.44 37.57,610.53 C37.57,613.68 38.59,616.29 40.66,618.3 C42.7,620.31 45.28,621.33 48.43,621.33 Z M69.28,621.42 C65.95,621.42 63.22,620.37 61.06,618.3 C58.9,616.23 57.82,613.65 57.82,610.53 C57.82,607.44 58.93,604.83 61.12,602.73 C63.31,600.63 66.04,599.58 69.34,599.58 C72.64,599.58 75.37,600.63 77.56,602.7 C79.72,604.77 80.8,607.38 80.8,610.47 C80.8,613.59 79.72,616.2 77.53,618.27 C75.34,620.37 72.61,621.42 69.28,621.42 Z M69.28,606.27 C67.03,606.27 65.47,608.04 65.47,610.47 C65.47,612.9 67.06,614.73 69.34,614.73 C71.59,614.73 73.15,612.96 73.15,610.53 C73.15,608.1 71.53,606.27 69.28,606.27 Z M104.74,600 L97.24,600 L97.33,607.92 L90.43,600 L83.02,600 L83.02,621 L90.52,621 L90.43,611.67 L98.59,621 L104.74,621 L104.74,600 Z M115.18,609.06 L115.18,606.36 L122.95,606.36 L123.7,600 L107.68,600 L107.68,621 L115.18,621 L115.18,614.79 L121.9,614.79 L121.9,609.06 L115.18,609.06 Z" fill="#382A2C"></path>
            </g>
            <g id="Smashing-Conf" transform="translate(602.000000, 549.000000)">
                <rect id="Rectangle-Copy-4" fill="url(#linearGradient-2)" x="7" y="0" width="160" height="22"></rect>
                <path d="M7.09,55.38 C9.28,56.01 9.76,56.28 9.76,56.79 C9.76,57.3 9.28,57.54 8.29,57.54 C7.3,57.54 6.07,57.27 4.6,56.7 C3.13,56.13 1.75,55.44 0.52,54.63 L0.43,54.69 L1.12,61.44 C3.01,62.64 5.74,63.36 8.41,63.36 C13.81,63.36 17.11,60.69 17.11,56.34 C17.11,54.57 16.63,53.16 15.64,52.11 C14.65,51.06 12.88,50.19 10.33,49.47 C8.38,48.9 7.81,48.6 7.81,48.12 C7.81,47.67 8.2,47.46 9.04,47.46 C9.94,47.46 11.05,47.64 12.37,48.03 C13.66,48.42 14.8,48.9 15.79,49.44 L15.85,49.44 L15.85,43.11 C13.96,42.18 11.56,41.64 9.04,41.64 C6.43,41.64 4.33,42.27 2.8,43.53 C1.24,44.82 0.46,46.5 0.46,48.6 C0.46,50.31 0.97,51.66 1.96,52.71 C2.95,53.76 4.66,54.66 7.09,55.38 Z M39.55,51.36 L39.55,63 L46.81,63 L46.81,42 L37,42 L33.01,49.98 L28.96,42 L19.09,42 L19.09,63 L26.29,63 L26.29,51.36 L32.77,63.27 L33.13,63.27 L39.55,51.36 Z M60.85,49.02 L58.81,54.57 L62.89,54.57 L60.85,49.02 Z M65.26,42 L73.66,63 L65.68,63 L64.69,60.21 L57.01,60.21 L56.02,63 L48.28,63 L56.68,42 L65.26,42 Z M81.04,55.38 C83.23,56.01 83.71,56.28 83.71,56.79 C83.71,57.3 83.23,57.54 82.24,57.54 C81.25,57.54 80.02,57.27 78.55,56.7 C77.08,56.13 75.7,55.44 74.47,54.63 L74.38,54.69 L75.07,61.44 C76.96,62.64 79.69,63.36 82.36,63.36 C87.76,63.36 91.06,60.69 91.06,56.34 C91.06,54.57 90.58,53.16 89.59,52.11 C88.6,51.06 86.83,50.19 84.28,49.47 C82.33,48.9 81.76,48.6 81.76,48.12 C81.76,47.67 82.15,47.46 82.99,47.46 C83.89,47.46 85,47.64 86.32,48.03 C87.61,48.42 88.75,48.9 89.74,49.44 L89.8,49.44 L89.8,43.11 C87.91,42.18 85.51,41.64 82.99,41.64 C80.38,41.64 78.28,42.27 76.75,43.53 C75.19,44.82 74.41,46.5 74.41,48.6 C74.41,50.31 74.92,51.66 75.91,52.71 C76.9,53.76 78.61,54.66 81.04,55.38 Z M114.22,42 L106.72,42 L106.72,49.02 L100.54,49.02 L100.54,42 L93.04,42 L93.04,63 L100.54,63 L100.54,55.86 L106.72,55.86 L106.72,63 L114.22,63 L114.22,42 Z M124.72,42 L117.22,42 L117.22,63 L124.72,63 L124.72,42 Z M149.44,42 L141.94,42 L142.03,49.92 L135.13,42 L127.72,42 L127.72,63 L135.22,63 L135.13,53.67 L143.29,63 L149.44,63 L149.44,42 Z M162.25,50.73 L162.25,55.14 L165.28,55.14 L165.28,57.06 C165.13,57.09 164.98,57.09 164.53,57.09 C161.26,57.09 159.4,55.5 159.4,52.74 C159.4,49.95 161.44,48.27 164.77,48.27 C166.81,48.27 168.85,48.75 171.37,49.86 L171.37,43.05 C169,42.09 166.75,41.67 164.2,41.67 C160.36,41.67 157.3,42.66 155.05,44.67 C152.8,46.68 151.66,49.38 151.66,52.83 C151.66,55.98 152.71,58.53 154.81,60.42 C156.88,62.34 159.64,63.3 163.03,63.3 C165.7,63.3 168.7,62.67 171.85,61.44 L171.85,50.73 L162.25,50.73 Z M54.43,93.33 C57.04,93.33 59.11,92.82 61.06,91.65 L61.93,84.24 L61.81,84.18 C60.01,85.71 57.91,86.52 55.84,86.52 C52.99,86.52 51.31,85.02 51.31,82.5 C51.31,80.1 53.05,78.51 55.72,78.51 C57.61,78.51 59.77,79.5 61.45,81.15 L61.54,81.12 L61.54,73.77 C59.74,72.42 57.28,71.67 54.64,71.67 C51.43,71.67 48.76,72.69 46.69,74.76 C44.62,76.83 43.57,79.44 43.57,82.53 C43.57,85.68 44.59,88.29 46.66,90.3 C48.7,92.31 51.28,93.33 54.43,93.33 Z M75.28,93.42 C71.95,93.42 69.22,92.37 67.06,90.3 C64.9,88.23 63.82,85.65 63.82,82.53 C63.82,79.44 64.93,76.83 67.12,74.73 C69.31,72.63 72.04,71.58 75.34,71.58 C78.64,71.58 81.37,72.63 83.56,74.7 C85.72,76.77 86.8,79.38 86.8,82.47 C86.8,85.59 85.72,88.2 83.53,90.27 C81.34,92.37 78.61,93.42 75.28,93.42 Z M75.28,78.27 C73.03,78.27 71.47,80.04 71.47,82.47 C71.47,84.9 73.06,86.73 75.34,86.73 C77.59,86.73 79.15,84.96 79.15,82.53 C79.15,80.1 77.53,78.27 75.28,78.27 Z M110.74,72 L103.24,72 L103.33,79.92 L96.43,72 L89.02,72 L89.02,93 L96.52,93 L96.43,83.67 L104.59,93 L110.74,93 L110.74,72 Z M121.18,81.06 L121.18,78.36 L128.95,78.36 L129.7,72 L113.68,72 L113.68,93 L121.18,93 L121.18,86.79 L127.9,86.79 L127.9,81.06 L121.18,81.06 Z" fill="#382A2C"></path>
            </g>
            <g id="Facebook" transform="translate(405.800000, 548.000000)">
                <rect id="Rectangle-Copy-7" fill="url(#linearGradient-2)" x="7" y="0" width="160" height="22"></rect>
                <path d="M8.02,51.06 L8.02,48.36 L15.79,48.36 L16.54,42 L0.52,42 L0.52,63 L8.02,63 L8.02,56.79 L14.74,56.79 L14.74,51.06 L8.02,51.06 Z M29.59,49.02 L27.55,54.57 L31.63,54.57 L29.59,49.02 Z M34,42 L42.4,63 L34.42,63 L33.43,60.21 L25.75,60.21 L24.76,63 L17.02,63 L25.42,42 L34,42 Z M54.01,63.33 C56.62,63.33 58.69,62.82 60.64,61.65 L61.51,54.24 L61.39,54.18 C59.59,55.71 57.49,56.52 55.42,56.52 C52.57,56.52 50.89,55.02 50.89,52.5 C50.89,50.1 52.63,48.51 55.3,48.51 C57.19,48.51 59.35,49.5 61.03,51.15 L61.12,51.12 L61.12,43.77 C59.32,42.42 56.86,41.67 54.22,41.67 C51.01,41.67 48.34,42.69 46.27,44.76 C44.2,46.83 43.15,49.44 43.15,52.53 C43.15,55.68 44.17,58.29 46.24,60.3 C48.28,62.31 50.86,63.33 54.01,63.33 Z M80.41,56.85 L71.47,56.85 L71.47,55.05 L78.73,55.05 L78.73,49.98 L71.47,49.98 L71.47,48.15 L80.32,48.15 L79.57,42 L64.12,42 L64.12,63 L79.66,63 L80.41,56.85 Z M100.81,56.91 C100.81,58.8 100.09,60.27 98.62,61.35 C97.15,62.46 95.2,63 92.77,63 L82.66,63 L82.66,42 L92.53,42 C97.3,42 100.15,44.13 100.15,47.61 C100.15,49.41 99.16,51 97.36,52.08 C99.64,53.07 100.81,54.72 100.81,56.91 Z M91.39,47.34 L89.68,47.34 L89.68,50.25 L91.39,50.25 C92.59,50.25 93.19,49.74 93.19,48.75 C93.19,47.82 92.59,47.34 91.39,47.34 Z M91.57,54.72 L89.68,54.72 L89.68,57.72 L91.57,57.72 C92.86,57.72 93.52,57.21 93.52,56.25 C93.52,55.2 92.89,54.72 91.57,54.72 Z M113.74,63.42 C110.41,63.42 107.68,62.37 105.52,60.3 C103.36,58.23 102.28,55.65 102.28,52.53 C102.28,49.44 103.39,46.83 105.58,44.73 C107.77,42.63 110.5,41.58 113.8,41.58 C117.1,41.58 119.83,42.63 122.02,44.7 C124.18,46.77 125.26,49.38 125.26,52.47 C125.26,55.59 124.18,58.2 121.99,60.27 C119.8,62.37 117.07,63.42 113.74,63.42 Z M113.74,48.27 C111.49,48.27 109.93,50.04 109.93,52.47 C109.93,54.9 111.52,56.73 113.8,56.73 C116.05,56.73 117.61,54.96 117.61,52.53 C117.61,50.1 115.99,48.27 113.74,48.27 Z M138.22,63.42 C134.89,63.42 132.16,62.37 130,60.3 C127.84,58.23 126.76,55.65 126.76,52.53 C126.76,49.44 127.87,46.83 130.06,44.73 C132.25,42.63 134.98,41.58 138.28,41.58 C141.58,41.58 144.31,42.63 146.5,44.7 C148.66,46.77 149.74,49.38 149.74,52.47 C149.74,55.59 148.66,58.2 146.47,60.27 C144.28,62.37 141.55,63.42 138.22,63.42 Z M138.22,48.27 C135.97,48.27 134.41,50.04 134.41,52.47 C134.41,54.9 136,56.73 138.28,56.73 C140.53,56.73 142.09,54.96 142.09,52.53 C142.09,50.1 140.47,48.27 138.22,48.27 Z M174.1,62.94 L166.39,52.05 L173.92,42.06 L173.92,42 L165.07,42 L159.79,49.56 L159.46,49.56 L159.46,42 L151.96,42 L151.96,63 L159.46,63 L159.46,55.11 L159.76,55.11 L164.98,63 L174.1,63 L174.1,62.94 Z" fill="#382A2C"></path>
            </g>
            <g id="Google" transform="translate(216.000000, 559.000000)">
                <rect id="Rectangle" fill="url(#linearGradient-2)" x="0" y="0" width="160" height="11"></rect>
                <path d="M26.965,39.73 L26.965,44.14 L29.995,44.14 L29.995,46.06 C29.845,46.09 29.695,46.09 29.245,46.09 C25.975,46.09 24.115,44.5 24.115,41.74 C24.115,38.95 26.155,37.27 29.485,37.27 C31.525,37.27 33.565,37.75 36.085,38.86 L36.085,32.05 C33.715,31.09 31.465,30.67 28.915,30.67 C25.075,30.67 22.015,31.66 19.765,33.67 C17.515,35.68 16.375,38.38 16.375,41.83 C16.375,44.98 17.425,47.53 19.525,49.42 C21.595,51.34 24.355,52.3 27.745,52.3 C30.415,52.3 33.415,51.67 36.565,50.44 L36.565,39.73 L26.965,39.73 Z M50.215,52.42 C46.885,52.42 44.155,51.37 41.995,49.3 C39.835,47.23 38.755,44.65 38.755,41.53 C38.755,38.44 39.865,35.83 42.055,33.73 C44.245,31.63 46.975,30.58 50.275,30.58 C53.575,30.58 56.305,31.63 58.495,33.7 C60.655,35.77 61.735,38.38 61.735,41.47 C61.735,44.59 60.655,47.2 58.465,49.27 C56.275,51.37 53.545,52.42 50.215,52.42 Z M50.215,37.27 C47.965,37.27 46.405,39.04 46.405,41.47 C46.405,43.9 47.995,45.73 50.275,45.73 C52.525,45.73 54.085,43.96 54.085,41.53 C54.085,39.1 52.465,37.27 50.215,37.27 Z M74.695,52.42 C71.365,52.42 68.635,51.37 66.475,49.3 C64.315,47.23 63.235,44.65 63.235,41.53 C63.235,38.44 64.345,35.83 66.535,33.73 C68.725,31.63 71.455,30.58 74.755,30.58 C78.055,30.58 80.785,31.63 82.975,33.7 C85.135,35.77 86.215,38.38 86.215,41.47 C86.215,44.59 85.135,47.2 82.945,49.27 C80.755,51.37 78.025,52.42 74.695,52.42 Z M74.695,37.27 C72.445,37.27 70.885,39.04 70.885,41.47 C70.885,43.9 72.475,45.73 74.755,45.73 C77.005,45.73 78.565,43.96 78.565,41.53 C78.565,39.1 76.945,37.27 74.695,37.27 Z M98.305,39.73 L98.305,44.14 L101.335,44.14 L101.335,46.06 C101.185,46.09 101.035,46.09 100.585,46.09 C97.315,46.09 95.455,44.5 95.455,41.74 C95.455,38.95 97.495,37.27 100.825,37.27 C102.865,37.27 104.905,37.75 107.425,38.86 L107.425,32.05 C105.055,31.09 102.805,30.67 100.255,30.67 C96.415,30.67 93.355,31.66 91.105,33.67 C88.855,35.68 87.715,38.38 87.715,41.83 C87.715,44.98 88.765,47.53 90.865,49.42 C92.935,51.34 95.695,52.3 99.085,52.3 C101.755,52.3 104.755,51.67 107.905,50.44 L107.905,39.73 L98.305,39.73 Z M126.115,45.31 L118.315,45.31 L118.315,31 L110.815,31 L110.815,52 L126.115,52 L126.115,45.31 Z M144.595,45.85 L135.655,45.85 L135.655,44.05 L142.915,44.05 L142.915,38.98 L135.655,38.98 L135.655,37.15 L144.505,37.15 L143.755,31 L128.305,31 L128.305,52 L143.845,52 L144.595,45.85 Z" fill="#382A2C"></path>
            </g>
            <g id="Twitter" transform="translate(20.000000, 566.000000)">
                <rect id="Rectangle-Copy-3" fill="url(#linearGradient-2)" x="0" y="0" width="160" height="4"></rect>
                <path d="M4.86,24 L4.86,30.69 L11.37,30.69 L11.37,45 L18.87,45 L18.87,30.69 L25.38,30.69 L25.38,24 L4.86,24 Z M43.11,38.31 L46.53,45.15 L53.46,45.15 L59.4,24 L51.63,24 L48.99,34.95 L43.41,23.73 L43.02,23.73 L37.41,34.95 L34.77,24 L26.79,24 L32.73,45.15 L39.66,45.15 L43.11,38.31 Z M68.97,24 L61.47,24 L61.47,45 L68.97,45 L68.97,24 Z M71.37,24 L71.37,30.69 L77.88,30.69 L77.88,45 L85.38,45 L85.38,30.69 L91.89,30.69 L91.89,24 L71.37,24 Z M93.63,24 L93.63,30.69 L100.14,30.69 L100.14,45 L107.64,45 L107.64,30.69 L114.15,30.69 L114.15,24 L93.63,24 Z M132.78,38.85 L123.84,38.85 L123.84,37.05 L131.1,37.05 L131.1,31.98 L123.84,31.98 L123.84,30.15 L132.69,30.15 L131.94,24 L116.49,24 L116.49,45 L132.03,45 L132.78,38.85 Z M143.49,29.64 L142.41,29.64 L142.41,33.69 L143.49,33.69 C145.08,33.69 145.98,32.94 145.98,31.62 C145.98,30.33 145.08,29.64 143.49,29.64 Z M149.85,37.05 L155.76,45 L147.06,45 L142.53,38.67 L142.53,45 L135.03,45 L135.03,24 L144.06,24 C150.27,24 153.33,26.28 153.33,30.93 C153.33,33.54 152.1,35.73 149.85,37.05 Z" fill="#382A2C"></path>
            </g>
            <path d="M0,391 L24.1017812,391 L24.1017812,387 L0,387 L0,391 Z M35.1484309,391 L59.250212,391 L59.250212,387 L35.1484309,387 L35.1484309,391 Z M70.2968617,391 L94.3986429,391 L94.3986429,387 L70.2968617,387 L70.2968617,391 Z M105.445293,391 L129.547074,391 L129.547074,387 L105.445293,387 L105.445293,391 Z M140.593723,391 L164.695505,391 L164.695505,387 L140.593723,387 L140.593723,391 Z M175.742154,391 L199.843936,391 L199.843936,387 L175.742154,387 L175.742154,391 Z M210.890585,391 L234.992366,391 L234.992366,387 L210.890585,387 L210.890585,391 Z M246.039016,391 L270.140797,391 L270.140797,387 L246.039016,387 L246.039016,391 Z M281.187447,391 L305.289228,391 L305.289228,387 L281.187447,387 L281.187447,391 Z M316.335878,391 L340.437659,391 L340.437659,387 L316.335878,387 L316.335878,391 Z M351.484309,391 L375.58609,391 L375.58609,387 L351.484309,387 L351.484309,391 Z M386.63274,391 L410.734521,391 L410.734521,387 L386.63274,387 L386.63274,391 Z M421.78117,391 L445.882952,391 L445.882952,387 L421.78117,387 L421.78117,391 Z M456.929601,391 L481.031383,391 L481.031383,387 L456.929601,387 L456.929601,391 Z M492.078032,391 L516.179813,391 L516.179813,387 L492.078032,387 L492.078032,391 Z M527.226463,391 L551.328244,391 L551.328244,387 L527.226463,387 L527.226463,391 Z M562.374894,391 L586.476675,391 L586.476675,387 L562.374894,387 L562.374894,391 Z M597.523325,391 L621.625106,391 L621.625106,387 L597.523325,387 L597.523325,391 Z M632.671756,391 L656.773537,391 L656.773537,387 L632.671756,387 L632.671756,391 Z M667.820187,391 L691.921968,391 L691.921968,387 L667.820187,387 L667.820187,391 Z M702.968617,391 L727.070399,391 L727.070399,387 L702.968617,387 L702.968617,391 Z M738.117048,391 L762.21883,391 L762.21883,387 L738.117048,387 L738.117048,391 Z M773.265479,391 L797.36726,391 L797.36726,387 L773.265479,387 L773.265479,391 Z M808.41391,391 L832.515691,391 L832.515691,387 L808.41391,387 L808.41391,391 Z M843.562341,391 L867.664122,391 L867.664122,387 L843.562341,387 L843.562341,391 Z M878.710772,391 L902.812553,391 L902.812553,387 L878.710772,387 L878.710772,391 Z M913.859203,391 L937.960984,391 L937.960984,387 L913.859203,387 L913.859203,391 Z M949.007634,391 L973.109415,391 L973.109415,387 L949.007634,387 L949.007634,391 Z M984.156064,391 L1008.25785,391 L1008.25785,387 L984.156064,387 L984.156064,391 Z M1019.3045,391 L1043.40628,391 L1043.40628,387 L1019.3045,387 L1019.3045,391 Z M1054.45293,391 L1078.55471,391 L1078.55471,387 L1054.45293,387 L1054.45293,391 Z M1089.60136,391 L1113.70314,391 L1113.70314,387 L1089.60136,387 L1089.60136,391 Z M1124.74979,391 L1148.85157,391 L1148.85157,387 L1124.74979,387 L1124.74979,391 Z M1159.89822,391 L1184,391 L1184,387 L1159.89822,387 L1159.89822,391 Z" id="Line" fill="#56453B" fill-rule="nonzero"></path>
            <path d="M31.7,377.33 C38.51,377.33 42.14,373.76 42.14,367.13 L42.14,356 L34.76,356 L34.76,367.31 C34.76,369.47 33.71,370.7 31.79,370.7 C29.87,370.7 28.82,369.47 28.82,367.31 L28.82,356 L21.32,356 L21.32,367.13 C21.32,373.82 24.89,377.33 31.7,377.33 Z M50.84,369.38 C53.03,370.01 53.51,370.28 53.51,370.79 C53.51,371.3 53.03,371.54 52.04,371.54 C51.05,371.54 49.82,371.27 48.35,370.7 C46.88,370.13 45.5,369.44 44.27,368.63 L44.18,368.69 L44.87,375.44 C46.76,376.64 49.49,377.36 52.16,377.36 C57.56,377.36 60.86,374.69 60.86,370.34 C60.86,368.57 60.38,367.16 59.39,366.11 C58.4,365.06 56.63,364.19 54.08,363.47 C52.13,362.9 51.56,362.6 51.56,362.12 C51.56,361.67 51.95,361.46 52.79,361.46 C53.69,361.46 54.8,361.64 56.12,362.03 C57.41,362.42 58.55,362.9 59.54,363.44 L59.6,363.44 L59.6,357.11 C57.71,356.18 55.31,355.64 52.79,355.64 C50.18,355.64 48.08,356.27 46.55,357.53 C44.99,358.82 44.21,360.5 44.21,362.6 C44.21,364.31 44.72,365.66 45.71,366.71 C46.7,367.76 48.41,368.66 50.84,369.38 Z M76.13,366.53 C76.13,363.8 74.45,362.39 71.24,362.39 L70.34,362.39 L70.34,370.61 L71.24,370.61 C74.45,370.61 76.13,369.17 76.13,366.53 Z M71.3,377 L62.84,377 L62.84,356 L71.3,356 C79.34,356 83.78,359.75 83.78,366.47 C83.78,369.77 82.7,372.35 80.51,374.21 C78.32,376.07 75.26,377 71.3,377 Z M102.17,376.91 C106.34,376.31 108.86,373.85 108.86,370.28 C108.86,368.45 108.38,367.04 107.39,366.05 C106.4,365.06 104.54,364.19 101.81,363.44 C100.1,362.96 99.56,362.72 99.56,362.27 C99.56,361.88 99.89,361.7 100.61,361.7 C101.57,361.7 102.74,361.88 104.12,362.27 C105.5,362.66 106.67,363.14 107.6,363.68 L107.66,363.68 L107.66,357.44 C106.61,356.96 105.44,356.57 104.24,356.33 L104.54,353 L99.5,353 L99.23,356.06 C94.55,356.51 91.76,359.03 91.76,362.75 C91.76,364.46 92.24,365.81 93.23,366.8 C94.22,367.79 96.05,368.69 98.72,369.44 C100.55,369.95 101.06,370.19 101.06,370.7 C101.06,371.09 100.64,371.3 99.77,371.3 C97.52,371.3 94.73,370.43 91.73,368.84 L91.67,368.87 L92.48,375.38 C93.92,376.1 95.42,376.58 97.13,376.85 L96.83,380.06 L101.87,380.06 L102.17,376.91 Z M121.55,355.43 L110.36,361.31 L110.36,368.81 L114.74,366.44 L114.74,377 L121.97,377 L121.97,355.61 L121.55,355.43 Z M144.47,366.47 C144.47,369.71 143.54,372.35 141.68,374.36 C139.79,376.4 137.42,377.42 134.54,377.42 C131.57,377.42 129.2,376.43 127.37,374.42 C125.54,372.44 124.64,369.8 124.64,366.53 C124.64,363.32 125.57,360.68 127.46,358.64 C129.32,356.6 131.69,355.58 134.6,355.58 C137.51,355.58 139.91,356.57 141.74,358.58 C143.57,360.59 144.47,363.2 144.47,366.47 Z M134.54,361.88 C132.74,361.88 131.72,363.56 131.72,366.47 C131.72,369.47 132.71,371.12 134.6,371.12 C136.4,371.12 137.39,369.44 137.39,366.53 C137.39,363.56 136.34,361.88 134.54,361.88 Z M166.07,382.55 C162.08,382.55 158.93,381.53 156.62,379.46 C154.31,377.39 153.14,374.54 153.14,370.94 C153.14,366.83 154.94,362.63 158.03,359.51 C161.15,356.39 165.2,354.65 169.49,354.65 C173.06,354.65 175.97,355.67 178.19,357.71 C180.38,359.78 181.49,362.45 181.49,365.75 C181.49,368.66 180.62,371.03 178.91,372.86 C177.17,374.69 175.04,375.59 172.49,375.59 C169.94,375.59 168.44,374.72 168.08,372.95 C166.97,374 166.07,374.69 165.38,375.05 C164.66,375.41 163.85,375.59 162.98,375.59 C160.58,375.59 159.02,373.61 159.02,370.52 C159.02,368 159.86,365.84 161.57,364.07 C163.25,362.3 165.35,361.43 167.87,361.43 C169.52,361.43 171.05,361.82 172.4,362.63 L173.66,361.67 L176.24,361.67 L174.05,370.64 C173.93,371.15 173.84,371.6 173.84,371.96 C173.84,372.71 174.41,373.19 175.28,373.19 C176.63,373.19 178.19,372.14 179.18,370.55 C180.02,369.23 180.44,367.61 180.44,365.81 C180.44,362.72 179.45,360.26 177.44,358.4 C175.43,356.54 172.76,355.61 169.43,355.61 C165.47,355.61 161.69,357.29 158.78,360.2 C155.9,363.11 154.22,367.04 154.22,370.88 C154.22,374.24 155.27,376.85 157.37,378.77 C159.47,380.66 162.38,381.59 166.13,381.59 C169.37,381.59 172.13,381.08 174.89,380 L174.89,381.05 C171.98,382.1 169.28,382.55 166.07,382.55 Z M164.81,369.26 C164.81,370.19 165.35,370.7 166.28,370.7 C166.85,370.7 167.45,370.55 168.17,370.19 L169.1,366.41 C168.71,366.29 168.35,366.23 167.9,366.23 C166.1,366.23 164.81,367.58 164.81,369.26 Z M200.24,376.91 C204.41,376.31 206.93,373.85 206.93,370.28 C206.93,368.45 206.45,367.04 205.46,366.05 C204.47,365.06 202.61,364.19 199.88,363.44 C198.17,362.96 197.63,362.72 197.63,362.27 C197.63,361.88 197.96,361.7 198.68,361.7 C199.64,361.7 200.81,361.88 202.19,362.27 C203.57,362.66 204.74,363.14 205.67,363.68 L205.73,363.68 L205.73,357.44 C204.68,356.96 203.51,356.57 202.31,356.33 L202.61,353 L197.57,353 L197.3,356.06 C192.62,356.51 189.83,359.03 189.83,362.75 C189.83,364.46 190.31,365.81 191.3,366.8 C192.29,367.79 194.12,368.69 196.79,369.44 C198.62,369.95 199.13,370.19 199.13,370.7 C199.13,371.09 198.71,371.3 197.84,371.3 C195.59,371.3 192.8,370.43 189.8,368.84 L189.74,368.87 L190.55,375.38 C191.99,376.1 193.49,376.58 195.2,376.85 L194.9,380.06 L199.94,380.06 L200.24,376.91 Z M225.08,370.79 L218.21,370.91 L220.4,368.84 C221.84,367.46 222.83,366.29 223.37,365.3 C223.88,364.34 224.15,363.26 224.15,362.09 C224.15,358.22 221.33,355.64 216.77,355.64 C213.62,355.64 210.95,356.54 208.52,358.58 L208.85,365.78 L208.91,365.78 C211.52,363.38 213.68,362.18 215.45,362.18 C216.41,362.18 216.92,362.6 216.92,363.35 C216.92,363.92 216.56,364.43 215.6,365.39 L208.19,372.59 L208.55,377 L223.49,377 L225.08,370.79 Z M230.03,377.33 C231.11,377.33 232.01,376.94 232.76,376.19 C233.51,375.44 233.87,374.54 233.87,373.49 C233.87,372.44 233.51,371.51 232.76,370.76 C232.01,370.01 231.11,369.65 230.03,369.65 C228.98,369.65 228.08,370.01 227.33,370.76 C226.58,371.51 226.19,372.44 226.19,373.49 C226.19,374.54 226.58,375.44 227.33,376.19 C228.08,376.94 228.98,377.33 230.03,377.33 Z M255.11,366.47 C255.11,369.71 254.18,372.35 252.32,374.36 C250.43,376.4 248.06,377.42 245.18,377.42 C242.21,377.42 239.84,376.43 238.01,374.42 C236.18,372.44 235.28,369.8 235.28,366.53 C235.28,363.32 236.21,360.68 238.1,358.64 C239.96,356.6 242.33,355.58 245.24,355.58 C248.15,355.58 250.55,356.57 252.38,358.58 C254.21,360.59 255.11,363.2 255.11,366.47 Z M245.18,361.88 C243.38,361.88 242.36,363.56 242.36,366.47 C242.36,369.47 243.35,371.12 245.24,371.12 C247.04,371.12 248.03,369.44 248.03,366.53 C248.03,363.56 246.98,361.88 245.18,361.88 Z M273.23,370.1 C273.23,365.78 270.41,363.5 265.04,363.5 C264.44,363.5 263.69,363.56 263.09,363.65 L263.21,362.03 L272.21,362.03 L272.21,356 L258.29,356 L257.57,368.6 L257.81,368.72 C259.82,368.27 261.11,368.12 262.58,368.12 C264.86,368.12 265.94,368.72 265.94,369.95 C265.94,371.03 265.04,371.63 263.39,371.63 C261.68,371.63 260,371.24 257.21,370.25 L257.69,376.16 C259.49,376.91 261.74,377.36 264.11,377.36 C266.9,377.36 269.12,376.7 270.77,375.41 C272.42,374.12 273.23,372.35 273.23,370.1 Z M289.55,353.6 L284.75,353.6 L274.22,379.7 L279.02,379.7 L289.55,353.6 Z M311.45,365.36 L311.45,377 L318.71,377 L318.71,356 L308.9,356 L304.91,363.98 L300.86,356 L290.99,356 L290.99,377 L298.19,377 L298.19,365.36 L304.67,377.27 L305.03,377.27 L311.45,365.36 Z M339.8,370.91 C339.8,372.8 339.08,374.27 337.61,375.35 C336.14,376.46 334.19,377 331.76,377 L321.65,377 L321.65,356 L331.52,356 C336.29,356 339.14,358.13 339.14,361.61 C339.14,363.41 338.15,365 336.35,366.08 C338.63,367.07 339.8,368.72 339.8,370.91 Z M330.38,361.34 L328.67,361.34 L328.67,364.25 L330.38,364.25 C331.58,364.25 332.18,363.74 332.18,362.75 C332.18,361.82 331.58,361.34 330.38,361.34 Z M330.56,368.72 L328.67,368.72 L328.67,371.72 L330.56,371.72 C331.85,371.72 332.51,371.21 332.51,370.25 C332.51,369.2 331.88,368.72 330.56,368.72 Z" id="USD-$10-@-$2.05/MB" fill="#382A2C"></path>
        </g>
    </g>
</svg>