<?xml version="1.0" encoding="UTF-8"?>
<svg width="1182px" height="662px" viewBox="0 0 1182 662" version="1.1" xmlns="http://www.w3.org/2000/svg" xmlns:xlink="http://www.w3.org/1999/xlink">
    <!-- Generator: Sketch 43.2 (39069) - http://www.bohemiancoding.com/sketch -->
    <title>project-reality</title>
    <desc>Created with Sketch.</desc>
    <defs>
        <rect id="path-1" x="0" y="0" width="1180" height="110"></rect>
        <rect id="path-2" x="0" y="0" width="1180" height="110"></rect>
        <rect id="path-3" x="0" y="0" width="1180" height="110"></rect>
        <rect id="path-4" x="0" y="0" width="1180" height="110"></rect>
        <rect id="path-5" x="0" y="0" width="1180" height="110"></rect>
        <rect id="path-6" x="0" y="0" width="1180" height="110"></rect>
    </defs>
    <g id="Page-1" stroke="none" stroke-width="1" fill="none" fill-rule="evenodd">
        <g id="project-reality">
            <g id="Group" transform="translate(1.000000, 1.000000)">
                <g id="Rectangle">
                    <use fill="#382A2C" fill-rule="evenodd" xlink:href="#path-1"></use>
                    <rect stroke="#382A2C" stroke-width="1" x="-0.5" y="-0.5" width="1181" height="111"></rect>
                </g>
                <rect id="Rectangle" fill="#56453B" x="5" y="5" width="160" height="100"></rect>
                <rect id="Rectangle-Copy-3" fill="#C700EB" x="173" y="5" width="160" height="100"></rect>
                <rect id="Rectangle-Copy-4" fill="#C700EB" x="342" y="5" width="160" height="100"></rect>
                <rect id="Rectangle-Copy-5" fill="#C700EB" x="510" y="5" width="160" height="100"></rect>
                <rect id="Rectangle-Copy-6" fill="#C700EB" x="678" y="5" width="160" height="100"></rect>
                <rect id="Rectangle-Copy-7" fill="#C700EB" x="847" y="5" width="160" height="100"></rect>
                <rect id="Rectangle-Copy-8" fill="#56453B" x="1015" y="5" width="160" height="100"></rect>
            </g>
            <g id="Group-Copy" transform="translate(1.000000, 111.000000)">
                <g id="Rectangle">
                    <use fill="#382A2C" fill-rule="evenodd" xlink:href="#path-2"></use>
                    <rect stroke="#382A2C" stroke-width="1" x="-0.5" y="-0.5" width="1181" height="111"></rect>
                </g>
                <rect id="Rectangle" fill="#56453B" x="5" y="5" width="160" height="100"></rect>
                <rect id="Rectangle-Copy-3" fill="#C700EB" x="173" y="5" width="160" height="100"></rect>
                <rect id="Rectangle-Copy-4" fill="#C700EB" x="342" y="5" width="160" height="100"></rect>
                <rect id="Rectangle-Copy-5" fill="#C700EB" x="510" y="5" width="160" height="100"></rect>
                <rect id="Rectangle-Copy-6" fill="#C700EB" x="678" y="5" width="160" height="100"></rect>
                <rect id="Rectangle-Copy-7" fill="#C700EB" x="847" y="5" width="160" height="100"></rect>
                <rect id="Rectangle-Copy-8" fill="#56453B" x="1015" y="5" width="160" height="100"></rect>
            </g>
            <g id="Group-Copy-2" transform="translate(1.000000, 221.000000)">
                <g id="Rectangle">
                    <use fill="#382A2C" fill-rule="evenodd" xlink:href="#path-3"></use>
                    <rect stroke="#382A2C" stroke-width="1" x="-0.5" y="-0.5" width="1181" height="111"></rect>
                </g>
                <rect id="Rectangle" fill="#56453B" x="5" y="5" width="160" height="100"></rect>
                <rect id="Rectangle-Copy-3" fill="#C700EB" x="173" y="5" width="160" height="100"></rect>
                <rect id="Rectangle-Copy-4" fill="#C700EB" x="342" y="5" width="160" height="100"></rect>
                <rect id="Rectangle-Copy-5" fill="#C700EB" x="510" y="5" width="160" height="100"></rect>
                <rect id="Rectangle-Copy-6" fill="#C700EB" x="678" y="5" width="160" height="100"></rect>
                <rect id="Rectangle-Copy-7" fill="#C700EB" x="847" y="5" width="160" height="100"></rect>
                <rect id="Rectangle-Copy-8" fill="#56453B" x="1015" y="5" width="160" height="100"></rect>
            </g>
            <g id="Group-Copy-3" transform="translate(1.000000, 331.000000)">
                <g id="Rectangle">
                    <use fill="#382A2C" fill-rule="evenodd" xlink:href="#path-4"></use>
                    <rect stroke="#382A2C" stroke-width="1" x="-0.5" y="-0.5" width="1181" height="111"></rect>
                </g>
                <rect id="Rectangle" fill="#56453B" x="5" y="5" width="160" height="100"></rect>
                <rect id="Rectangle-Copy-3" fill="#C700EB" x="173" y="5" width="160" height="100"></rect>
                <rect id="Rectangle-Copy-4" fill="#C700EB" x="342" y="5" width="160" height="100"></rect>
                <rect id="Rectangle-Copy-5" fill="#C700EB" x="510" y="5" width="160" height="100"></rect>
                <rect id="Rectangle-Copy-6" fill="#C700EB" x="678" y="5" width="160" height="100"></rect>
                <rect id="Rectangle-Copy-7" fill="#C700EB" x="847" y="5" width="160" height="100"></rect>
                <rect id="Rectangle-Copy-8" fill="#56453B" x="1015" y="5" width="160" height="100"></rect>
            </g>
            <g id="Group-Copy-4" transform="translate(1.000000, 441.000000)">
                <g id="Rectangle">
                    <use fill="#382A2C" fill-rule="evenodd" xlink:href="#path-5"></use>
                    <rect stroke="#382A2C" stroke-width="1" x="-0.5" y="-0.5" width="1181" height="111"></rect>
                </g>
                <rect id="Rectangle" fill="#56453B" x="5" y="5" width="160" height="100"></rect>
                <rect id="Rectangle-Copy-3" fill="#C700EB" x="173" y="5" width="160" height="100"></rect>
                <rect id="Rectangle-Copy-4" fill="#C700EB" x="342" y="5" width="160" height="100"></rect>
                <rect id="Rectangle-Copy-5" fill="#C700EB" x="510" y="5" width="160" height="100"></rect>
                <rect id="Rectangle-Copy-6" fill="#C700EB" x="678" y="5" width="160" height="100"></rect>
                <rect id="Rectangle-Copy-7" fill="#FF7800" x="847" y="5" width="160" height="100"></rect>
                <rect id="Rectangle-Copy-8" fill="#FF7800" x="1015" y="5" width="160" height="100"></rect>
            </g>
            <g id="Group-Copy-5" transform="translate(1.000000, 551.000000)">
                <g id="Rectangle">
                    <use fill="#382A2C" fill-rule="evenodd" xlink:href="#path-6"></use>
                    <rect stroke="#382A2C" stroke-width="1" x="-0.5" y="-0.5" width="1181" height="111"></rect>
                </g>
                <rect id="Rectangle" fill="#FF7800" x="5" y="5" width="160" height="100"></rect>
                <rect id="Rectangle-Copy-3" fill="#FFFCFF" x="173" y="5" width="160" height="100"></rect>
                <rect id="Rectangle-Copy-4" fill="#FFFCFF" x="342" y="5" width="160" height="100"></rect>
                <polygon id="Rectangle-Copy-3" fill="#FF7800" points="173 5 333 5 173 105"></polygon>
                <polygon id="Rectangle-Copy-4" fill="#FF7800" points="342 5 502 5 342 105"></polygon>
                <rect id="Rectangle-Copy-5" fill="#FFFCFF" x="510" y="5" width="160" height="100"></rect>
                <polygon id="Rectangle-Copy-5" fill="#FF7800" points="510 5 670 5 510 105"></polygon>
                <rect id="Rectangle-Copy-6" fill="#FFFCFF" x="678" y="5" width="160" height="100"></rect>
                <rect id="Rectangle-Copy-7" fill="#FFFCFF" x="847" y="5" width="160" height="100"></rect>
                <rect id="Rectangle-Copy-8" fill="#56453B" x="1015" y="5" width="160" height="100"></rect>
            </g>
            <g id="Group-2" transform="translate(591.261675, 274.977875) rotate(-10.000000) translate(-591.261675, -274.977875) translate(239.261675, 190.846006)">
                <path d="M116.943297,84.3059341 C116.943297,111.206196 97.7648902,127.31956 69.2298901,127.31956 L64.0079121,127.31956 C53.3263609,127.31956 44.6672527,118.660452 44.6672527,107.978901 L44.6672527,60.2848352 C44.6672527,49.603284 53.3263609,40.9441758 64.0079121,40.9441758 L69.2298901,40.9441758 C97.9130821,40.9441758 116.943297,57.0199279 116.943297,84.3059341 Z M69.578022,145.054945 C92.5547253,145.054945 110.309451,139.658901 123.016264,128.866813 C135.723077,118.074725 141.989451,103.105055 141.989451,83.9578022 C141.989451,44.967033 116.227692,23.2087912 69.578022,23.2087912 L20.4914286,23.2087912 L20.4914286,145.054945 L69.578022,145.054945 Z M69.578022,164.395604 L20.4914286,164.395604 C9.80987737,164.395604 1.15076923,155.736496 1.15076923,145.054945 L1.15076923,23.2087912 C1.15076923,12.52724 9.80987737,3.86813187 20.4914286,3.86813187 L69.578022,3.86813187 C126.173095,3.86813187 161.33011,33.4149845 161.33011,83.9578022 C161.33011,108.609442 152.734652,129.001425 135.536348,143.608203 C118.978735,157.670834 96.7978393,164.395604 69.578022,164.395604 Z M249.388132,109.371429 L197.516484,109.371429 L197.516484,98.9274725 L239.64044,98.9274725 L239.64044,69.5103297 L197.516484,69.5103297 L197.516484,58.8923077 L248.865934,58.8923077 L244.514286,23.2087912 L154.87033,23.2087912 L154.87033,145.054945 L245.036484,145.054945 L249.388132,109.371429 Z M268.586558,111.7127 L264.234909,147.396216 C263.051472,157.100403 254.812564,164.395604 245.036484,164.395604 L154.87033,164.395604 C144.188778,164.395604 135.52967,155.736496 135.52967,145.054945 L135.52967,23.2087912 C135.52967,12.52724 144.188778,3.86813187 154.87033,3.86813187 L244.514286,3.86813187 C254.290366,3.86813187 262.529274,11.1633337 263.712711,20.8675198 L268.06436,56.5510363 C269.018617,64.3759482 265.178829,71.5704638 258.981099,75.3833446 L258.981099,92.5703585 C265.483878,96.2938321 269.567338,103.670303 268.586558,111.7127 Z M296.734066,100.842198 C309.440879,104.497582 312.225934,106.064176 312.225934,109.023297 C312.225934,111.982418 309.440879,113.374945 303.696703,113.374945 C297.952527,113.374945 290.815824,111.808352 282.286593,108.501099 C273.757363,105.193846 265.75033,101.19033 258.613626,96.4905495 L258.091429,96.8386813 L262.094945,136.003516 C273.061099,142.966154 288.901099,147.143736 304.392967,147.143736 C335.724835,147.143736 354.872088,131.651868 354.872088,106.412308 C354.872088,96.1424176 352.087033,87.9613187 346.342857,81.869011 C340.598681,75.7767033 330.328791,70.7287912 315.533187,66.5512088 C304.218901,63.243956 300.911648,61.5032967 300.911648,58.7182418 C300.911648,56.1072527 303.174505,54.8887912 308.048352,54.8887912 C313.27033,54.8887912 319.710769,55.9331868 327.36967,58.196044 C334.854505,60.4589011 341.469011,63.243956 347.213187,66.3771429 L347.561319,66.3771429 L347.561319,29.6492308 C336.595165,24.2531868 322.66989,21.12 308.048352,21.12 C292.904615,21.12 280.72,24.7753846 271.842637,32.0861538 C262.791209,39.570989 258.265495,49.3186813 258.265495,61.5032967 C258.265495,71.4250549 261.224615,79.258022 266.968791,85.3503297 C272.712967,91.4426374 282.634725,96.6646154 296.734066,100.842198 Z M238.924835,61.5032967 C238.924835,43.6234144 245.968013,28.3857698 259.54764,17.1565141 C272.165756,6.76512432 288.666326,1.77934066 308.048352,1.77934066 C325.329818,1.77934066 342.219322,5.46532365 356.100368,12.2956794 C362.713243,15.5496339 366.901978,22.2791331 366.901978,29.6492308 L366.901978,66.3771429 C366.901978,69.2619878 366.270367,71.9993121 365.137888,74.4583741 C371.258452,83.3975986 374.212747,94.2202709 374.212747,106.412308 C374.212747,143.368479 345.586225,166.484396 304.392967,166.484396 C285.390668,166.484396 265.953868,161.363323 251.728194,152.331149 C246.727054,149.155821 243.456978,143.86363 242.85455,137.970312 L238.851033,98.8054773 C238.304982,93.4636702 240.005641,88.2238676 243.40016,84.2589915 C240.416143,77.3956775 238.924835,69.7610252 238.924835,61.5032967 Z M410.225055,23.2087912 L366.708571,23.2087912 L366.708571,145.054945 L410.225055,145.054945 L410.225055,23.2087912 Z M410.225055,3.86813187 C420.906606,3.86813187 429.565714,12.52724 429.565714,23.2087912 L429.565714,145.054945 C429.565714,155.736496 420.906606,164.395604 410.225055,164.395604 L366.708571,164.395604 C356.02702,164.395604 347.367912,155.736496 347.367912,145.054945 L347.367912,23.2087912 C347.367912,12.52724 356.02702,3.86813187 366.708571,3.86813187 L410.225055,3.86813187 Z M484.899341,73.861978 L484.899341,99.4496703 L502.48,99.4496703 L502.48,110.58989 C501.60967,110.763956 500.739341,110.763956 498.128352,110.763956 C479.155165,110.763956 468.363077,101.538462 468.363077,85.5243956 C468.363077,69.3362637 480.19956,59.5885714 499.520879,59.5885714 C511.357363,59.5885714 523.193846,62.3736264 537.815385,68.8140659 L537.815385,29.3010989 C524.064176,23.730989 511.009231,21.2940659 496.213626,21.2940659 C473.933187,21.2940659 456.178462,27.0382418 443.123516,38.7006593 C430.068571,50.3630769 423.454066,66.029011 423.454066,86.0465934 C423.454066,104.323516 429.546374,119.119121 441.730989,130.085275 C453.741538,141.225495 469.755604,146.795604 489.425055,146.795604 C504.916923,146.795604 522.323516,143.14022 540.60044,136.003516 L540.60044,73.861978 L484.899341,73.861978 Z M559.941099,73.861978 L559.941099,136.003516 C559.941099,143.970135 555.056163,151.121724 547.635223,154.019424 C527.262572,161.974459 507.506536,166.136264 489.425055,166.136264 C465.120288,166.136264 444.438881,158.922522 428.684864,144.363776 C412.379885,129.634134 404.113407,109.62465 404.113407,86.0465934 C404.113407,60.7864281 412.870522,39.7925499 430.238511,24.2771459 C447.066132,9.24447092 469.377886,1.95340659 496.213626,1.95340659 C513.625591,1.95340659 529.130744,4.91617459 545.076502,11.3752159 C552.378002,14.3327858 557.156044,21.4233371 557.156044,29.3010989 L557.156044,63.8578003 C558.923644,66.7766814 559.941099,70.2005101 559.941099,73.861978 Z M683.508571,23.2087912 L639.992088,23.2087912 L640.514286,69.1621978 L600.479121,23.2087912 L557.484835,23.2087912 L557.484835,145.054945 L601.001319,145.054945 L600.479121,90.9204396 L647.825055,145.054945 L683.508571,145.054945 L683.508571,23.2087912 Z M620.341078,144.868388 C620.444814,155.622368 611.755799,164.395604 601.001319,164.395604 L557.484835,164.395604 C546.803284,164.395604 538.144176,155.736496 538.144176,145.054945 L538.144176,23.2087912 C538.144176,12.52724 546.803284,3.86813187 557.484835,3.86813187 L600.479121,3.86813187 C606.07075,3.86813187 611.388731,6.28815794 615.061791,10.5041922 L621.417688,17.7996561 C623.755981,9.75830621 631.179698,3.86813187 639.992088,3.86813187 L683.508571,3.86813187 C694.190123,3.86813187 702.849231,12.52724 702.849231,23.2087912 L702.849231,145.054945 C702.849231,155.736496 694.190123,164.395604 683.508571,164.395604 L647.825055,164.395604 C642.246396,164.395604 636.939443,161.986749 633.266826,157.787544 L620.322937,142.987729 L620.341078,144.868388 Z" id="DESIGN" fill="#FFFCFF" fill-rule="nonzero"></path>
                <path d="M97.6026374,84.3059341 C97.6026374,68.4659341 87.8549451,60.2848352 69.2298901,60.2848352 L64.0079121,60.2848352 L64.0079121,107.978901 L69.2298901,107.978901 C87.8549451,107.978901 97.6026374,99.6237363 97.6026374,84.3059341 Z M69.578022,145.054945 L20.4914286,145.054945 L20.4914286,23.2087912 L69.578022,23.2087912 C116.227692,23.2087912 141.989451,44.967033 141.989451,83.9578022 C141.989451,103.105055 135.723077,118.074725 123.016264,128.866813 C110.309451,139.658901 92.5547253,145.054945 69.578022,145.054945 Z M249.388132,109.371429 L197.516484,109.371429 L197.516484,98.9274725 L239.64044,98.9274725 L239.64044,69.5103297 L197.516484,69.5103297 L197.516484,58.8923077 L248.865934,58.8923077 L244.514286,23.2087912 L154.87033,23.2087912 L154.87033,145.054945 L245.036484,145.054945 L249.388132,109.371429 Z M296.734066,100.842198 C309.440879,104.497582 312.225934,106.064176 312.225934,109.023297 C312.225934,111.982418 309.440879,113.374945 303.696703,113.374945 C297.952527,113.374945 290.815824,111.808352 282.286593,108.501099 C273.757363,105.193846 265.75033,101.19033 258.613626,96.4905495 L258.091429,96.8386813 L262.094945,136.003516 C273.061099,142.966154 288.901099,147.143736 304.392967,147.143736 C335.724835,147.143736 354.872088,131.651868 354.872088,106.412308 C354.872088,96.1424176 352.087033,87.9613187 346.342857,81.869011 C340.598681,75.7767033 330.328791,70.7287912 315.533187,66.5512088 C304.218901,63.243956 300.911648,61.5032967 300.911648,58.7182418 C300.911648,56.1072527 303.174505,54.8887912 308.048352,54.8887912 C313.27033,54.8887912 319.710769,55.9331868 327.36967,58.196044 C334.854505,60.4589011 341.469011,63.243956 347.213187,66.3771429 L347.561319,66.3771429 L347.561319,29.6492308 C336.595165,24.2531868 322.66989,21.12 308.048352,21.12 C292.904615,21.12 280.72,24.7753846 271.842637,32.0861538 C262.791209,39.570989 258.265495,49.3186813 258.265495,61.5032967 C258.265495,71.4250549 261.224615,79.258022 266.968791,85.3503297 C272.712967,91.4426374 282.634725,96.6646154 296.734066,100.842198 Z M410.225055,23.2087912 L366.708571,23.2087912 L366.708571,145.054945 L410.225055,145.054945 L410.225055,23.2087912 Z M484.899341,73.861978 L484.899341,99.4496703 L502.48,99.4496703 L502.48,110.58989 C501.60967,110.763956 500.739341,110.763956 498.128352,110.763956 C479.155165,110.763956 468.363077,101.538462 468.363077,85.5243956 C468.363077,69.3362637 480.19956,59.5885714 499.520879,59.5885714 C511.357363,59.5885714 523.193846,62.3736264 537.815385,68.8140659 L537.815385,29.3010989 C524.064176,23.730989 511.009231,21.2940659 496.213626,21.2940659 C473.933187,21.2940659 456.178462,27.0382418 443.123516,38.7006593 C430.068571,50.3630769 423.454066,66.029011 423.454066,86.0465934 C423.454066,104.323516 429.546374,119.119121 441.730989,130.085275 C453.741538,141.225495 469.755604,146.795604 489.425055,146.795604 C504.916923,146.795604 522.323516,143.14022 540.60044,136.003516 L540.60044,73.861978 L484.899341,73.861978 Z M683.508571,23.2087912 L639.992088,23.2087912 L640.514286,69.1621978 L600.479121,23.2087912 L557.484835,23.2087912 L557.484835,145.054945 L601.001319,145.054945 L600.479121,90.9204396 L647.825055,145.054945 L683.508571,145.054945 L683.508571,23.2087912 Z" id="DESIGN" fill="#382A2C"></path>
            </g>
            <path d="M92.67,617.49 C96.555,617.49 99.74,616.265 102.295,613.815 C104.85,611.4 106.11,608.355 106.11,604.715 C106.11,601.11 104.85,598.065 102.33,595.65 C99.775,593.235 96.59,592.01 92.74,592.01 C88.89,592.01 85.705,593.235 83.15,595.685 C80.595,598.135 79.3,601.18 79.3,604.785 C79.3,608.425 80.56,611.435 83.08,613.85 C85.6,616.265 88.785,617.49 92.67,617.49 Z M92.67,627.49 C86.2844308,627.49 80.6021974,625.326081 76.1609464,621.069882 C71.6487383,616.745683 69.3,611.118497 69.3,604.785 C69.3,598.469916 71.6962543,592.813452 76.2287992,588.467176 C80.6914414,584.18793 86.3696169,582.01 92.74,582.01 C99.078102,582.01 104.737104,584.165072 109.249054,588.430118 C113.754945,592.748264 116.11,598.406938 116.11,604.715 C116.11,611.081113 113.736898,616.760191 109.216201,621.032824 C104.748122,625.317283 99.0680191,627.49 92.67,627.49 Z M92.67,589.815 C101.045117,589.815 107.185,596.625908 107.185,604.785 C107.185,612.9414 101.119149,619.685 92.74,619.685 C84.3285647,619.685 78.225,612.877178 78.225,604.715 C78.225,596.5586 84.2908513,589.815 92.67,589.815 Z M133.41,592.5 L124.66,592.5 L124.66,600.69 L117.45,600.69 L117.45,592.5 L108.7,592.5 L108.7,617 L117.45,617 L117.45,608.67 L124.66,608.67 L124.66,617 L133.41,617 L133.41,592.5 Z M117.45,627 L108.7,627 C103.177153,627 98.7,622.522847 98.7,617 L98.7,592.5 C98.7,586.977153 103.177153,582.5 108.7,582.5 L117.45,582.5 C118.720989,582.5 119.936597,582.737115 121.055,583.169522 C122.173403,582.737115 123.389011,582.5 124.66,582.5 L133.41,582.5 C138.932847,582.5 143.41,586.977153 143.41,592.5 L143.41,617 C143.41,622.522847 138.932847,627 133.41,627 L124.66,627 C123.389011,627 122.173403,626.762885 121.055,626.330478 C119.936597,626.762885 118.720989,627 117.45,627 Z M143.735,608.11 C146.29,608.845 146.85,609.16 146.85,609.755 C146.85,610.35 146.29,610.63 145.135,610.63 C143.98,610.63 142.545,610.315 140.83,609.65 C139.115,608.985 137.505,608.18 136.07,607.235 L135.965,607.305 L136.77,615.18 C138.975,616.58 142.16,617.42 145.275,617.42 C151.575,617.42 155.425,614.305 155.425,609.23 C155.425,607.165 154.865,605.52 153.71,604.295 C152.555,603.07 150.49,602.055 147.515,601.215 C145.24,600.55 144.575,600.2 144.575,599.64 C144.575,599.115 145.03,598.87 146.01,598.87 C147.06,598.87 148.355,599.08 149.895,599.535 C151.4,599.99 152.73,600.55 153.885,601.18 L153.955,601.18 L153.955,593.795 C151.75,592.71 148.95,592.08 146.01,592.08 C142.965,592.08 140.515,592.815 138.73,594.285 C136.91,595.79 136,597.75 136,600.2 C136,602.195 136.595,603.77 137.75,604.995 C138.905,606.22 140.9,607.27 143.735,608.11 Z M126,600.2 C126,594.798413 128.216787,590.00248 132.372927,586.565698 C136.100036,583.496314 140.787362,582.08 146.01,582.08 C150.393438,582.08 154.712249,583.022542 158.370077,584.822425 C161.789234,586.504868 163.955,589.984325 163.955,593.795 L163.955,601.18 C163.955,601.406427 163.947475,601.631096 163.93266,601.853771 C164.939646,604.112445 165.425,606.605816 165.425,609.23 C165.425,620.358208 156.679747,627.42 145.275,627.42 C140.342448,627.42 135.298465,626.091047 131.409919,623.622128 C128.824102,621.98034 127.133324,619.244036 126.821841,616.196923 L126.016841,608.321923 C125.874202,606.926545 126.028064,605.544629 126.441567,604.254377 C126.147186,602.951661 126,601.595058 126,600.2 Z M182.445,592.5 L173.695,592.5 L173.695,600.69 L166.485,600.69 L166.485,592.5 L157.735,592.5 L157.735,617 L166.485,617 L166.485,608.67 L173.695,608.67 L173.695,617 L182.445,617 L182.445,592.5 Z M166.485,627 L157.735,627 C152.212153,627 147.735,622.522847 147.735,617 L147.735,592.5 C147.735,586.977153 152.212153,582.5 157.735,582.5 L166.485,582.5 C167.755989,582.5 168.971597,582.737115 170.09,583.169522 C171.208403,582.737115 172.424011,582.5 173.695,582.5 L182.445,582.5 C187.967847,582.5 192.445,586.977153 192.445,592.5 L192.445,617 C192.445,622.522847 187.967847,627 182.445,627 L173.695,627 C172.424011,627 171.208403,626.762885 170.09,626.330478 C168.971597,626.762885 167.755989,627 166.485,627 Z M194.695,592.5 L185.945,592.5 L185.945,617 L194.695,617 L194.695,592.5 Z M194.695,582.5 C200.217847,582.5 204.695,586.977153 204.695,592.5 L204.695,617 C204.695,622.522847 200.217847,627 194.695,627 L185.945,627 C180.422153,627 175.945,622.522847 175.945,617 L175.945,592.5 C175.945,586.977153 180.422153,582.5 185.945,582.5 L194.695,582.5 Z M197.495,592.5 L197.495,600.305 L205.09,600.305 L205.09,617 L213.84,617 L213.84,600.305 L221.435,600.305 L221.435,592.5 L197.495,592.5 Z M223.84,610.013908 L223.84,617 C223.84,622.522847 219.362847,627 213.84,627 L205.09,627 C199.567153,627 195.09,622.522847 195.09,617 L195.09,610.013908 C190.728811,608.937192 187.495,604.998744 187.495,600.305 L187.495,592.5 C187.495,586.977153 191.972153,582.5 197.495,582.5 L221.435,582.5 C226.957847,582.5 231.435,586.977153 231.435,592.5 L231.435,600.305 C231.435,604.998744 228.201189,608.937192 223.84,610.013908 Z M236.695,617.49 C240.58,617.49 243.765,616.265 246.32,613.815 C248.875,611.4 250.135,608.355 250.135,604.715 C250.135,601.11 248.875,598.065 246.355,595.65 C243.8,593.235 240.615,592.01 236.765,592.01 C232.915,592.01 229.73,593.235 227.175,595.685 C224.62,598.135 223.325,601.18 223.325,604.785 C223.325,608.425 224.585,611.435 227.105,613.85 C229.625,616.265 232.81,617.49 236.695,617.49 Z M236.695,627.49 C230.309431,627.49 224.627197,625.326081 220.185946,621.069882 C215.673738,616.745683 213.325,611.118497 213.325,604.785 C213.325,598.469916 215.721254,592.813452 220.253799,588.467176 C224.716441,584.18793 230.394617,582.01 236.765,582.01 C243.103102,582.01 248.762104,584.165072 253.274054,588.430118 C257.779945,592.748264 260.135,598.406938 260.135,604.715 C260.135,611.081113 257.761898,616.760191 253.241201,621.032824 C248.773122,625.317283 243.093019,627.49 236.695,627.49 Z M236.695,589.815 C245.070117,589.815 251.21,596.625908 251.21,604.785 C251.21,612.9414 245.144149,619.685 236.765,619.685 C228.353565,619.685 222.25,612.877178 222.25,604.715 C222.25,596.5586 228.315851,589.815 236.695,589.815 Z M277.435,592.5 L268.685,592.5 L268.685,600.69 L261.475,600.69 L261.475,592.5 L252.725,592.5 L252.725,617 L261.475,617 L261.475,608.67 L268.685,608.67 L268.685,617 L277.435,617 L277.435,592.5 Z M261.475,627 L252.725,627 C247.202153,627 242.725,622.522847 242.725,617 L242.725,592.5 C242.725,586.977153 247.202153,582.5 252.725,582.5 L261.475,582.5 C262.745989,582.5 263.961597,582.737115 265.08,583.169522 C266.198403,582.737115 267.414011,582.5 268.685,582.5 L277.435,582.5 C282.957847,582.5 287.435,586.977153 287.435,592.5 L287.435,617 C287.435,622.522847 282.957847,627 277.435,627 L268.685,627 C267.414011,627 266.198403,626.762885 265.08,626.330478 C263.961597,626.762885 262.745989,627 261.475,627 Z M287.76,608.11 C290.315,608.845 290.875,609.16 290.875,609.755 C290.875,610.35 290.315,610.63 289.16,610.63 C288.005,610.63 286.57,610.315 284.855,609.65 C283.14,608.985 281.53,608.18 280.095,607.235 L279.99,607.305 L280.795,615.18 C283,616.58 286.185,617.42 289.3,617.42 C295.6,617.42 299.45,614.305 299.45,609.23 C299.45,607.165 298.89,605.52 297.735,604.295 C296.58,603.07 294.515,602.055 291.54,601.215 C289.265,600.55 288.6,600.2 288.6,599.64 C288.6,599.115 289.055,598.87 290.035,598.87 C291.085,598.87 292.38,599.08 293.92,599.535 C295.425,599.99 296.755,600.55 297.91,601.18 L297.98,601.18 L297.98,593.795 C295.775,592.71 292.975,592.08 290.035,592.08 C286.99,592.08 284.54,592.815 282.755,594.285 C280.935,595.79 280.025,597.75 280.025,600.2 C280.025,602.195 280.62,603.77 281.775,604.995 C282.93,606.22 284.925,607.27 287.76,608.11 Z M270.025,600.2 C270.025,594.798413 272.241787,590.00248 276.397927,586.565698 C280.125036,583.496314 284.812362,582.08 290.035,582.08 C294.418438,582.08 298.737249,583.022542 302.395077,584.822425 C305.814234,586.504868 307.98,589.984325 307.98,593.795 L307.98,601.18 C307.98,601.406427 307.972475,601.631096 307.95766,601.853771 C308.964646,604.112445 309.45,606.605816 309.45,609.23 C309.45,620.358208 300.704747,627.42 289.3,627.42 C284.367448,627.42 279.323465,626.091047 275.434919,623.622128 C272.849102,621.98034 271.158324,619.244036 270.846841,616.196923 L270.041841,608.321923 C269.899202,606.926545 270.053064,605.544629 270.466567,604.254377 C270.172186,602.951661 270.025,601.595058 270.025,600.2 Z M326.47,592.5 L317.72,592.5 L317.72,600.69 L310.51,600.69 L310.51,592.5 L301.76,592.5 L301.76,617 L310.51,617 L310.51,608.67 L317.72,608.67 L317.72,617 L326.47,617 L326.47,592.5 Z M310.51,627 L301.76,627 C296.237153,627 291.76,622.522847 291.76,617 L291.76,592.5 C291.76,586.977153 296.237153,582.5 301.76,582.5 L310.51,582.5 C311.780989,582.5 312.996597,582.737115 314.115,583.169522 C315.233403,582.737115 316.449011,582.5 317.72,582.5 L326.47,582.5 C331.992847,582.5 336.47,586.977153 336.47,592.5 L336.47,617 C336.47,622.522847 331.992847,627 326.47,627 L317.72,627 C316.449011,627 315.233403,626.762885 314.115,626.330478 C312.996597,626.762885 311.780989,627 310.51,627 Z M338.72,592.5 L329.97,592.5 L329.97,617 L338.72,617 L338.72,592.5 Z M338.72,582.5 C344.242847,582.5 348.72,586.977153 348.72,592.5 L348.72,617 C348.72,622.522847 344.242847,627 338.72,627 L329.97,627 C324.447153,627 319.97,622.522847 319.97,617 L319.97,592.5 C319.97,586.977153 324.447153,582.5 329.97,582.5 L338.72,582.5 Z M341.52,592.5 L341.52,600.305 L349.115,600.305 L349.115,617 L357.865,617 L357.865,600.305 L365.46,600.305 L365.46,592.5 L341.52,592.5 Z M367.865,617 C367.865,622.522847 363.387847,627 357.865,627 L349.115,627 C343.592153,627 339.115,622.522847 339.115,617 L339.115,610.013908 C334.753811,608.937192 331.52,604.998744 331.52,600.305 L331.52,592.5 C331.52,586.977153 335.997153,582.5 341.52,582.5 L365.46,582.5 C370.982847,582.5 375.46,586.977153 375.46,592.5 L375.46,600.305 C375.46,604.998744 372.226189,608.937192 367.865,610.013908 L367.865,617 Z M380.72,617.49 C384.605,617.49 387.79,616.265 390.345,613.815 C392.9,611.4 394.16,608.355 394.16,604.715 C394.16,601.11 392.9,598.065 390.38,595.65 C387.825,593.235 384.64,592.01 380.79,592.01 C376.94,592.01 373.755,593.235 371.2,595.685 C368.645,598.135 367.35,601.18 367.35,604.785 C367.35,608.425 368.61,611.435 371.13,613.85 C373.65,616.265 376.835,617.49 380.72,617.49 Z M380.72,627.49 C374.334431,627.49 368.652197,625.326081 364.210946,621.069882 C359.698738,616.745683 357.35,611.118497 357.35,604.785 C357.35,598.469916 359.746254,592.813452 364.278799,588.467176 C368.741441,584.18793 374.419617,582.01 380.79,582.01 C387.128102,582.01 392.787104,584.165072 397.299054,588.430118 C401.804945,592.748264 404.16,598.406938 404.16,604.715 C404.16,611.081113 401.786898,616.760191 397.266201,621.032824 C392.798122,625.317283 387.118019,627.49 380.72,627.49 Z M380.72,589.815 C389.095117,589.815 395.235,596.625908 395.235,604.785 C395.235,612.9414 389.169149,619.685 380.79,619.685 C372.378565,619.685 366.275,612.877178 366.275,604.715 C366.275,596.5586 372.340851,589.815 380.72,589.815 Z M421.46,592.5 L412.71,592.5 L412.71,600.69 L405.5,600.69 L405.5,592.5 L396.75,592.5 L396.75,617 L405.5,617 L405.5,608.67 L412.71,608.67 L412.71,617 L421.46,617 L421.46,592.5 Z M405.5,627 L396.75,627 C391.227153,627 386.75,622.522847 386.75,617 L386.75,592.5 C386.75,586.977153 391.227153,582.5 396.75,582.5 L405.5,582.5 C406.770989,582.5 407.986597,582.737115 409.105,583.169522 C410.223403,582.737115 411.439011,582.5 412.71,582.5 L421.46,582.5 C426.982847,582.5 431.46,586.977153 431.46,592.5 L431.46,617 C431.46,622.522847 426.982847,627 421.46,627 L412.71,627 C411.439011,627 410.223403,626.762885 409.105,626.330478 C407.986597,626.762885 406.770989,627 405.5,627 Z M431.785,608.11 C434.34,608.845 434.9,609.16 434.9,609.755 C434.9,610.35 434.34,610.63 433.185,610.63 C432.03,610.63 430.595,610.315 428.88,609.65 C427.165,608.985 425.555,608.18 424.12,607.235 L424.015,607.305 L424.82,615.18 C427.025,616.58 430.21,617.42 433.325,617.42 C439.625,617.42 443.475,614.305 443.475,609.23 C443.475,607.165 442.915,605.52 441.76,604.295 C440.605,603.07 438.54,602.055 435.565,601.215 C433.29,600.55 432.625,600.2 432.625,599.64 C432.625,599.115 433.08,598.87 434.06,598.87 C435.11,598.87 436.405,599.08 437.945,599.535 C439.45,599.99 440.78,600.55 441.935,601.18 L442.005,601.18 L442.005,593.795 C439.8,592.71 437,592.08 434.06,592.08 C431.015,592.08 428.565,592.815 426.78,594.285 C424.96,595.79 424.05,597.75 424.05,600.2 C424.05,602.195 424.645,603.77 425.8,604.995 C426.955,606.22 428.95,607.27 431.785,608.11 Z M414.05,600.2 C414.05,594.798413 416.266787,590.00248 420.422927,586.565698 C424.150036,583.496314 428.837362,582.08 434.06,582.08 C438.443438,582.08 442.762249,583.022542 446.420077,584.822425 C449.839234,586.504868 452.005,589.984325 452.005,593.795 L452.005,601.18 C452.005,601.406427 451.997475,601.631096 451.98266,601.853771 C452.989646,604.112445 453.475,606.605816 453.475,609.23 C453.475,620.358208 444.729747,627.42 433.325,627.42 C428.392448,627.42 423.348465,626.091047 419.459919,623.622128 C416.874102,621.98034 415.183324,619.244036 414.871841,616.196923 L414.066841,608.321923 C413.924202,606.926545 414.078064,605.544629 414.491567,604.254377 C414.197186,602.951661 414.05,601.595058 414.05,600.2 Z M470.495,592.5 L461.745,592.5 L461.745,600.69 L454.535,600.69 L454.535,592.5 L445.785,592.5 L445.785,617 L454.535,617 L454.535,608.67 L461.745,608.67 L461.745,617 L470.495,617 L470.495,592.5 Z M454.535,627 L445.785,627 C440.262153,627 435.785,622.522847 435.785,617 L435.785,592.5 C435.785,586.977153 440.262153,582.5 445.785,582.5 L454.535,582.5 C455.805989,582.5 457.021597,582.737115 458.14,583.169522 C459.258403,582.737115 460.474011,582.5 461.745,582.5 L470.495,582.5 C476.017847,582.5 480.495,586.977153 480.495,592.5 L480.495,617 C480.495,622.522847 476.017847,627 470.495,627 L461.745,627 C460.474011,627 459.258403,626.762885 458.14,626.330478 C457.021597,626.762885 455.805989,627 454.535,627 Z M482.745,592.5 L473.995,592.5 L473.995,617 L482.745,617 L482.745,592.5 Z M482.745,582.5 C488.267847,582.5 492.745,586.977153 492.745,592.5 L492.745,617 C492.745,622.522847 488.267847,627 482.745,627 L473.995,627 C468.472153,627 463.995,622.522847 463.995,617 L463.995,592.5 C463.995,586.977153 468.472153,582.5 473.995,582.5 L482.745,582.5 Z M485.545,592.5 L485.545,600.305 L493.14,600.305 L493.14,617 L501.89,617 L501.89,600.305 L509.485,600.305 L509.485,592.5 L485.545,592.5 Z M511.89,617 C511.89,622.522847 507.412847,627 501.89,627 L493.14,627 C487.617153,627 483.14,622.522847 483.14,617 L483.14,610.013908 C478.778811,608.937192 475.545,604.998744 475.545,600.305 L475.545,592.5 C475.545,586.977153 480.022153,582.5 485.545,582.5 L509.485,582.5 C515.007847,582.5 519.485,586.977153 519.485,592.5 L519.485,600.305 C519.485,604.998744 516.251189,608.937192 511.89,610.013908 L511.89,617 Z M524.745,617.49 C528.63,617.49 531.815,616.265 534.37,613.815 C536.925,611.4 538.185,608.355 538.185,604.715 C538.185,601.11 536.925,598.065 534.405,595.65 C531.85,593.235 528.665,592.01 524.815,592.01 C520.965,592.01 517.78,593.235 515.225,595.685 C512.67,598.135 511.375,601.18 511.375,604.785 C511.375,608.425 512.635,611.435 515.155,613.85 C517.675,616.265 520.86,617.49 524.745,617.49 Z M524.745,627.49 C518.359431,627.49 512.677197,625.326081 508.235946,621.069882 C503.723738,616.745683 501.375,611.118497 501.375,604.785 C501.375,598.469916 503.771254,592.813452 508.303799,588.467176 C512.766441,584.18793 518.444617,582.01 524.815,582.01 C531.153102,582.01 536.812104,584.165072 541.324054,588.430118 C545.829945,592.748264 548.185,598.406938 548.185,604.715 C548.185,611.081113 545.811898,616.760191 541.291201,621.032824 C536.823122,625.317283 531.143019,627.49 524.745,627.49 Z M524.745,589.815 C533.120117,589.815 539.26,596.625908 539.26,604.785 C539.26,612.9414 533.194149,619.685 524.815,619.685 C516.403565,619.685 510.3,612.877178 510.3,604.715 C510.3,596.5586 516.365851,589.815 524.745,589.815 Z M565.485,592.5 L556.735,592.5 L556.735,600.69 L549.525,600.69 L549.525,592.5 L540.775,592.5 L540.775,617 L549.525,617 L549.525,608.67 L556.735,608.67 L556.735,617 L565.485,617 L565.485,592.5 Z M549.525,627 L540.775,627 C535.252153,627 530.775,622.522847 530.775,617 L530.775,592.5 C530.775,586.977153 535.252153,582.5 540.775,582.5 L549.525,582.5 C550.795989,582.5 552.011597,582.737115 553.13,583.169522 C554.248403,582.737115 555.464011,582.5 556.735,582.5 L565.485,582.5 C571.007847,582.5 575.485,586.977153 575.485,592.5 L575.485,617 C575.485,622.522847 571.007847,627 565.485,627 L556.735,627 C555.464011,627 554.248403,626.762885 553.13,626.330478 C552.011597,626.762885 550.795989,627 549.525,627 Z M575.81,608.11 C578.365,608.845 578.925,609.16 578.925,609.755 C578.925,610.35 578.365,610.63 577.21,610.63 C576.055,610.63 574.62,610.315 572.905,609.65 C571.19,608.985 569.58,608.18 568.145,607.235 L568.04,607.305 L568.845,615.18 C571.05,616.58 574.235,617.42 577.35,617.42 C583.65,617.42 587.5,614.305 587.5,609.23 C587.5,607.165 586.94,605.52 585.785,604.295 C584.63,603.07 582.565,602.055 579.59,601.215 C577.315,600.55 576.65,600.2 576.65,599.64 C576.65,599.115 577.105,598.87 578.085,598.87 C579.135,598.87 580.43,599.08 581.97,599.535 C583.475,599.99 584.805,600.55 585.96,601.18 L586.03,601.18 L586.03,593.795 C583.825,592.71 581.025,592.08 578.085,592.08 C575.04,592.08 572.59,592.815 570.805,594.285 C568.985,595.79 568.075,597.75 568.075,600.2 C568.075,602.195 568.67,603.77 569.825,604.995 C570.98,606.22 572.975,607.27 575.81,608.11 Z M558.075,600.2 C558.075,594.798413 560.291787,590.00248 564.447927,586.565698 C568.175036,583.496314 572.862362,582.08 578.085,582.08 C582.468438,582.08 586.787249,583.022542 590.445077,584.822425 C593.864234,586.504868 596.03,589.984325 596.03,593.795 L596.03,601.18 C596.03,601.406427 596.022475,601.631096 596.00766,601.853771 C597.014646,604.112445 597.5,606.605816 597.5,609.23 C597.5,620.358208 588.754747,627.42 577.35,627.42 C572.417448,627.42 567.373465,626.091047 563.484919,623.622128 C560.899102,621.98034 559.208324,619.244036 558.896841,616.196923 L558.091841,608.321923 C557.949202,606.926545 558.103064,605.544629 558.516567,604.254377 C558.222186,602.951661 558.075,601.595058 558.075,600.2 Z M614.52,592.5 L605.77,592.5 L605.77,600.69 L598.56,600.69 L598.56,592.5 L589.81,592.5 L589.81,617 L598.56,617 L598.56,608.67 L605.77,608.67 L605.77,617 L614.52,617 L614.52,592.5 Z M598.56,627 L589.81,627 C584.287153,627 579.81,622.522847 579.81,617 L579.81,592.5 C579.81,586.977153 584.287153,582.5 589.81,582.5 L598.56,582.5 C599.830989,582.5 601.046597,582.737115 602.165,583.169522 C603.283403,582.737115 604.499011,582.5 605.77,582.5 L614.52,582.5 C620.042847,582.5 624.52,586.977153 624.52,592.5 L624.52,617 C624.52,622.522847 620.042847,627 614.52,627 L605.77,627 C604.499011,627 603.283403,626.762885 602.165,626.330478 C601.046597,626.762885 599.830989,627 598.56,627 Z M626.77,592.5 L618.02,592.5 L618.02,617 L626.77,617 L626.77,592.5 Z M626.77,582.5 C632.292847,582.5 636.77,586.977153 636.77,592.5 L636.77,617 C636.77,622.522847 632.292847,627 626.77,627 L618.02,627 C612.497153,627 608.02,622.522847 608.02,617 L608.02,592.5 C608.02,586.977153 612.497153,582.5 618.02,582.5 L626.77,582.5 Z M629.57,592.5 L629.57,600.305 L637.165,600.305 L637.165,617 L645.915,617 L645.915,600.305 L653.51,600.305 L653.51,592.5 L629.57,592.5 Z M655.915,617 C655.915,622.522847 651.437847,627 645.915,627 L637.165,627 C631.642153,627 627.165,622.522847 627.165,617 L627.165,610.013908 C622.803811,608.937192 619.57,604.998744 619.57,600.305 L619.57,592.5 C619.57,586.977153 624.047153,582.5 629.57,582.5 L653.51,582.5 C659.032847,582.5 663.51,586.977153 663.51,592.5 L663.51,600.305 C663.51,604.998744 660.276189,608.937192 655.915,610.013908 L655.915,617 Z M668.77,617.49 C672.655,617.49 675.84,616.265 678.395,613.815 C680.95,611.4 682.21,608.355 682.21,604.715 C682.21,601.11 680.95,598.065 678.43,595.65 C675.875,593.235 672.69,592.01 668.84,592.01 C664.99,592.01 661.805,593.235 659.25,595.685 C656.695,598.135 655.4,601.18 655.4,604.785 C655.4,608.425 656.66,611.435 659.18,613.85 C661.7,616.265 664.885,617.49 668.77,617.49 Z M668.77,627.49 C662.384431,627.49 656.702197,625.326081 652.260946,621.069882 C647.748738,616.745683 645.4,611.118497 645.4,604.785 C645.4,598.469916 647.796254,592.813452 652.328799,588.467176 C656.791441,584.18793 662.469617,582.01 668.84,582.01 C675.178102,582.01 680.837104,584.165072 685.349054,588.430118 C689.854945,592.748264 692.21,598.406938 692.21,604.715 C692.21,611.081113 689.836898,616.760191 685.316201,621.032824 C680.848122,625.317283 675.168019,627.49 668.77,627.49 Z M668.77,589.815 C677.145117,589.815 683.285,596.625908 683.285,604.785 C683.285,612.9414 677.219149,619.685 668.84,619.685 C660.428565,619.685 654.325,612.877178 654.325,604.715 C654.325,596.5586 660.390851,589.815 668.77,589.815 Z M709.51,592.5 L700.76,592.5 L700.76,600.69 L693.55,600.69 L693.55,592.5 L684.8,592.5 L684.8,617 L693.55,617 L693.55,608.67 L700.76,608.67 L700.76,617 L709.51,617 L709.51,592.5 Z M693.55,627 L684.8,627 C679.277153,627 674.8,622.522847 674.8,617 L674.8,592.5 C674.8,586.977153 679.277153,582.5 684.8,582.5 L693.55,582.5 C694.820989,582.5 696.036597,582.737115 697.155,583.169522 C698.273403,582.737115 699.489011,582.5 700.76,582.5 L709.51,582.5 C715.032847,582.5 719.51,586.977153 719.51,592.5 L719.51,617 C719.51,622.522847 715.032847,627 709.51,627 L700.76,627 C699.489011,627 698.273403,626.762885 697.155,626.330478 C696.036597,626.762885 694.820989,627 693.55,627 Z M719.835,608.11 C722.39,608.845 722.95,609.16 722.95,609.755 C722.95,610.35 722.39,610.63 721.235,610.63 C720.08,610.63 718.645,610.315 716.93,609.65 C715.215,608.985 713.605,608.18 712.17,607.235 L712.065,607.305 L712.87,615.18 C715.075,616.58 718.26,617.42 721.375,617.42 C727.675,617.42 731.525,614.305 731.525,609.23 C731.525,607.165 730.965,605.52 729.81,604.295 C728.655,603.07 726.59,602.055 723.615,601.215 C721.34,600.55 720.675,600.2 720.675,599.64 C720.675,599.115 721.13,598.87 722.11,598.87 C723.16,598.87 724.455,599.08 725.995,599.535 C727.5,599.99 728.83,600.55 729.985,601.18 L730.055,601.18 L730.055,593.795 C727.85,592.71 725.05,592.08 722.11,592.08 C719.065,592.08 716.615,592.815 714.83,594.285 C713.01,595.79 712.1,597.75 712.1,600.2 C712.1,602.195 712.695,603.77 713.85,604.995 C715.005,606.22 717,607.27 719.835,608.11 Z M702.1,600.2 C702.1,594.798413 704.316787,590.00248 708.472927,586.565698 C712.200036,583.496314 716.887362,582.08 722.11,582.08 C726.493438,582.08 730.812249,583.022542 734.470077,584.822425 C737.889234,586.504868 740.055,589.984325 740.055,593.795 L740.055,601.18 C740.055,601.406427 740.047475,601.631096 740.03266,601.853771 C741.039646,604.112445 741.525,606.605816 741.525,609.23 C741.525,620.358208 732.779747,627.42 721.375,627.42 C716.442448,627.42 711.398465,626.091047 707.509919,623.622128 C704.924102,621.98034 703.233324,619.244036 702.921841,616.196923 L702.116841,608.321923 C701.974202,606.926545 702.128064,605.544629 702.541567,604.254377 C702.247186,602.951661 702.1,601.595058 702.1,600.2 Z M758.545,592.5 L749.795,592.5 L749.795,600.69 L742.585,600.69 L742.585,592.5 L733.835,592.5 L733.835,617 L742.585,617 L742.585,608.67 L749.795,608.67 L749.795,617 L758.545,617 L758.545,592.5 Z M742.585,627 L733.835,627 C728.312153,627 723.835,622.522847 723.835,617 L723.835,592.5 C723.835,586.977153 728.312153,582.5 733.835,582.5 L742.585,582.5 C743.855989,582.5 745.071597,582.737115 746.19,583.169522 C747.308403,582.737115 748.524011,582.5 749.795,582.5 L758.545,582.5 C764.067847,582.5 768.545,586.977153 768.545,592.5 L768.545,617 C768.545,622.522847 764.067847,627 758.545,627 L749.795,627 C748.524011,627 747.308403,626.762885 746.19,626.330478 C745.071597,626.762885 743.855989,627 742.585,627 Z M770.795,592.5 L762.045,592.5 L762.045,617 L770.795,617 L770.795,592.5 Z M770.795,582.5 C776.317847,582.5 780.795,586.977153 780.795,592.5 L780.795,617 C780.795,622.522847 776.317847,627 770.795,627 L762.045,627 C756.522153,627 752.045,622.522847 752.045,617 L752.045,592.5 C752.045,586.977153 756.522153,582.5 762.045,582.5 L770.795,582.5 Z M773.595,592.5 L773.595,600.305 L781.19,600.305 L781.19,617 L789.94,617 L789.94,600.305 L797.535,600.305 L797.535,592.5 L773.595,592.5 Z M799.94,617 C799.94,622.522847 795.462847,627 789.94,627 L781.19,627 C775.667153,627 771.19,622.522847 771.19,617 L771.19,610.013908 C766.828811,608.937192 763.595,604.998744 763.595,600.305 L763.595,592.5 C763.595,586.977153 768.072153,582.5 773.595,582.5 L797.535,582.5 C803.057847,582.5 807.535,586.977153 807.535,592.5 L807.535,600.305 C807.535,604.998744 804.301189,608.937192 799.94,610.013908 L799.94,617 Z M812.795,617.49 C816.68,617.49 819.865,616.265 822.42,613.815 C824.975,611.4 826.235,608.355 826.235,604.715 C826.235,601.11 824.975,598.065 822.455,595.65 C819.9,593.235 816.715,592.01 812.865,592.01 C809.015,592.01 805.83,593.235 803.275,595.685 C800.72,598.135 799.425,601.18 799.425,604.785 C799.425,608.425 800.685,611.435 803.205,613.85 C805.725,616.265 808.91,617.49 812.795,617.49 Z M812.795,627.49 C806.409431,627.49 800.727197,625.326081 796.285946,621.069882 C791.773738,616.745683 789.425,611.118497 789.425,604.785 C789.425,598.469916 791.821254,592.813452 796.353799,588.467176 C800.816441,584.18793 806.494617,582.01 812.865,582.01 C819.203102,582.01 824.862104,584.165072 829.374054,588.430118 C833.879945,592.748264 836.235,598.406938 836.235,604.715 C836.235,611.081113 833.861898,616.760191 829.341201,621.032824 C824.873122,625.317283 819.193019,627.49 812.795,627.49 Z M812.795,589.815 C821.170117,589.815 827.31,596.625908 827.31,604.785 C827.31,612.9414 821.244149,619.685 812.865,619.685 C804.453565,619.685 798.35,612.877178 798.35,604.715 C798.35,596.5586 804.415851,589.815 812.795,589.815 Z M853.535,592.5 L844.785,592.5 L844.785,600.69 L837.575,600.69 L837.575,592.5 L828.825,592.5 L828.825,617 L837.575,617 L837.575,608.67 L844.785,608.67 L844.785,617 L853.535,617 L853.535,592.5 Z M837.575,627 L828.825,627 C823.302153,627 818.825,622.522847 818.825,617 L818.825,592.5 C818.825,586.977153 823.302153,582.5 828.825,582.5 L837.575,582.5 C838.845989,582.5 840.061597,582.737115 841.18,583.169522 C842.298403,582.737115 843.514011,582.5 844.785,582.5 L853.535,582.5 C859.057847,582.5 863.535,586.977153 863.535,592.5 L863.535,617 C863.535,622.522847 859.057847,627 853.535,627 L844.785,627 C843.514011,627 842.298403,626.762885 841.18,626.330478 C840.061597,626.762885 838.845989,627 837.575,627 Z M863.86,608.11 C866.415,608.845 866.975,609.16 866.975,609.755 C866.975,610.35 866.415,610.63 865.26,610.63 C864.105,610.63 862.67,610.315 860.955,609.65 C859.24,608.985 857.63,608.18 856.195,607.235 L856.09,607.305 L856.895,615.18 C859.1,616.58 862.285,617.42 865.4,617.42 C871.7,617.42 875.55,614.305 875.55,609.23 C875.55,607.165 874.99,605.52 873.835,604.295 C872.68,603.07 870.615,602.055 867.64,601.215 C865.365,600.55 864.7,600.2 864.7,599.64 C864.7,599.115 865.155,598.87 866.135,598.87 C867.185,598.87 868.48,599.08 870.02,599.535 C871.525,599.99 872.855,600.55 874.01,601.18 L874.08,601.18 L874.08,593.795 C871.875,592.71 869.075,592.08 866.135,592.08 C863.09,592.08 860.64,592.815 858.855,594.285 C857.035,595.79 856.125,597.75 856.125,600.2 C856.125,602.195 856.72,603.77 857.875,604.995 C859.03,606.22 861.025,607.27 863.86,608.11 Z M846.566567,604.254377 C846.272186,602.951661 846.125,601.595058 846.125,600.2 C846.125,594.798413 848.341787,590.00248 852.497927,586.565698 C856.225036,583.496314 860.912362,582.08 866.135,582.08 C870.518438,582.08 874.837249,583.022542 878.495077,584.822425 C881.914234,586.504868 884.08,589.984325 884.08,593.795 L884.08,601.18 C884.08,601.406427 884.072475,601.631096 884.05766,601.853771 C885.064646,604.112445 885.55,606.605816 885.55,609.23 C885.55,620.358208 876.804747,627.42 865.4,627.42 C860.467448,627.42 855.423465,626.091047 851.534919,623.622128 C848.949102,621.98034 847.258324,619.244036 846.946841,616.196923 L846.141841,608.321923 C845.999202,606.926545 846.153064,605.544629 846.566567,604.254377 Z M902.57,592.5 L893.82,592.5 L893.82,600.69 L886.61,600.69 L886.61,592.5 L877.86,592.5 L877.86,617 L886.61,617 L886.61,608.67 L893.82,608.67 L893.82,617 L902.57,617 L902.57,592.5 Z M886.61,627 L877.86,627 C872.337153,627 867.86,622.522847 867.86,617 L867.86,592.5 C867.86,586.977153 872.337153,582.5 877.86,582.5 L886.61,582.5 C887.880989,582.5 889.096597,582.737115 890.215,583.169522 C891.333403,582.737115 892.549011,582.5 893.82,582.5 L902.57,582.5 C908.092847,582.5 912.57,586.977153 912.57,592.5 L912.57,617 C912.57,622.522847 908.092847,627 902.57,627 L893.82,627 C892.549011,627 891.333403,626.762885 890.215,626.330478 C889.096597,626.762885 887.880989,627 886.61,627 Z M914.82,592.5 L906.07,592.5 L906.07,617 L914.82,617 L914.82,592.5 Z M914.82,582.5 C920.342847,582.5 924.82,586.977153 924.82,592.5 L924.82,617 C924.82,622.522847 920.342847,627 914.82,627 L906.07,627 C900.547153,627 896.07,622.522847 896.07,617 L896.07,592.5 C896.07,586.977153 900.547153,582.5 906.07,582.5 L914.82,582.5 Z M917.62,592.5 L917.62,600.305 L925.215,600.305 L925.215,617 L933.965,617 L933.965,600.305 L941.56,600.305 L941.56,592.5 L917.62,592.5 Z M943.965,617 C943.965,622.522847 939.487847,627 933.965,627 L925.215,627 C919.692153,627 915.215,622.522847 915.215,617 L915.215,610.013908 C910.853811,608.937192 907.62,604.998744 907.62,600.305 L907.62,592.5 C907.62,586.977153 912.097153,582.5 917.62,582.5 L941.56,582.5 C947.082847,582.5 951.56,586.977153 951.56,592.5 L951.56,600.305 C951.56,604.998744 948.326189,608.937192 943.965,610.013908 L943.965,617 Z" id="OHSHITOHSHITOHSHITOH" fill="#FFFCFF" fill-rule="nonzero"></path>
            <path d="M92.67,617.49 C88.785,617.49 85.6,616.265 83.08,613.85 C80.56,611.435 79.3,608.425 79.3,604.785 C79.3,601.18 80.595,598.135 83.15,595.685 C85.705,593.235 88.89,592.01 92.74,592.01 C96.59,592.01 99.775,593.235 102.33,595.65 C104.85,598.065 106.11,601.11 106.11,604.715 C106.11,608.355 104.85,611.4 102.295,613.815 C99.74,616.265 96.555,617.49 92.67,617.49 Z M92.67,599.815 C90.045,599.815 88.225,601.88 88.225,604.715 C88.225,607.55 90.08,609.685 92.74,609.685 C95.365,609.685 97.185,607.62 97.185,604.785 C97.185,601.95 95.295,599.815 92.67,599.815 Z M133.41,592.5 L124.66,592.5 L124.66,600.69 L117.45,600.69 L117.45,592.5 L108.7,592.5 L108.7,617 L117.45,617 L117.45,608.67 L124.66,608.67 L124.66,617 L133.41,617 L133.41,592.5 Z M143.735,608.11 C146.29,608.845 146.85,609.16 146.85,609.755 C146.85,610.35 146.29,610.63 145.135,610.63 C143.98,610.63 142.545,610.315 140.83,609.65 C139.115,608.985 137.505,608.18 136.07,607.235 L135.965,607.305 L136.77,615.18 C138.975,616.58 142.16,617.42 145.275,617.42 C151.575,617.42 155.425,614.305 155.425,609.23 C155.425,607.165 154.865,605.52 153.71,604.295 C152.555,603.07 150.49,602.055 147.515,601.215 C145.24,600.55 144.575,600.2 144.575,599.64 C144.575,599.115 145.03,598.87 146.01,598.87 C147.06,598.87 148.355,599.08 149.895,599.535 C151.4,599.99 152.73,600.55 153.885,601.18 L153.955,601.18 L153.955,593.795 C151.75,592.71 148.95,592.08 146.01,592.08 C142.965,592.08 140.515,592.815 138.73,594.285 C136.91,595.79 136,597.75 136,600.2 C136,602.195 136.595,603.77 137.75,604.995 C138.905,606.22 140.9,607.27 143.735,608.11 Z M182.445,592.5 L173.695,592.5 L173.695,600.69 L166.485,600.69 L166.485,592.5 L157.735,592.5 L157.735,617 L166.485,617 L166.485,608.67 L173.695,608.67 L173.695,617 L182.445,617 L182.445,592.5 Z M194.695,592.5 L185.945,592.5 L185.945,617 L194.695,617 L194.695,592.5 Z M197.495,592.5 L197.495,600.305 L205.09,600.305 L205.09,617 L213.84,617 L213.84,600.305 L221.435,600.305 L221.435,592.5 L197.495,592.5 Z M236.695,617.49 C232.81,617.49 229.625,616.265 227.105,613.85 C224.585,611.435 223.325,608.425 223.325,604.785 C223.325,601.18 224.62,598.135 227.175,595.685 C229.73,593.235 232.915,592.01 236.765,592.01 C240.615,592.01 243.8,593.235 246.355,595.65 C248.875,598.065 250.135,601.11 250.135,604.715 C250.135,608.355 248.875,611.4 246.32,613.815 C243.765,616.265 240.58,617.49 236.695,617.49 Z M236.695,599.815 C234.07,599.815 232.25,601.88 232.25,604.715 C232.25,607.55 234.105,609.685 236.765,609.685 C239.39,609.685 241.21,607.62 241.21,604.785 C241.21,601.95 239.32,599.815 236.695,599.815 Z M277.435,592.5 L268.685,592.5 L268.685,600.69 L261.475,600.69 L261.475,592.5 L252.725,592.5 L252.725,617 L261.475,617 L261.475,608.67 L268.685,608.67 L268.685,617 L277.435,617 L277.435,592.5 Z M287.76,608.11 C290.315,608.845 290.875,609.16 290.875,609.755 C290.875,610.35 290.315,610.63 289.16,610.63 C288.005,610.63 286.57,610.315 284.855,609.65 C283.14,608.985 281.53,608.18 280.095,607.235 L279.99,607.305 L280.795,615.18 C283,616.58 286.185,617.42 289.3,617.42 C295.6,617.42 299.45,614.305 299.45,609.23 C299.45,607.165 298.89,605.52 297.735,604.295 C296.58,603.07 294.515,602.055 291.54,601.215 C289.265,600.55 288.6,600.2 288.6,599.64 C288.6,599.115 289.055,598.87 290.035,598.87 C291.085,598.87 292.38,599.08 293.92,599.535 C295.425,599.99 296.755,600.55 297.91,601.18 L297.98,601.18 L297.98,593.795 C295.775,592.71 292.975,592.08 290.035,592.08 C286.99,592.08 284.54,592.815 282.755,594.285 C280.935,595.79 280.025,597.75 280.025,600.2 C280.025,602.195 280.62,603.77 281.775,604.995 C282.93,606.22 284.925,607.27 287.76,608.11 Z M326.47,592.5 L317.72,592.5 L317.72,600.69 L310.51,600.69 L310.51,592.5 L301.76,592.5 L301.76,617 L310.51,617 L310.51,608.67 L317.72,608.67 L317.72,617 L326.47,617 L326.47,592.5 Z M338.72,592.5 L329.97,592.5 L329.97,617 L338.72,617 L338.72,592.5 Z M341.52,592.5 L341.52,600.305 L349.115,600.305 L349.115,617 L357.865,617 L357.865,600.305 L365.46,600.305 L365.46,592.5 L341.52,592.5 Z M380.72,617.49 C376.835,617.49 373.65,616.265 371.13,613.85 C368.61,611.435 367.35,608.425 367.35,604.785 C367.35,601.18 368.645,598.135 371.2,595.685 C373.755,593.235 376.94,592.01 380.79,592.01 C384.64,592.01 387.825,593.235 390.38,595.65 C392.9,598.065 394.16,601.11 394.16,604.715 C394.16,608.355 392.9,611.4 390.345,613.815 C387.79,616.265 384.605,617.49 380.72,617.49 Z M380.72,599.815 C378.095,599.815 376.275,601.88 376.275,604.715 C376.275,607.55 378.13,609.685 380.79,609.685 C383.415,609.685 385.235,607.62 385.235,604.785 C385.235,601.95 383.345,599.815 380.72,599.815 Z M421.46,592.5 L412.71,592.5 L412.71,600.69 L405.5,600.69 L405.5,592.5 L396.75,592.5 L396.75,617 L405.5,617 L405.5,608.67 L412.71,608.67 L412.71,617 L421.46,617 L421.46,592.5 Z M431.785,608.11 C434.34,608.845 434.9,609.16 434.9,609.755 C434.9,610.35 434.34,610.63 433.185,610.63 C432.03,610.63 430.595,610.315 428.88,609.65 C427.165,608.985 425.555,608.18 424.12,607.235 L424.015,607.305 L424.82,615.18 C427.025,616.58 430.21,617.42 433.325,617.42 C439.625,617.42 443.475,614.305 443.475,609.23 C443.475,607.165 442.915,605.52 441.76,604.295 C440.605,603.07 438.54,602.055 435.565,601.215 C433.29,600.55 432.625,600.2 432.625,599.64 C432.625,599.115 433.08,598.87 434.06,598.87 C435.11,598.87 436.405,599.08 437.945,599.535 C439.45,599.99 440.78,600.55 441.935,601.18 L442.005,601.18 L442.005,593.795 C439.8,592.71 437,592.08 434.06,592.08 C431.015,592.08 428.565,592.815 426.78,594.285 C424.96,595.79 424.05,597.75 424.05,600.2 C424.05,602.195 424.645,603.77 425.8,604.995 C426.955,606.22 428.95,607.27 431.785,608.11 Z M470.495,592.5 L461.745,592.5 L461.745,600.69 L454.535,600.69 L454.535,592.5 L445.785,592.5 L445.785,617 L454.535,617 L454.535,608.67 L461.745,608.67 L461.745,617 L470.495,617 L470.495,592.5 Z M482.745,592.5 L473.995,592.5 L473.995,617 L482.745,617 L482.745,592.5 Z M485.545,592.5 L485.545,600.305 L493.14,600.305 L493.14,617 L501.89,617 L501.89,600.305 L509.485,600.305 L509.485,592.5 L485.545,592.5 Z M524.745,617.49 C520.86,617.49 517.675,616.265 515.155,613.85 C512.635,611.435 511.375,608.425 511.375,604.785 C511.375,601.18 512.67,598.135 515.225,595.685 C517.78,593.235 520.965,592.01 524.815,592.01 C528.665,592.01 531.85,593.235 534.405,595.65 C536.925,598.065 538.185,601.11 538.185,604.715 C538.185,608.355 536.925,611.4 534.37,613.815 C531.815,616.265 528.63,617.49 524.745,617.49 Z M524.745,599.815 C522.12,599.815 520.3,601.88 520.3,604.715 C520.3,607.55 522.155,609.685 524.815,609.685 C527.44,609.685 529.26,607.62 529.26,604.785 C529.26,601.95 527.37,599.815 524.745,599.815 Z M565.485,592.5 L556.735,592.5 L556.735,600.69 L549.525,600.69 L549.525,592.5 L540.775,592.5 L540.775,617 L549.525,617 L549.525,608.67 L556.735,608.67 L556.735,617 L565.485,617 L565.485,592.5 Z M575.81,608.11 C578.365,608.845 578.925,609.16 578.925,609.755 C578.925,610.35 578.365,610.63 577.21,610.63 C576.055,610.63 574.62,610.315 572.905,609.65 C571.19,608.985 569.58,608.18 568.145,607.235 L568.04,607.305 L568.845,615.18 C571.05,616.58 574.235,617.42 577.35,617.42 C583.65,617.42 587.5,614.305 587.5,609.23 C587.5,607.165 586.94,605.52 585.785,604.295 C584.63,603.07 582.565,602.055 579.59,601.215 C577.315,600.55 576.65,600.2 576.65,599.64 C576.65,599.115 577.105,598.87 578.085,598.87 C579.135,598.87 580.43,599.08 581.97,599.535 C583.475,599.99 584.805,600.55 585.96,601.18 L586.03,601.18 L586.03,593.795 C583.825,592.71 581.025,592.08 578.085,592.08 C575.04,592.08 572.59,592.815 570.805,594.285 C568.985,595.79 568.075,597.75 568.075,600.2 C568.075,602.195 568.67,603.77 569.825,604.995 C570.98,606.22 572.975,607.27 575.81,608.11 Z M614.52,592.5 L605.77,592.5 L605.77,600.69 L598.56,600.69 L598.56,592.5 L589.81,592.5 L589.81,617 L598.56,617 L598.56,608.67 L605.77,608.67 L605.77,617 L614.52,617 L614.52,592.5 Z M626.77,592.5 L618.02,592.5 L618.02,617 L626.77,617 L626.77,592.5 Z M629.57,592.5 L629.57,600.305 L637.165,600.305 L637.165,617 L645.915,617 L645.915,600.305 L653.51,600.305 L653.51,592.5 L629.57,592.5 Z M668.77,617.49 C664.885,617.49 661.7,616.265 659.18,613.85 C656.66,611.435 655.4,608.425 655.4,604.785 C655.4,601.18 656.695,598.135 659.25,595.685 C661.805,593.235 664.99,592.01 668.84,592.01 C672.69,592.01 675.875,593.235 678.43,595.65 C680.95,598.065 682.21,601.11 682.21,604.715 C682.21,608.355 680.95,611.4 678.395,613.815 C675.84,616.265 672.655,617.49 668.77,617.49 Z M668.77,599.815 C666.145,599.815 664.325,601.88 664.325,604.715 C664.325,607.55 666.18,609.685 668.84,609.685 C671.465,609.685 673.285,607.62 673.285,604.785 C673.285,601.95 671.395,599.815 668.77,599.815 Z M709.51,592.5 L700.76,592.5 L700.76,600.69 L693.55,600.69 L693.55,592.5 L684.8,592.5 L684.8,617 L693.55,617 L693.55,608.67 L700.76,608.67 L700.76,617 L709.51,617 L709.51,592.5 Z M719.835,608.11 C722.39,608.845 722.95,609.16 722.95,609.755 C722.95,610.35 722.39,610.63 721.235,610.63 C720.08,610.63 718.645,610.315 716.93,609.65 C715.215,608.985 713.605,608.18 712.17,607.235 L712.065,607.305 L712.87,615.18 C715.075,616.58 718.26,617.42 721.375,617.42 C727.675,617.42 731.525,614.305 731.525,609.23 C731.525,607.165 730.965,605.52 729.81,604.295 C728.655,603.07 726.59,602.055 723.615,601.215 C721.34,600.55 720.675,600.2 720.675,599.64 C720.675,599.115 721.13,598.87 722.11,598.87 C723.16,598.87 724.455,599.08 725.995,599.535 C727.5,599.99 728.83,600.55 729.985,601.18 L730.055,601.18 L730.055,593.795 C727.85,592.71 725.05,592.08 722.11,592.08 C719.065,592.08 716.615,592.815 714.83,594.285 C713.01,595.79 712.1,597.75 712.1,600.2 C712.1,602.195 712.695,603.77 713.85,604.995 C715.005,606.22 717,607.27 719.835,608.11 Z M758.545,592.5 L749.795,592.5 L749.795,600.69 L742.585,600.69 L742.585,592.5 L733.835,592.5 L733.835,617 L742.585,617 L742.585,608.67 L749.795,608.67 L749.795,617 L758.545,617 L758.545,592.5 Z M770.795,592.5 L762.045,592.5 L762.045,617 L770.795,617 L770.795,592.5 Z M773.595,592.5 L773.595,600.305 L781.19,600.305 L781.19,617 L789.94,617 L789.94,600.305 L797.535,600.305 L797.535,592.5 L773.595,592.5 Z M812.795,617.49 C808.91,617.49 805.725,616.265 803.205,613.85 C800.685,611.435 799.425,608.425 799.425,604.785 C799.425,601.18 800.72,598.135 803.275,595.685 C805.83,593.235 809.015,592.01 812.865,592.01 C816.715,592.01 819.9,593.235 822.455,595.65 C824.975,598.065 826.235,601.11 826.235,604.715 C826.235,608.355 824.975,611.4 822.42,613.815 C819.865,616.265 816.68,617.49 812.795,617.49 Z M812.795,599.815 C810.17,599.815 808.35,601.88 808.35,604.715 C808.35,607.55 810.205,609.685 812.865,609.685 C815.49,609.685 817.31,607.62 817.31,604.785 C817.31,601.95 815.42,599.815 812.795,599.815 Z M853.535,592.5 L844.785,592.5 L844.785,600.69 L837.575,600.69 L837.575,592.5 L828.825,592.5 L828.825,617 L837.575,617 L837.575,608.67 L844.785,608.67 L844.785,617 L853.535,617 L853.535,592.5 Z M863.86,608.11 C866.415,608.845 866.975,609.16 866.975,609.755 C866.975,610.35 866.415,610.63 865.26,610.63 C864.105,610.63 862.67,610.315 860.955,609.65 C859.24,608.985 857.63,608.18 856.195,607.235 L856.09,607.305 L856.895,615.18 C859.1,616.58 862.285,617.42 865.4,617.42 C871.7,617.42 875.55,614.305 875.55,609.23 C875.55,607.165 874.99,605.52 873.835,604.295 C872.68,603.07 870.615,602.055 867.64,601.215 C865.365,600.55 864.7,600.2 864.7,599.64 C864.7,599.115 865.155,598.87 866.135,598.87 C867.185,598.87 868.48,599.08 870.02,599.535 C871.525,599.99 872.855,600.55 874.01,601.18 L874.08,601.18 L874.08,593.795 C871.875,592.71 869.075,592.08 866.135,592.08 C863.09,592.08 860.64,592.815 858.855,594.285 C857.035,595.79 856.125,597.75 856.125,600.2 C856.125,602.195 856.72,603.77 857.875,604.995 C859.03,606.22 861.025,607.27 863.86,608.11 Z M902.57,592.5 L893.82,592.5 L893.82,600.69 L886.61,600.69 L886.61,592.5 L877.86,592.5 L877.86,617 L886.61,617 L886.61,608.67 L893.82,608.67 L893.82,617 L902.57,617 L902.57,592.5 Z M914.82,592.5 L906.07,592.5 L906.07,617 L914.82,617 L914.82,592.5 Z M917.62,592.5 L917.62,600.305 L925.215,600.305 L925.215,617 L933.965,617 L933.965,600.305 L941.56,600.305 L941.56,592.5 L917.62,592.5 Z" id="OHSHITOHSHITOHSHITOH" fill="#382A2C"></path>
            <path d="M883.22,510.49 C887.105,510.49 890.29,509.265 892.845,506.815 C895.4,504.4 896.66,501.355 896.66,497.715 C896.66,494.11 895.4,491.065 892.88,488.65 C890.325,486.235 887.14,485.01 883.29,485.01 C879.44,485.01 876.255,486.235 873.7,488.685 C871.145,491.135 869.85,494.18 869.85,497.785 C869.85,501.425 871.11,504.435 873.63,506.85 C876.15,509.265 879.335,510.49 883.22,510.49 Z M883.22,520.49 C876.834431,520.49 871.152197,518.326081 866.710946,514.069882 C862.198738,509.745683 859.85,504.118497 859.85,497.785 C859.85,491.469916 862.246254,485.813452 866.778799,481.467176 C871.241441,477.18793 876.919617,475.01 883.29,475.01 C889.628102,475.01 895.287104,477.165072 899.799054,481.430118 C904.304945,485.748264 906.66,491.406938 906.66,497.715 C906.66,504.081113 904.286898,509.760191 899.766201,514.032824 C895.298122,518.317283 889.618019,520.49 883.22,520.49 Z M883.22,482.815 C891.595117,482.815 897.735,489.625908 897.735,497.785 C897.735,505.9414 891.669149,512.685 883.29,512.685 C874.878565,512.685 868.775,505.877178 868.775,497.715 C868.775,489.5586 874.840851,482.815 883.22,482.815 Z M923.96,485.5 L915.21,485.5 L915.21,493.69 L908,493.69 L908,485.5 L899.25,485.5 L899.25,510 L908,510 L908,501.67 L915.21,501.67 L915.21,510 L923.96,510 L923.96,485.5 Z M908,520 L899.25,520 C893.727153,520 889.25,515.522847 889.25,510 L889.25,485.5 C889.25,479.977153 893.727153,475.5 899.25,475.5 L908,475.5 C909.270989,475.5 910.486597,475.737115 911.605,476.169522 C912.723403,475.737115 913.939011,475.5 915.21,475.5 L923.96,475.5 C929.482847,475.5 933.96,479.977153 933.96,485.5 L933.96,510 C933.96,515.522847 929.482847,520 923.96,520 L915.21,520 C913.939011,520 912.723403,519.762885 911.605,519.330478 C910.486597,519.762885 909.270989,520 908,520 Z M934.285,501.11 C936.84,501.845 937.4,502.16 937.4,502.755 C937.4,503.35 936.84,503.63 935.685,503.63 C934.53,503.63 933.095,503.315 931.38,502.65 C929.665,501.985 928.055,501.18 926.62,500.235 L926.515,500.305 L927.32,508.18 C929.525,509.58 932.71,510.42 935.825,510.42 C942.125,510.42 945.975,507.305 945.975,502.23 C945.975,500.165 945.415,498.52 944.26,497.295 C943.105,496.07 941.04,495.055 938.065,494.215 C935.79,493.55 935.125,493.2 935.125,492.64 C935.125,492.115 935.58,491.87 936.56,491.87 C937.61,491.87 938.905,492.08 940.445,492.535 C941.95,492.99 943.28,493.55 944.435,494.18 L944.505,494.18 L944.505,486.795 C942.3,485.71 939.5,485.08 936.56,485.08 C933.515,485.08 931.065,485.815 929.28,487.285 C927.46,488.79 926.55,490.75 926.55,493.2 C926.55,495.195 927.145,496.77 928.3,497.995 C929.455,499.22 931.45,500.27 934.285,501.11 Z M916.55,493.2 C916.55,487.798413 918.766787,483.00248 922.922927,479.565698 C926.650036,476.496314 931.337362,475.08 936.56,475.08 C940.943438,475.08 945.262249,476.022542 948.920077,477.822425 C952.339234,479.504868 954.505,482.984325 954.505,486.795 L954.505,494.18 C954.505,494.406427 954.497475,494.631096 954.48266,494.853771 C955.489646,497.112445 955.975,499.605816 955.975,502.23 C955.975,513.358208 947.229747,520.42 935.825,520.42 C930.892448,520.42 925.848465,519.091047 921.959919,516.622128 C919.374102,514.98034 917.683324,512.244036 917.371841,509.196923 L916.566841,501.321923 C916.424202,499.926545 916.578064,498.544629 916.991567,497.254377 C916.697186,495.951661 916.55,494.595058 916.55,493.2 Z M972.995,485.5 L964.245,485.5 L964.245,493.69 L957.035,493.69 L957.035,485.5 L948.285,485.5 L948.285,510 L957.035,510 L957.035,501.67 L964.245,501.67 L964.245,510 L972.995,510 L972.995,485.5 Z M957.035,520 L948.285,520 C942.762153,520 938.285,515.522847 938.285,510 L938.285,485.5 C938.285,479.977153 942.762153,475.5 948.285,475.5 L957.035,475.5 C958.305989,475.5 959.521597,475.737115 960.64,476.169522 C961.758403,475.737115 962.974011,475.5 964.245,475.5 L972.995,475.5 C978.517847,475.5 982.995,479.977153 982.995,485.5 L982.995,510 C982.995,515.522847 978.517847,520 972.995,520 L964.245,520 C962.974011,520 961.758403,519.762885 960.64,519.330478 C959.521597,519.762885 958.305989,520 957.035,520 Z M985.245,485.5 L976.495,485.5 L976.495,510 L985.245,510 L985.245,485.5 Z M985.245,475.5 C990.767847,475.5 995.245,479.977153 995.245,485.5 L995.245,510 C995.245,515.522847 990.767847,520 985.245,520 L976.495,520 C970.972153,520 966.495,515.522847 966.495,510 L966.495,485.5 C966.495,479.977153 970.972153,475.5 976.495,475.5 L985.245,475.5 Z M988.045,485.5 L988.045,493.305 L995.64,493.305 L995.64,510 L1004.39,510 L1004.39,493.305 L1011.985,493.305 L1011.985,485.5 L988.045,485.5 Z M1014.39,510 C1014.39,515.522847 1009.91285,520 1004.39,520 L995.64,520 C990.117153,520 985.64,515.522847 985.64,510 L985.64,503.013908 C981.278811,501.937192 978.045,497.998744 978.045,493.305 L978.045,485.5 C978.045,479.977153 982.522153,475.5 988.045,475.5 L1011.985,475.5 C1017.50785,475.5 1021.985,479.977153 1021.985,485.5 L1021.985,493.305 C1021.985,497.998744 1018.75119,501.937192 1014.39,503.013908 L1014.39,510 Z M1027.245,510.49 C1031.13,510.49 1034.315,509.265 1036.87,506.815 C1039.425,504.4 1040.685,501.355 1040.685,497.715 C1040.685,494.11 1039.425,491.065 1036.905,488.65 C1034.35,486.235 1031.165,485.01 1027.315,485.01 C1023.465,485.01 1020.28,486.235 1017.725,488.685 C1015.17,491.135 1013.875,494.18 1013.875,497.785 C1013.875,501.425 1015.135,504.435 1017.655,506.85 C1020.175,509.265 1023.36,510.49 1027.245,510.49 Z M1027.245,520.49 C1020.85943,520.49 1015.1772,518.326081 1010.73595,514.069882 C1006.22374,509.745683 1003.875,504.118497 1003.875,497.785 C1003.875,491.469916 1006.27125,485.813452 1010.8038,481.467176 C1015.26644,477.18793 1020.94462,475.01 1027.315,475.01 C1033.6531,475.01 1039.3121,477.165072 1043.82405,481.430118 C1048.32994,485.748264 1050.685,491.406938 1050.685,497.715 C1050.685,504.081113 1048.3119,509.760191 1043.7912,514.032824 C1039.32312,518.317283 1033.64302,520.49 1027.245,520.49 Z M1027.245,482.815 C1035.62012,482.815 1041.76,489.625908 1041.76,497.785 C1041.76,505.9414 1035.69415,512.685 1027.315,512.685 C1018.90356,512.685 1012.8,505.877178 1012.8,497.715 C1012.8,489.5586 1018.86585,482.815 1027.245,482.815 Z M1067.985,485.5 L1059.235,485.5 L1059.235,493.69 L1052.025,493.69 L1052.025,485.5 L1043.275,485.5 L1043.275,510 L1052.025,510 L1052.025,501.67 L1059.235,501.67 L1059.235,510 L1067.985,510 L1067.985,485.5 Z M1052.025,520 L1043.275,520 C1037.75215,520 1033.275,515.522847 1033.275,510 L1033.275,485.5 C1033.275,479.977153 1037.75215,475.5 1043.275,475.5 L1052.025,475.5 C1053.29599,475.5 1054.5116,475.737115 1055.63,476.169522 C1056.7484,475.737115 1057.96401,475.5 1059.235,475.5 L1067.985,475.5 C1073.50785,475.5 1077.985,479.977153 1077.985,485.5 L1077.985,510 C1077.985,515.522847 1073.50785,520 1067.985,520 L1059.235,520 C1057.96401,520 1056.7484,519.762885 1055.63,519.330478 C1054.5116,519.762885 1053.29599,520 1052.025,520 Z M1078.31,501.11 C1080.865,501.845 1081.425,502.16 1081.425,502.755 C1081.425,503.35 1080.865,503.63 1079.71,503.63 C1078.555,503.63 1077.12,503.315 1075.405,502.65 C1073.69,501.985 1072.08,501.18 1070.645,500.235 L1070.54,500.305 L1071.345,508.18 C1073.55,509.58 1076.735,510.42 1079.85,510.42 C1086.15,510.42 1090,507.305 1090,502.23 C1090,500.165 1089.44,498.52 1088.285,497.295 C1087.13,496.07 1085.065,495.055 1082.09,494.215 C1079.815,493.55 1079.15,493.2 1079.15,492.64 C1079.15,492.115 1079.605,491.87 1080.585,491.87 C1081.635,491.87 1082.93,492.08 1084.47,492.535 C1085.975,492.99 1087.305,493.55 1088.46,494.18 L1088.53,494.18 L1088.53,486.795 C1086.325,485.71 1083.525,485.08 1080.585,485.08 C1077.54,485.08 1075.09,485.815 1073.305,487.285 C1071.485,488.79 1070.575,490.75 1070.575,493.2 C1070.575,495.195 1071.17,496.77 1072.325,497.995 C1073.48,499.22 1075.475,500.27 1078.31,501.11 Z M1060.575,493.2 C1060.575,487.798413 1062.79179,483.00248 1066.94793,479.565698 C1070.67504,476.496314 1075.36236,475.08 1080.585,475.08 C1084.96844,475.08 1089.28725,476.022542 1092.94508,477.822425 C1096.36423,479.504868 1098.53,482.984325 1098.53,486.795 L1098.53,494.18 C1098.53,494.406427 1098.52247,494.631096 1098.50766,494.853771 C1099.51465,497.112445 1100,499.605816 1100,502.23 C1100,513.358208 1091.25475,520.42 1079.85,520.42 C1074.91745,520.42 1069.87347,519.091047 1065.98492,516.622128 C1063.3991,514.98034 1061.70832,512.244036 1061.39684,509.196923 L1060.59184,501.321923 C1060.4492,499.926545 1060.60306,498.544629 1061.01657,497.254377 C1060.72219,495.951661 1060.575,494.595058 1060.575,493.2 Z M1117.02,485.5 L1108.27,485.5 L1108.27,493.69 L1101.06,493.69 L1101.06,485.5 L1092.31,485.5 L1092.31,510 L1101.06,510 L1101.06,501.67 L1108.27,501.67 L1108.27,510 L1117.02,510 L1117.02,485.5 Z M1101.06,520 L1092.31,520 C1086.78715,520 1082.31,515.522847 1082.31,510 L1082.31,485.5 C1082.31,479.977153 1086.78715,475.5 1092.31,475.5 L1101.06,475.5 C1102.33099,475.5 1103.5466,475.737115 1104.665,476.169522 C1105.7834,475.737115 1106.99901,475.5 1108.27,475.5 L1117.02,475.5 C1122.54285,475.5 1127.02,479.977153 1127.02,485.5 L1127.02,510 C1127.02,515.522847 1122.54285,520 1117.02,520 L1108.27,520 C1106.99901,520 1105.7834,519.762885 1104.665,519.330478 C1103.5466,519.762885 1102.33099,520 1101.06,520 Z M1129.27,485.5 L1120.52,485.5 L1120.52,510 L1129.27,510 L1129.27,485.5 Z M1129.27,475.5 C1134.79285,475.5 1139.27,479.977153 1139.27,485.5 L1139.27,510 C1139.27,515.522847 1134.79285,520 1129.27,520 L1120.52,520 C1114.99715,520 1110.52,515.522847 1110.52,510 L1110.52,485.5 C1110.52,479.977153 1114.99715,475.5 1120.52,475.5 L1129.27,475.5 Z M1132.07,485.5 L1132.07,493.305 L1139.665,493.305 L1139.665,510 L1148.415,510 L1148.415,493.305 L1156.01,493.305 L1156.01,485.5 L1132.07,485.5 Z M1158.415,510 C1158.415,515.522847 1153.93785,520 1148.415,520 L1139.665,520 C1134.14215,520 1129.665,515.522847 1129.665,510 L1129.665,503.013908 C1125.30381,501.937192 1122.07,497.998744 1122.07,493.305 L1122.07,485.5 C1122.07,479.977153 1126.54715,475.5 1132.07,475.5 L1156.01,475.5 C1161.53285,475.5 1166.01,479.977153 1166.01,485.5 L1166.01,493.305 C1166.01,497.998744 1162.77619,501.937192 1158.415,503.013908 L1158.415,510 Z" id="OHSHITOHSHIT" fill="#FFFCFF" fill-rule="nonzero"></path>
            <path d="M883.22,510.49 C879.335,510.49 876.15,509.265 873.63,506.85 C871.11,504.435 869.85,501.425 869.85,497.785 C869.85,494.18 871.145,491.135 873.7,488.685 C876.255,486.235 879.44,485.01 883.29,485.01 C887.14,485.01 890.325,486.235 892.88,488.65 C895.4,491.065 896.66,494.11 896.66,497.715 C896.66,501.355 895.4,504.4 892.845,506.815 C890.29,509.265 887.105,510.49 883.22,510.49 Z M883.22,492.815 C880.595,492.815 878.775,494.88 878.775,497.715 C878.775,500.55 880.63,502.685 883.29,502.685 C885.915,502.685 887.735,500.62 887.735,497.785 C887.735,494.95 885.845,492.815 883.22,492.815 Z M923.96,485.5 L915.21,485.5 L915.21,493.69 L908,493.69 L908,485.5 L899.25,485.5 L899.25,510 L908,510 L908,501.67 L915.21,501.67 L915.21,510 L923.96,510 L923.96,485.5 Z M934.285,501.11 C936.84,501.845 937.4,502.16 937.4,502.755 C937.4,503.35 936.84,503.63 935.685,503.63 C934.53,503.63 933.095,503.315 931.38,502.65 C929.665,501.985 928.055,501.18 926.62,500.235 L926.515,500.305 L927.32,508.18 C929.525,509.58 932.71,510.42 935.825,510.42 C942.125,510.42 945.975,507.305 945.975,502.23 C945.975,500.165 945.415,498.52 944.26,497.295 C943.105,496.07 941.04,495.055 938.065,494.215 C935.79,493.55 935.125,493.2 935.125,492.64 C935.125,492.115 935.58,491.87 936.56,491.87 C937.61,491.87 938.905,492.08 940.445,492.535 C941.95,492.99 943.28,493.55 944.435,494.18 L944.505,494.18 L944.505,486.795 C942.3,485.71 939.5,485.08 936.56,485.08 C933.515,485.08 931.065,485.815 929.28,487.285 C927.46,488.79 926.55,490.75 926.55,493.2 C926.55,495.195 927.145,496.77 928.3,497.995 C929.455,499.22 931.45,500.27 934.285,501.11 Z M972.995,485.5 L964.245,485.5 L964.245,493.69 L957.035,493.69 L957.035,485.5 L948.285,485.5 L948.285,510 L957.035,510 L957.035,501.67 L964.245,501.67 L964.245,510 L972.995,510 L972.995,485.5 Z M985.245,485.5 L976.495,485.5 L976.495,510 L985.245,510 L985.245,485.5 Z M988.045,485.5 L988.045,493.305 L995.64,493.305 L995.64,510 L1004.39,510 L1004.39,493.305 L1011.985,493.305 L1011.985,485.5 L988.045,485.5 Z M1027.245,510.49 C1023.36,510.49 1020.175,509.265 1017.655,506.85 C1015.135,504.435 1013.875,501.425 1013.875,497.785 C1013.875,494.18 1015.17,491.135 1017.725,488.685 C1020.28,486.235 1023.465,485.01 1027.315,485.01 C1031.165,485.01 1034.35,486.235 1036.905,488.65 C1039.425,491.065 1040.685,494.11 1040.685,497.715 C1040.685,501.355 1039.425,504.4 1036.87,506.815 C1034.315,509.265 1031.13,510.49 1027.245,510.49 Z M1027.245,492.815 C1024.62,492.815 1022.8,494.88 1022.8,497.715 C1022.8,500.55 1024.655,502.685 1027.315,502.685 C1029.94,502.685 1031.76,500.62 1031.76,497.785 C1031.76,494.95 1029.87,492.815 1027.245,492.815 Z M1067.985,485.5 L1059.235,485.5 L1059.235,493.69 L1052.025,493.69 L1052.025,485.5 L1043.275,485.5 L1043.275,510 L1052.025,510 L1052.025,501.67 L1059.235,501.67 L1059.235,510 L1067.985,510 L1067.985,485.5 Z M1078.31,501.11 C1080.865,501.845 1081.425,502.16 1081.425,502.755 C1081.425,503.35 1080.865,503.63 1079.71,503.63 C1078.555,503.63 1077.12,503.315 1075.405,502.65 C1073.69,501.985 1072.08,501.18 1070.645,500.235 L1070.54,500.305 L1071.345,508.18 C1073.55,509.58 1076.735,510.42 1079.85,510.42 C1086.15,510.42 1090,507.305 1090,502.23 C1090,500.165 1089.44,498.52 1088.285,497.295 C1087.13,496.07 1085.065,495.055 1082.09,494.215 C1079.815,493.55 1079.15,493.2 1079.15,492.64 C1079.15,492.115 1079.605,491.87 1080.585,491.87 C1081.635,491.87 1082.93,492.08 1084.47,492.535 C1085.975,492.99 1087.305,493.55 1088.46,494.18 L1088.53,494.18 L1088.53,486.795 C1086.325,485.71 1083.525,485.08 1080.585,485.08 C1077.54,485.08 1075.09,485.815 1073.305,487.285 C1071.485,488.79 1070.575,490.75 1070.575,493.2 C1070.575,495.195 1071.17,496.77 1072.325,497.995 C1073.48,499.22 1075.475,500.27 1078.31,501.11 Z M1117.02,485.5 L1108.27,485.5 L1108.27,493.69 L1101.06,493.69 L1101.06,485.5 L1092.31,485.5 L1092.31,510 L1101.06,510 L1101.06,501.67 L1108.27,501.67 L1108.27,510 L1117.02,510 L1117.02,485.5 Z M1129.27,485.5 L1120.52,485.5 L1120.52,510 L1129.27,510 L1129.27,485.5 Z M1132.07,485.5 L1132.07,493.305 L1139.665,493.305 L1139.665,510 L1148.415,510 L1148.415,493.305 L1156.01,493.305 L1156.01,485.5 L1132.07,485.5 Z" id="OHSHITOHSHIT" fill="#382A2C"></path>
        </g>
    </g>
</svg>