<svg version="1" xmlns="http://www.w3.org/2000/svg" width="346.667" height="346.667" viewBox="0 0 260.000000 260.000000"><path d="M0 12.8c0 10.8.2 12.9 1.5 12.9.8 0 1.5-.5 1.4-1.1-.4-3.3.2-4.8 1.6-4.2 1 .4 1.5-.1 1.5-1.4 0-1.5.7-2 2.6-2 2.2 0 2.5-.4 2.1-2.1-.4-1.5-.2-1.9.9-1.5.8.3 1.4 0 1.4-.6 0-.7.5-.6 1.5.2 1.3 1 1.5.9 1.5-.9 0-1.2.5-1.9 1-1.6.6.3 1 0 1-.7 0-1 .2-1 .9.1s.9 1.1 1.3 0c.4-1.2.7-1.2 2.1 0 1 .7 1.7.9 1.7.3 0-1.5 3.7-2.1 4.9-.9.6.6 1.1.7 1.1.3 0-.5.7-.3 1.6.5 1.3 1 1.7 1 2.5-.2.6-.9.9-1 .9-.2 0 .7.7 1 1.5.7.9-.4 1.5 0 1.5 1 0 1.9 1.6 2.1 2.3.3.3-.7.6-.4.6.7.1 1.2.7 1.7 1.9 1.4 2.3-.6 4.2 1.5 4.3 4.9l.1 2.8.8-2.5c.6-1.9.8-2 .9-.6.1 1.3.7 1.7 1.9 1.4 1.5-.4 1.8-.1 1.5 1.6-.2 1.1.3 3 1.1 4.1 1.4 1.8 1.5 1.8 1.6.2 0-2.1 1.3-2.2 3-.2.7.8 1.7 1.2 2.2.9.6-.4.7.2.3 1.7-.6 2-.5 2.2.6 1.1 2-1.9 3.1-1.4 1.9.8-.9 1.6-.8 1.9.7 1.3 1.3-.5 1.5-.3 1 1.1-.4 1-.3 1.5.4 1.1.6-.4.7.3.3 2.1-.5 1.8-.3 2.5.4 2 .6-.3 1.4.3 1.7 1.5.5 1.6.9 1.8 1.5.9.5-.8 1.6.5 3.1 3.9 2.6 5.6 4.9 7.3 5 3.8 0-2.1.1-2.1.9-.2.8 1.8.9 1.8.9.2.1-1.7.3-1.7 3.1.3 2.7 1.9 2.9 1.9 2.3.3-.6-1.7-.5-1.7 1.4-.1 1.8 1.7 5.3 2.5 5.3 1.3 0-.4-.7-2-1.6-3.8l-1.7-3.2 3.1 3.2c3.5 3.8 4.7 4.2 3.9 1.3-.6-2.5-.8-2.5 3.3.5 3.4 2.5 7 3.3 7 1.6 0-.5-.6-1.2-1.2-1.4-.9-.4-.8-.6.2-.6.9-.1 2.5.6 3.6 1.4 3.9 2.6 24.3 5.2 25.6 3.2.5-.8.8-.9.8-.1 0 1.1 3.1 2 10 2.9 2.3.3 4-.1 5.2-1.2 2.7-2.4 5.9-2.8 5.1-.6-.5 1.2-.1 1.1 1.5-.5 2.1-2.1 5.8-2.1 4.5.1-.3.6-.1.7.6.3.6-.4.9-1.1.6-1.6-.3-.5 0-1.2.6-1.6.8-.5.9-.3.4.6-.6 1-.4 1.2.8.7 3.5-1.4 5.1-1.7 3-.6-2.9 1.5-3 2.9-.1 2.1 1.5-.4 1.9-.2 1.4.7-.5.8-.3 1.1.5 1 2.4-.5 6.1 1.2 5.5 2.6-.3.8.5 1.5 1.9 1.8 1.4.2 2.2.1 2-.3-.2-.4 1.1-1.6 3-2.6s3.5-2.3 3.5-2.7c0-.5.9-.7 2-.4 1.4.4 2 0 2-1.1 0-1.2.3-1.3 1.2-.4.9.9 1.6.6 3-1.6 1.1-1.7 1.8-2.1 1.9-1.2 0 1 .3.9.8-.4.8-2.1 4.1-3.1 4.1-1.3.1.7.7 0 1.5-1.4.8-1.5 2.8-3.2 4.5-3.7 1.8-.7 3-1.8 3-2.8 0-1 .3-1.4.7-1.1.3.4 1.5 0 2.5-1 1.4-1.3 1.8-1.3 1.8-.2.1.9.7.6 1.9-.9 2.3-2.7 3.1-2.8 3.1-.5.1 1.7.1 1.7 1.4.1.7-1 1.6-1.5 2-1.1.4.4 1.1.1 1.6-.7.8-1.2 1-1.2 1 .4 0 1.5.6 1.7 3.1 1.4 2-.3 3.3 0 3.6.9.3.7 1 1 1.7.6 1.4-.9 3.6-1.3 3.6-.6 0 .2-.5 1.4-1.2 2.6-.9 1.9-.9 2 .3 1.1.8-.6 2.5-1.5 3.9-1.9l2.5-.7-2.5 2.8c-2.5 2.9-2.5 2.9-.1.9 1.7-1.4 2.5-1.6 2.8-.7.3.6.9 1 1.4.6.5-.3.9.2.9 1 0 .9.5 1.6 1.1 1.6.6 0 .8.7.5 1.6-.4 1.2-.2 1.5.9 1.1 2-.8 2.9 1.1 1.5 2.8-1 1.2-.9 1.5.4 1.5 1.1 0 1.4.5 1 1.2-.5.8-.2.9 1 .5.9-.4 1.5-.3 1.1.2-.3.5.1 1.1.7 1.4 1 .3.8 1-.6 2.6-1.1 1.2-1.4 2.1-.7 2.1.9 0 .9.5 0 2.1-1 1.9-.9 2 1.1 1.4 1.9-.6 2.1-.5 1.1 1.3-.6 1.1-1.6 2.3-2.3 2.6-.7.3 0 .4 1.5.1 1.9-.4 2.6-.2 2.2.5-.3.5-.3 1.6.2 2.2 1.4 2.3 1.3 4.3-.4 5.5-.9.7-1.3 1.3-.7 1.3.5 0 .3.4-.5.9-1.1.7-.7 1.3 2 2.4 3.1 1.4 3.2 1.5.9 1.7-1.4 0-3.4.7-4.4 1.5-1.9 1.4-1.7 1.5 2 1.6 2.1 0 3.2.3 2.4.6-.8.2-2.1.7-2.9.9-1.1.3-1.1.7-.1 1.9 1 1.3.9 1.5-1.1 1.5-1.7 0-2 .3-1.1.9 2.5 1.5-.2 5.1-4 5.1l-2.3.1 2.3 1.3 2.3 1.2-2.3 1.2-2.3 1.1 2.5.1c1.8.1 1.1.6-2.5 1.7-4.1 1.3-4.6 1.7-3 2.3 1.1.4 2.3.6 2.8.3.4-.2.7.2.7 1s-1.4 1.8-3.3 2.2c-2.8.6-3 .8-1.2 1.5 1.9.8 1.9.9.1.9-1.6.1-1.7.3-.5 1.8 1.3 1.5 1.1 1.6-1.4.9-2.7-.6-2.8-.6-1.2 1.7.8 1.3 1.2 2.7.8 3-.3.4-.2.7.4.7.5 0 1 .7 1 1.5 0 1.9.1 1.9-4.2-.5-3.7-2.1-5-1.4-1.4.8 1.2.7 1.8 1.6 1.5 1.9-.3.4 0 1.3.7 2.1 1 1.3.9 1.4-1 .4-3-1.6-4.1-1.5-1.8.2 1.8 1.3 1.8 1.4-.5 2.6l-2.4 1.3 2.7 2.3c1.5 1.3 2.7 2.8 2.7 3.4 0 .5.7 1 1.5 1s1.5.4 1.5 1c0 .5 1.3 2.2 2.9 3.7 2.9 2.9 4.9 7.3 3.3 7.3-1.4 0-6.4-4.1-5.7-4.8.9-.9-3.7-5.2-5.7-5.2-1.1 0-1.7-.4-1.4-.9.7-1-6.3-5.5-7.2-4.6-.3.3 1.1 2.2 3.1 4.3 2 2.1 3.7 4.1 3.7 4.6 0 .4-2.1-.4-4.7-1.9l-4.8-2.6 3.4 3.5c1.9 2 3.1 3.6 2.5 3.6-.5.1.1.9 1.2 1.9 1.2.9 2.3 2.6 2.5 3.6.2 1 1.1 2.1 1.9 2.3 1.3.5 1.3.3.1-1.1-1-1.3-1-1.7-.1-1.7s.9-.4-.1-1.7c-1.2-1.5-1.2-1.6.4-1 2.8 1.1 4.1-.2 2.2-2.3-1.7-1.9-.5-3.7 1.6-2.4.8.4.7.9-.2 1.5-1.1.6-1 .9.4 1.5 1.7.6 1.7.7 0 1.9-1.5 1.1-1.4 1.4 1.3 2.8 1.6.9 2.3 1.6 1.6 1.7-.6 0-1.1.6-1 1.2.2.8-.6 1.2-2 1-2.7-.4-4 2.2-2.2 4.3.7.8 1 1.5.7 1.5-.3 0-1.9-1.9-3.6-4.3-1.8-2.7-3.7-4.3-5-4.3-1.2 0-2.1.3-2.1.6.1 1.3 2.8 3.8 4.5 4.2 1.3.2 2 1.1 2 2.5 0 1.2 1.1 3.3 2.5 4.8l2.5 2.6-2.9-.5-2.9-.5 2 2.2c1 1.2 2.5 3.3 3.1 4.7.7 1.4 3.2 5 5.6 8 2.4 3 4.3 5.6 4.1 5.8-.5.6-4.8-1.9-7.3-4.2-1.9-1.7-2.2-1.7-1.6-.3.7 2-.6 2.2-2.6.4-1-.9-1-.6.1 1.2 1.9 3.1 4.1 4 3.3 1.4-.5-1.5-.3-1.4 1.3.4 1 1.2 2.9 3 4.2 4.1 1.9 1.4 2.1 2.1 1.1 2.7-.8.5-1.1.4-.7-.2.4-.6-.5-1.5-1.9-2.2-3.4-1.5-4.5-1.4-3.8.4.3.8.9 1.4 1.2 1.2.4-.1 2.1 1.3 3.9 3.1 1.7 1.7 2.9 3.2 2.5 3.2-.3 0 .4 1 1.6 2.3l2.2 2.3-3.5-.1c-1.9-.1-3.5 0-3.5.2s1.2 1.5 2.8 2.9c2.1 1.9 2.3 2.3.7 1.7-1.1-.3-2.6-1.1-3.4-1.7-1.1-.8-1.3-.8-.7.2 1 1.7-.9 1.5-2.4-.3-.7-.8-1.6-1.3-2-1-.5.3-1.1.1-1.5-.5-.3-.5-1.1-1-1.7-1-.6 0-.6.6.2 1.5.7.9 1.8 1.4 2.5 1.1.7-.2 1 .6.7 2.5-.3 2.2.3 3.8 2.7 6.4 3 3.4 4.2 6.3 2.1 5-.5-.3-1-.1-1 .5s-.4.9-.9.5c-.5-.3-1.2-.1-1.6.4-.6 1-5.6-3.5-5.9-5.3-.1-.6-.5-1.6-.9-2.3-.4-.7-.5-2.4-.1-3.8.5-2 .9-2.4 1.8-1.5.8.8.7 1.3-.3 1.9-.9.6-1 1.1-.2 1.5.6.4 1.1.2 1.1-.4 0-.6.5-.8 1-.5 1.7 1.1 1.1-.9-1.5-4.7-1.4-2-2.5-4.2-2.5-4.7 0-.6-.4-1.1-1-1.1-.5 0-1-.7-1-1.5s-.7-1.5-1.5-1.5-1.5-.4-1.5-.9 1.5-.8 3.4-.7l3.3.3-1-3.6c-.6-2-1.7-4.4-2.5-5.4-.8-.9-1.2-1.7-.7-1.7.4 0 .2-.7-.5-1.5-.8-.9-1-2.8-.6-4.8.3-1.8.3-3.7-.1-4.1-.5-.4-.8-1.7-.8-2.9 0-1.1-.6-2.2-1.4-2.5-.9-.3-1.1 0-.6.8.4.7-.4.4-1.9-.5-2.5-1.7-2.6-1.7-2.6.2 0 1 .4 2.3.9 2.9 1.5 1.5 2.5 5.8 1.2 5-.6-.4-1.1 0-1.1.8 0 .9-.4 1.6-1 1.6-.5 0-.7.6-.4 1.4.7 1.8-1.6 3.2-2.6 1.6-1.4-2.3-2.2 1-1 4.1 1.1 2.6 1 3.2-.6 4.4-3.6 2.6-7.3.7-10.5-5.6-1-2.1-1.5-4-1-4.3 1.1-.7 3.4 2 2.7 3.3-.3.5.1 1.2 1 1.5 1.2.5 1.5.2.9-1.1-.8-2.1-.8-2.2-.6-4.6 0-1 .5-1.6 1-1.3.5.3 1.1-.5 1.3-1.9.3-1.3.2-2.2-.2-2-.4.3-.8-1.7-.8-4.3 0-2.7-.2-6.9-.6-9.3-.5-3.8-.5-4.1.5-1.9l1.2 2.5.6-2.5c.6-2.2.8-2.3 1.4-.7.4 1 .7 3.4.7 5.3s.5 3.4 1 3.4c.7 0 .9-1.3.5-3.3-.3-1.7-.7-3.9-.9-4.7-.7-3.8-2.9-6.7-4.6-6.3-1.2.3-1.6 1.1-1.3 2.1.5 1.1.3 1.3-.7.7-.9-.6-1.2-.4-.8.6.3.8 0 2.8-.8 4.4-1.4 3-1.4 3-.9-1.5.3-2.5.1-5.9-.4-7.5-.8-2.6-.9-2.7-1-.7-.1 2.1-.3 2.2-1.6.8-.8-.8-1.5-2.1-1.5-2.8 0-1.1.2-1.1.9 0s.9 1.1 1.4-.2c.8-2.1-.8-2.9-2.3-1.1-1 1.1-.9 2.4.4 6.1.9 2.6 1.4 5 1.1 5.2-.3.3-.5 0-.5-.7s-.4-.9-1-.6c-.5.3-1-.3-1-1.4 0-1.2-.4-2.1-1-2.1-.5 0-1 1.3-1 3 0 1.6-.4 3-1 3-.5 0-1 .6-1 1.4 0 .8-.6 1.7-1.2 2-1 .3-.8.9.5 1.9 2.2 1.8 2.2 2.7 0 2.8-1.4 0-1.3.2.5.9 1.2.5 2.2 1.7 2.2 2.5 0 1.5-.2 1.5-1.6 0-1-.9-2.5-1.4-3.5-1.2-1.1.3-1.9.1-1.9-.5 0-.5-.4-.6-1-.3-.5.3-1 1.5-1 2.6 0 3.7-1.7 1.8-1.8-2.1-.2-3.3.4-4.5 3.1-7 2.8-2.5 6.4-9.8 7.4-15 .1-.8.4-2.4.6-3.5.3-1.1 1.4-4 2.5-6.5 1.2-2.5 2.2-6.2 2.2-8.3 0-2.6.4-3.7 1.5-3.7 4 0 0-16.1-4.3-17.7-.9-.4-2-1.1-2.4-1.7-.3-.5-3.7-.9-7.5-.9-8.6.2-18.3 3.4-24.1 8.1l-4.2 3.4v-2.6c0-1.5.6-2.6 1.4-2.6 1.5 0 2.9-3.8 1.9-5.2-.3-.5-1.2 0-2 1.1-.8 1.2-2.2 2.1-3.1 2.1-2.6 0-2.6 7.3 0 15 1.3 3.6 2.7 6.8 3.3 7.2.5.4.1 1-.9 1.4-1.3.5-2.3.1-3.2-1-1.2-1.7-1.4-1.6-4.2.4-3 2.3-10.2 3.7-10.2 2 0-1.2-5.3.4-5.8 1.8-.3.9.3 1 2.4.2 1.5-.6 2.9-.8 3.1-.6.8.8-.8 2.7-1.8 2.1-.5-.4-.9.1-.9 1 0 .8-1.1 2.1-2.5 2.7-4.6 2.1-2.8 3.1 4.3 2.5 3.7-.3 6-.3 5.2 0-.8.2-2.2.7-3 1.1-2.2.8-5 1.3-8.9 1.5-1.9.1-3.6.8-3.9 1.5-.2.6.1 1.2.7 1.2s1.1-.5 1.1-1.2c0-.6.3-.8.6-.5.4.4.2 1.2-.4 1.9-.6.7-1.2 2.8-1.4 4.7-.2 2.3-.9 3.5-2 3.7-1 .1-1.8-.2-1.8-.8 0-.7-.5-.6-1.4.1-1.1.9-1.6.9-2.2 0-.5-.8-.3-.9.6-.4.9.6 1.1.4.6-.4-.5-.7-1.4-1-2.2-.7-1.7.7-1.8-.6-.2-2.2.7-.7.9-1.2.6-1.2-.4 0-1.4.7-2.2 1.6-1.5 1.4-1.6 1.4-1.7-.3-.1-1-.1-2.4 0-3.1.2-1.5.1-1.5-4.3.3-2 .8-3.8 1.4-4 1.3-.2-.2-1.2.4-2.2 1.3-2.1 1.8-6.7 3.2-5.9 1.9.3-.5.1-1.1-.5-1.5-.5-.3-1-.1-1 .4 0 .6-.5 1.1-1.1 1.1-1.8 0 1.2-3.1 4.1-4.2 1.6-.7 2-1.2 1.2-1.5-.8-.3-1.9 0-2.5.6-1.8 1.8-2.8 1.2-1.6-1 .7-1.3.7-1.9.1-1.5-1.6 1-.9-3.3 1.2-7.6 1-2.1 2.2-3.6 2.6-3.3.5.3 1.2 0 1.6-.6.5-.8.3-.9-.6-.4-1 .6-1.2.3-.7-1.1.8-2 .4-1.6-3.1 3.3-1.2 1.7-1.3 1.7-.7-.1.6-2 .6-2-1.6 0-2.7 2.4-5.2 7.2-4.4 8.4.3.6.1 1.8-.4 2.7-.9 1.5-1.1 1.2-1.2-1.7-.2-3.3-.2-3.3-.9 1-.4 2.5-.8 3.5-.8 2.3-.1-1.2-.6-2.5-1.2-2.8-.6-.4-.5-1.3.2-2.5 1.7-2.6.1-3.8-1.7-1.4-1.1 1.4-1.4 3.8-1 9.9.3 6.1.2 7.2-.5 4.5-1.7-6.4-2.2-17.3-1.1-20.4 1-2.5 1-2.7-.3-1.6-.9.6-1.9 2.8-2.2 4.8-.4 2-1.5 5-2.6 6.7-2.1 3.6-2.4 2.6-.4-1.8C86 140.2 87 132 85.8 132c-.8 0-4.8 5.4-4.8 6.5 0 .4.7.1 1.7-.6 1.5-1.3 1.5-1.2.2.9-2 3.3-3.2 2.7-2.6-1.3.7-4 .1-4.5-1.4-1.3-.9 2.2-.9 2.1-.6-.4.2-1.5 0-2.5-.4-2.2-.5.3-.9 1.1-1 1.7 0 .7-.9 3-2 5.2l-1.9 4 .5-3.4c.4-2.6.2-3.2-1-2.7-1.2.4-1.3.2-.2-1.7.6-1.2 2-3.3 2.9-4.6 2.4-3.2 2.3-4.4-.4-3.5-3 .9-4.9 3.4-4.4 5.7.2 1-.4 2.5-1.4 3.5-1 .9-2.1 2.9-2.5 4.4-.4 1.6-1.1 2.8-1.6 2.8s-.4-1.2.1-2.6c1.5-3.8 1.3-8.7-.2-7.8-1 .6-1 .4 0-.7 1.4-1.5 1.6-6.9.3-6.9-.5 0-1.2.8-1.5 1.7-.9 3.4-2.6 12.8-2.8 16.1-.2 3.2-1.8 5.8-1.8 3 0-4.8 2.3-18.1 3.5-20.5.8-1.5 1.5-3.6 1.5-4.5 0-.9.5-2 1.1-2.4.8-.4.9.1.4 1.6-.4 1.4-.3 2 .3 1.6.5-.3 1.2-1.5 1.5-2.6.3-1.1.1-1.8-.4-1.4-.5.3-.9-.1-.9-.8-.1-2-4 3.2-4 5.3 0 1-.5 1.8-1.2 1.6-1.7-.3-4.1 8.5-2.5 9.5.9.6.9 1 0 1.6-1.6 1-5.3 9.8-5.3 12.6 0 2.1-2.7 8.6-3.5 8.6-.2 0 0-1.4.5-3 .5-1.7.9-3.3.9-3.5.1-1.1 2.4-9.2 3.7-12.7 1-2.8 1.1-3.8.1-4.2-.8-.3-.9-.7-.1-1.3.6-.4 1.9-2.9 2.9-5.5s2.1-4.6 2.5-4.3c.3.2.7-.1.7-.8 0-.7.3-2.6.7-4.2l.7-3-2 2.2c-2.3 2.5-2.7 3.8-.9 2.7.7-.4.1.6-1.3 2.2-1.5 1.6-3.4 5.1-4.3 7.8-1.9 5.9-1.9 5.9-.5 5 1.2-.7.6 1.9-1.6 7.1-1 2.2-1.4 2.5-1.4 1.1-.1-1.4-.9-.7-3.3 2.5-1.8 2.4-3.2 4.8-3.3 5.4-.1 2.6-2.8 8.5-3.8 8.5-.7 0-.6.4.3 1 .9.6 1.7.5 2.2-.3.6-.9.8-.9.8.1 0 .8-.9 2.5-2 3.9s-2 2.1-2 1.5c0-.6.5-1.4 1-1.7.6-.3 1-1.1 1-1.7 0-.6-.9-.3-2 .7s-2 1.3-2 .7c0-.6.4-1.3.9-1.6.5-.4.5-2-.1-4-.9-2.8-.8-3.8.4-5 .9-.8 1.8-1.3 2.1-1 .2.3.7-.5 1-1.6.5-2 .4-2-2.8.4-3.3 2.5-3.3 2.5-2.8.3.3-1.2 1.1-2.9 1.8-3.7 1.7-2.1 2.7-5.3 1.5-4.5-.6.3-1 1.2-1 2s-.4 1.7-1 2c-.6.4-.7-.1-.4-1.2.4-1.4.1-1.2-1.5.6-1.2 1.3-2.1 2.9-2.1 3.7 0 .7-.4 1.5-.9 1.8-.4.3-.6-.6-.3-1.9.2-1.4.8-2.8 1.3-3.1.5-.3.9-1 .9-1.7 0-.8-.3-.8-1.2.1-2.1 2.1-2.9 1.3-1.3-1.2.9-1.3 2.4-4.8 3.4-7.7 1.1-3 2.5-5.4 3.3-5.4.7 0 2.2-.5 3.3-1.2 1.5-.9 1.7-1.4.7-2.5-.9-1.2-.7-2.2 1.3-4.8 1.4-1.9 2.5-3.9 2.5-4.4-.1-.6-.8.2-1.6 1.8-2.3 4.2-4 1.9-2-2.9.9-2.1 1.6-4.2 1.6-4.8 0-1.6-3.9 2.3-4.6 4.7-.6 1.8-4.5 6.7-14.8 18.4-3.5 4-.5 2.3 3.6-2l4-4.3-3 4.6c-3.7 5.5-6.2 7.8-6.2 5.8 0-1.1-.2-1.1-1 .1-.5.8-1.5 1.5-2.3 1.5-.7 0-2.8 1.7-4.6 3.8-1.8 2-2.8 3.7-2.1 3.7.6 0 .8.5.4 1.1-.4.8-1.1.4-1.9-1.1-.8-1.5-1.5-1.9-1.9-1.1-.4.6-1.6 1.6-2.6 2.1-2.9 1.5-1.5-1.4 1.6-3.5 1.8-1.1 2.4-1.2 2.4-.3.1 1.6 8-7.3 8-8.9 0-.7.6-1 1.3-.7 1.3.5 17.7-16.8 17.7-18.7 0-1.4-1.4-1.8-3.1-.9-1.2.7-2 .6-2.5-.2-.4-.6-.3-.8.3-.5 2 1.2 12.6-12.4 10.9-14-1-1-3.7.7-3 1.8.4.7.3.9-.4.5-.6-.3-1.5.1-2 1-.5 1-1.2 1.2-1.6.6-.3-.5.1-1.5.9-2.2 2.1-1.8 1.9-3.5-.2-1.9-1.5 1.1-1.4 1 .1-.9 2.1-2.4 3.1-2.9 2-1-1 1.8.5.2 5.5-6 4.5-5.4 4.2-6.1-1.3-3.8-4.5 1.9-5.9 4.1-2 3.2 4.5-1.1-6.2 5.9-11.1 7.3-4.7 1.3-3.4-.2 1.7-1.8 3.8-1.2 7.2-4.1 4.9-4.1-.8 0-.6-.6.4-1.6.9-.9 1.3-1.9 1-2.2-.3-.3-1.1 0-1.7.6-1.4 1.4-5.2 1.6-4.4.3.3-.5-.1-1.1-.9-1.5-3.2-1.2-1.2-2.4 6.1-3.5 4.2-.7 7.3-1.5 7-1.8-.3-.3-3.4 0-6.9.6-3.5.6-7.9.8-9.8.5-3.3-.6-3.3-.6-1.4 1.1 1.1.9 1.5 1.4.9 1.1-.6-.3-1.1.1-1.1.8 0 .8.8 1.1 1.8.9.9-.3 2 0 2.3.6.5.7-.2 1.1-1.8 1.1-3.3 0-5.7 1-5 2.1.3.5.2.9-.3.8-1.3-.3-4.3 1.2-4.3 2.2 0 .5.7.9 1.6.9 1 0 .5.9-1.6 2.6-1.7 1.5-2.9 2.9-2.6 3.2.3.3 1.2-.1 2.1-.8 2.5-2.1 1.9 1.6-.7 4-1.3 1.2-1.7 2-.9 2 1.1 0 1.1.3 0 1.7-1.3 1.5-1.1 1.6 1.1 1 2.3-.5 2.3-.5.7.7-1.6 1.3-1.6 1.4.3 1.9 1.2.3 3.8.3 5.7 0 2.6-.5 3.4-.3 2.9.6-.4.6-1.1.9-1.6.6-.5-.3-1.1-.1-1.5.5-.3.5-2.3 1-4.4 1-2.3 0-4.4.6-5.2 1.6-1.1 1.3-.9 1.4 1.4.9 1.7-.5 2.7-.3 2.7.4 0 .6-.9 1.1-2 1.1s-2.9 1.4-4.2 3c-1.2 1.6-2.7 3-3.2 2.9-.6 0-.5-.3.2-.6.6-.2.9-.9.6-1.5-.3-.5.2-1.6 1.2-2.4 1.8-1.5 1.8-1.5.1-1-1 .3-2.2.6-2.7.6-.9 0-3 5.4-3 7.8 0 1.1.3 1.2 1.4.3 1.2-1 1.3-.8.9 1.1-.4 1.9.3 1.4 3.6-2.1 2.3-2.4 4.4-4.1 4.8-3.8.3.4-1.1 2.3-3.1 4.4-2.4 2.5-3.5 4.4-3.2 5.7.3 1.2-.5 2.9-2.2 4.6-1.5 1.6-2.8 3.4-3 4.1-.2.8-1.2 2.2-2.3 3.2-1 .9-1.4 1.2-.9.5 1.4-1.7 1.3-3.1-.2-2.2-.7.4-.1-.8 1.2-2.7 2-2.8 2.1-3.1.5-1.9-1.1.8-2.3 1.9-2.7 2.5-.4.5-.7 9.3-.7 19.5l.1 18.5 2.9-6c1.6-3.3 2.9-5.6 2.9-5 0 1-2.4 8.3-3.7 11.5-.3.8-.8 2.2-1.1 3-.4.8-.7 18-.9 38.2L0 260h12.2l12.3-.1 2.5-4c1.3-2.2 2.6-3.5 2.8-3 .2.6-.4 1.8-1.2 2.7-.9.8-1.6 2.2-1.6 3 0 1.8 5.1 1.9 6.9.1 1.1-.9 1.3-.9.7 0-.6 1 4.9 1.3 25.9 1.3H87l-.5-3.8c-.4-2.7-.1-4.5 1.4-6.7 1.4-2 2.1-2.5 2.1-1.3 0 .9-.7 2.3-1.5 3.2-1.7 1.6-2 5.6-.5 5.6.5 0 .7.7.4 1.5-.5 1.3 5.3 1.5 46.9 1.5 37 0 47.6-.3 48-1.3.4-.9.6-.9.6 0 .1.7.8 1.3 1.7 1.3 1.1 0 1.4-.6 1-1.8-.6-1.6-.5-1.6.8.1 1.1 1.5 3.1 1.7 15 1.6 8.2 0 13.4-.4 13.1-1-1.2-1.9.7-3 2.2-1.2 1.4 1.7 1.4 1.7.8-.2-.8-2.4-.8-2.2-.6-6.5.1-2.9.3-3.2 1.2-1.7.5.9.8 2.1.5 2.6-.3.4-.1 2.4.5 4.4.9 3.4 1.3 3.7 4.4 3.7 1.9 0 3.5-.4 3.5-.9 0-1.6-1.8-2.2-2.3-.9-.3.8-.6.6-.6-.5-.1-.9.3-1.7.8-1.7s.7-.9.4-2c-.3-1.2 0-2 .7-2 .8 0 1-.9.6-2.7-.4-1.6-.9-4.2-1.2-5.8-.5-3-.5-3 1.1-.7.9 1.2 1.3 2.6 1 3.2-.3.5 0 .7.8.4.9-.3 2.2.4 3 1.6 2.3 3.3 4.1 1.6 2.2-2-2.1-4-1.9-4.7.5-1.9 1 1.3 1.9 1.9 2 1.2 0-.6-1.2-2.6-2.7-4.5-1.5-1.8-2-2.7-1.3-2.1 1.9 1.7 3.1 1.6 2.4-.2-.4-.9 0-1.5 1-1.5 1.8 0 2.2-1.6.4-2.2-.6-.2-1.3-1.3-1.5-2.4-.7-3.7-.8-8.4-.2-8.4.3 0 1.9 2 3.5 4.6 1.6 2.5 3 4 3.2 3.5.7-2 2.4-1.1 1.9.9-.3 1.1-.2 1.8.1 1.6.4-.2 1.3.2 2 1s.9 1.4.5 1.4.3.9 1.7 2l2.5 1.9-2.9 1.1c-4 1.5-2.6 2.4 1.8 1.2 5.3-1.5 4.8 1.1-.6 3.4-3.1 1.2-3.8 1.9-2.5 2.2 1 .2 1.6 1 1.4 1.7-.6 1.5 4.3.6 8.2-1.4 1.2-.7 2.5-1 2.8-.7.5.5-10.2 5.6-11.8 5.6-1.5 0-1 1.2 1.7 3.6 1.4 1.3 3.5 2.4 4.7 2.3 2 0 2.1-.1.3-.8-1.8-.7-1.8-.8-.2-1.4 1-.4 2.9-.7 4.2-.7 1.5 0 2.4-.6 2.4-1.6 0-1.1-.5-1.4-1.7-.9-3.7 1.5-5.2 1.7-7 .6-1.6-.9-1.5-1 .9-1.1 1.5 0 3.9-.5 5.3-1.2l2.5-1.1V0H0v12.8zm34.2 81.9c-.6.2-1 .9-.6 1.4.3.5-.1.9-1 .9-.8 0-2.2.3-3 .6-1.2.5-1.5.2-1-.9.3-.9 1.5-1.8 2.7-2 3.1-.6 4.4-.6 2.9 0zm1.3 17.4c-.9 1.7-1.9 2.8-2.2 2.5-.6-.6 2.3-5.6 3.2-5.6.3 0-.2 1.4-1 3.1zm1.5 5.3c0 .2-.8 1-1.7 1.7-1.6 1.3-1.7 1.2-.4-.4 1.3-1.6 2.1-2.1 2.1-1.3zm-5.9 3.3c-.8 1.5-1 1.5-1.1.2 0-1.7 1-3.2 1.8-2.5.2.3-.1 1.3-.7 2.3zm142.3 1.3c1.5.5 2.4 1.5 2.1 2-.5.8-1.1.8-2 0-.8-.6-1.9-1-2.7-.9-3.3.4-4.1 0-2.8-1.6.7-.8 1.6-1.3 2-1 .4.2 1.9.9 3.4 1.5zM36 126.4c0 .2-.8 1-1.7 1.7-1.6 1.3-1.7 1.2-.4-.4 1.3-1.6 2.1-2.1 2.1-1.3zm-14.9 4.4c-.5 1-2.9 2.6-5.3 3.5l-4.3 1.6L14 134c7-5.6 8.8-6.4 7.1-3.2zm127.6 5.8c0 .8-.7 1.4-1.6 1.2-.9-.1-2.2.1-2.8.5-1.8 1.1-1.6.1.3-2.2 1.9-2.1 4.1-1.9 4.1.5zM27.9 141c-1.2 2.2-2.2 4-2.4 4-.1 0-.1-1.2.1-2.6.2-2 2.6-5.2 4.1-5.4.2 0-.7 1.8-1.8 4zm74.2-.7c-1.3 1.2-2 1.5-1.6.7 1.4-2.6 2.8-4.1 3.3-3.5.3.3-.5 1.6-1.7 2.8zm-24.8.2c-.3.9-.8 1.4-1 1.1-.3-.3-.2-.9.2-1.5.9-1.6 1.5-1.3.8.4zm10.2 7.2c-.2 1.6-.4 3.6-.4 4.6-.1 1-.5 1.6-1 1.3-.8-.5-.5-4.1.4-7.4.8-2.2 1.4-1.2 1 1.5zM48.3 151c-.9 2.2-1.8 3.8-2.1 3.6-.6-.7 1.9-7.6 2.8-7.6.5 0 .1 1.8-.7 4zm27.4.7c-.3 1-.5.2-.5-1.7s.2-2.7.5-1.8c.2 1 .2 2.6 0 3.5zm-65.1 1.8c-.6 1.3-1.9 2.6-2.9 2.9-1.8.4-1.8.4-.2-1.4.9-1 1.4-2.4 1-3-.4-.7-.1-1.6.6-2.1 2-1.2 2.8.9 1.5 3.6zM60 156l-.7 4.5-.2-4.1c0-2.2.2-4.4.6-4.7 1-1.1 1.1-.5.3 4.3zm35.3-3c-.3 1.1-.7 2-.9 2-.2 0-.4-.9-.4-2s.4-2 .9-2 .7.9.4 2zm-15.6 5.7c-.3 1-.5.4-.5-1.2 0-1.7.2-2.4.5-1.8.2.7.2 2.1 0 3zm39.8-1.7c-1 1.1-2.3 2-2.9 2-.6 0 0-.9 1.4-2 3.2-2.5 3.8-2.5 1.5 0zm-25.8 4.2c-.2 1.3-.4.5-.4-1.7-.1-2.2.1-3.2.4-2.3.2 1 .2 2.8 0 4zM9 159.9c-2.6 1.5-6.6 2.4-5.5 1.3.6-.5 1.9-1.2 3-1.5 3.2-.8 4.1-.7 2.5.2zm45.5 6.7c-.1 4.1-.6 7.8-1 8.2-.4.4-.4-.4 0-1.7.5-1.7.4-2.1-.5-1.6s-1 .1-.5-1.5.4-2-.5-1.5c-.6.4-1 1.5-.7 2.5.2 1 .1 2.4-.4 3.1-.5.8-.9.9-1 .4 0-.6-.2-1.8-.4-2.8-.2-1 .5-2.7 1.6-3.8 1-1 1.9-2.8 1.9-3.8 0-2 .9-5.1 1.5-5.1.2 0 .2 3.4 0 7.6zm187.5-6c0 .2-1.1.4-2.5.4s-2.5-.4-2.5-.9c0-.4 1.1-.6 2.5-.3 1.4.2 2.5.6 2.5.8zm-111.9 2.1c-1.2 2-1.4 1.4-.5-1.2.4-.9.9-1.4 1.1-1.1.3.2 0 1.3-.6 2.3zm9.9-2.3c0 .2-.7.9-1.5 1.6-1.3 1.1-1.4 1-.9-.4.5-1.4 2.4-2.3 2.4-1.2zm-92.2 5c-1.3 2.4-2.6 4.2-3 4-.8-.5 3.4-8.4 4.5-8.4.4 0-.3 2-1.5 4.4zm-40.7 2.3c-1.2 2-1.4 1.4-.5-1.2.4-.9.9-1.4 1.1-1.1.3.2 0 1.3-.6 2.3zm111.9-1.9c0 .5-1.2 1.4-2.7 2.1l-2.8 1.2 2.5-2.1c2.9-2.2 3-2.3 3-1.2zm-77 1.5c0 .2-1 1.2-2.2 2.3l-2.3 1.9 1.9-2.3c1.8-2.1 2.6-2.7 2.6-1.9zm69.9 3c-.6 1.3-2 2.9-3.1 3.6-2.3 1.4-1.8.3 1.6-3.6 2.5-2.9 2.8-2.9 1.5 0zm80.5-.2c-.6 1.1-2.4.2-2.4-1.1 0-.5.7-.7 1.5-.4.8.4 1.2 1 .9 1.5zm13.8 3.6c.5.7.5 1.3 0 1.7-1.2.7-2.2-1.8-2.1-4.7.1-2.1.2-2.1.6-.2.3 1.1.9 2.5 1.5 3.2zm-170.1-.6c-.9 2.2-1 2.2-1 .3-.1-1.1.2-2.4.6-2.7 1.2-1.2 1.4 0 .4 2.4zm6.5-.4c-.6 1.5-.4 1.5 1.4-.2 1.1-1 2.2-1.6 2.5-1.4.7.8-7.2 7.5-8.4 7.1-.6-.2.2-1.9 1.7-3.8 3-3.8 3.7-4.2 2.8-1.7zm61 3.5c-1.5 3.2-2.2 3.8-2.4 2.5-.3-1.4 3.2-6.7 4.3-6.7.2 0-.7 1.9-1.9 4.2zm85.4-2.6c0 .8-.5 1.2-1 .9-.6-.4-.8-1.1-.5-1.6.9-1.4 1.5-1.1 1.5.7zm-90.8 3.8c-.9 1.9-1.8 3-2 2.6-.3-.8 2.6-6 3.4-6 .2 0-.4 1.5-1.4 3.4zm104 1.1c-.2 1.9-.6 3.5-.8 3.5-.2 0-.4-1.6-.4-3.5s.4-3.5.8-3.5.6 1.6.4 3.5zm-159.2 0c0 .8-.4 1.5-1 1.5-.5 0-.7-.7-.4-1.5.4-.8.8-1.5 1-1.5.2 0 .4.7.4 1.5zm11.4 1.2c-.4 1.6-1.5 3.6-2.5 4.5-2 2-4 2.5-2.1.6 1.4-1.4 1.6-3.2.2-2.3-.6.3-.7-.1-.3-1 .4-1.3.8-1.4 1.4-.4.5.9 1.1.5 2-1.4 1.6-3.5 2.1-3.4 1.3 0zm168.6.3c0 .5-.2 1-.4 1-.3 0-.8-.5-1.1-1-.3-.6-.1-1 .4-1 .6 0 1.1.4 1.1 1zm-161.3 4.2c-.3.7-.5.2-.5-1.2s.2-1.9.5-1.3c.2.7.2 1.9 0 2.5zm42.3-1.1c-.7 1.1-1.4 1.9-1.6 1.6-.7-.7.7-3.7 1.7-3.7.6 0 .5.9-.1 2.1zm124.4-.5c.3.8.2 1.2-.4.9-.6-.3-1-1-1-1.6 0-1.4.7-1.1 1.4.7zm-29.2 6.9c-.4.5-.5 2.1-.3 3.4.2 1.5-.1 2.1-.8 1.7-1.3-.9-1.5-5.6-.2-5.6.5 0 .7-1 .5-2.3-.4-2-.4-2 .5-.2.4 1.1.6 2.4.3 3zm8.8-.9c0-2.5.6-1.9 2.5 2.8.9 2.1 1.2 3.5.7 3.2-1-.6-2.7 2.2-2.3 3.7.1.5-.3.6-.9.2-.6-.3-.8-1.1-.4-1.6.3-.5 0-.8-.8-.7-.9.2-1.3-.9-1.3-3.7 0-2.2-.4-4.7-.8-5.5-.5-.8.1-.4 1.2 1 1.8 2.2 2.1 2.3 2.1.6zm-26.5 3.5c.9 1.7 1.4 3.6 1.1 4.2-.2.7-.5.5-.5-.4-.1-.9-.8-2.2-1.6-2.9-1.4-1.1-2.1-4-1-4 .2 0 1.2 1.4 2 3.1zm40.3 3.4c-.3.3-.9-.2-1.2-1.2-.6-1.4-.5-1.5.5-.6.7.7 1 1.5.7 1.8zm-41.3 3c.6 3 .6 3-1-.4-1.7-3.8-1.9-4.9-.6-3.6.5.6 1.2 2.3 1.6 4zm8 .5c-.4 1.7-.9 2.9-1.2 2.6-.3-.2-.2-1.9.2-3.6.4-1.7.9-2.9 1.2-2.6.3.2.2 1.9-.2 3.6zm13.4-1.7c0 .9-.2.8-.6-.1-.2-.6-1-.9-1.5-.6-.7.4-.8.2-.4-.5.9-1.3 2.6-.5 2.5 1.2zm3.2-.1c1.1 2.1 1.1 2.2-.4.9-1-.7-1.7-1.7-1.7-2.2 0-1.5.9-1 2.1 1.3zm-80.6 3.2c-1.4 1.8-2.5 4.1-2.5 5.2 0 1.5-.2 1.6-.9.5-.5-.8-.3-2.4.5-4 .7-1.4 1.5-3.4 1.8-4.3.3-1.1 1.1-1.5 2-1.2 1.3.5 1.1 1.1-.9 3.8zm70.5-1c0 .8.3 2.2.7 3.2.4 1.1.3 1.5-.4 1.1-1.3-.8-2.3-5.7-1.2-5.7.5 0 .9.6.9 1.4zm-52 2.6c0 1-.5 2.2-1 2.5-.6.4-.8 1.5-.5 2.4.3 1.2 0 1.8-1 1.8-1.9 0-1.9-2.1-.1-4 .9-.9 1.2-2.4.9-3.7-.4-1.6-.3-2.1.5-1.6.7.4 1.2 1.6 1.2 2.6zm35-.4c0 .8-.4 1.4-.8 1.4s-.8-.9-.8-1.9c0-1.1.4-1.7.8-1.5.4.3.8 1.2.8 2zm26.4 2.3c-.7.9-2.4-1.3-2.4-3.2 0-2.1.1-2.1 1.3.3.8 1.4 1.2 2.7 1.1 2.9zm16.2 2.4c1.4 3 1.4 3.1-.1 1.2-2.5-3-3.9-5.9-2.6-5.1.6.4 1.8 2.2 2.7 3.9zm-84.6-1.9c0 .8-.4 1.7-.8 2-.4.2-.8-.4-.8-1.5 0-1 .4-1.9.8-1.9s.8.6.8 1.4zm14.7 1.1c0 .8-.4 1.2-.9.9-.5-.3-.6-1-.3-1.5.9-1.3 1.2-1.1 1.2.6zm26.1 1c-.3.3-.9-.2-1.2-1.2-.6-1.4-.5-1.5.5-.6.7.7 1 1.5.7 1.8zM93 206c0 .5-.5 1-1.1 1-.5 0-.7-.5-.4-1 .3-.6.8-1 1.1-1 .2 0 .4.4.4 1zm149.6 1.1c1.9 2.2 1.9 2.2-.3.8-1.3-.8-2.3-1.7-2.3-2.1 0-1.2.6-.9 2.6 1.3zm-117.4 3.5c-1 2.1-2.9 5.9-4.1 8.4-2.1 4.4-2.1 4.4-1.5 1 .4-1.9 1-3.7 1.3-4 .4-.3 1.7-2.7 3-5.4 1.2-2.6 2.4-4.6 2.6-4.4.3.3-.3 2.2-1.3 4.4zm109.2 4.1c2.1 2.4 4.6 4.3 5.6 4.3 2 0 5.3 3.3 4.3 4.3-.3.4-.1.7.6.7.8 0 .9.5.1 1.9-.7 1.3-.7 2.2 0 2.6 1.7 1.1 1.1 2.2-1.2 2.1-1.5-.1-2.8-1.3-4.3-4.1-1.2-2.5-3.3-4.6-5.5-5.6-1.9-1-4.5-3.1-5.7-4.7l-2.3-3.1 2.6.5c2.7.5 2.6-.2-.5-4s2.2.6 6.3 5.1zm-105.4 0c-1.1 1.7-1.1 1.7-.6 0 .3-1 .7-2.8.7-4 .2-2.2.2-2.2.6 0 .2 1.2-.1 3-.7 4zm-108.9-2.4c-1 .9-1.1.8-.5-.6.3-1 .9-1.5 1.2-1.2.3.3 0 1.1-.7 1.8zm123.8 1.3c.4-.3.3 2.1-.2 5.2-1.6 10.6-2 11.2-2.8 4.7-.4-3.3-.3-6.8.2-7.7.5-.9 1-2.7 1-4l.2-2.3.4 2.3c.2 1.2.8 2 1.2 1.8zm6.8-.4c-.3.8-.6.5-.6-.6-.1-1.1.2-1.7.5-1.3.3.3.4 1.2.1 1.9zm5.3 3.8c.6 1.1.8 2 .6 2-.3 0-1-.9-1.6-2-.6-1.1-.8-2-.6-2 .3 0 1 .9 1.6 2zm58.7 1.2c-.3.8-.6.5-.6-.6-.1-1.1.2-1.7.5-1.3.3.3.4 1.2.1 1.9zm-60.6 1.4c.5 1.5.8 2.9.5 3.1-.2.2-.8-1-1.4-2.6-1.3-3.8-.5-4.1.9-.5zm72.4 2.3c-.6.5-2.5-1-2.5-2 0-.5.6-.4 1.4.3.8.7 1.2 1.5 1.1 1.7zm-66.8-1c0 .3.9 2.5 2 4.9 2.7 5.4 1.2 4.6-2-1.1-1.6-3-2-4.4-1.1-4.4.7 0 1.2.3 1.1.6zm-21.3 1.7c.3.8.2 1.2-.4.9-.6-.3-1 .4-1 1.7 0 1.8.2 2 1 .8 1.4-2.2 1.2 2.1-.5 9.5-1.3 5.7-1.3 5.8-1.4 2-.2-5.4-1.4-7.3-2.8-4.3-1.9 3.9-2.3 5.7-1.6 7.5.6 1.5.7 1.4 1.3-.3.5-1.2.7-.4.7 2.3 0 2.5-.4 4-.9 3.7-1.7-1-3.9-7.4-3.3-9.3.3-1-.1-3.4-1-5.4-1.7-4.1-1.9-5.7-.6-5.7.4 0 1.3 1.9 1.8 4.2.9 3.6 1.1 3.8 1.2 1.5 0-1.6.5-2.6.9-2.3.5.3.9-.8 1-2.5.1-3.5 1.2-5.4 1.2-2.1 0 1.2.5 2.2 1 2.2.6 0 1-1.1 1-2.3 0-2 .7-3.7 1.6-3.7.1 0 .5.7.8 1.6zm70.6 1.9c0 .5-.5.3-1-.5s-1-2-1-2.5c0-.6.5-.3 1 .5s1 1.9 1 2.5zm-127.3-.3c-.3.8-.6.5-.6-.6-.1-1.1.2-1.7.5-1.3.3.3.4 1.2.1 1.9zm19.3 2.7c-2.5 4.9-3.2 5.3-1.6.8 1.4-3.9 2.6-6 3.3-5.4.2.3-.5 2.3-1.7 4.6zm120.1-2.1c1.1 2.9.5 2.8-1.6-.4-1.1-1.7-1.2-2.5-.4-2.2.6.2 1.6 1.4 2 2.6zM90 224.4c-.6.6-1 3-1 5.5 0 3.5.3 4.2 1.1 3.1.8-1.2.9-1.1.6.5-.2 1.1-.9 1.9-1.5 1.7-.7-.1-1.1.1-1.1.5.4 2.2-.2 3.2-1.5 2.7-1-.4-2.2.8-3.6 3.7-1.7 3.2-2.4 3.9-3.1 2.8-1.3-2.1-1.1-5.2.5-7.5.8-1.1 1.7-3.7 2.1-5.7.4-2.1 1.2-4 1.8-4.4.6-.4.8.3.3 2.1-.8 3.1.2 7.8 1.5 7 .5-.3.7-.9.4-1.4-.3-.5-.1-1.1.5-1.5 1.2-.8 1.4-5.5.1-5.5-.4 0-.6-1-.4-2.3.3-1.4 1.2-2.3 2.4-2.3s1.5.4.9 1zm-87 1c0 .3-.4.8-1 1.1-.5.3-1 .1-1-.4 0-.6.5-1.1 1-1.1.6 0 1 .2 1 .4zm94 1.6c0 .5-.5 1-1.1 1-.5 0-.7-.5-.4-1 .3-.6.8-1 1.1-1 .2 0 .4.4.4 1zm15.1 2.1c-.5 1.3-1 1.9-1 1.2-.1-1.5 1-4.5 1.5-4 .3.2 0 1.5-.5 2.8zm40.4 3.5c.6 4.6-.9 1.9-1.9-3.6-.5-2.6-.4-3.1.3-1.9.6.9 1.3 3.4 1.6 5.5zm-141.1-4.4c-2.1 3.7-4.7 6.9-5.2 6.4-.6-.7 4-7.6 5.1-7.6.5 0 .5.6.1 1.2zm4.4.8c-.7 1-1.4 1.7-1.7 1.5-.4-.4 1.8-3.5 2.5-3.5.2 0-.1.9-.8 2zm182.1 2.4c-.9.8-1 .7-.5-.7.3-1 .7-2.4.7-3 .1-.7.3-.4.6.7.3 1-.1 2.3-.8 3zm28.1 2c0 .5-.8.1-1.9-1-1-1-1.6-2.5-1.3-3.3.4-.9.9-.6 1.8 1 .7 1.3 1.3 2.8 1.4 3.3zm-165.9.3c-1.2 2-1.4 1.4-.5-1.2.4-.9.9-1.4 1.1-1.1.3.2 0 1.3-.6 2.3zm15.4-.5c-.4 1.3-.6 3.8-.6 5.5.1 1.8-.3 3.3-.8 3.3-.6 0-.8.6-.5 1.4.3.8.1 2.3-.6 3.3-.9 1.5-1 1.3-.5-1.1.6-2.6.4-2.8-1-1.6-.8.7-2.4 3.1-3.4 5.4-1.1 2.3-2 3.4-2 2.5-.1-.9 1.2-3.6 2.9-6 3.4-5.1 4.1-8 1.3-5.8-1.4 1.2-1.4.9.2-1.9 1.1-1.7 2.3-3.2 2.7-3.2.4 0 .8-.9.8-2s.5-2 1.1-2c.7 0 .9.8.4 2.2zm85.1 7.5c-.3.7-1.1 1.3-1.8 1.2-.9 0-.9-.2-.1-.5.8-.4.9-1.5.2-3.7-1.4-4.8-1-5.7.7-1.8.8 1.9 1.2 4.1 1 4.8zM22 236c-.6 1.1-1.3 2-1.6 2-.2 0 0-.9.6-2s1.3-2 1.6-2c.2 0 0 .9-.6 2zm112.7.2c-.3.8-.6.5-.6-.6-.1-1.1.2-1.7.5-1.3.3.3.4 1.2.1 1.9zm6.8 6.5c.5 4.1.4 4.4-.6 2.3-1.3-3.1-2.1-11-.8-8.7.5.8 1.2 3.7 1.4 6.4zM2.6 238.8c-1.8 1.6-1.8 1.6-.6-.6.6-1.3 1.4-2.1 1.8-1.8.3.4-.2 1.4-1.2 2.4zm123.1-.6c-.3.8-.6.5-.6-.6-.1-1.1.2-1.7.5-1.3.3.3.4 1.2.1 1.9zm127.4.5c1.3 1.6 1.2 1.7-.3.4-1.7-1.3-2.2-2.1-1.4-2.1.2 0 1 .8 1.7 1.7zm-244 3c-.8 1.5-1 1.5-1.1.2 0-1.7 1-3.2 1.8-2.5.2.3-.1 1.3-.7 2.3zm213.9.8c0 .5-.5.3-1-.5s-1-2-1-2.5c0-.6.5-.3 1 .5s1 1.9 1 2.5zm-218.3.7c-.3.8-.6.5-.6-.6-.1-1.1.2-1.7.5-1.3.3.3.4 1.2.1 1.9zm101 0c-.3.8-.6.5-.6-.6-.1-1.1.2-1.7.5-1.3.3.3.4 1.2.1 1.9zm19.3.5c0 1.6.2 4.6.5 6.8s.2 3.4-.1 2.7c-.3-.6-1.1-.9-1.7-.5-.6.4-.8 0-.4-1 .3-.9.2-1.9-.2-2.1-.5-.3-.8-1.7-.8-3.1 0-1.3.3-2.2.8-1.9.5.3.9-.4.9-1.5 0-1.2.2-2.1.5-2.1s.5 1.2.5 2.7zm30.3-.2c-.6-1.8-.5-1.8 1-.7.9.8 1.5 2.6 1.4 4.3-.1 1.6-.3 2.9-.4 2.9-.5 0-5.3-8-5.3-8.7 0-.5.9.3 2 1.7 1.6 2 1.9 2.1 1.3.5zm-136.2 1.2c-1.2 2-1.4 1.4-.5-1.2.4-.9.9-1.4 1.1-1.1.3.2 0 1.3-.6 2.3zm78.9-.4c0 .2-.9 1.2-2 2.2-2.4 2.1-2.7 1.4-.4-.9 1.5-1.5 2.4-2 2.4-1.3zM3 248c-.6 1.2-1.4 2-1.7 1.7-.2-.3.1-1.4.8-2.6 1.7-2.6 2.4-1.9.9.9zm196.7 1.2c-.3.8-.6.5-.6-.6-.1-1.1.2-1.7.5-1.3.3.3.4 1.2.1 1.9zM213 248c0 .5-.2 1-.4 1-.3 0-.8-.5-1.1-1-.3-.6-.1-1 .4-1 .6 0 1.1.4 1.1 1zm-189 3.6c0 1.4-.4 2.3-.9 2-.5-.3-.7-1.5-.4-2.6.7-2.8 1.3-2.5 1.3.6zm54.8.9c-.3.3-.9-.2-1.2-1.2-.6-1.4-.5-1.5.5-.6.7.7 1 1.5.7 1.8zM157 255l2.4 3.5-2.7-2.4c-1.5-1.4-2.7-3.1-2.7-3.9 0-.9.1-1.3.3-1.1.2.2 1.4 2 2.7 3.9zm-124 .4c0 .2-.8 1-1.7 1.7-1.6 1.3-1.7 1.2-.4-.4 1.3-1.6 2.1-2.1 2.1-1.3z"/><path d="M81.2 239.9c-.7 1.9-1 3.6-.8 3.8.8.8 2.7-3.8 2.4-5.5-.3-1.1-.8-.5-1.6 1.7zM72 238c0 .5.5 1 1 1 .6 0 1-.5 1-1 0-.6-.4-1-1-1-.5 0-1 .4-1 1zM28 27.5c-.7.8-1 2.6-.6 4 .6 2.5.6 2.5-1.2.7-1-1-2.1-2.6-2.5-3.5-.9-2.3-3.8-2.1-4.4.3-.5 1.9-1.9 2.5-5.3 2.2-.9-.1-2.1.7-2.7 1.7-1 1.6-.9 1.8.8 1.4 2.3-.6 2.4.1.3 2.6-1 1.1-2.4 1.6-3.5 1.4-2.3-.6-2.5 1.2-.3 2.1 1 .4 1.4 1.4 1.1 2.6-.3 1.2.1 2.4 1.1 3 1 .5 1.2 1 .6 1-1.2 0-4.1-3-3.6-3.7.2-.3.2-.7-.1-.9-.2-.3-.7.2-1 1-.4.9-.2 1.8.4 2.1.5.4.7 1.1.3 1.6-.3.6.1 1.8.9 2.7 1.9 2.3 2.9 5.2 1.7 5.2-.6 0-1-.5-1-1 0-1.6-4-5.1-5.1-4.4-.6.3.1 2 1.7 4.1l2.7 3.5-2.4-.7c-2.4-.7-2.3-.6.4 1.9 3.1 3.1 3.2 3.2 1.2 4-.8.3-1.4.2-1.2-.2.1-.4-.8-1.8-1.9-3-1.7-1.9-2.3-2-2.7-.8-.3.8.1 2 .9 2.6.8.7 1.4 1.7 1.4 2.2 0 .6-.7.5-1.5-.2C1.3 62 1 62 1 63c0 .7.8 1.9 1.8 2.7 1 .8 1.1 1.1.2.7-1.3-.7-1.3-.6 0 1s1.2 2-.3 3.1-1.5 1.4.6 3.3C4.6 75 6.3 76 7.1 76c.8.1.1.7-1.6 1.5-2 .9-2.4 1.4-1.2 1.4 2 .1 2.2 1.2.6 2.8-.8.8-.3 1.1 1.9.9 1.7-.1 2.9.2 2.6.6-.3.4-1.2.8-2.1.8-1.3 0-1.1.4.6 1.9 1.3 1.2 1.8 2.2 1.2 2.6-.7.4-.3 1.4.9 2.7 1.1 1.2 1.7 2.5 1.4 3-.3.4.4.8 1.6.8 1.6 0 2-.5 1.6-1.8-.4-1.2.1-2.1 1.7-2.7 1.3-.6 2.1-1.7 1.9-2.8-.2-1 .3-1.7 1.3-1.7 1.3 0 1.9-1.2 1.6-3.3 0-.4.3-.7.9-.7.5 0 1-.7 1-1.5s.3-1.4.8-1.4c.4.1 1.5.1 2.6 0 1.6-.1 1.7-.3.5-1.9-1.1-1.4-1-1.3.9.2 1.2 1.1 2.2 1.5 2.2.9s2.8-.9 7-.7c4.1.2 7 0 7-.6s-1.2-1-2.6-1c-1.4 0-2.3-.4-1.9-1 .3-.6 3-1 5.8-1 3.7 0 4.8-.3 3.7-1-1.2-.8-1.1-1 .5-1 2 0 4.5-1.7 4.5-3.1 0-.4-1.3-1.2-3-1.9-1.6-.7-3-1.6-3-2.1 0-.4 2.1.1 4.6 1.2 2.6 1.1 4.9 1.7 5.2 1.4.3-.3-.9-1-2.7-1.6-4.4-1.5-2.5-4 2.5-3.2 2.8.5 3.3.3 2.9-1-.4-.8-.1-1.8.5-2.2.8-.5.6-1.3-.6-2.6-1.6-1.8-1.6-1.9 0-1.9.9 0 1.5.4 1.2.9-.3.5.1 1.1.9 1.4 1.1.5 1.2.1.4-2-.7-1.8-.6-3 .1-3.7.5-.5 1-1.9 1-3.1 0-1.6.2-1.7 1-.5.5.8 1 1 1 .5 0-1.9-1.7-3.6-3.8-3.8-1.5-.1-2.2-.8-2.3-2.2 0-1.1-.3-1.4-.6-.8-.7 1.9-6.1-2.5-9-7.4-2.6-4.6-9.4-9.3-7.1-5 .6 1.2 1.1 2.4 1 2.7-.1.3.5.5 1.3.5s2.2 1 3 2.3c1.5 2 1.5 2.2 0 2.2-.9 0-1.3.5-.9 1.1 1.1 1.8-2.8-.6-5.2-3.3-1.2-1.2-2.5-3.3-2.8-4.5-.5-1.4-1.2-2-2.2-1.6-.7.3-1.4 0-1.4-.7s-.8-1-1.9-.7c-1 .2-2.5.1-3.3-.4-1-.6-2-.4-2.8.6zm26.1 18.2c1.3 1.6 1.2 1.7-.3.4-1-.7-1.8-1.5-1.8-1.7 0-.8.8-.3 2.1 1.3zm-41.5 6.1c-.8.7-2.5-.8-3.7-3.1-1.1-2.1-1-2.1 1.5.2 1.4 1.4 2.4 2.6 2.2 2.9zM12 58c0 .5-.2 1-.4 1-.3 0-.8-.5-1.1-1-.3-.6-.1-1 .4-1 .6 0 1.1.4 1.1 1zm41.9 1.3c-.2.1-1.3.9-2.4 1.7-1.9 1.4-1.9 1.4-.6-.3.7-.9 1.8-1.7 2.4-1.7.6 0 .8.1.6.3zm-8.5 4.8c-.3.6 0 1.5.7 2 1.1.7 1 .9-.4.9-2.8 0-1.1 1.7 2.4 2.4 1.8.3 3 .9 2.7 1.1-.3.3-2.7.1-5.3-.5-4-.9-5.1-.8-6.6.6-1.6 1.5-1.7 1.4-1.2-.4.3-1.1 1.7-2.3 3.1-2.7 2-.5 2.3-.8 1.2-1.5-1.2-.7-.9-1.1 1-1.9 3.3-1.3 3.2-1.3 2.4 0zM36.5 74c.3.6-.1.7-.9.4-1.8-.7-2.1-1.4-.7-1.4.6 0 1.3.4 1.6 1zM0 30.9c0 .6.4 1.3 1 1.6.6.3.7-.1.4-.9-.7-1.8-1.4-2.1-1.4-.7zM225.1 52.1c-1.3 1.4-2.1 1.8-2.1.9 0-.7-.3-1-.7-.6-.5.4-.7 1-.5 1.2.2.4-7.7 7-10.4 8.7-.6.3-1.1 0-1.1-.7 0-.8 2.2-2.6 4.9-4.2 2.6-1.5 4.8-3.1 4.8-3.4 0-1.4-6.7.4-9 2.4-4.5 4-5.5 4.5-6.9 3.7-1-.6-1-1.3-.3-2.8 1.7-3.1-1.7-2.2-5.7 1.5-3.5 3.4-6.6 4.5-3.8 1.4 1-1 1.7-2.7 1.7-3.8-.1-1.8-.1-1.8-1.2.1-.7 1.1-1.8 2.7-2.6 3.5-1 .9-1.1 1.5-.3 1.8.6.2 1.1 1.2 1.1 2.3 0 1 .5 1.9 1.1 1.9.6 0 .9.7.5 1.5-.4 1 .1 1.5 1.6 1.5 3.7 0 8.9 2.3 8.4 3.7-.3.7-.1 1.3.5 1.3s.8.4.5.9c-.4.5.8.7 2.6.4 3-.4 3.1-.3 1.7 1.3-1.1 1.3-1.1 1.8-.1 2.1.6.3.9.9.6 1.5-.4.7.2.8 1.7.3 2.4-.8 2.4-.8.5 1.4-1.8 2-1.8 2.1-.1 2.1 1.5 0 1.6.2.4 1.7-1.3 1.5-1.1 1.6 1.4.9 2.6-.6 2.7-.5 1.7 1.4-.9 1.7-.8 2 .9 2 1.2 0 2.3 1.1 2.9 2.9.9 2.7.8 3-1.1 3.4-1.2.2.1.5 2.8.7 2.8.1 4.2.4 3.3.7-2.1.5-1.2 3.3 1.1 3.3 1.1 0 1.2.3.4.8-.9.6-.6 1.5 1.3 3.5 2.7 2.9 2.5 5-.4 4-1.4-.6-1.5-.4-.4.9 2.8 3.5 10.2-1.4 10.2-6.8 0-.8.7-1.7 1.5-2 .8-.4 1.2-1.1.8-1.7-1.5-2.4-.9-4.9 1.3-5.7 1.2-.5 2.5-1.3 2.8-1.8 1-1.6-.4-4.1-2-3.5-.8.3-1.4 0-1.4-.6 0-.7.7-1.4 1.5-1.7 2.1-.8 1.9-2-.7-4.3-1.8-1.7-1.9-2.1-.6-2.6 2-.8 1.8-5.5-.1-5.5-1.1 0-.9-.4.5-1.5 1.5-1.1 1.6-1.5.4-1.5-1-.1-.9-.4.5-1 1.1-.5 1.4-.9.7-.9-.7-.1-1.1-.5-.7-1 .9-1.5-1.5-2.4-3-1.1-.8.6-2.2 1-3.2.7-1.4-.4-1.4-.5.4-.6 2.3-.1 4.3-2.1 2.1-2.1-.8 0-.6-.5.5-1.1 2.2-1.3 1.2-3.2-1.4-2.4-1.3.4-1.9.2-1.7-.6.2-.7-.8-1.5-2.2-1.9l-2.5-.7 2.8-1.1c4.2-1.8 3.2-3.2-2.3-3.2-4.6 0-6.7-1.2-3.7-2.3.6-.2.9-.7.6-1.1-.4-.4-1.6.3-2.8 1.5zm-4.6 9.9c-.3.5-1.2 1-1.8 1-.7 0-.6-.4.3-1 1.9-1.2 2.3-1.2 1.5 0zm-4.5 1.9c-.8.5-2.6 1.2-4 1.5l-2.5.7 2.5-1.5c1.4-.9 3.2-1.5 4-1.5 1.3 0 1.3.1 0 .8z"/><path d="M63.5 53c.3.5 1 1 1.6 1 .5 0 .9-.5.9-1 0-.6-.7-1-1.6-1-.8 0-1.2.4-.9 1zM67 53.6c0 .8.5 1.2 1 .9.6-.3 1-1 1-1.6 0-.5-.4-.9-1-.9-.5 0-1 .7-1 1.6zM124.5 63.9c.6 1-1.1 2.4-3.4 2.8-.7.1-1.8.6-2.3 1.1-1.2 1.2-.1 3.5 1.3 2.7.5-.4.9-.1.9.4 0 .6.7 1.1 1.5 1.1s1.5.5 1.5 1.1c0 .6.7.9 1.5.5 1.3-.4 1.4-.2.5 1.4-1.4 2.5-4.2 2.7-3.3.2.3-.9.3-1.4-.1-1-.5.4-2.4-.2-4.3-1.3-2-1.1-3.9-1.7-4.2-1.2-.3.4-1.9.9-3.4 1.1-1.6.2-3.4.8-4 1.3-1.3 1.1-5.9 3.6-11.7 6.5-2.7 1.4-3.1 1.9-1.7 2.2 1 .2 2.4-.2 3.2-.8 2.2-1.9 1.8.4-.4 2.4-2.3 2.1-1.7 4.8.7 3.8 1.4-.5 1.5-.3.5 1-.7.8-.9 1.9-.5 2.3.4.5.2.5-.4.2-.6-.4-2 .3-3 1.4-1.7 1.9-1.7 2 .2 1.4 1.6-.6 1.5-.3-.5 1.4-1.9 1.7-2 2.1-.6 2.1 1.1 0 1.5.5 1.1 1.5-.3 1 .1 1.5 1.2 1.6 1.3 0 1.2.3-.5 1.1-2.8 1.4-3 2.8-.3 2.8 1.1 0 2-.5 2-1 0-.6.5-1 1.1-1 .8 0 .8.4-.1 1.5-1.3 1.6-.4 3.9 1.2 2.9.6-.4.9-.1.6.7-.2.8-1.9 2.1-3.7 3.1-4.1 2.1-5.3 3.3-2.3 2.4 1.3-.5 2.2-.3 2.2.3s.6.8 1.4.5c1.5-.6 1.6 1.2.2 3.5-.5.8-.5 1.2 0 .9.5-.2 3-1.4 5.7-2.6 2.6-1.3 4.7-2.7 4.7-3.3 0-.6.4-.8 1-.4.5.3.7 1.3.3 2.3-.3.9.6.1 1.9-1.8 2-2.7 2.5-4.5 2.3-8.3-.2-2.6.1-4.7.6-4.7s.9-1.1.9-2.4c0-2.2 1.4-3.4 4.5-3.7 1.4-.1 3.5-2 3.5-3.1 0-.6-.8-.4-1.7.3-1.6 1.3-1.7 1.2-.4-.3.7-1 1.7-1.5 2.2-1.2.5.3.9-.1.9-.8 0-.9.3-.9 1 .2.9 1.3 1.4.7 1.1-1.2 0-.4.7-.4 1.6-.1 1.3.5 1.5.2 1-1.3-.6-1.6-.4-1.5 1 .3 1.8 2.3 1.8 2.2 1.7-2.5-.2-6.5-.3-6.9-1.5-4.9-.5.9-.7 2.3-.3 3 .5.7 0 .6-1-.3-1.2-.9-1.4-1.6-.7-1.8.9-.3.9-.7 0-1.8-.6-.8-1-1.4-.8-1.5.2 0 1.3-.2 2.4-.4 1.1-.2 2.1-.9 2.3-1.5.2-.5.8-.8 1.3-.4.5.3.9 0 .9-.5 0-1.4-.6-1.4-3-.1-1.5.8-1.7.6-1.3-1.1.3-1.1 1.2-2.3 1.9-2.6.8-.3 1.4-.9 1.4-1.5 0-.5-.4-.6-1-.3-.5.3-1 .2-1-.4 0-.5.5-1.3 1-1.6 1.5-1 1.2-3.2-.5-3.2-.9 0-1.3.7-1 1.6.2.9 0 2.3-.6 3.1-.8 1.2-1 1.2-.8-.5.3-3.7-.1-4.5-2.2-4.5-1.1 0-1.8.4-1.4.9zm-23.8 29.7c-.3.3-1.2.4-1.9.1-.8-.3-.5-.6.6-.6 1.1-.1 1.7.2 1.3.5zm4.3 1.2c0 .4 1.5.6 3.4.4 1.9-.2 3.7.1 4.1.8.9 1.4-1.4 6.2-2.7 5.4-.4-.3-.8-.1-.8.5 0 1.3-3.4 3.1-6.8 3.7-2.6.4-2.7.4-.5-.9 1.6-.9 2-1.6 1.3-2.6-.7-1.3-1.1-1.3-2.7 0-1 .8-.7-.1.9-2.2l2.7-3.6-2.7.4-2.7.4 2.5-1.5c2.8-1.7 4-2 4-.8zm6 9.9c-.1 1-.8 2.9-1.6 4.3-1 1.6-1.3 1.8-.8.5.4-1.1.6-3 .5-4.3 0-1.2.4-2.2.9-2.2.6 0 1 .8 1 1.7zm-3 2.1c0 .5-.6 1.6-1.3 2.6-1.3 1.7-1.4 1.8-2 .2-.4-.9-.3-1.5.2-1.2.5.3 1.1-.1 1.5-.9.6-1.6 1.6-2 1.6-.7zm-5.5 1.2c-.3.5-1.2 1-1.8 1-.7 0-.6-.4.3-1 1.9-1.2 2.3-1.2 1.5 0z"/><path d="M103.7 98.7c-.4.7-.3 2.2.3 3.3.9 1.7 1.4 1.9 2.6.9 1.8-1.5 1.8-3.3 0-2.6-.9.4-1.6-.1-1.8-1.1-.3-1.2-.6-1.4-1.1-.5zM59.8 67.7c.7.3 1.6.2 1.9-.1.4-.3-.2-.6-1.3-.5-1.1 0-1.4.3-.6.6zM36.5 79c.3.5 1.6 1 2.8.9 2.1 0 2.1-.1.2-.9-2.8-1.2-3.7-1.2-3 0zM33.5 81c-.3.6.1.7.9.4 1.8-.7 2.1-1.4.7-1.4-.6 0-1.3.4-1.6 1zM42 81c0 .5.4 1 .9 1 .6 0 1.3-.5 1.6-1 .3-.6-.1-1-.9-1-.9 0-1.6.4-1.6 1zM29.8 81.7c.7.3 1.6.2 1.9-.1.4-.3-.2-.6-1.3-.5-1.1 0-1.4.3-.6.6zM178.7 82.8c-2.6 2.9-2.1 4.6 2.6 8.7 3.2 2.8 12.2 7.5 14.3 7.5.1 0 .4-1 .8-2.3 1.3-4.9-4.3-12.4-8.3-10.9-.8.3-1.1 0-.7-.7.5-.7.1-.9-.8-.5-1.1.4-1.6 0-1.6-1.5 0-2.7-4-2.9-6.3-.3zM32.7 83.4c-2.7.6-4.5 1.5-4.1 1.9 1 1 4.4.9 4.4-.2 0-.5 1.2-.9 2.6-.9 1.4 0 3.1-.5 3.7-1.1 1.4-1.4.1-1.3-6.6.3zM52.8 85.7c-2.1.8-3.5 1.9-3.2 2.4.8 1.3 1.5 1.1 5.9-1.6 4.5-2.7 3-3.2-2.7-.8zM79.1 85.4c-1 1.2-.8 1.3.9.9 2.5-.7 3.7-2.3 1.7-2.3-.8 0-2 .6-2.6 1.4zM89.1 86.1c-2.4 1.1-4.1 2.2-3.8 2.5.6.7 7.5-2.4 8.3-3.7.7-1.1.8-1.2-4.5 1.2zM65.9 89c-2.3 1.9-2.3 1.9-.3 2 2 0 4.4-1.7 4.4-3.2 0-1.4-1.7-.9-4.1 1.2zM75.5 89c-.3.5-.2 1 .4 1 .5 0 1.3-.5 1.6-1 .3-.6.2-1-.4-1-.5 0-1.3.4-1.6 1zM91.2 89.2c-1.6 1.6-1.5 2.5.1 2.5.7 0 1.4-.9 1.4-1.9.2-2.1.1-2.2-1.5-.6zM58.4 93.2l-2.9 3.3 3.3-2.9c3-2.8 3.7-3.6 2.9-3.6-.2 0-1.6 1.5-3.3 3.2zM17.5 93.4c1.7.7 3.4 1.1 3.9.8 1.3-.7-1.6-2.2-4.4-2.1-2.4 0-2.4 0 .5 1.3zM79.1 96.1c-1.3 1.1-2 2.3-1.6 2.7.4.4 1 .1 1.2-.6.3-.6.9-1 1.4-.6.5.3.9 0 .9-.6s.3-.9.8-.6c.4.2 1.6-.2 2.7-1 1-.8 1.4-1.4.8-1.4-.7 0-1.5.5-1.9 1.1-.4.7-.9.8-1.3.1-.4-.6-1.5-.3-3 .9zM49.2 99.2c-2.3 2.2-4 4.3-3.7 4.6.5.6 8.1-5.8 8.9-7.6 1.1-2.3-1-1.2-5.2 3zM119.5 96.5c-.3.8-.7 2.2-1 3.1-.3.8-.1 1.3.4 1 .5-.3 1.1-1.7 1.3-3.1.6-2.7 0-3.4-.7-1zM13 97c-.8.5-1 1-.5 1 .6 0 1.7-.5 2.5-1s1.1-1 .5-1c-.5 0-1.7.5-2.5 1zM62.7 97.4c-1.3 1-1.4 1.5-.5 1.8.7.3-.1 1.2-1.9 2.3-2.8 1.6-7.8 9.3-6.8 10.4.6.6 3.5-2 3.5-3.1 0-.6 1.8-3.3 4-6 4.8-6 5.5-8.2 1.7-5.4zM67.8 98.6c-3.1 1.6-3.8 3-1 1.9.9-.3.2.8-1.6 2.6-3.8 3.7-3.4 5.4.4 1.8 2.2-2 6.1-8 5.2-7.9-.2.1-1.5.8-3 1.6zM73 98c0 .5.4 1 .9 1 .6 0 1.3-.5 1.6-1 .3-.6-.1-1-.9-1-.9 0-1.6.4-1.6 1z"/><path d="M114.3 104c-.6 3.6-1.4 7.5-1.8 8.7-.6 1.9-.4 2.2 1.4 1.8 3-.6 4.2-1.5 3.6-2.6-.4-.5 0-1.1.7-1.4.8-.3 1.4-2.2 1.5-4.8.1-2.9-.1-3.6-.7-2.2l-.7 2-.5-2c-.3-1.1-.5-.4-.5 1.6 0 1.9-.4 4.3-1 5.3-.6 1.2-.8-.1-.5-4.3.6-8.5-.3-9.7-1.5-2.1zM123.6 100.7c-.6 1.4-.5 1.5.5.6.7-.7 1-1.5.7-1.8-.3-.3-.9.2-1.2 1.2zM50.4 102.2l-1.9 2.3 2.3-1.9c2.1-1.8 2.7-2.6 1.9-2.6-.2 0-1.2 1-2.3 2.2zM68.2 105.7c-2 2-2.8 2.9-1.6 2 1.1-1 2.4-1.7 2.8-1.7.4 0 1.9-.9 3.3-2 1.9-1.5 2.2-2 .9-2-.9 0-3.3 1.6-5.4 3.7zM0 108.1c0 5.5.7 6 3.3 2.4 1.4-2 1.5-2.4.2-1.9-1.9.8-1.9-.5 0-3.3 1.3-1.9 1.3-2.1-1-2.1s-2.5.4-2.5 4.9zM87 105c-1.9 1.1-3 1.9-2.4 2 1.5 0 6.4-2.4 6.4-3.3 0-.9.1-.9-4 1.3zM51.7 107c-2.8 3-3.6 4.6-1.4 3.4.8-.5.8-.3-.2.9-.7.9-1.7 1.5-2.1 1.2-.5-.3-1.2 0-1.6.6-.5.8-.3.9.6.4.8-.5 1.1-.3.8.6-.3.8-1.1 1.3-1.7 1.1-.6-.1-1.1.2-1.1.8 0 1.4 1.2 1.2 3.7-.5 2-1.4 6.8-10.3 6-11.1-.1-.2-1.5 1-3 2.6zM223 104.4c0 .3.9 1 2 1.6 1.1.6 2 .8 2 .6 0-.3-.9-1-2-1.6-1.1-.6-2-.8-2-.6zM209.1 106.7c.7 1.2 1.5 2 1.8 1.7.3-.2-.3-1.2-1.3-2.2-1.7-1.6-1.8-1.6-.5.5zM45.9 107.7c-1.3 1.6-1.2 1.7.4.4.9-.7 1.7-1.5 1.7-1.7 0-.8-.8-.3-2.1 1.3zM59.1 110.1c-1.2 1.2-2 2.3-1.8 2.5.8.9 5.4-1.5 6-3 .9-2.3-1.5-2-4.2.5zM90 110c-1.6 1.4-1.9 2-.8 2 .8 0 2.3-.9 3.3-2s1.4-2 .8-2c-.5 0-2 .9-3.3 2zM95 109c0 .5.5 1 1 1 .6 0 1-.5 1-1 0-.6-.4-1-1-1-.5 0-1 .4-1 1zM8.5 114c-.3.5-.1 1 .4 1 .6 0 1.1-.5 1.1-1 0-.6-.2-1-.4-1-.3 0-.8.4-1.1 1zM57.8 114.6c-1.6.8-2.8 1.9-2.8 2.3 0 .5-1.6 1.9-3.6 3-2 1.2-3.4 2.5-3.1 2.8.4.3 1.3 0 2.2-.7 1.3-1.1 1.4-1 .9.4-.4.9-.1 1.6.6 1.6.8 0 .9.4.3 1.2-1.6 2-2.3 4.8-1.3 4.8.8 0 2.4-3.4 2.5-5.5 0-1.2 5.3-8.5 7.4-10.3 2-1.6.2-1.5-3.1.4zM69.4 116.1l-1.9 2.2 3.5-1.8c4.5-2.3 4.7-2.5 2.3-2.5-1.1 0-2.8 1-3.9 2.1zM110 117.1c0 .5.5.7 1 .4.6-.3 1-.8 1-1.1 0-.2-.4-.4-1-.4-.5 0-1 .5-1 1.1zM77.4 119.6l-2.9 2.6 3.3-1.8c1.7-1 3.2-2.2 3.2-2.6 0-1.2-.5-1-3.6 1.8zM117.7 121c1 1.1 1.9 2 2.1 2 .1 0-.2-.9-.8-2-.6-1.1-1.5-2-2-2-.6 0-.2.9.7 2zM121 120.1c0 .5.5.7 1 .4.6-.3 1-.8 1-1.1 0-.2-.4-.4-1-.4-.5 0-1 .5-1 1.1zM144.4 121.3c.1 1.2-.3 2.6-.9 3-.6.5-.1.6 1 .2 1.1-.4 2.5-.8 3.2-.9.7-.1 1.6-.6 2-1 .4-.5-.5-.6-2.1-.2-2.5.6-2.8.5-1.7-.7.9-1.2.9-1.6-.2-2-1-.4-1.4.2-1.3 1.6zM139.6 122.5c-.9.9-1.6 2.2-1.6 2.8 0 .6 1 .2 2.2-1.1 1.2-1.2 1.9-2.4 1.6-2.7-.3-.3-1.3.1-2.2 1zM132.9 125.6c-3.4 2.5-3.4 2.5-3.7.3l-.4-2.1-1.4 2.1c-1.6 2.2-1 6.6.7 5.6.5-.4.9 0 .9.7s.9-.2 2-1.9c1.2-2 2.5-3 3.3-2.7 1 .3 1.6-.4 1.9-2 .3-1.4.4-2.6.4-2.6-.1 0-1.8 1.1-3.7 2.6zM213.7 124.4c.5 1.4.3 1.7-.7 1.1-.9-.5-1.1-.4-.6.4.4.6 1.2.9 1.7.6.5-.3.6.1.3.9-.3.9-.1 1.6.4 1.6 2.1 0 2.2-1.8.2-4.1-1.6-1.9-1.9-2-1.3-.5zM1 125c-.8.5-1.2 1.2-.9 1.5.4.3 1.2-.1 1.9-1 1.4-1.7 1.1-1.9-1-.5zM124.6 125.7c-.6 1.4-.5 1.5.5.6.7-.7 1-1.5.7-1.8-.3-.3-.9.2-1.2 1.2zM100.9 126.7c-1.2 1.6-1.2 1.7.2.6.9-.7 2-.9 2.4-.5.5.4.5.1.1-.6-.9-1.6-1.1-1.5-2.7.5zM154.7 126.4c-.4 1 0 1.2 1.4.9 2.2-.6 2.6-2.3.5-2.3-.8 0-1.6.6-1.9 1.4zM95 127.5c-1.1 1.3-1 1.4.4.9.9-.3 1.6-1 1.6-1.5 0-1.3-.6-1.1-2 .6zM85.6 129.7c-.6 1.4-.5 1.5.5.6.7-.7 1-1.5.7-1.8-.3-.3-.9.2-1.2 1.2zM210 128.9c0 .3 1.2 1.9 2.6 3.6 2.6 3 2.6 3 1 .2-.9-1.5-1.5-3.1-1.2-3.6.3-.4-.1-.8-.9-.8s-1.5.3-1.5.6zM.7 129.7c-.4.3-.7 1.8-.7 3.2 0 2.4.1 2.4 1.4.5.8-1 1-2.1.5-2.2-.5-.2-.7-.8-.3-1.3.6-1 0-1.2-.9-.2zM44.5 130c-.3.5-.1 1 .4 1 .6 0 1.1-.5 1.1-1 0-.6-.2-1-.4-1-.3 0-.8.4-1.1 1zM80.7 130.7c-.4.3-.7 1.1-.7 1.7 0 .6.5.5 1.2-.2.6-.6.9-1.4.7-1.7-.3-.3-.9-.2-1.2.2zM46.7 135.1c-2 2.6-3.7 5-3.7 5.5s.5.1 1-.8c.6-1 1.9-1.5 3.1-1.3 1.4.3 2.3-.3 3-2.2 2-5.3.5-5.9-3.4-1.2zM93.6 132.7c-.6 1.4-.5 1.5.5.6.7-.7 1-1.5.7-1.8-.3-.3-.9.2-1.2 1.2zM120.8 132.8c-1.6.7-2.8 1.6-2.9 2 0 .4-.2 1.5-.4 2.5-.2 1.3.1 1.7 1.2 1.3 1.2-.5 1.4-.1 1 1.4-.3 1.1-.2 2 .2 2 1.7 0 4.1-2.7 4.3-5 .2-1.4.6-2.7.9-3 .4-.3.2-1-.5-1.5-.7-.7-1.9-.6-3.8.3zm-.1 3.8c-.3.3-1.2.4-1.9.1-.8-.3-.5-.6.6-.6 1.1-.1 1.7.2 1.3.5zm2.3 2.4c0 .5-.5 1-1.1 1-.5 0-.7-.5-.4-1 .3-.6.8-1 1.1-1 .2 0 .4.4.4 1zM98 134c-.9 1.6-.8 1.8.5 1.4.8-.4 1.5-1.2 1.5-2 0-2-.7-1.7-2 .6zM40.6 135.9c-2.3 4.3-1.9 5.2.5 1.3 1.2-1.8 1.9-3.5 1.6-3.8-.3-.3-1.3.8-2.1 2.5zM74.1 135.6c0 1.1.3 1.4.6.6.3-.7.2-1.6-.1-1.9-.3-.4-.6.2-.5 1.3zM110.5 135c-.3.5-.2 1 .4 1 .5 0 1.3-.5 1.6-1 .3-.6.2-1-.4-1-.5 0-1.3.4-1.6 1zM126.7 134.7c-.4.3-.7 1.1-.7 1.7 0 .6.5.5 1.2-.2.6-.6.9-1.4.7-1.7-.3-.3-.9-.2-1.2.2zM212.8 138c1.2 2.1 1.8 2.5 2 1.4.4-1.6-1.5-4.4-2.9-4.4-.4 0 0 1.3.9 3zM216 137c0 1.1.4 2 .9 2s.7-.9.4-2c-.3-1.1-.7-2-.9-2-.2 0-.4.9-.4 2zM7.5 137c-.3.5-.2 1 .4 1 .5 0 1.3-.5 1.6-1 .3-.6.2-1-.4-1-.5 0-1.3.4-1.6 1zM92 138c-.9 1.6-.8 1.8.5 1.4.8-.4 1.5-1.2 1.5-2 0-2-.7-1.7-2 .6zM98 138.1c-.7 1.1-1 2.3-.7 2.5.2.2.9-.7 1.5-2.1 1.4-3 .7-3.3-.8-.4zM106.2 140c-2.4 3.1-1.5 4.1 1.2 1.4 1.4-1.3 2.2-4.4 1.3-4.4-.2 0-1.3 1.3-2.5 3zM45.8 141.2c-2.4 3.6-3.9 6.8-3.3 6.8.8 0 5.8-8 5.3-8.6-.3-.2-1.2.6-2 1.8zM208.3 146c.6 1.6 1.3 2.7 1.5 2.5.7-.7-.8-5.5-1.7-5.5-.5 0-.4 1.3.2 3zM113.2 145.2c-.7.7-1.2 1.6-1.2 2 0 1.5 1.5.8 2.8-1.2 1.3-2.2.3-2.7-1.6-.8zM124.5 145c-.3.5-.2 1 .4 1 .5 0 1.3-.5 1.6-1 .3-.6.2-1-.4-1-.5 0-1.3.4-1.6 1zM225 144.9c0 .6.4 1.3 1 1.6.6.3.7-.1.4-.9-.7-1.8-1.4-2.1-1.4-.7zM122.5 149c-.8 1.3.5 1.3 2.5 0 1.3-.8 1.3-1-.2-1-.9 0-2 .4-2.3 1zM225.4 157.5c.3.8.1 1.5-.4 1.5s-.8.9-.7 2c.1 1.2.8 2 1.9 2 .9 0 2 .4 2.3 1 .3.5 1 1 1.5 1 .6 0 0-2-1.2-4.5s-2.6-4.5-3.1-4.5-.7.7-.3 1.5zM233 169.4c0 .2.7.7 1.6 1 .8.3 1.2.2.9-.4-.6-1-2.5-1.4-2.5-.6zM236.2 173.6c1 1 2 1.5 2.4 1.2.3-.4-.5-1.2-1.8-1.8-2.2-1.2-2.2-1.2-.6.6zM238 192.4c0 .2.8 1 1.8 1.7 1.5 1.3 1.6 1.2.3-.4s-2.1-2.1-2.1-1.3zM236.5 195.4c2.1 3.2 2.7 3.3 1.6.4-.4-1.2-1.4-2.4-2-2.6-.8-.3-.7.5.4 2.2zM240 197.4c0 .8.5 1.8 1 2.1.6.3 1-.1 1-.9s-.4-1.8-1-2.1c-.5-.3-1 .1-1 .9zM236.3 231.8c0 1 .7 1.9 1.3 1.9.9 0 1-.5.3-1.9-.5-1-1.2-1.8-1.4-1.8-.2 0-.3.8-.2 1.8zM240 236.4c0 .2.7.9 1.5 1.6 1.3 1.1 1.4 1 .9-.4-.5-1.4-2.4-2.3-2.4-1.2zM229.6 252.2c.3.5 1 .6 1.5.3 1.3-.9 1.1-1.2-.6-1.2-.8 0-1.2.4-.9.9zM242.5 254c.3.5 1.1 1 1.6 1 .6 0 .7-.5.4-1-.3-.6-1.1-1-1.6-1-.6 0-.7.4-.4 1zM239 255c0 .5.5 1 1.1 1 .5 0 .7-.5.4-1-.3-.6-.8-1-1.1-1-.2 0-.4.4-.4 1zM242.4 257.7c.2 1.2 1.3 1.9 3.2 2.1l2.9.4-2.7-2.1c-3.2-2.6-3.7-2.6-3.4-.4z"/></svg>