<?xml version="1.0" encoding="UTF-8"?>
<svg width="1182px" height="662px" viewBox="0 0 1182 662" version="1.1" xmlns="http://www.w3.org/2000/svg" xmlns:xlink="http://www.w3.org/1999/xlink">
    <!-- Generator: Sketch 43.2 (39069) - http://www.bohemiancoding.com/sketch -->
    <title>project-plan</title>
    <desc>Created with Sketch.</desc>
    <defs>
        <rect id="path-1" x="0" y="0" width="1180" height="110"></rect>
        <rect id="path-2" x="0" y="0" width="1180" height="110"></rect>
        <rect id="path-3" x="0" y="0" width="1180" height="110"></rect>
        <rect id="path-4" x="0" y="0" width="1180" height="110"></rect>
        <rect id="path-5" x="0" y="0" width="1180" height="110"></rect>
        <rect id="path-6" x="0" y="0" width="1180" height="110"></rect>
    </defs>
    <g id="Page-1" stroke="none" stroke-width="1" fill="none" fill-rule="evenodd">
        <g id="project-plan">
            <g id="Group" transform="translate(1.000000, 1.000000)">
                <g id="Rectangle">
                    <use fill="#382A2C" fill-rule="evenodd" xlink:href="#path-1"></use>
                    <rect stroke="#382A2C" stroke-width="1" x="-0.5" y="-0.5" width="1181" height="111"></rect>
                </g>
                <rect id="Rectangle" fill="#56453B" x="5" y="5" width="160" height="100"></rect>
                <rect id="Rectangle-Copy-3" fill="#C700EB" x="173" y="5" width="160" height="100"></rect>
                <rect id="Rectangle-Copy-4" fill="#C700EB" x="342" y="5" width="160" height="100"></rect>
                <rect id="Rectangle-Copy-5" fill="#C700EB" x="510" y="5" width="160" height="100"></rect>
                <rect id="Rectangle-Copy-6" fill="#C700EB" x="678" y="5" width="160" height="100"></rect>
                <rect id="Rectangle-Copy-7" fill="#C700EB" x="847" y="5" width="160" height="100"></rect>
                <rect id="Rectangle-Copy-8" fill="#56453B" x="1015" y="5" width="160" height="100"></rect>
            </g>
            <g id="Group-Copy" transform="translate(1.000000, 111.000000)">
                <g id="Rectangle">
                    <use fill="#382A2C" fill-rule="evenodd" xlink:href="#path-2"></use>
                    <rect stroke="#382A2C" stroke-width="1" x="-0.5" y="-0.5" width="1181" height="111"></rect>
                </g>
                <rect id="Rectangle" fill="#56453B" x="5" y="5" width="160" height="100"></rect>
                <rect id="Rectangle-Copy-3" fill="#C700EB" x="173" y="5" width="160" height="100"></rect>
                <rect id="Rectangle-Copy-4" fill="#C700EB" x="342" y="5" width="160" height="100"></rect>
                <rect id="Rectangle-Copy-5" fill="#C700EB" x="510" y="5" width="160" height="100"></rect>
                <rect id="Rectangle-Copy-6" fill="#C700EB" x="678" y="5" width="160" height="100"></rect>
                <rect id="Rectangle-Copy-7" fill="#C700EB" x="847" y="5" width="160" height="100"></rect>
                <rect id="Rectangle-Copy-8" fill="#56453B" x="1015" y="5" width="160" height="100"></rect>
            </g>
            <g id="Group-Copy-2" transform="translate(1.000000, 221.000000)">
                <g id="Rectangle">
                    <use fill="#382A2C" fill-rule="evenodd" xlink:href="#path-3"></use>
                    <rect stroke="#382A2C" stroke-width="1" x="-0.5" y="-0.5" width="1181" height="111"></rect>
                </g>
                <rect id="Rectangle" fill="#56453B" x="5" y="5" width="160" height="100"></rect>
                <rect id="Rectangle-Copy-3" fill="#FF7800" x="173" y="5" width="160" height="100"></rect>
                <rect id="Rectangle-Copy-4" fill="#FF7800" x="342" y="5" width="160" height="100"></rect>
                <rect id="Rectangle-Copy-5" fill="#FF7800" x="510" y="5" width="160" height="100"></rect>
                <rect id="Rectangle-Copy-6" fill="#FF7800" x="678" y="5" width="160" height="100"></rect>
                <rect id="Rectangle-Copy-7" fill="#FF7800" x="847" y="5" width="160" height="100"></rect>
                <rect id="Rectangle-Copy-8" fill="#56453B" x="1015" y="5" width="160" height="100"></rect>
            </g>
            <g id="Group-Copy-3" transform="translate(1.000000, 331.000000)">
                <g id="Rectangle">
                    <use fill="#382A2C" fill-rule="evenodd" xlink:href="#path-4"></use>
                    <rect stroke="#382A2C" stroke-width="1" x="-0.5" y="-0.5" width="1181" height="111"></rect>
                </g>
                <rect id="Rectangle" fill="#56453B" x="5" y="5" width="160" height="100"></rect>
                <rect id="Rectangle-Copy-3" fill="#FF7800" x="173" y="5" width="160" height="100"></rect>
                <rect id="Rectangle-Copy-4" fill="#FF7800" x="342" y="5" width="160" height="100"></rect>
                <rect id="Rectangle-Copy-5" fill="#FF7800" x="510" y="5" width="160" height="100"></rect>
                <rect id="Rectangle-Copy-6" fill="#FF7800" x="678" y="5" width="160" height="100"></rect>
                <rect id="Rectangle-Copy-7" fill="#FF7800" x="847" y="5" width="160" height="100"></rect>
                <rect id="Rectangle-Copy-8" fill="#56453B" x="1015" y="5" width="160" height="100"></rect>
            </g>
            <g id="Group-Copy-4" transform="translate(1.000000, 441.000000)">
                <g id="Rectangle">
                    <use fill="#382A2C" fill-rule="evenodd" xlink:href="#path-5"></use>
                    <rect stroke="#382A2C" stroke-width="1" x="-0.5" y="-0.5" width="1181" height="111"></rect>
                </g>
                <rect id="Rectangle" fill="#56453B" x="5" y="5" width="160" height="100"></rect>
                <rect id="Rectangle-Copy-3" fill="#FFFCFF" x="173" y="5" width="160" height="100"></rect>
                <rect id="Rectangle-Copy-4" fill="#FFFCFF" x="342" y="5" width="160" height="100"></rect>
                <rect id="Rectangle-Copy-5" fill="#FFFCFF" x="510" y="5" width="160" height="100"></rect>
                <rect id="Rectangle-Copy-6" fill="#FFFCFF" x="678" y="5" width="160" height="100"></rect>
                <rect id="Rectangle-Copy-7" fill="#FFFCFF" x="847" y="5" width="160" height="100"></rect>
                <rect id="Rectangle-Copy-8" fill="#56453B" x="1015" y="5" width="160" height="100"></rect>
            </g>
            <g id="Group-Copy-5" transform="translate(1.000000, 551.000000)">
                <g id="Rectangle">
                    <use fill="#382A2C" fill-rule="evenodd" xlink:href="#path-6"></use>
                    <rect stroke="#382A2C" stroke-width="1" x="-0.5" y="-0.5" width="1181" height="111"></rect>
                </g>
                <rect id="Rectangle" fill="#56453B" x="5" y="5" width="160" height="100"></rect>
                <rect id="Rectangle-Copy-3" fill="#FFFCFF" x="173" y="5" width="160" height="100"></rect>
                <rect id="Rectangle-Copy-4" fill="#FFFCFF" x="342" y="5" width="160" height="100"></rect>
                <rect id="Rectangle-Copy-5" fill="#FFFCFF" x="510" y="5" width="160" height="100"></rect>
                <rect id="Rectangle-Copy-6" fill="#FFFCFF" x="678" y="5" width="160" height="100"></rect>
                <rect id="Rectangle-Copy-7" fill="#FFFCFF" x="847" y="5" width="160" height="100"></rect>
                <rect id="Rectangle-Copy-8" fill="#56453B" x="1015" y="5" width="160" height="100"></rect>
            </g>
            <path d="M469.465,103.59 C469.465,117.498658 459.548892,125.83 444.795,125.83 L442.095,125.83 C436.572153,125.83 432.095,121.352847 432.095,115.83 L432.095,91.17 C432.095,85.6471525 436.572153,81.17 442.095,81.17 L444.795,81.17 C459.625514,81.17 469.465,89.4818945 469.465,103.59 Z M444.975,135 C456.855,135 466.035,132.21 472.605,126.63 C479.175,121.05 482.415,113.31 482.415,103.41 C482.415,83.25 469.095,72 444.975,72 L419.595,72 L419.595,135 L444.975,135 Z M444.975,145 L419.595,145 C414.072153,145 409.595,140.522847 409.595,135 L409.595,72 C409.595,66.4771525 414.072153,62 419.595,62 L444.975,62 C474.237225,62 492.415,77.2770658 492.415,103.41 C492.415,116.156018 487.970757,126.699601 479.078453,134.251969 C470.517414,141.522988 459.048883,145 444.975,145 Z M537.945,116.55 L511.125,116.55 L511.125,111.15 L532.905,111.15 L532.905,95.94 L511.125,95.94 L511.125,90.45 L537.675,90.45 L535.425,72 L489.075,72 L489.075,135 L535.695,135 L537.945,116.55 Z M547.871459,117.760544 L545.621459,136.210544 C545.009568,141.228049 540.749678,145 535.695,145 L489.075,145 C483.552153,145 479.075,140.522847 479.075,135 L479.075,72 C479.075,66.4771525 483.552153,62 489.075,62 L535.425,62 C540.479678,62 544.739568,65.7719509 545.351459,70.7894562 L547.601459,89.2394562 C548.094853,93.2852914 546.109508,97.005183 542.905,98.9766157 L542.905,107.863083 C546.267232,109.788288 548.378567,113.602259 547.871459,117.760544 Z M562.425,112.14 C568.995,114.03 570.435,114.84 570.435,116.37 C570.435,117.9 568.995,118.62 566.025,118.62 C563.055,118.62 559.365,117.81 554.955,116.1 C550.545,114.39 546.405,112.32 542.715,109.89 L542.445,110.07 L544.515,130.32 C550.185,133.92 558.375,136.08 566.385,136.08 C582.585,136.08 592.485,128.07 592.485,115.02 C592.485,109.71 591.045,105.48 588.075,102.33 C585.105,99.18 579.795,96.57 572.145,94.41 C566.295,92.7 564.585,91.8 564.585,90.36 C564.585,89.01 565.755,88.38 568.275,88.38 C570.975,88.38 574.305,88.92 578.265,90.09 C582.135,91.26 585.555,92.7 588.525,94.32 L588.705,94.32 L588.705,75.33 C583.035,72.54 575.835,70.92 568.275,70.92 C560.445,70.92 554.145,72.81 549.555,76.59 C544.875,80.46 542.535,85.5 542.535,91.8 C542.535,96.93 544.065,100.98 547.035,104.13 C550.005,107.28 555.135,109.98 562.425,112.14 Z M532.535,91.8 C532.535,82.5552881 536.176643,74.6767332 543.197927,68.8706976 C549.722067,63.4978768 558.253612,60.92 568.275,60.92 C577.210304,60.92 585.942945,62.8258208 593.120077,66.3574252 C596.539234,68.0398675 598.705,71.5193245 598.705,75.33 L598.705,94.32 C598.705,95.8115959 598.378429,97.2269171 597.792885,98.4983639 C600.957495,103.120349 602.485,108.716163 602.485,115.02 C602.485,134.12802 587.683787,146.08 566.385,146.08 C556.559948,146.08 546.510238,143.432172 539.154919,138.762128 C536.569102,137.12034 534.878324,134.384036 534.566841,131.336923 L532.496841,111.086923 C532.214508,108.324966 533.093826,105.61575 534.848946,103.565729 C533.306074,100.017083 532.535,96.069621 532.535,91.8 Z M621.105,72 L598.605,72 L598.605,135 L621.105,135 L621.105,72 Z M621.105,62 C626.627847,62 631.105,66.4771525 631.105,72 L631.105,135 C631.105,140.522847 626.627847,145 621.105,145 L598.605,145 C593.082153,145 588.605,140.522847 588.605,135 L588.605,72 C588.605,66.4771525 593.082153,62 598.605,62 L621.105,62 Z M659.715,98.19 L659.715,111.42 L668.805,111.42 L668.805,117.18 C668.355,117.27 667.905,117.27 666.555,117.27 C656.745,117.27 651.165,112.5 651.165,104.22 C651.165,95.85 657.285,90.81 667.275,90.81 C673.395,90.81 679.515,92.25 687.075,95.58 L687.075,75.15 C679.965,72.27 673.215,71.01 665.565,71.01 C654.045,71.01 644.865,73.98 638.115,80.01 C631.365,86.04 627.945,94.14 627.945,104.49 C627.945,113.94 631.095,121.59 637.395,127.26 C643.605,133.02 651.885,135.9 662.055,135.9 C670.065,135.9 679.065,134.01 688.515,130.32 L688.515,98.19 L659.715,98.19 Z M698.515,98.19 L698.515,130.32 C698.515,134.439104 695.989266,138.1368 692.152303,139.635043 C681.618716,143.748158 671.403948,145.9 662.055,145.9 C649.488331,145.9 638.795103,142.170168 630.649561,134.642634 C622.219145,127.02674 617.945,116.680927 617.945,104.49 C617.945,91.4293463 622.472826,80.5745571 631.452867,72.5523879 C640.153512,64.7798117 651.689702,61.01 665.565,61.01 C674.567777,61.01 682.584646,62.5418857 690.829328,65.8815037 C694.604535,67.4107017 697.075,71.0768391 697.075,75.15 L697.075,93.0173854 C697.98893,94.5265796 698.515,96.2968547 698.515,98.19 Z M762.405,72 L739.905,72 L740.175,95.76 L719.475,72 L697.245,72 L697.245,135 L719.745,135 L719.475,107.01 L743.955,135 L762.405,135 L762.405,72 Z M729.744535,134.903541 C729.798171,140.463838 725.305555,145 719.745,145 L697.245,145 C691.722153,145 687.245,140.522847 687.245,135 L687.245,72 C687.245,66.4771525 691.722153,62 697.245,62 L719.475,62 C722.366126,62 725.115764,63.2512635 727.014903,65.4311448 L730.301191,69.2032313 C731.510195,65.0454879 735.348594,62 739.905,62 L762.405,62 C767.927847,62 772.405,66.4771525 772.405,72 L772.405,135 C772.405,140.522847 767.927847,145 762.405,145 L743.955,145 C741.07058,145 738.326644,143.754512 736.427734,141.583332 L729.735155,133.931156 L729.744535,134.903541 Z" id="DESIGN" fill="#FFFCFF" fill-rule="nonzero"></path>
            <path d="M280.735,323.59 C280.735,337.498658 270.818892,345.83 256.065,345.83 L253.365,345.83 C247.842153,345.83 243.365,341.352847 243.365,335.83 L243.365,311.17 C243.365,305.647153 247.842153,301.17 253.365,301.17 L256.065,301.17 C270.895514,301.17 280.735,309.481895 280.735,323.59 Z M256.245,355 C268.125,355 277.305,352.21 283.875,346.63 C290.445,341.05 293.685,333.31 293.685,323.41 C293.685,303.25 280.365,292 256.245,292 L230.865,292 L230.865,355 L256.245,355 Z M256.245,365 L230.865,365 C225.342153,365 220.865,360.522847 220.865,355 L220.865,292 C220.865,286.477153 225.342153,282 230.865,282 L256.245,282 C285.507225,282 303.685,297.277066 303.685,323.41 C303.685,336.156018 299.240757,346.699601 290.348453,354.251969 C281.787414,361.522988 270.318883,365 256.245,365 Z M349.215,336.55 L322.395,336.55 L322.395,331.15 L344.175,331.15 L344.175,315.94 L322.395,315.94 L322.395,310.45 L348.945,310.45 L346.695,292 L300.345,292 L300.345,355 L346.965,355 L349.215,336.55 Z M359.141459,337.760544 L356.891459,356.210544 C356.279568,361.228049 352.019678,365 346.965,365 L300.345,365 C294.822153,365 290.345,360.522847 290.345,355 L290.345,292 C290.345,286.477153 294.822153,282 300.345,282 L346.695,282 C351.749678,282 356.009568,285.771951 356.621459,290.789456 L358.871459,309.239456 C359.364853,313.285291 357.379508,317.005183 354.175,318.976616 L354.175,327.863083 C357.537232,329.788288 359.648567,333.602259 359.141459,337.760544 Z M426.075,292 L402.495,292 L389.355,328.09 L376.215,292 L351.555,292 L377.205,355.27 L400.425,355.27 L426.075,292 Z M393.098435,288.578807 C394.536567,284.628869 398.291403,282 402.495,282 L426.075,282 C433.169527,282 438.007843,289.182274 435.342393,295.757051 L409.692393,359.027051 C408.162488,362.800817 404.49709,365.27 400.425,365.27 L377.205,365.27 C373.13291,365.27 369.467512,362.800817 367.937607,359.027051 L342.287607,295.757051 C339.622157,289.182274 344.460473,282 351.555,282 L376.215,282 C380.418597,282 384.173433,284.628869 385.611565,288.578807 L389.355,298.860433 L393.098435,288.578807 Z M479.355,336.55 L452.535,336.55 L452.535,331.15 L474.315,331.15 L474.315,315.94 L452.535,315.94 L452.535,310.45 L479.085,310.45 L476.835,292 L430.485,292 L430.485,355 L477.105,355 L479.355,336.55 Z M489.281459,337.760544 L487.031459,356.210544 C486.419568,361.228049 482.159678,365 477.105,365 L430.485,365 C424.962153,365 420.485,360.522847 420.485,355 L420.485,292 C420.485,286.477153 424.962153,282 430.485,282 L476.835,282 C481.889678,282 486.149568,285.771951 486.761459,290.789456 L489.011459,309.239456 C489.504853,313.285291 487.519508,317.005183 484.315,318.976616 L484.315,327.863083 C487.677232,329.788288 489.788567,333.602259 489.281459,337.760544 Z M532.005,334.93 L508.605,334.93 L508.605,292 L486.105,292 L486.105,355 L532.005,355 L532.005,334.93 Z M532.005,324.93 C537.527847,324.93 542.005,329.407153 542.005,334.93 L542.005,355 C542.005,360.522847 537.527847,365 532.005,365 L486.105,365 C480.582153,365 476.105,360.522847 476.105,355 L476.105,292 C476.105,286.477153 480.582153,282 486.105,282 L508.605,282 C514.127847,282 518.605,286.477153 518.605,292 L518.605,324.93 L532.005,324.93 Z M570.795,356.26 C580.785,356.26 588.975,353.11 595.545,346.81 C602.115,340.6 605.355,332.77 605.355,323.41 C605.355,314.14 602.115,306.31 595.635,300.1 C589.065,293.89 580.875,290.74 570.975,290.74 C561.075,290.74 552.885,293.89 546.315,300.19 C539.745,306.49 536.415,314.32 536.415,323.59 C536.415,332.95 539.655,340.69 546.135,346.9 C552.615,353.11 560.805,356.26 570.795,356.26 Z M570.795,366.26 C558.329359,366.26 547.633635,362.186834 539.215946,354.119882 C530.738956,345.996099 526.415,335.636622 526.415,323.59 C526.415,311.61927 530.839581,301.174851 539.393799,292.972176 C547.876025,284.838535 558.561492,280.74 570.975,280.74 C583.338174,280.74 594.010284,284.804173 602.554054,292.880118 C611.010425,300.984141 615.355,311.423188 615.355,323.41 C615.355,335.51944 610.985787,345.97542 602.466201,354.027824 C593.973997,362.171033 583.284269,366.26 570.795,366.26 Z M570.795,300.81 C583.267888,300.81 592.405,310.945703 592.405,323.59 C592.405,336.234123 583.449714,346.19 570.975,346.19 C558.43003,346.19 549.365,336.079005 549.365,323.41 C549.365,310.765877 558.320286,300.81 570.795,300.81 Z M636.495,299.55 C646.80023,299.55 654.505,305.506629 654.505,315.67 C654.505,325.882751 646.8311,331.88 636.495,331.88 L634.155,331.88 C628.632153,331.88 624.155,327.402847 624.155,321.88 L624.155,309.55 C624.155,304.027153 628.632153,299.55 634.155,299.55 L636.495,299.55 Z M666.195,314.95 C666.195,300.1 655.845,292 637.035,292 L612.015,292 L612.015,355 L634.515,355 L634.515,338.35 L638.475,338.35 C647.025,338.35 653.865,336.28 658.815,332.05 C663.765,327.91 666.195,322.24 666.195,314.95 Z M644.515,348.038219 L644.515,355 C644.515,360.522847 640.037847,365 634.515,365 L612.015,365 C606.492153,365 602.015,360.522847 602.015,355 L602.015,292 C602.015,286.477153 606.492153,282 612.015,282 L637.035,282 C660.932887,282 676.195,293.994144 676.195,314.95 C676.195,325.094192 672.546364,333.58188 665.271192,339.686722 C659.705645,344.42709 652.700019,347.16197 644.515,348.038219 Z M732.975,320.08 L732.975,355 L754.755,355 L754.755,292 L725.325,292 L713.355,315.94 L701.205,292 L671.595,292 L671.595,355 L693.195,355 L693.195,320.08 L712.635,355.81 L713.715,355.81 L732.975,320.08 Z M722.517574,360.554964 C720.772752,363.791854 717.392208,365.81 713.715,365.81 L712.635,365.81 C708.97176,365.81 705.601718,363.807016 703.850976,360.589217 L702.62504,358.335993 C701.251502,362.218578 697.548069,365 693.195,365 L671.595,365 C666.072153,365 661.595,360.522847 661.595,355 L661.595,292 C661.595,286.477153 666.072153,282 671.595,282 L701.205,282 C704.971127,282 708.417859,284.115941 710.122292,287.474307 L713.288352,293.712617 L716.380728,287.527864 C718.074648,284.140024 721.537279,282 725.325,282 L754.755,282 C760.277847,282 764.755,286.477153 764.755,292 L764.755,355 C764.755,360.522847 760.277847,365 754.755,365 L732.975,365 C728.692002,365 725.037895,362.307402 723.613093,358.522623 L722.517574,360.554964 Z M812.445,336.55 L785.625,336.55 L785.625,331.15 L807.405,331.15 L807.405,315.94 L785.625,315.94 L785.625,310.45 L812.175,310.45 L809.925,292 L763.575,292 L763.575,355 L810.195,355 L812.445,336.55 Z M822.371459,337.760544 L820.121459,356.210544 C819.509568,361.228049 815.249678,365 810.195,365 L763.575,365 C758.052153,365 753.575,360.522847 753.575,355 L753.575,292 C753.575,286.477153 758.052153,282 763.575,282 L809.925,282 C814.979678,282 819.239568,285.771951 819.851459,290.789456 L822.101459,309.239456 C822.594853,313.285291 820.609508,317.005183 817.405,318.976616 L817.405,327.863083 C820.767232,329.788288 822.878567,333.602259 822.371459,337.760544 Z M884.355,292 L861.855,292 L862.125,315.76 L841.425,292 L819.195,292 L819.195,355 L841.695,355 L841.425,327.01 L865.905,355 L884.355,355 L884.355,292 Z M851.694535,354.903541 C851.748171,360.463838 847.255555,365 841.695,365 L819.195,365 C813.672153,365 809.195,360.522847 809.195,355 L809.195,292 C809.195,286.477153 813.672153,282 819.195,282 L841.425,282 C844.316126,282 847.065764,283.251263 848.964903,285.431145 L852.251191,289.203231 C853.460195,285.045488 857.298594,282 861.855,282 L884.355,282 C889.877847,282 894.355,286.477153 894.355,292 L894.355,355 C894.355,360.522847 889.877847,365 884.355,365 L865.905,365 C863.02058,365 860.276644,363.754512 858.377734,361.583332 L851.685155,353.931156 L851.694535,354.903541 Z M891.375,292 L891.375,312.07 L910.905,312.07 L910.905,355 L933.405,355 L933.405,312.07 L952.935,312.07 L952.935,292 L891.375,292 Z M943.405,355 C943.405,360.522847 938.927847,365 933.405,365 L910.905,365 C905.382153,365 900.905,360.522847 900.905,355 L900.905,322.07 L891.375,322.07 C885.852153,322.07 881.375,317.592847 881.375,312.07 L881.375,292 C881.375,286.477153 885.852153,282 891.375,282 L952.935,282 C958.457847,282 962.935,286.477153 962.935,292 L962.935,312.07 C962.935,317.592847 958.457847,322.07 952.935,322.07 L943.405,322.07 L943.405,355 Z" id="DEVELOPMENT" fill="#FFFCFF" fill-rule="nonzero"></path>
            <path d="M321.99,588.5 C326.58,588.5 331.53,587.6 334.5,586.43 L340.08,570.77 L339.72,570.5 C336.75,572.21 333.51,573.02 330.54,573.02 C327.03,573.02 324.96,572.12 323.25,570.05 C334.41,565.01 340.98,554.75 340.98,542.24 C340.98,533.33 337.74,525.77 331.17,519.74 C324.6,513.71 316.41,510.74 306.6,510.74 C296.61,510.74 288.42,513.89 281.85,520.19 C275.28,526.49 272.04,534.32 272.04,543.68 C272.04,551.6 274.56,558.35 279.51,564.02 C284.46,569.69 290.94,573.29 299.13,574.64 C304.8,584.63 311.1,588.5 321.99,588.5 Z M271.976831,570.596576 C265.396551,563.059165 262.04,553.957167 262.04,543.68 C262.04,531.597784 266.388417,521.161584 274.928799,512.972176 C283.421003,504.828967 294.110731,500.74 306.6,500.74 C318.874286,500.74 329.479386,504.61494 337.931815,512.372649 C346.542645,520.27574 350.98,530.496957 350.98,542.24 C350.98,549.681596 349.160949,556.59711 345.793798,562.555349 L346.08,562.77 C349.584041,565.398031 350.970032,570.000555 349.499866,574.126504 L343.919866,589.786504 C342.950496,592.506994 340.852297,594.675548 338.165245,595.734084 C333.832461,597.440938 327.606462,598.5 321.99,598.5 C309.008202,598.5 299.965062,593.843334 292.887263,583.517976 C284.566631,581.302768 277.534094,576.962169 271.976831,570.596576 Z M328.03,543.59 C328.03,556.234123 319.074714,566.19 306.6,566.19 C294.05503,566.19 284.99,556.079005 284.99,543.41 C284.99,530.765877 293.945286,520.81 306.42,520.81 C318.892888,520.81 328.03,530.945703 328.03,543.59 Z M371.553973,529.610001 C374.764063,520.876666 387.115937,520.876666 390.326027,529.610001 L396.446027,546.260001 C398.845274,552.787365 394.014342,559.71 387.06,559.71 L374.82,559.71 C367.865658,559.71 363.034726,552.787365 365.433973,546.260001 L371.553973,529.610001 Z M394.17,512 L368.43,512 L343.23,575 L366.45,575 L369.42,566.63 L392.46,566.63 L395.43,575 L419.37,575 L394.17,512 Z M376.482506,576.63 L375.874277,578.344098 C374.458507,582.333997 370.683639,585 366.45,585 L343.23,585 C336.155354,585 331.317776,577.854737 333.945233,571.286093 L359.145233,508.286093 C360.663867,504.489509 364.340954,502 368.43,502 L394.17,502 C398.259046,502 401.936133,504.489509 403.454767,508.286093 L428.654767,571.286093 C431.282224,577.854737 426.444646,585 419.37,585 L395.43,585 C391.196361,585 387.421493,582.333997 386.005723,578.344098 L385.397494,576.63 L376.482506,576.63 Z M484.62,508.4 L470.22,508.4 L438.63,586.7 L453.03,586.7 L484.62,508.4 Z M484.62,498.4 C491.707334,498.4 496.545395,505.568877 493.893699,512.141458 L462.303699,590.441458 C460.77785,594.223477 457.10822,596.7 453.03,596.7 L438.63,596.7 C431.542666,596.7 426.704605,589.531123 429.356301,582.958542 L460.946301,504.658542 C462.47215,500.876523 466.14178,498.4 470.22,498.4 L484.62,498.4 Z M556.44,554.93 L533.04,554.93 L533.04,512 L510.54,512 L510.54,575 L556.44,575 L556.44,554.93 Z M556.44,544.93 C561.962847,544.93 566.44,549.407153 566.44,554.93 L566.44,575 C566.44,580.522847 561.962847,585 556.44,585 L510.54,585 C505.017153,585 500.54,580.522847 500.54,575 L500.54,512 C500.54,506.477153 505.017153,502 510.54,502 L533.04,502 C538.562847,502 543.04,506.477153 543.04,512 L543.04,544.93 L556.44,544.93 Z M586.923973,529.610001 C590.134063,520.876666 602.485937,520.876666 605.696027,529.610001 L611.816027,546.260001 C614.215274,552.787365 609.384342,559.71 602.43,559.71 L590.19,559.71 C583.235658,559.71 578.404726,552.787365 580.803973,546.260001 L586.923973,529.610001 Z M609.54,512 L583.8,512 L558.6,575 L581.82,575 L584.79,566.63 L607.83,566.63 L610.8,575 L634.74,575 L609.54,512 Z M591.852506,576.63 L591.244277,578.344098 C589.828507,582.333997 586.053639,585 581.82,585 L558.6,585 C551.525354,585 546.687776,577.854737 549.315233,571.286093 L574.515233,508.286093 C576.033867,504.489509 579.710954,502 583.8,502 L609.54,502 C613.629046,502 617.306133,504.489509 618.824767,508.286093 L644.024767,571.286093 C646.652224,577.854737 641.814646,585 634.74,585 L610.8,585 C606.566361,585 602.791493,582.333997 601.375723,578.344098 L600.767494,576.63 L591.852506,576.63 Z M669.84,575.99 C690.27,575.99 701.16,565.28 701.16,545.39 L701.16,512 L679.02,512 L679.02,545.93 C679.02,552.41 675.87,556.1 670.11,556.1 C664.35,556.1 661.2,552.41 661.2,545.93 L661.2,512 L638.7,512 L638.7,545.39 C638.7,565.46 649.41,575.99 669.84,575.99 Z M679.02,502 L701.16,502 C706.682847,502 711.16,506.477153 711.16,512 L711.16,545.39 C711.16,570.877759 695.718517,585.99 669.84,585.99 C643.92779,585.99 628.7,571.024193 628.7,545.39 L628.7,512 C628.7,506.477153 633.177153,502 638.7,502 L661.2,502 C665.086376,502 668.454944,504.216999 670.11,507.455291 C671.765056,504.216999 675.133624,502 679.02,502 Z M774.69,512 L752.19,512 L752.46,535.76 L731.76,512 L709.53,512 L709.53,575 L732.03,575 L731.76,547.01 L756.24,575 L774.69,575 L774.69,512 Z M742.029535,574.903541 C742.083171,580.463838 737.590555,585 732.03,585 L709.53,585 C704.007153,585 699.53,580.522847 699.53,575 L699.53,512 C699.53,506.477153 704.007153,502 709.53,502 L731.76,502 C734.651126,502 737.400764,503.251263 739.299903,505.431145 L742.586191,509.203231 C743.795195,505.045488 747.633594,502 752.19,502 L774.69,502 C780.212847,502 784.69,506.477153 784.69,512 L784.69,575 C784.69,580.522847 780.212847,585 774.69,585 L756.24,585 C753.35558,585 750.611644,583.754512 748.712734,581.583332 L742.020155,573.931156 L742.029535,574.903541 Z M813.93,575.99 C821.76,575.99 827.97,574.46 833.82,570.95 L836.43,548.72 L836.07,548.54 C830.67,553.13 824.37,555.56 818.16,555.56 C809.61,555.56 804.57,551.06 804.57,543.5 C804.57,536.3 809.79,531.53 817.8,531.53 C823.47,531.53 829.95,534.5 834.99,539.45 L835.26,539.36 L835.26,517.31 C829.86,513.26 822.48,511.01 814.56,511.01 C804.93,511.01 796.92,514.07 790.71,520.28 C784.5,526.49 781.35,534.32 781.35,543.59 C781.35,553.04 784.41,560.87 790.62,566.9 C796.74,572.93 804.48,575.99 813.93,575.99 Z M846.36178,549.886079 L843.75178,572.116079 C843.390403,575.194014 841.622393,577.930468 838.964958,579.524929 C831.532984,583.984113 823.564393,585.99 813.93,585.99 C801.948648,585.99 791.661291,581.964513 783.653672,574.074278 C775.474368,566.132056 771.35,555.715769 771.35,543.59 C771.35,531.710798 775.52197,521.325895 783.638932,513.208932 C791.754596,505.093269 802.305523,501.01 814.56,501.01 C824.554927,501.01 834.04692,503.90019 841.26,509.31 C843.778058,511.198544 845.26,514.162427 845.26,517.31 L845.26,539.36 C845.26,540.6127 845.026708,541.824497 844.595256,542.946647 C845.989155,544.918999 846.656342,547.377226 846.36178,549.886079 Z M907.8,512 L885.3,512 L885.3,533.06 L866.76,533.06 L866.76,512 L844.26,512 L844.26,575 L866.76,575 L866.76,553.58 L885.3,553.58 L885.3,575 L907.8,575 L907.8,512 Z M876.03,578.757658 C875.559273,577.597542 875.3,576.329049 875.3,575 L875.3,553.58 L885.3,563.58 L866.76,563.58 L876.76,553.58 L876.76,575 C876.76,576.329049 876.500727,577.597542 876.03,578.757658 C874.544629,582.418389 870.953798,585 866.76,585 L844.26,585 C838.737153,585 834.26,580.522847 834.26,575 L834.26,512 C834.26,506.477153 838.737153,502 844.26,502 L866.76,502 C870.953798,502 874.544629,504.581611 876.03,508.242342 C876.500727,509.402458 876.76,510.670951 876.76,512 L876.76,533.06 L866.76,523.06 L885.3,523.06 L875.3,533.06 L875.3,512 C875.3,510.670951 875.559273,509.402458 876.03,508.242342 C877.515371,504.581611 881.106202,502 885.3,502 L907.8,502 C913.322847,502 917.8,506.477153 917.8,512 L917.8,575 C917.8,580.522847 913.322847,585 907.8,585 L885.3,585 C881.106202,585 877.515371,582.418389 876.03,578.757658 Z" id="QA-/-LAUNCH" fill="#FFFCFF" fill-rule="nonzero"></path>
            <path d="M459.465,103.59 C459.465,95.4 454.425,91.17 444.795,91.17 L442.095,91.17 L442.095,115.83 L444.795,115.83 C454.425,115.83 459.465,111.51 459.465,103.59 Z M444.975,135 L419.595,135 L419.595,72 L444.975,72 C469.095,72 482.415,83.25 482.415,103.41 C482.415,113.31 479.175,121.05 472.605,126.63 C466.035,132.21 456.855,135 444.975,135 Z M537.945,116.55 L511.125,116.55 L511.125,111.15 L532.905,111.15 L532.905,95.94 L511.125,95.94 L511.125,90.45 L537.675,90.45 L535.425,72 L489.075,72 L489.075,135 L535.695,135 L537.945,116.55 Z M562.425,112.14 C568.995,114.03 570.435,114.84 570.435,116.37 C570.435,117.9 568.995,118.62 566.025,118.62 C563.055,118.62 559.365,117.81 554.955,116.1 C550.545,114.39 546.405,112.32 542.715,109.89 L542.445,110.07 L544.515,130.32 C550.185,133.92 558.375,136.08 566.385,136.08 C582.585,136.08 592.485,128.07 592.485,115.02 C592.485,109.71 591.045,105.48 588.075,102.33 C585.105,99.18 579.795,96.57 572.145,94.41 C566.295,92.7 564.585,91.8 564.585,90.36 C564.585,89.01 565.755,88.38 568.275,88.38 C570.975,88.38 574.305,88.92 578.265,90.09 C582.135,91.26 585.555,92.7 588.525,94.32 L588.705,94.32 L588.705,75.33 C583.035,72.54 575.835,70.92 568.275,70.92 C560.445,70.92 554.145,72.81 549.555,76.59 C544.875,80.46 542.535,85.5 542.535,91.8 C542.535,96.93 544.065,100.98 547.035,104.13 C550.005,107.28 555.135,109.98 562.425,112.14 Z M621.105,72 L598.605,72 L598.605,135 L621.105,135 L621.105,72 Z M659.715,98.19 L659.715,111.42 L668.805,111.42 L668.805,117.18 C668.355,117.27 667.905,117.27 666.555,117.27 C656.745,117.27 651.165,112.5 651.165,104.22 C651.165,95.85 657.285,90.81 667.275,90.81 C673.395,90.81 679.515,92.25 687.075,95.58 L687.075,75.15 C679.965,72.27 673.215,71.01 665.565,71.01 C654.045,71.01 644.865,73.98 638.115,80.01 C631.365,86.04 627.945,94.14 627.945,104.49 C627.945,113.94 631.095,121.59 637.395,127.26 C643.605,133.02 651.885,135.9 662.055,135.9 C670.065,135.9 679.065,134.01 688.515,130.32 L688.515,98.19 L659.715,98.19 Z M762.405,72 L739.905,72 L740.175,95.76 L719.475,72 L697.245,72 L697.245,135 L719.745,135 L719.475,107.01 L743.955,135 L762.405,135 L762.405,72 Z" id="DESIGN" fill="#382A2C"></path>
            <path d="M270.735,323.59 C270.735,315.4 265.695,311.17 256.065,311.17 L253.365,311.17 L253.365,335.83 L256.065,335.83 C265.695,335.83 270.735,331.51 270.735,323.59 Z M256.245,355 L230.865,355 L230.865,292 L256.245,292 C280.365,292 293.685,303.25 293.685,323.41 C293.685,333.31 290.445,341.05 283.875,346.63 C277.305,352.21 268.125,355 256.245,355 Z M349.215,336.55 L322.395,336.55 L322.395,331.15 L344.175,331.15 L344.175,315.94 L322.395,315.94 L322.395,310.45 L348.945,310.45 L346.695,292 L300.345,292 L300.345,355 L346.965,355 L349.215,336.55 Z M426.075,292 L402.495,292 L389.355,328.09 L376.215,292 L351.555,292 L377.205,355.27 L400.425,355.27 L426.075,292 Z M479.355,336.55 L452.535,336.55 L452.535,331.15 L474.315,331.15 L474.315,315.94 L452.535,315.94 L452.535,310.45 L479.085,310.45 L476.835,292 L430.485,292 L430.485,355 L477.105,355 L479.355,336.55 Z M532.005,334.93 L508.605,334.93 L508.605,292 L486.105,292 L486.105,355 L532.005,355 L532.005,334.93 Z M570.795,356.26 C560.805,356.26 552.615,353.11 546.135,346.9 C539.655,340.69 536.415,332.95 536.415,323.59 C536.415,314.32 539.745,306.49 546.315,300.19 C552.885,293.89 561.075,290.74 570.975,290.74 C580.875,290.74 589.065,293.89 595.635,300.1 C602.115,306.31 605.355,314.14 605.355,323.41 C605.355,332.77 602.115,340.6 595.545,346.81 C588.975,353.11 580.785,356.26 570.795,356.26 Z M570.795,310.81 C564.045,310.81 559.365,316.12 559.365,323.41 C559.365,330.7 564.135,336.19 570.975,336.19 C577.725,336.19 582.405,330.88 582.405,323.59 C582.405,316.3 577.545,310.81 570.795,310.81 Z M636.495,309.55 L634.155,309.55 L634.155,321.88 L636.495,321.88 C641.805,321.88 644.505,319.72 644.505,315.67 C644.505,311.71 641.805,309.55 636.495,309.55 Z M666.195,314.95 C666.195,322.24 663.765,327.91 658.815,332.05 C653.865,336.28 647.025,338.35 638.475,338.35 L634.515,338.35 L634.515,355 L612.015,355 L612.015,292 L637.035,292 C655.845,292 666.195,300.1 666.195,314.95 Z M732.975,320.08 L732.975,355 L754.755,355 L754.755,292 L725.325,292 L713.355,315.94 L701.205,292 L671.595,292 L671.595,355 L693.195,355 L693.195,320.08 L712.635,355.81 L713.715,355.81 L732.975,320.08 Z M812.445,336.55 L785.625,336.55 L785.625,331.15 L807.405,331.15 L807.405,315.94 L785.625,315.94 L785.625,310.45 L812.175,310.45 L809.925,292 L763.575,292 L763.575,355 L810.195,355 L812.445,336.55 Z M884.355,292 L861.855,292 L862.125,315.76 L841.425,292 L819.195,292 L819.195,355 L841.695,355 L841.425,327.01 L865.905,355 L884.355,355 L884.355,292 Z M891.375,292 L891.375,312.07 L910.905,312.07 L910.905,355 L933.405,355 L933.405,312.07 L952.935,312.07 L952.935,292 L891.375,292 Z" id="DEVELOPMENT" fill="#382A2C"></path>
            <path d="M321.99,588.5 C311.1,588.5 304.8,584.63 299.13,574.64 C290.94,573.29 284.46,569.69 279.51,564.02 C274.56,558.35 272.04,551.6 272.04,543.68 C272.04,534.32 275.28,526.49 281.85,520.19 C288.42,513.89 296.61,510.74 306.6,510.74 C316.41,510.74 324.6,513.71 331.17,519.74 C337.74,525.77 340.98,533.33 340.98,542.24 C340.98,554.75 334.41,565.01 323.25,570.05 C324.96,572.12 327.03,573.02 330.54,573.02 C333.51,573.02 336.75,572.21 339.72,570.5 L340.08,570.77 L334.5,586.43 C331.53,587.6 326.58,588.5 321.99,588.5 Z M318.03,543.59 C318.03,536.3 313.17,530.81 306.42,530.81 C299.67,530.81 294.99,536.12 294.99,543.41 C294.99,550.7 299.76,556.19 306.6,556.19 C313.35,556.19 318.03,550.88 318.03,543.59 Z M380.94,533.06 L374.82,549.71 L387.06,549.71 L380.94,533.06 Z M394.17,512 L419.37,575 L395.43,575 L392.46,566.63 L369.42,566.63 L366.45,575 L343.23,575 L368.43,512 L394.17,512 Z M484.62,508.4 L470.22,508.4 L438.63,586.7 L453.03,586.7 L484.62,508.4 Z M556.44,554.93 L533.04,554.93 L533.04,512 L510.54,512 L510.54,575 L556.44,575 L556.44,554.93 Z M596.31,533.06 L590.19,549.71 L602.43,549.71 L596.31,533.06 Z M609.54,512 L634.74,575 L610.8,575 L607.83,566.63 L584.79,566.63 L581.82,575 L558.6,575 L583.8,512 L609.54,512 Z M669.84,575.99 C690.27,575.99 701.16,565.28 701.16,545.39 L701.16,512 L679.02,512 L679.02,545.93 C679.02,552.41 675.87,556.1 670.11,556.1 C664.35,556.1 661.2,552.41 661.2,545.93 L661.2,512 L638.7,512 L638.7,545.39 C638.7,565.46 649.41,575.99 669.84,575.99 Z M774.69,512 L752.19,512 L752.46,535.76 L731.76,512 L709.53,512 L709.53,575 L732.03,575 L731.76,547.01 L756.24,575 L774.69,575 L774.69,512 Z M813.93,575.99 C821.76,575.99 827.97,574.46 833.82,570.95 L836.43,548.72 L836.07,548.54 C830.67,553.13 824.37,555.56 818.16,555.56 C809.61,555.56 804.57,551.06 804.57,543.5 C804.57,536.3 809.79,531.53 817.8,531.53 C823.47,531.53 829.95,534.5 834.99,539.45 L835.26,539.36 L835.26,517.31 C829.86,513.26 822.48,511.01 814.56,511.01 C804.93,511.01 796.92,514.07 790.71,520.28 C784.5,526.49 781.35,534.32 781.35,543.59 C781.35,553.04 784.41,560.87 790.62,566.9 C796.74,572.93 804.48,575.99 813.93,575.99 Z M907.8,512 L885.3,512 L885.3,533.06 L866.76,533.06 L866.76,512 L844.26,512 L844.26,575 L866.76,575 L866.76,553.58 L885.3,553.58 L885.3,575 L907.8,575 L907.8,512 Z" id="QA-/-LAUNCH" fill="#382A2C"></path>
        </g>
    </g>
</svg>