<?xml version="1.0" encoding="UTF-8"?>
<svg width="1182px" height="662px" viewBox="0 0 1182 662" version="1.1" xmlns="http://www.w3.org/2000/svg" xmlns:xlink="http://www.w3.org/1999/xlink">
    <!-- Generator: Sketch 45.2 (43514) - http://www.bohemiancoding.com/sketch -->
    <title>project-reality-clean</title>
    <desc>Created with Sketch.</desc>
    <defs>
        <rect id="path-1" x="0" y="0" width="1180" height="110"></rect>
        <rect id="path-2" x="0" y="0" width="1180" height="110"></rect>
        <rect id="path-3" x="0" y="0" width="1180" height="110"></rect>
        <rect id="path-4" x="0" y="0" width="1180" height="110"></rect>
        <rect id="path-5" x="0" y="0" width="1180" height="110"></rect>
        <rect id="path-6" x="0" y="0" width="1180" height="110"></rect>
    </defs>
    <g id="Page-1" stroke="none" stroke-width="1" fill="none" fill-rule="evenodd">
        <g id="project-reality-clean">
            <g id="Group" transform="translate(1.000000, 1.000000)">
                <g id="Rectangle">
                    <use fill="#382A2C" fill-rule="evenodd" xlink:href="#path-1"></use>
                    <rect stroke="#382A2C" stroke-width="1" x="-0.5" y="-0.5" width="1181" height="111"></rect>
                </g>
                <rect id="Rectangle" fill="#56453B" x="5" y="5" width="160" height="100"></rect>
                <rect id="Rectangle-Copy-3" fill="#C700EB" x="173" y="5" width="160" height="100"></rect>
                <rect id="Rectangle-Copy-4" fill="#C700EB" x="342" y="5" width="160" height="100"></rect>
                <rect id="Rectangle-Copy-5" fill="#C700EB" x="510" y="5" width="160" height="100"></rect>
                <rect id="Rectangle-Copy-6" fill="#C700EB" x="678" y="5" width="160" height="100"></rect>
                <rect id="Rectangle-Copy-7" fill="#C700EB" x="847" y="5" width="160" height="100"></rect>
                <rect id="Rectangle-Copy-8" fill="#56453B" x="1015" y="5" width="160" height="100"></rect>
            </g>
            <g id="Group-Copy" transform="translate(1.000000, 111.000000)">
                <g id="Rectangle">
                    <use fill="#382A2C" fill-rule="evenodd" xlink:href="#path-2"></use>
                    <rect stroke="#382A2C" stroke-width="1" x="-0.5" y="-0.5" width="1181" height="111"></rect>
                </g>
                <rect id="Rectangle" fill="#56453B" x="5" y="5" width="160" height="100"></rect>
                <rect id="Rectangle-Copy-3" fill="#C700EB" x="173" y="5" width="160" height="100"></rect>
                <rect id="Rectangle-Copy-4" fill="#C700EB" x="342" y="5" width="160" height="100"></rect>
                <rect id="Rectangle-Copy-5" fill="#C700EB" x="510" y="5" width="160" height="100"></rect>
                <rect id="Rectangle-Copy-6" fill="#C700EB" x="678" y="5" width="160" height="100"></rect>
                <rect id="Rectangle-Copy-7" fill="#C700EB" x="847" y="5" width="160" height="100"></rect>
                <rect id="Rectangle-Copy-8" fill="#56453B" x="1015" y="5" width="160" height="100"></rect>
            </g>
            <g id="Group-Copy-2" transform="translate(1.000000, 221.000000)">
                <g id="Rectangle">
                    <use fill="#382A2C" fill-rule="evenodd" xlink:href="#path-3"></use>
                    <rect stroke="#382A2C" stroke-width="1" x="-0.5" y="-0.5" width="1181" height="111"></rect>
                </g>
                <rect id="Rectangle" fill="#56453B" x="5" y="5" width="160" height="100"></rect>
                <rect id="Rectangle-Copy-3" fill="#C700EB" x="173" y="5" width="160" height="100"></rect>
                <rect id="Rectangle-Copy-4" fill="#C700EB" x="342" y="5" width="160" height="100"></rect>
                <rect id="Rectangle-Copy-5" fill="#C700EB" x="510" y="5" width="160" height="100"></rect>
                <rect id="Rectangle-Copy-6" fill="#C700EB" x="678" y="5" width="160" height="100"></rect>
                <rect id="Rectangle-Copy-7" fill="#C700EB" x="847" y="5" width="160" height="100"></rect>
                <rect id="Rectangle-Copy-8" fill="#56453B" x="1015" y="5" width="160" height="100"></rect>
            </g>
            <g id="Group-Copy-3" transform="translate(1.000000, 331.000000)">
                <g id="Rectangle">
                    <use fill="#382A2C" fill-rule="evenodd" xlink:href="#path-4"></use>
                    <rect stroke="#382A2C" stroke-width="1" x="-0.5" y="-0.5" width="1181" height="111"></rect>
                </g>
                <rect id="Rectangle" fill="#56453B" x="5" y="5" width="160" height="100"></rect>
                <rect id="Rectangle-Copy-3" fill="#C700EB" x="173" y="5" width="160" height="100"></rect>
                <rect id="Rectangle-Copy-4" fill="#C700EB" x="342" y="5" width="160" height="100"></rect>
                <rect id="Rectangle-Copy-5" fill="#C700EB" x="510" y="5" width="160" height="100"></rect>
                <rect id="Rectangle-Copy-6" fill="#C700EB" x="678" y="5" width="160" height="100"></rect>
                <rect id="Rectangle-Copy-7" fill="#C700EB" x="847" y="5" width="160" height="100"></rect>
                <rect id="Rectangle-Copy-8" fill="#56453B" x="1015" y="5" width="160" height="100"></rect>
            </g>
            <g id="Group-Copy-4" transform="translate(1.000000, 441.000000)">
                <g id="Rectangle">
                    <use fill="#382A2C" fill-rule="evenodd" xlink:href="#path-5"></use>
                    <rect stroke="#382A2C" stroke-width="1" x="-0.5" y="-0.5" width="1181" height="111"></rect>
                </g>
                <rect id="Rectangle" fill="#56453B" x="5" y="5" width="160" height="100"></rect>
                <rect id="Rectangle-Copy-3" fill="#C700EB" x="173" y="5" width="160" height="100"></rect>
                <rect id="Rectangle-Copy-4" fill="#C700EB" x="342" y="5" width="160" height="100"></rect>
                <rect id="Rectangle-Copy-5" fill="#C700EB" x="510" y="5" width="160" height="100"></rect>
                <rect id="Rectangle-Copy-6" fill="#C700EB" x="678" y="5" width="160" height="100"></rect>
                <rect id="Rectangle-Copy-7" fill="#FF7800" x="847" y="5" width="160" height="100"></rect>
                <rect id="Rectangle-Copy-8" fill="#FF7800" x="1015" y="5" width="160" height="100"></rect>
            </g>
            <g id="Group-Copy-5" transform="translate(1.000000, 551.000000)">
                <g id="Rectangle">
                    <use fill="#382A2C" fill-rule="evenodd" xlink:href="#path-6"></use>
                    <rect stroke="#382A2C" stroke-width="1" x="-0.5" y="-0.5" width="1181" height="111"></rect>
                </g>
                <rect id="Rectangle" fill="#FF7800" x="5" y="5" width="160" height="100"></rect>
                <rect id="Rectangle-Copy-3" fill="#FFFCFF" x="173" y="5" width="160" height="100"></rect>
                <rect id="Rectangle-Copy-4" fill="#FFFCFF" x="342" y="5" width="160" height="100"></rect>
                <polygon id="Rectangle-Copy-3" fill="#FF7800" points="173 5 333 5 173 105"></polygon>
                <polygon id="Rectangle-Copy-4" fill="#FF7800" points="342 5 502 5 342 105"></polygon>
                <rect id="Rectangle-Copy-5" fill="#FFFCFF" x="510" y="5" width="160" height="100"></rect>
                <polygon id="Rectangle-Copy-5" fill="#FF7800" points="510 5 670 5 510 105"></polygon>
                <rect id="Rectangle-Copy-6" fill="#FFFCFF" x="678" y="5" width="160" height="100"></rect>
                <rect id="Rectangle-Copy-7" fill="#FFFCFF" x="847" y="5" width="160" height="100"></rect>
                <rect id="Rectangle-Copy-8" fill="#56453B" x="1015" y="5" width="160" height="100"></rect>
            </g>
            <g id="Group-2" transform="translate(591.261675, 274.977875) rotate(-10.000000) translate(-591.261675, -274.977875) translate(239.261675, 190.846006)">
                <path d="M116.943297,84.3059341 C116.943297,111.206196 97.7648902,127.31956 69.2298901,127.31956 L64.0079121,127.31956 C53.3263609,127.31956 44.6672527,118.660452 44.6672527,107.978901 L44.6672527,60.2848352 C44.6672527,49.603284 53.3263609,40.9441758 64.0079121,40.9441758 L69.2298901,40.9441758 C97.9130821,40.9441758 116.943297,57.0199279 116.943297,84.3059341 Z M69.578022,145.054945 C92.5547253,145.054945 110.309451,139.658901 123.016264,128.866813 C135.723077,118.074725 141.989451,103.105055 141.989451,83.9578022 C141.989451,44.967033 116.227692,23.2087912 69.578022,23.2087912 L20.4914286,23.2087912 L20.4914286,145.054945 L69.578022,145.054945 Z M69.578022,164.395604 L20.4914286,164.395604 C9.80987737,164.395604 1.15076923,155.736496 1.15076923,145.054945 L1.15076923,23.2087912 C1.15076923,12.52724 9.80987737,3.86813187 20.4914286,3.86813187 L69.578022,3.86813187 C126.173095,3.86813187 161.33011,33.4149845 161.33011,83.9578022 C161.33011,108.609442 152.734652,129.001425 135.536348,143.608203 C118.978735,157.670834 96.7978393,164.395604 69.578022,164.395604 Z M249.388132,109.371429 L197.516484,109.371429 L197.516484,98.9274725 L239.64044,98.9274725 L239.64044,69.5103297 L197.516484,69.5103297 L197.516484,58.8923077 L248.865934,58.8923077 L244.514286,23.2087912 L154.87033,23.2087912 L154.87033,145.054945 L245.036484,145.054945 L249.388132,109.371429 Z M268.586558,111.7127 L264.234909,147.396216 C263.051472,157.100403 254.812564,164.395604 245.036484,164.395604 L154.87033,164.395604 C144.188778,164.395604 135.52967,155.736496 135.52967,145.054945 L135.52967,23.2087912 C135.52967,12.52724 144.188778,3.86813187 154.87033,3.86813187 L244.514286,3.86813187 C254.290366,3.86813187 262.529274,11.1633337 263.712711,20.8675198 L268.06436,56.5510363 C269.018617,64.3759482 265.178829,71.5704638 258.981099,75.3833446 L258.981099,92.5703585 C265.483878,96.2938321 269.567338,103.670303 268.586558,111.7127 Z M296.734066,100.842198 C309.440879,104.497582 312.225934,106.064176 312.225934,109.023297 C312.225934,111.982418 309.440879,113.374945 303.696703,113.374945 C297.952527,113.374945 290.815824,111.808352 282.286593,108.501099 C273.757363,105.193846 265.75033,101.19033 258.613626,96.4905495 L258.091429,96.8386813 L262.094945,136.003516 C273.061099,142.966154 288.901099,147.143736 304.392967,147.143736 C335.724835,147.143736 354.872088,131.651868 354.872088,106.412308 C354.872088,96.1424176 352.087033,87.9613187 346.342857,81.869011 C340.598681,75.7767033 330.328791,70.7287912 315.533187,66.5512088 C304.218901,63.243956 300.911648,61.5032967 300.911648,58.7182418 C300.911648,56.1072527 303.174505,54.8887912 308.048352,54.8887912 C313.27033,54.8887912 319.710769,55.9331868 327.36967,58.196044 C334.854505,60.4589011 341.469011,63.243956 347.213187,66.3771429 L347.561319,66.3771429 L347.561319,29.6492308 C336.595165,24.2531868 322.66989,21.12 308.048352,21.12 C292.904615,21.12 280.72,24.7753846 271.842637,32.0861538 C262.791209,39.570989 258.265495,49.3186813 258.265495,61.5032967 C258.265495,71.4250549 261.224615,79.258022 266.968791,85.3503297 C272.712967,91.4426374 282.634725,96.6646154 296.734066,100.842198 Z M238.924835,61.5032967 C238.924835,43.6234144 245.968013,28.3857698 259.54764,17.1565141 C272.165756,6.76512432 288.666326,1.77934066 308.048352,1.77934066 C325.329818,1.77934066 342.219322,5.46532365 356.100368,12.2956794 C362.713243,15.5496339 366.901978,22.2791331 366.901978,29.6492308 L366.901978,66.3771429 C366.901978,69.2619878 366.270367,71.9993121 365.137888,74.4583741 C371.258452,83.3975986 374.212747,94.2202709 374.212747,106.412308 C374.212747,143.368479 345.586225,166.484396 304.392967,166.484396 C285.390668,166.484396 265.953868,161.363323 251.728194,152.331149 C246.727054,149.155821 243.456978,143.86363 242.85455,137.970312 L238.851033,98.8054773 C238.304982,93.4636702 240.005641,88.2238676 243.40016,84.2589915 C240.416143,77.3956775 238.924835,69.7610252 238.924835,61.5032967 Z M410.225055,23.2087912 L366.708571,23.2087912 L366.708571,145.054945 L410.225055,145.054945 L410.225055,23.2087912 Z M410.225055,3.86813187 C420.906606,3.86813187 429.565714,12.52724 429.565714,23.2087912 L429.565714,145.054945 C429.565714,155.736496 420.906606,164.395604 410.225055,164.395604 L366.708571,164.395604 C356.02702,164.395604 347.367912,155.736496 347.367912,145.054945 L347.367912,23.2087912 C347.367912,12.52724 356.02702,3.86813187 366.708571,3.86813187 L410.225055,3.86813187 Z M484.899341,73.861978 L484.899341,99.4496703 L502.48,99.4496703 L502.48,110.58989 C501.60967,110.763956 500.739341,110.763956 498.128352,110.763956 C479.155165,110.763956 468.363077,101.538462 468.363077,85.5243956 C468.363077,69.3362637 480.19956,59.5885714 499.520879,59.5885714 C511.357363,59.5885714 523.193846,62.3736264 537.815385,68.8140659 L537.815385,29.3010989 C524.064176,23.730989 511.009231,21.2940659 496.213626,21.2940659 C473.933187,21.2940659 456.178462,27.0382418 443.123516,38.7006593 C430.068571,50.3630769 423.454066,66.029011 423.454066,86.0465934 C423.454066,104.323516 429.546374,119.119121 441.730989,130.085275 C453.741538,141.225495 469.755604,146.795604 489.425055,146.795604 C504.916923,146.795604 522.323516,143.14022 540.60044,136.003516 L540.60044,73.861978 L484.899341,73.861978 Z M559.941099,73.861978 L559.941099,136.003516 C559.941099,143.970135 555.056163,151.121724 547.635223,154.019424 C527.262572,161.974459 507.506536,166.136264 489.425055,166.136264 C465.120288,166.136264 444.438881,158.922522 428.684864,144.363776 C412.379885,129.634134 404.113407,109.62465 404.113407,86.0465934 C404.113407,60.7864281 412.870522,39.7925499 430.238511,24.2771459 C447.066132,9.24447092 469.377886,1.95340659 496.213626,1.95340659 C513.625591,1.95340659 529.130744,4.91617459 545.076502,11.3752159 C552.378002,14.3327858 557.156044,21.4233371 557.156044,29.3010989 L557.156044,63.8578003 C558.923644,66.7766814 559.941099,70.2005101 559.941099,73.861978 Z M683.508571,23.2087912 L639.992088,23.2087912 L640.514286,69.1621978 L600.479121,23.2087912 L557.484835,23.2087912 L557.484835,145.054945 L601.001319,145.054945 L600.479121,90.9204396 L647.825055,145.054945 L683.508571,145.054945 L683.508571,23.2087912 Z M620.341078,144.868388 C620.444814,155.622368 611.755799,164.395604 601.001319,164.395604 L557.484835,164.395604 C546.803284,164.395604 538.144176,155.736496 538.144176,145.054945 L538.144176,23.2087912 C538.144176,12.52724 546.803284,3.86813187 557.484835,3.86813187 L600.479121,3.86813187 C606.07075,3.86813187 611.388731,6.28815794 615.061791,10.5041922 L621.417688,17.7996561 C623.755981,9.75830621 631.179698,3.86813187 639.992088,3.86813187 L683.508571,3.86813187 C694.190123,3.86813187 702.849231,12.52724 702.849231,23.2087912 L702.849231,145.054945 C702.849231,155.736496 694.190123,164.395604 683.508571,164.395604 L647.825055,164.395604 C642.246396,164.395604 636.939443,161.986749 633.266826,157.787544 L620.322937,142.987729 L620.341078,144.868388 Z" id="DESIGN" fill="#FFFCFF" fill-rule="nonzero"></path>
                <path d="M97.6026374,84.3059341 C97.6026374,68.4659341 87.8549451,60.2848352 69.2298901,60.2848352 L64.0079121,60.2848352 L64.0079121,107.978901 L69.2298901,107.978901 C87.8549451,107.978901 97.6026374,99.6237363 97.6026374,84.3059341 Z M69.578022,145.054945 L20.4914286,145.054945 L20.4914286,23.2087912 L69.578022,23.2087912 C116.227692,23.2087912 141.989451,44.967033 141.989451,83.9578022 C141.989451,103.105055 135.723077,118.074725 123.016264,128.866813 C110.309451,139.658901 92.5547253,145.054945 69.578022,145.054945 Z M249.388132,109.371429 L197.516484,109.371429 L197.516484,98.9274725 L239.64044,98.9274725 L239.64044,69.5103297 L197.516484,69.5103297 L197.516484,58.8923077 L248.865934,58.8923077 L244.514286,23.2087912 L154.87033,23.2087912 L154.87033,145.054945 L245.036484,145.054945 L249.388132,109.371429 Z M296.734066,100.842198 C309.440879,104.497582 312.225934,106.064176 312.225934,109.023297 C312.225934,111.982418 309.440879,113.374945 303.696703,113.374945 C297.952527,113.374945 290.815824,111.808352 282.286593,108.501099 C273.757363,105.193846 265.75033,101.19033 258.613626,96.4905495 L258.091429,96.8386813 L262.094945,136.003516 C273.061099,142.966154 288.901099,147.143736 304.392967,147.143736 C335.724835,147.143736 354.872088,131.651868 354.872088,106.412308 C354.872088,96.1424176 352.087033,87.9613187 346.342857,81.869011 C340.598681,75.7767033 330.328791,70.7287912 315.533187,66.5512088 C304.218901,63.243956 300.911648,61.5032967 300.911648,58.7182418 C300.911648,56.1072527 303.174505,54.8887912 308.048352,54.8887912 C313.27033,54.8887912 319.710769,55.9331868 327.36967,58.196044 C334.854505,60.4589011 341.469011,63.243956 347.213187,66.3771429 L347.561319,66.3771429 L347.561319,29.6492308 C336.595165,24.2531868 322.66989,21.12 308.048352,21.12 C292.904615,21.12 280.72,24.7753846 271.842637,32.0861538 C262.791209,39.570989 258.265495,49.3186813 258.265495,61.5032967 C258.265495,71.4250549 261.224615,79.258022 266.968791,85.3503297 C272.712967,91.4426374 282.634725,96.6646154 296.734066,100.842198 Z M410.225055,23.2087912 L366.708571,23.2087912 L366.708571,145.054945 L410.225055,145.054945 L410.225055,23.2087912 Z M484.899341,73.861978 L484.899341,99.4496703 L502.48,99.4496703 L502.48,110.58989 C501.60967,110.763956 500.739341,110.763956 498.128352,110.763956 C479.155165,110.763956 468.363077,101.538462 468.363077,85.5243956 C468.363077,69.3362637 480.19956,59.5885714 499.520879,59.5885714 C511.357363,59.5885714 523.193846,62.3736264 537.815385,68.8140659 L537.815385,29.3010989 C524.064176,23.730989 511.009231,21.2940659 496.213626,21.2940659 C473.933187,21.2940659 456.178462,27.0382418 443.123516,38.7006593 C430.068571,50.3630769 423.454066,66.029011 423.454066,86.0465934 C423.454066,104.323516 429.546374,119.119121 441.730989,130.085275 C453.741538,141.225495 469.755604,146.795604 489.425055,146.795604 C504.916923,146.795604 522.323516,143.14022 540.60044,136.003516 L540.60044,73.861978 L484.899341,73.861978 Z M683.508571,23.2087912 L639.992088,23.2087912 L640.514286,69.1621978 L600.479121,23.2087912 L557.484835,23.2087912 L557.484835,145.054945 L601.001319,145.054945 L600.479121,90.9204396 L647.825055,145.054945 L683.508571,145.054945 L683.508571,23.2087912 Z" id="DESIGN" fill="#382A2C"></path>
            </g>
            <path d="M18.7685974,616.609007 L12.081,607.613 C14.856,605.985 16.373,603.284 16.373,600.065 C16.373,594.33 12.599,591.518 4.94,591.518 L-6.197,591.518 L-6.197,617.418 L3.053,617.418 L3.053,609.611 L8.64,617.418 L18.9075,617.418 L27.991,617.418 L29.212,613.977 L38.684,613.977 L39.905,617.418 L49.747,617.418 L39.387,591.518 L28.805,591.518 L18.7685974,616.609007 Z M-77.866,617.936 C-81.973,617.936 -85.34,616.641 -88.004,614.088 C-90.668,611.535 -92,608.353 -92,604.505 C-92,600.694 -90.631,597.475 -87.93,594.885 C-85.229,592.295 -81.862,591 -77.792,591 C-73.722,591 -70.355,592.295 -67.654,594.848 C-64.99,597.401 -63.658,600.62 -63.658,604.431 C-63.658,608.279 -64.99,611.498 -67.691,614.051 C-70.392,616.641 -73.759,617.936 -77.866,617.936 Z M-34.798,591.518 L-34.798,617.418 L-44.048,617.418 L-44.048,608.612 L-51.67,608.612 L-51.67,617.418 L-60.92,617.418 L-60.92,591.518 L-51.67,591.518 L-51.67,600.176 L-44.048,600.176 L-44.048,591.518 L-34.798,591.518 Z M-18.666,617.825 C-22.551,617.825 -25.733,616.567 -28.249,614.088 C-30.802,611.609 -32.06,608.39 -32.06,604.505 C-32.06,600.694 -30.765,597.475 -28.212,594.922 C-25.659,592.369 -22.366,591.111 -18.407,591.111 C-15.151,591.111 -12.117,592.036 -9.897,593.701 L-9.897,602.766 L-10.008,602.803 C-12.08,600.768 -14.744,599.547 -17.075,599.547 C-20.368,599.547 -22.514,601.508 -22.514,604.468 C-22.514,607.576 -20.442,609.426 -16.927,609.426 C-14.374,609.426 -11.784,608.427 -9.564,606.54 L-9.416,606.614 L-10.489,615.753 C-12.894,617.196 -15.447,617.825 -18.666,617.825 Z M73.834,600.953 C73.834,603.95 72.835,606.281 70.8,607.983 C68.765,609.722 65.953,610.573 62.438,610.573 L60.81,610.573 L60.81,617.418 L51.56,617.418 L51.56,591.518 L61.846,591.518 C69.579,591.518 73.834,594.848 73.834,600.953 Z" id="OHCRAP" stroke="#FFFCFF" stroke-width="18" fill="#FFFCFF" stroke-linecap="round" stroke-linejoin="round"></path>
            <path d="M188.768597,616.609007 L182.081,607.613 C184.856,605.985 186.373,603.284 186.373,600.065 C186.373,594.33 182.599,591.518 174.94,591.518 L163.803,591.518 L163.803,617.418 L173.053,617.418 L173.053,609.611 L178.64,617.418 L188.9075,617.418 L197.991,617.418 L199.212,613.977 L208.684,613.977 L209.905,617.418 L219.747,617.418 L209.387,591.518 L198.805,591.518 L188.768597,616.609007 Z M92.134,617.936 C88.027,617.936 84.66,616.641 81.996,614.088 C79.332,611.535 78,608.353 78,604.505 C78,600.694 79.369,597.475 82.07,594.885 C84.771,592.295 88.138,591 92.208,591 C96.278,591 99.645,592.295 102.346,594.848 C105.01,597.401 106.342,600.62 106.342,604.431 C106.342,608.279 105.01,611.498 102.309,614.051 C99.608,616.641 96.241,617.936 92.134,617.936 Z M135.202,591.518 L135.202,617.418 L125.952,617.418 L125.952,608.612 L118.33,608.612 L118.33,617.418 L109.08,617.418 L109.08,591.518 L118.33,591.518 L118.33,600.176 L125.952,600.176 L125.952,591.518 L135.202,591.518 Z M151.334,617.825 C147.449,617.825 144.267,616.567 141.751,614.088 C139.198,611.609 137.94,608.39 137.94,604.505 C137.94,600.694 139.235,597.475 141.788,594.922 C144.341,592.369 147.634,591.111 151.593,591.111 C154.849,591.111 157.883,592.036 160.103,593.701 L160.103,602.766 L159.992,602.803 C157.92,600.768 155.256,599.547 152.925,599.547 C149.632,599.547 147.486,601.508 147.486,604.468 C147.486,607.576 149.558,609.426 153.073,609.426 C155.626,609.426 158.216,608.427 160.436,606.54 L160.584,606.614 L159.511,615.753 C157.106,617.196 154.553,617.825 151.334,617.825 Z M243.834,600.953 C243.834,603.95 242.835,606.281 240.8,607.983 C238.765,609.722 235.953,610.573 232.438,610.573 L230.81,610.573 L230.81,617.418 L221.56,617.418 L221.56,591.518 L231.846,591.518 C239.579,591.518 243.834,594.848 243.834,600.953 Z" id="OHCRAP" stroke="#FFFCFF" stroke-width="18" fill="#FFFCFF" stroke-linecap="round" stroke-linejoin="round"></path>
            <path d="M358.768597,616.609007 L352.081,607.613 C354.856,605.985 356.373,603.284 356.373,600.065 C356.373,594.33 352.599,591.518 344.94,591.518 L333.803,591.518 L333.803,617.418 L343.053,617.418 L343.053,609.611 L348.64,617.418 L358.9075,617.418 L367.991,617.418 L369.212,613.977 L378.684,613.977 L379.905,617.418 L389.747,617.418 L379.387,591.518 L368.805,591.518 L358.768597,616.609007 Z M262.134,617.936 C258.027,617.936 254.66,616.641 251.996,614.088 C249.332,611.535 248,608.353 248,604.505 C248,600.694 249.369,597.475 252.07,594.885 C254.771,592.295 258.138,591 262.208,591 C266.278,591 269.645,592.295 272.346,594.848 C275.01,597.401 276.342,600.62 276.342,604.431 C276.342,608.279 275.01,611.498 272.309,614.051 C269.608,616.641 266.241,617.936 262.134,617.936 Z M305.202,591.518 L305.202,617.418 L295.952,617.418 L295.952,608.612 L288.33,608.612 L288.33,617.418 L279.08,617.418 L279.08,591.518 L288.33,591.518 L288.33,600.176 L295.952,600.176 L295.952,591.518 L305.202,591.518 Z M321.334,617.825 C317.449,617.825 314.267,616.567 311.751,614.088 C309.198,611.609 307.94,608.39 307.94,604.505 C307.94,600.694 309.235,597.475 311.788,594.922 C314.341,592.369 317.634,591.111 321.593,591.111 C324.849,591.111 327.883,592.036 330.103,593.701 L330.103,602.766 L329.992,602.803 C327.92,600.768 325.256,599.547 322.925,599.547 C319.632,599.547 317.486,601.508 317.486,604.468 C317.486,607.576 319.558,609.426 323.073,609.426 C325.626,609.426 328.216,608.427 330.436,606.54 L330.584,606.614 L329.511,615.753 C327.106,617.196 324.553,617.825 321.334,617.825 Z M413.834,600.953 C413.834,603.95 412.835,606.281 410.8,607.983 C408.765,609.722 405.953,610.573 402.438,610.573 L400.81,610.573 L400.81,617.418 L391.56,617.418 L391.56,591.518 L401.846,591.518 C409.579,591.518 413.834,594.848 413.834,600.953 Z" id="OHCRAP" stroke="#FFFCFF" stroke-width="18" fill="#FFFCFF" stroke-linecap="round" stroke-linejoin="round"></path>
            <path d="M528.768597,616.609007 L522.081,607.613 C524.856,605.985 526.373,603.284 526.373,600.065 C526.373,594.33 522.599,591.518 514.94,591.518 L503.803,591.518 L503.803,617.418 L513.053,617.418 L513.053,609.611 L518.64,617.418 L528.9075,617.418 L537.991,617.418 L539.212,613.977 L548.684,613.977 L549.905,617.418 L559.747,617.418 L549.387,591.518 L538.805,591.518 L528.768597,616.609007 Z M432.134,617.936 C428.027,617.936 424.66,616.641 421.996,614.088 C419.332,611.535 418,608.353 418,604.505 C418,600.694 419.369,597.475 422.07,594.885 C424.771,592.295 428.138,591 432.208,591 C436.278,591 439.645,592.295 442.346,594.848 C445.01,597.401 446.342,600.62 446.342,604.431 C446.342,608.279 445.01,611.498 442.309,614.051 C439.608,616.641 436.241,617.936 432.134,617.936 Z M475.202,591.518 L475.202,617.418 L465.952,617.418 L465.952,608.612 L458.33,608.612 L458.33,617.418 L449.08,617.418 L449.08,591.518 L458.33,591.518 L458.33,600.176 L465.952,600.176 L465.952,591.518 L475.202,591.518 Z M491.334,617.825 C487.449,617.825 484.267,616.567 481.751,614.088 C479.198,611.609 477.94,608.39 477.94,604.505 C477.94,600.694 479.235,597.475 481.788,594.922 C484.341,592.369 487.634,591.111 491.593,591.111 C494.849,591.111 497.883,592.036 500.103,593.701 L500.103,602.766 L499.992,602.803 C497.92,600.768 495.256,599.547 492.925,599.547 C489.632,599.547 487.486,601.508 487.486,604.468 C487.486,607.576 489.558,609.426 493.073,609.426 C495.626,609.426 498.216,608.427 500.436,606.54 L500.584,606.614 L499.511,615.753 C497.106,617.196 494.553,617.825 491.334,617.825 Z M583.834,600.953 C583.834,603.95 582.835,606.281 580.8,607.983 C578.765,609.722 575.953,610.573 572.438,610.573 L570.81,610.573 L570.81,617.418 L561.56,617.418 L561.56,591.518 L571.846,591.518 C579.579,591.518 583.834,594.848 583.834,600.953 Z" id="OHCRAP" stroke="#FFFCFF" stroke-width="18" fill="#FFFCFF" stroke-linecap="round" stroke-linejoin="round"></path>
            <path d="M-77.866,617.936 C-81.973,617.936 -85.34,616.641 -88.004,614.088 C-90.668,611.535 -92,608.353 -92,604.505 C-92,600.694 -90.631,597.475 -87.93,594.885 C-85.229,592.295 -81.862,591 -77.792,591 C-73.722,591 -70.355,592.295 -67.654,594.848 C-64.99,597.401 -63.658,600.62 -63.658,604.431 C-63.658,608.279 -64.99,611.498 -67.691,614.051 C-70.392,616.641 -73.759,617.936 -77.866,617.936 Z M-77.866,599.251 C-80.641,599.251 -82.565,601.434 -82.565,604.431 C-82.565,607.428 -80.604,609.685 -77.792,609.685 C-75.017,609.685 -73.093,607.502 -73.093,604.505 C-73.093,601.508 -75.091,599.251 -77.866,599.251 Z M-34.798,591.518 L-44.048,591.518 L-44.048,600.176 L-51.67,600.176 L-51.67,591.518 L-60.92,591.518 L-60.92,617.418 L-51.67,617.418 L-51.67,608.612 L-44.048,608.612 L-44.048,617.418 L-34.798,617.418 L-34.798,591.518 Z M-18.666,617.825 C-15.447,617.825 -12.894,617.196 -10.489,615.753 L-9.416,606.614 L-9.564,606.54 C-11.784,608.427 -14.374,609.426 -16.927,609.426 C-20.442,609.426 -22.514,607.576 -22.514,604.468 C-22.514,601.508 -20.368,599.547 -17.075,599.547 C-14.744,599.547 -12.08,600.768 -10.008,602.803 L-9.897,602.766 L-9.897,593.701 C-12.117,592.036 -15.151,591.111 -18.407,591.111 C-22.366,591.111 -25.659,592.369 -28.212,594.922 C-30.765,597.475 -32.06,600.694 -32.06,604.505 C-32.06,608.39 -30.802,611.609 -28.249,614.088 C-25.733,616.567 -22.551,617.825 -18.666,617.825 Z M4.237,598.474 L2.905,598.474 L2.905,603.469 L4.237,603.469 C6.198,603.469 7.308,602.544 7.308,600.916 C7.308,599.325 6.198,598.474 4.237,598.474 Z M12.081,607.613 L19.37,617.418 L8.64,617.418 L3.053,609.611 L3.053,617.418 L-6.197,617.418 L-6.197,591.518 L4.94,591.518 C12.599,591.518 16.373,594.33 16.373,600.065 C16.373,603.284 14.856,605.985 12.081,607.613 Z M33.948,600.176 L31.432,607.021 L36.464,607.021 L33.948,600.176 Z M39.387,591.518 L49.747,617.418 L39.905,617.418 L38.684,613.977 L29.212,613.977 L27.991,617.418 L18.445,617.418 L28.805,591.518 L39.387,591.518 Z M61.624,598.733 L60.662,598.733 L60.662,603.802 L61.624,603.802 C63.807,603.802 64.917,602.914 64.917,601.249 C64.917,599.621 63.807,598.733 61.624,598.733 Z M73.834,600.953 C73.834,603.95 72.835,606.281 70.8,607.983 C68.765,609.722 65.953,610.573 62.438,610.573 L60.81,610.573 L60.81,617.418 L51.56,617.418 L51.56,591.518 L61.846,591.518 C69.579,591.518 73.834,594.848 73.834,600.953 Z" id="OHCRAP" fill="#152934"></path>
            <path d="M868.768597,616.609007 L862.081,607.613 C864.856,605.985 866.373,603.284 866.373,600.065 C866.373,594.33 862.599,591.518 854.94,591.518 L843.803,591.518 L843.803,617.418 L853.053,617.418 L853.053,609.611 L858.64,617.418 L868.9075,617.418 L877.991,617.418 L879.212,613.977 L888.684,613.977 L889.905,617.418 L899.747,617.418 L889.387,591.518 L878.805,591.518 L868.768597,616.609007 Z M772.134,617.936 C768.027,617.936 764.66,616.641 761.996,614.088 C759.332,611.535 758,608.353 758,604.505 C758,600.694 759.369,597.475 762.07,594.885 C764.771,592.295 768.138,591 772.208,591 C776.278,591 779.645,592.295 782.346,594.848 C785.01,597.401 786.342,600.62 786.342,604.431 C786.342,608.279 785.01,611.498 782.309,614.051 C779.608,616.641 776.241,617.936 772.134,617.936 Z M815.202,591.518 L815.202,617.418 L805.952,617.418 L805.952,608.612 L798.33,608.612 L798.33,617.418 L789.08,617.418 L789.08,591.518 L798.33,591.518 L798.33,600.176 L805.952,600.176 L805.952,591.518 L815.202,591.518 Z M831.334,617.825 C827.449,617.825 824.267,616.567 821.751,614.088 C819.198,611.609 817.94,608.39 817.94,604.505 C817.94,600.694 819.235,597.475 821.788,594.922 C824.341,592.369 827.634,591.111 831.593,591.111 C834.849,591.111 837.883,592.036 840.103,593.701 L840.103,602.766 L839.992,602.803 C837.92,600.768 835.256,599.547 832.925,599.547 C829.632,599.547 827.486,601.508 827.486,604.468 C827.486,607.576 829.558,609.426 833.073,609.426 C835.626,609.426 838.216,608.427 840.436,606.54 L840.584,606.614 L839.511,615.753 C837.106,617.196 834.553,617.825 831.334,617.825 Z M923.834,600.953 C923.834,603.95 922.835,606.281 920.8,607.983 C918.765,609.722 915.953,610.573 912.438,610.573 L910.81,610.573 L910.81,617.418 L901.56,617.418 L901.56,591.518 L911.846,591.518 C919.579,591.518 923.834,594.848 923.834,600.953 Z" id="OHCRAP" stroke="#FFFCFF" stroke-width="18" fill="#FFFCFF" stroke-linecap="round" stroke-linejoin="round"></path>
            <path d="M698.768597,616.609007 L692.081,607.613 C694.856,605.985 696.373,603.284 696.373,600.065 C696.373,594.33 692.599,591.518 684.94,591.518 L673.803,591.518 L673.803,617.418 L683.053,617.418 L683.053,609.611 L688.64,617.418 L698.9075,617.418 L707.991,617.418 L709.212,613.977 L718.684,613.977 L719.905,617.418 L729.747,617.418 L719.387,591.518 L708.805,591.518 L698.768597,616.609007 Z M602.134,617.936 C598.027,617.936 594.66,616.641 591.996,614.088 C589.332,611.535 588,608.353 588,604.505 C588,600.694 589.369,597.475 592.07,594.885 C594.771,592.295 598.138,591 602.208,591 C606.278,591 609.645,592.295 612.346,594.848 C615.01,597.401 616.342,600.62 616.342,604.431 C616.342,608.279 615.01,611.498 612.309,614.051 C609.608,616.641 606.241,617.936 602.134,617.936 Z M645.202,591.518 L645.202,617.418 L635.952,617.418 L635.952,608.612 L628.33,608.612 L628.33,617.418 L619.08,617.418 L619.08,591.518 L628.33,591.518 L628.33,600.176 L635.952,600.176 L635.952,591.518 L645.202,591.518 Z M661.334,617.825 C657.449,617.825 654.267,616.567 651.751,614.088 C649.198,611.609 647.94,608.39 647.94,604.505 C647.94,600.694 649.235,597.475 651.788,594.922 C654.341,592.369 657.634,591.111 661.593,591.111 C664.849,591.111 667.883,592.036 670.103,593.701 L670.103,602.766 L669.992,602.803 C667.92,600.768 665.256,599.547 662.925,599.547 C659.632,599.547 657.486,601.508 657.486,604.468 C657.486,607.576 659.558,609.426 663.073,609.426 C665.626,609.426 668.216,608.427 670.436,606.54 L670.584,606.614 L669.511,615.753 C667.106,617.196 664.553,617.825 661.334,617.825 Z M753.834,600.953 C753.834,603.95 752.835,606.281 750.8,607.983 C748.765,609.722 745.953,610.573 742.438,610.573 L740.81,610.573 L740.81,617.418 L731.56,617.418 L731.56,591.518 L741.846,591.518 C749.579,591.518 753.834,594.848 753.834,600.953 Z" id="OHCRAP" stroke="#FFFCFF" stroke-width="18" fill="#FFFCFF" stroke-linecap="round" stroke-linejoin="round"></path>
            <path d="M92.134,617.936 C88.027,617.936 84.66,616.641 81.996,614.088 C79.332,611.535 78,608.353 78,604.505 C78,600.694 79.369,597.475 82.07,594.885 C84.771,592.295 88.138,591 92.208,591 C96.278,591 99.645,592.295 102.346,594.848 C105.01,597.401 106.342,600.62 106.342,604.431 C106.342,608.279 105.01,611.498 102.309,614.051 C99.608,616.641 96.241,617.936 92.134,617.936 Z M92.134,599.251 C89.359,599.251 87.435,601.434 87.435,604.431 C87.435,607.428 89.396,609.685 92.208,609.685 C94.983,609.685 96.907,607.502 96.907,604.505 C96.907,601.508 94.909,599.251 92.134,599.251 Z M135.202,591.518 L125.952,591.518 L125.952,600.176 L118.33,600.176 L118.33,591.518 L109.08,591.518 L109.08,617.418 L118.33,617.418 L118.33,608.612 L125.952,608.612 L125.952,617.418 L135.202,617.418 L135.202,591.518 Z M151.334,617.825 C154.553,617.825 157.106,617.196 159.511,615.753 L160.584,606.614 L160.436,606.54 C158.216,608.427 155.626,609.426 153.073,609.426 C149.558,609.426 147.486,607.576 147.486,604.468 C147.486,601.508 149.632,599.547 152.925,599.547 C155.256,599.547 157.92,600.768 159.992,602.803 L160.103,602.766 L160.103,593.701 C157.883,592.036 154.849,591.111 151.593,591.111 C147.634,591.111 144.341,592.369 141.788,594.922 C139.235,597.475 137.94,600.694 137.94,604.505 C137.94,608.39 139.198,611.609 141.751,614.088 C144.267,616.567 147.449,617.825 151.334,617.825 Z M174.237,598.474 L172.905,598.474 L172.905,603.469 L174.237,603.469 C176.198,603.469 177.308,602.544 177.308,600.916 C177.308,599.325 176.198,598.474 174.237,598.474 Z M182.081,607.613 L189.37,617.418 L178.64,617.418 L173.053,609.611 L173.053,617.418 L163.803,617.418 L163.803,591.518 L174.94,591.518 C182.599,591.518 186.373,594.33 186.373,600.065 C186.373,603.284 184.856,605.985 182.081,607.613 Z M203.948,600.176 L201.432,607.021 L206.464,607.021 L203.948,600.176 Z M209.387,591.518 L219.747,617.418 L209.905,617.418 L208.684,613.977 L199.212,613.977 L197.991,617.418 L188.445,617.418 L198.805,591.518 L209.387,591.518 Z M231.624,598.733 L230.662,598.733 L230.662,603.802 L231.624,603.802 C233.807,603.802 234.917,602.914 234.917,601.249 C234.917,599.621 233.807,598.733 231.624,598.733 Z M243.834,600.953 C243.834,603.95 242.835,606.281 240.8,607.983 C238.765,609.722 235.953,610.573 232.438,610.573 L230.81,610.573 L230.81,617.418 L221.56,617.418 L221.56,591.518 L231.846,591.518 C239.579,591.518 243.834,594.848 243.834,600.953 Z" id="OHCRAP" fill="#152934"></path>
            <path d="M262.134,617.936 C258.027,617.936 254.66,616.641 251.996,614.088 C249.332,611.535 248,608.353 248,604.505 C248,600.694 249.369,597.475 252.07,594.885 C254.771,592.295 258.138,591 262.208,591 C266.278,591 269.645,592.295 272.346,594.848 C275.01,597.401 276.342,600.62 276.342,604.431 C276.342,608.279 275.01,611.498 272.309,614.051 C269.608,616.641 266.241,617.936 262.134,617.936 Z M262.134,599.251 C259.359,599.251 257.435,601.434 257.435,604.431 C257.435,607.428 259.396,609.685 262.208,609.685 C264.983,609.685 266.907,607.502 266.907,604.505 C266.907,601.508 264.909,599.251 262.134,599.251 Z M305.202,591.518 L295.952,591.518 L295.952,600.176 L288.33,600.176 L288.33,591.518 L279.08,591.518 L279.08,617.418 L288.33,617.418 L288.33,608.612 L295.952,608.612 L295.952,617.418 L305.202,617.418 L305.202,591.518 Z M321.334,617.825 C324.553,617.825 327.106,617.196 329.511,615.753 L330.584,606.614 L330.436,606.54 C328.216,608.427 325.626,609.426 323.073,609.426 C319.558,609.426 317.486,607.576 317.486,604.468 C317.486,601.508 319.632,599.547 322.925,599.547 C325.256,599.547 327.92,600.768 329.992,602.803 L330.103,602.766 L330.103,593.701 C327.883,592.036 324.849,591.111 321.593,591.111 C317.634,591.111 314.341,592.369 311.788,594.922 C309.235,597.475 307.94,600.694 307.94,604.505 C307.94,608.39 309.198,611.609 311.751,614.088 C314.267,616.567 317.449,617.825 321.334,617.825 Z M344.237,598.474 L342.905,598.474 L342.905,603.469 L344.237,603.469 C346.198,603.469 347.308,602.544 347.308,600.916 C347.308,599.325 346.198,598.474 344.237,598.474 Z M352.081,607.613 L359.37,617.418 L348.64,617.418 L343.053,609.611 L343.053,617.418 L333.803,617.418 L333.803,591.518 L344.94,591.518 C352.599,591.518 356.373,594.33 356.373,600.065 C356.373,603.284 354.856,605.985 352.081,607.613 Z M373.948,600.176 L371.432,607.021 L376.464,607.021 L373.948,600.176 Z M379.387,591.518 L389.747,617.418 L379.905,617.418 L378.684,613.977 L369.212,613.977 L367.991,617.418 L358.445,617.418 L368.805,591.518 L379.387,591.518 Z M401.624,598.733 L400.662,598.733 L400.662,603.802 L401.624,603.802 C403.807,603.802 404.917,602.914 404.917,601.249 C404.917,599.621 403.807,598.733 401.624,598.733 Z M413.834,600.953 C413.834,603.95 412.835,606.281 410.8,607.983 C408.765,609.722 405.953,610.573 402.438,610.573 L400.81,610.573 L400.81,617.418 L391.56,617.418 L391.56,591.518 L401.846,591.518 C409.579,591.518 413.834,594.848 413.834,600.953 Z" id="OHCRAP" fill="#152934"></path>
            <path d="M432.134,617.936 C428.027,617.936 424.66,616.641 421.996,614.088 C419.332,611.535 418,608.353 418,604.505 C418,600.694 419.369,597.475 422.07,594.885 C424.771,592.295 428.138,591 432.208,591 C436.278,591 439.645,592.295 442.346,594.848 C445.01,597.401 446.342,600.62 446.342,604.431 C446.342,608.279 445.01,611.498 442.309,614.051 C439.608,616.641 436.241,617.936 432.134,617.936 Z M432.134,599.251 C429.359,599.251 427.435,601.434 427.435,604.431 C427.435,607.428 429.396,609.685 432.208,609.685 C434.983,609.685 436.907,607.502 436.907,604.505 C436.907,601.508 434.909,599.251 432.134,599.251 Z M475.202,591.518 L465.952,591.518 L465.952,600.176 L458.33,600.176 L458.33,591.518 L449.08,591.518 L449.08,617.418 L458.33,617.418 L458.33,608.612 L465.952,608.612 L465.952,617.418 L475.202,617.418 L475.202,591.518 Z M491.334,617.825 C494.553,617.825 497.106,617.196 499.511,615.753 L500.584,606.614 L500.436,606.54 C498.216,608.427 495.626,609.426 493.073,609.426 C489.558,609.426 487.486,607.576 487.486,604.468 C487.486,601.508 489.632,599.547 492.925,599.547 C495.256,599.547 497.92,600.768 499.992,602.803 L500.103,602.766 L500.103,593.701 C497.883,592.036 494.849,591.111 491.593,591.111 C487.634,591.111 484.341,592.369 481.788,594.922 C479.235,597.475 477.94,600.694 477.94,604.505 C477.94,608.39 479.198,611.609 481.751,614.088 C484.267,616.567 487.449,617.825 491.334,617.825 Z M514.237,598.474 L512.905,598.474 L512.905,603.469 L514.237,603.469 C516.198,603.469 517.308,602.544 517.308,600.916 C517.308,599.325 516.198,598.474 514.237,598.474 Z M522.081,607.613 L529.37,617.418 L518.64,617.418 L513.053,609.611 L513.053,617.418 L503.803,617.418 L503.803,591.518 L514.94,591.518 C522.599,591.518 526.373,594.33 526.373,600.065 C526.373,603.284 524.856,605.985 522.081,607.613 Z M543.948,600.176 L541.432,607.021 L546.464,607.021 L543.948,600.176 Z M549.387,591.518 L559.747,617.418 L549.905,617.418 L548.684,613.977 L539.212,613.977 L537.991,617.418 L528.445,617.418 L538.805,591.518 L549.387,591.518 Z M571.624,598.733 L570.662,598.733 L570.662,603.802 L571.624,603.802 C573.807,603.802 574.917,602.914 574.917,601.249 C574.917,599.621 573.807,598.733 571.624,598.733 Z M583.834,600.953 C583.834,603.95 582.835,606.281 580.8,607.983 C578.765,609.722 575.953,610.573 572.438,610.573 L570.81,610.573 L570.81,617.418 L561.56,617.418 L561.56,591.518 L571.846,591.518 C579.579,591.518 583.834,594.848 583.834,600.953 Z" id="OHCRAP" fill="#152934"></path>
            <path d="M602.134,617.936 C598.027,617.936 594.66,616.641 591.996,614.088 C589.332,611.535 588,608.353 588,604.505 C588,600.694 589.369,597.475 592.07,594.885 C594.771,592.295 598.138,591 602.208,591 C606.278,591 609.645,592.295 612.346,594.848 C615.01,597.401 616.342,600.62 616.342,604.431 C616.342,608.279 615.01,611.498 612.309,614.051 C609.608,616.641 606.241,617.936 602.134,617.936 Z M602.134,599.251 C599.359,599.251 597.435,601.434 597.435,604.431 C597.435,607.428 599.396,609.685 602.208,609.685 C604.983,609.685 606.907,607.502 606.907,604.505 C606.907,601.508 604.909,599.251 602.134,599.251 Z M645.202,591.518 L635.952,591.518 L635.952,600.176 L628.33,600.176 L628.33,591.518 L619.08,591.518 L619.08,617.418 L628.33,617.418 L628.33,608.612 L635.952,608.612 L635.952,617.418 L645.202,617.418 L645.202,591.518 Z M661.334,617.825 C664.553,617.825 667.106,617.196 669.511,615.753 L670.584,606.614 L670.436,606.54 C668.216,608.427 665.626,609.426 663.073,609.426 C659.558,609.426 657.486,607.576 657.486,604.468 C657.486,601.508 659.632,599.547 662.925,599.547 C665.256,599.547 667.92,600.768 669.992,602.803 L670.103,602.766 L670.103,593.701 C667.883,592.036 664.849,591.111 661.593,591.111 C657.634,591.111 654.341,592.369 651.788,594.922 C649.235,597.475 647.94,600.694 647.94,604.505 C647.94,608.39 649.198,611.609 651.751,614.088 C654.267,616.567 657.449,617.825 661.334,617.825 Z M684.237,598.474 L682.905,598.474 L682.905,603.469 L684.237,603.469 C686.198,603.469 687.308,602.544 687.308,600.916 C687.308,599.325 686.198,598.474 684.237,598.474 Z M692.081,607.613 L699.37,617.418 L688.64,617.418 L683.053,609.611 L683.053,617.418 L673.803,617.418 L673.803,591.518 L684.94,591.518 C692.599,591.518 696.373,594.33 696.373,600.065 C696.373,603.284 694.856,605.985 692.081,607.613 Z M713.948,600.176 L711.432,607.021 L716.464,607.021 L713.948,600.176 Z M719.387,591.518 L729.747,617.418 L719.905,617.418 L718.684,613.977 L709.212,613.977 L707.991,617.418 L698.445,617.418 L708.805,591.518 L719.387,591.518 Z M741.624,598.733 L740.662,598.733 L740.662,603.802 L741.624,603.802 C743.807,603.802 744.917,602.914 744.917,601.249 C744.917,599.621 743.807,598.733 741.624,598.733 Z M753.834,600.953 C753.834,603.95 752.835,606.281 750.8,607.983 C748.765,609.722 745.953,610.573 742.438,610.573 L740.81,610.573 L740.81,617.418 L731.56,617.418 L731.56,591.518 L741.846,591.518 C749.579,591.518 753.834,594.848 753.834,600.953 Z" id="OHCRAP" fill="#152934"></path>
            <path d="M772.134,617.936 C768.027,617.936 764.66,616.641 761.996,614.088 C759.332,611.535 758,608.353 758,604.505 C758,600.694 759.369,597.475 762.07,594.885 C764.771,592.295 768.138,591 772.208,591 C776.278,591 779.645,592.295 782.346,594.848 C785.01,597.401 786.342,600.62 786.342,604.431 C786.342,608.279 785.01,611.498 782.309,614.051 C779.608,616.641 776.241,617.936 772.134,617.936 Z M772.134,599.251 C769.359,599.251 767.435,601.434 767.435,604.431 C767.435,607.428 769.396,609.685 772.208,609.685 C774.983,609.685 776.907,607.502 776.907,604.505 C776.907,601.508 774.909,599.251 772.134,599.251 Z M815.202,591.518 L805.952,591.518 L805.952,600.176 L798.33,600.176 L798.33,591.518 L789.08,591.518 L789.08,617.418 L798.33,617.418 L798.33,608.612 L805.952,608.612 L805.952,617.418 L815.202,617.418 L815.202,591.518 Z M831.334,617.825 C834.553,617.825 837.106,617.196 839.511,615.753 L840.584,606.614 L840.436,606.54 C838.216,608.427 835.626,609.426 833.073,609.426 C829.558,609.426 827.486,607.576 827.486,604.468 C827.486,601.508 829.632,599.547 832.925,599.547 C835.256,599.547 837.92,600.768 839.992,602.803 L840.103,602.766 L840.103,593.701 C837.883,592.036 834.849,591.111 831.593,591.111 C827.634,591.111 824.341,592.369 821.788,594.922 C819.235,597.475 817.94,600.694 817.94,604.505 C817.94,608.39 819.198,611.609 821.751,614.088 C824.267,616.567 827.449,617.825 831.334,617.825 Z M854.237,598.474 L852.905,598.474 L852.905,603.469 L854.237,603.469 C856.198,603.469 857.308,602.544 857.308,600.916 C857.308,599.325 856.198,598.474 854.237,598.474 Z M862.081,607.613 L869.37,617.418 L858.64,617.418 L853.053,609.611 L853.053,617.418 L843.803,617.418 L843.803,591.518 L854.94,591.518 C862.599,591.518 866.373,594.33 866.373,600.065 C866.373,603.284 864.856,605.985 862.081,607.613 Z M883.948,600.176 L881.432,607.021 L886.464,607.021 L883.948,600.176 Z M889.387,591.518 L899.747,617.418 L889.905,617.418 L888.684,613.977 L879.212,613.977 L877.991,617.418 L868.445,617.418 L878.805,591.518 L889.387,591.518 Z M911.624,598.733 L910.662,598.733 L910.662,603.802 L911.624,603.802 C913.807,603.802 914.917,602.914 914.917,601.249 C914.917,599.621 913.807,598.733 911.624,598.733 Z M923.834,600.953 C923.834,603.95 922.835,606.281 920.8,607.983 C918.765,609.722 915.953,610.573 912.438,610.573 L910.81,610.573 L910.81,617.418 L901.56,617.418 L901.56,591.518 L911.846,591.518 C919.579,591.518 923.834,594.848 923.834,600.953 Z" id="OHCRAP" fill="#152934"></path>
            <path d="M987.610597,510.191007 L980.923,501.195 C983.698,499.567 985.215,496.866 985.215,493.647 C985.215,487.912 981.441,485.1 973.782,485.1 L962.645,485.1 L962.645,511 L971.895,511 L971.895,503.193 L977.482,511 L987.7495,511 L996.833,511 L998.054,507.559 L1007.526,507.559 L1008.747,511 L1018.589,511 L1008.229,485.1 L997.647,485.1 L987.610597,510.191007 Z M890.976,511.518 C886.869,511.518 883.502,510.223 880.838,507.67 C878.174,505.117 876.842,501.935 876.842,498.087 C876.842,494.276 878.211,491.057 880.912,488.467 C883.613,485.877 886.98,484.582 891.05,484.582 C895.12,484.582 898.487,485.877 901.188,488.43 C903.852,490.983 905.184,494.202 905.184,498.013 C905.184,501.861 903.852,505.08 901.151,507.633 C898.45,510.223 895.083,511.518 890.976,511.518 Z M934.044,485.1 L934.044,511 L924.794,511 L924.794,502.194 L917.172,502.194 L917.172,511 L907.922,511 L907.922,485.1 L917.172,485.1 L917.172,493.758 L924.794,493.758 L924.794,485.1 L934.044,485.1 Z M950.176,511.407 C946.291,511.407 943.109,510.149 940.593,507.67 C938.04,505.191 936.782,501.972 936.782,498.087 C936.782,494.276 938.077,491.057 940.63,488.504 C943.183,485.951 946.476,484.693 950.435,484.693 C953.691,484.693 956.725,485.618 958.945,487.283 L958.945,496.348 L958.834,496.385 C956.762,494.35 954.098,493.129 951.767,493.129 C948.474,493.129 946.328,495.09 946.328,498.05 C946.328,501.158 948.4,503.008 951.915,503.008 C954.468,503.008 957.058,502.009 959.278,500.122 L959.426,500.196 L958.353,509.335 C955.948,510.778 953.395,511.407 950.176,511.407 Z M1042.676,494.535 C1042.676,497.532 1041.677,499.863 1039.642,501.565 C1037.607,503.304 1034.795,504.155 1031.28,504.155 L1029.652,504.155 L1029.652,511 L1020.402,511 L1020.402,485.1 L1030.688,485.1 C1038.421,485.1 1042.676,488.43 1042.676,494.535 Z" id="OHCRAP" stroke="#FFFCFF" stroke-width="18" fill="#FFFCFF" stroke-linecap="round" stroke-linejoin="round"></path>
            <path d="M1157.6106,510.191007 L1150.923,501.195 C1153.698,499.567 1155.215,496.866 1155.215,493.647 C1155.215,487.912 1151.441,485.1 1143.782,485.1 L1132.645,485.1 L1132.645,511 L1141.895,511 L1141.895,503.193 L1147.482,511 L1157.7495,511 L1166.833,511 L1168.054,507.559 L1177.526,507.559 L1178.747,511 L1188.589,511 L1178.229,485.1 L1167.647,485.1 L1157.6106,510.191007 Z M1060.976,511.518 C1056.869,511.518 1053.502,510.223 1050.838,507.67 C1048.174,505.117 1046.842,501.935 1046.842,498.087 C1046.842,494.276 1048.211,491.057 1050.912,488.467 C1053.613,485.877 1056.98,484.582 1061.05,484.582 C1065.12,484.582 1068.487,485.877 1071.188,488.43 C1073.852,490.983 1075.184,494.202 1075.184,498.013 C1075.184,501.861 1073.852,505.08 1071.151,507.633 C1068.45,510.223 1065.083,511.518 1060.976,511.518 Z M1104.044,485.1 L1104.044,511 L1094.794,511 L1094.794,502.194 L1087.172,502.194 L1087.172,511 L1077.922,511 L1077.922,485.1 L1087.172,485.1 L1087.172,493.758 L1094.794,493.758 L1094.794,485.1 L1104.044,485.1 Z M1120.176,511.407 C1116.291,511.407 1113.109,510.149 1110.593,507.67 C1108.04,505.191 1106.782,501.972 1106.782,498.087 C1106.782,494.276 1108.077,491.057 1110.63,488.504 C1113.183,485.951 1116.476,484.693 1120.435,484.693 C1123.691,484.693 1126.725,485.618 1128.945,487.283 L1128.945,496.348 L1128.834,496.385 C1126.762,494.35 1124.098,493.129 1121.767,493.129 C1118.474,493.129 1116.328,495.09 1116.328,498.05 C1116.328,501.158 1118.4,503.008 1121.915,503.008 C1124.468,503.008 1127.058,502.009 1129.278,500.122 L1129.426,500.196 L1128.353,509.335 C1125.948,510.778 1123.395,511.407 1120.176,511.407 Z M1212.676,494.535 C1212.676,497.532 1211.677,499.863 1209.642,501.565 C1207.607,503.304 1204.795,504.155 1201.28,504.155 L1199.652,504.155 L1199.652,511 L1190.402,511 L1190.402,485.1 L1200.688,485.1 C1208.421,485.1 1212.676,488.43 1212.676,494.535 Z" id="OHCRAP" stroke="#FFFCFF" stroke-width="18" fill="#FFFCFF" stroke-linecap="round" stroke-linejoin="round"></path>
            <path d="M890.976,511.518 C886.869,511.518 883.502,510.223 880.838,507.67 C878.174,505.117 876.842,501.935 876.842,498.087 C876.842,494.276 878.211,491.057 880.912,488.467 C883.613,485.877 886.98,484.582 891.05,484.582 C895.12,484.582 898.487,485.877 901.188,488.43 C903.852,490.983 905.184,494.202 905.184,498.013 C905.184,501.861 903.852,505.08 901.151,507.633 C898.45,510.223 895.083,511.518 890.976,511.518 Z M890.976,492.833 C888.201,492.833 886.277,495.016 886.277,498.013 C886.277,501.01 888.238,503.267 891.05,503.267 C893.825,503.267 895.749,501.084 895.749,498.087 C895.749,495.09 893.751,492.833 890.976,492.833 Z M934.044,485.1 L924.794,485.1 L924.794,493.758 L917.172,493.758 L917.172,485.1 L907.922,485.1 L907.922,511 L917.172,511 L917.172,502.194 L924.794,502.194 L924.794,511 L934.044,511 L934.044,485.1 Z M950.176,511.407 C953.395,511.407 955.948,510.778 958.353,509.335 L959.426,500.196 L959.278,500.122 C957.058,502.009 954.468,503.008 951.915,503.008 C948.4,503.008 946.328,501.158 946.328,498.05 C946.328,495.09 948.474,493.129 951.767,493.129 C954.098,493.129 956.762,494.35 958.834,496.385 L958.945,496.348 L958.945,487.283 C956.725,485.618 953.691,484.693 950.435,484.693 C946.476,484.693 943.183,485.951 940.63,488.504 C938.077,491.057 936.782,494.276 936.782,498.087 C936.782,501.972 938.04,505.191 940.593,507.67 C943.109,510.149 946.291,511.407 950.176,511.407 Z M973.079,492.056 L971.747,492.056 L971.747,497.051 L973.079,497.051 C975.04,497.051 976.15,496.126 976.15,494.498 C976.15,492.907 975.04,492.056 973.079,492.056 Z M980.923,501.195 L988.212,511 L977.482,511 L971.895,503.193 L971.895,511 L962.645,511 L962.645,485.1 L973.782,485.1 C981.441,485.1 985.215,487.912 985.215,493.647 C985.215,496.866 983.698,499.567 980.923,501.195 Z M1002.79,493.758 L1000.274,500.603 L1005.306,500.603 L1002.79,493.758 Z M1008.229,485.1 L1018.589,511 L1008.747,511 L1007.526,507.559 L998.054,507.559 L996.833,511 L987.287,511 L997.647,485.1 L1008.229,485.1 Z M1030.466,492.315 L1029.504,492.315 L1029.504,497.384 L1030.466,497.384 C1032.649,497.384 1033.759,496.496 1033.759,494.831 C1033.759,493.203 1032.649,492.315 1030.466,492.315 Z M1042.676,494.535 C1042.676,497.532 1041.677,499.863 1039.642,501.565 C1037.607,503.304 1034.795,504.155 1031.28,504.155 L1029.652,504.155 L1029.652,511 L1020.402,511 L1020.402,485.1 L1030.688,485.1 C1038.421,485.1 1042.676,488.43 1042.676,494.535 Z" id="OHCRAP" fill="#152934"></path>
            <path d="M1060.976,511.518 C1056.869,511.518 1053.502,510.223 1050.838,507.67 C1048.174,505.117 1046.842,501.935 1046.842,498.087 C1046.842,494.276 1048.211,491.057 1050.912,488.467 C1053.613,485.877 1056.98,484.582 1061.05,484.582 C1065.12,484.582 1068.487,485.877 1071.188,488.43 C1073.852,490.983 1075.184,494.202 1075.184,498.013 C1075.184,501.861 1073.852,505.08 1071.151,507.633 C1068.45,510.223 1065.083,511.518 1060.976,511.518 Z M1060.976,492.833 C1058.201,492.833 1056.277,495.016 1056.277,498.013 C1056.277,501.01 1058.238,503.267 1061.05,503.267 C1063.825,503.267 1065.749,501.084 1065.749,498.087 C1065.749,495.09 1063.751,492.833 1060.976,492.833 Z M1104.044,485.1 L1094.794,485.1 L1094.794,493.758 L1087.172,493.758 L1087.172,485.1 L1077.922,485.1 L1077.922,511 L1087.172,511 L1087.172,502.194 L1094.794,502.194 L1094.794,511 L1104.044,511 L1104.044,485.1 Z M1120.176,511.407 C1123.395,511.407 1125.948,510.778 1128.353,509.335 L1129.426,500.196 L1129.278,500.122 C1127.058,502.009 1124.468,503.008 1121.915,503.008 C1118.4,503.008 1116.328,501.158 1116.328,498.05 C1116.328,495.09 1118.474,493.129 1121.767,493.129 C1124.098,493.129 1126.762,494.35 1128.834,496.385 L1128.945,496.348 L1128.945,487.283 C1126.725,485.618 1123.691,484.693 1120.435,484.693 C1116.476,484.693 1113.183,485.951 1110.63,488.504 C1108.077,491.057 1106.782,494.276 1106.782,498.087 C1106.782,501.972 1108.04,505.191 1110.593,507.67 C1113.109,510.149 1116.291,511.407 1120.176,511.407 Z M1143.079,492.056 L1141.747,492.056 L1141.747,497.051 L1143.079,497.051 C1145.04,497.051 1146.15,496.126 1146.15,494.498 C1146.15,492.907 1145.04,492.056 1143.079,492.056 Z M1150.923,501.195 L1158.212,511 L1147.482,511 L1141.895,503.193 L1141.895,511 L1132.645,511 L1132.645,485.1 L1143.782,485.1 C1151.441,485.1 1155.215,487.912 1155.215,493.647 C1155.215,496.866 1153.698,499.567 1150.923,501.195 Z M1172.79,493.758 L1170.274,500.603 L1175.306,500.603 L1172.79,493.758 Z M1178.229,485.1 L1188.589,511 L1178.747,511 L1177.526,507.559 L1168.054,507.559 L1166.833,511 L1157.287,511 L1167.647,485.1 L1178.229,485.1 Z M1200.466,492.315 L1199.504,492.315 L1199.504,497.384 L1200.466,497.384 C1202.649,497.384 1203.759,496.496 1203.759,494.831 C1203.759,493.203 1202.649,492.315 1200.466,492.315 Z M1212.676,494.535 C1212.676,497.532 1211.677,499.863 1209.642,501.565 C1207.607,503.304 1204.795,504.155 1201.28,504.155 L1199.652,504.155 L1199.652,511 L1190.402,511 L1190.402,485.1 L1200.688,485.1 C1208.421,485.1 1212.676,488.43 1212.676,494.535 Z" id="OHCRAP" fill="#152934"></path>
        </g>
    </g>
</svg>