<?xml version="1.0" encoding="UTF-8"?>
<svg width="1182px" height="662px" viewBox="0 0 1182 662" version="1.1" xmlns="http://www.w3.org/2000/svg" xmlns:xlink="http://www.w3.org/1999/xlink" style="background: #FFFCFF;">
    <!-- Generator: Sketch 43.2 (39069) - http://www.bohemiancoding.com/sketch -->
    <title>load-cost-seconds</title>
    <desc>Created with Sketch.</desc>
    <defs>
        <linearGradient x1="41.1313949%" y1="0%" x2="50%" y2="100%" id="linearGradient-1">
            <stop stop-color="#C700EB" offset="0%"></stop>
            <stop stop-color="#EBB2F6" offset="100%"></stop>
        </linearGradient>
    </defs>
    <g id="Page-1" stroke="none" stroke-width="1" fill="none" fill-rule="evenodd">
        <g id="load-cost-seconds">
            <rect id="Baseline" fill="#382A2C" x="1" y="575" width="1180" height="5"></rect>
            <g id="Facebook" transform="translate(995.000000, 20.000000)">
                <rect id="Rectangle-Copy-7" fill="url(#linearGradient-1)" x="7" y="0" width="160" height="550"></rect>
                <path d="M8.02,579.06 L8.02,576.36 L15.79,576.36 L16.54,570 L0.52,570 L0.52,591 L8.02,591 L8.02,584.79 L14.74,584.79 L14.74,579.06 L8.02,579.06 Z M29.59,577.02 L27.55,582.57 L31.63,582.57 L29.59,577.02 Z M34,570 L42.4,591 L34.42,591 L33.43,588.21 L25.75,588.21 L24.76,591 L17.02,591 L25.42,570 L34,570 Z M54.01,591.33 C56.62,591.33 58.69,590.82 60.64,589.65 L61.51,582.24 L61.39,582.18 C59.59,583.71 57.49,584.52 55.42,584.52 C52.57,584.52 50.89,583.02 50.89,580.5 C50.89,578.1 52.63,576.51 55.3,576.51 C57.19,576.51 59.35,577.5 61.03,579.15 L61.12,579.12 L61.12,571.77 C59.32,570.42 56.86,569.67 54.22,569.67 C51.01,569.67 48.34,570.69 46.27,572.76 C44.2,574.83 43.15,577.44 43.15,580.53 C43.15,583.68 44.17,586.29 46.24,588.3 C48.28,590.31 50.86,591.33 54.01,591.33 Z M80.41,584.85 L71.47,584.85 L71.47,583.05 L78.73,583.05 L78.73,577.98 L71.47,577.98 L71.47,576.15 L80.32,576.15 L79.57,570 L64.12,570 L64.12,591 L79.66,591 L80.41,584.85 Z M100.81,584.91 C100.81,586.8 100.09,588.27 98.62,589.35 C97.15,590.46 95.2,591 92.77,591 L82.66,591 L82.66,570 L92.53,570 C97.3,570 100.15,572.13 100.15,575.61 C100.15,577.41 99.16,579 97.36,580.08 C99.64,581.07 100.81,582.72 100.81,584.91 Z M91.39,575.34 L89.68,575.34 L89.68,578.25 L91.39,578.25 C92.59,578.25 93.19,577.74 93.19,576.75 C93.19,575.82 92.59,575.34 91.39,575.34 Z M91.57,582.72 L89.68,582.72 L89.68,585.72 L91.57,585.72 C92.86,585.72 93.52,585.21 93.52,584.25 C93.52,583.2 92.89,582.72 91.57,582.72 Z M113.74,591.42 C110.41,591.42 107.68,590.37 105.52,588.3 C103.36,586.23 102.28,583.65 102.28,580.53 C102.28,577.44 103.39,574.83 105.58,572.73 C107.77,570.63 110.5,569.58 113.8,569.58 C117.1,569.58 119.83,570.63 122.02,572.7 C124.18,574.77 125.26,577.38 125.26,580.47 C125.26,583.59 124.18,586.2 121.99,588.27 C119.8,590.37 117.07,591.42 113.74,591.42 Z M113.74,576.27 C111.49,576.27 109.93,578.04 109.93,580.47 C109.93,582.9 111.52,584.73 113.8,584.73 C116.05,584.73 117.61,582.96 117.61,580.53 C117.61,578.1 115.99,576.27 113.74,576.27 Z M138.22,591.42 C134.89,591.42 132.16,590.37 130,588.3 C127.84,586.23 126.76,583.65 126.76,580.53 C126.76,577.44 127.87,574.83 130.06,572.73 C132.25,570.63 134.98,569.58 138.28,569.58 C141.58,569.58 144.31,570.63 146.5,572.7 C148.66,574.77 149.74,577.38 149.74,580.47 C149.74,583.59 148.66,586.2 146.47,588.27 C144.28,590.37 141.55,591.42 138.22,591.42 Z M138.22,576.27 C135.97,576.27 134.41,578.04 134.41,580.47 C134.41,582.9 136,584.73 138.28,584.73 C140.53,584.73 142.09,582.96 142.09,580.53 C142.09,578.1 140.47,576.27 138.22,576.27 Z M174.1,590.94 L166.39,580.05 L173.92,570.06 L173.92,570 L165.07,570 L159.79,577.56 L159.46,577.56 L159.46,570 L151.96,570 L151.96,591 L159.46,591 L159.46,583.11 L159.76,583.11 L164.98,591 L174.1,591 L174.1,590.94 Z" fill="#382A2C"></path>
            </g>
            <g id="OSCON" transform="translate(805.600000, 147.000000)">
                <rect id="Rectangle-Copy-6" fill="url(#linearGradient-1)" x="0" y="0" width="160" height="423"></rect>
                <path d="M36.82,464.42 C33.49,464.42 30.76,463.37 28.6,461.3 C26.44,459.23 25.36,456.65 25.36,453.53 C25.36,450.44 26.47,447.83 28.66,445.73 C30.85,443.63 33.58,442.58 36.88,442.58 C40.18,442.58 42.91,443.63 45.1,445.7 C47.26,447.77 48.34,450.38 48.34,453.47 C48.34,456.59 47.26,459.2 45.07,461.27 C42.88,463.37 40.15,464.42 36.82,464.42 Z M36.82,449.27 C34.57,449.27 33.01,451.04 33.01,453.47 C33.01,455.9 34.6,457.73 36.88,457.73 C39.13,457.73 40.69,455.96 40.69,453.53 C40.69,451.1 39.07,449.27 36.82,449.27 Z M56.47,456.38 C58.66,457.01 59.14,457.28 59.14,457.79 C59.14,458.3 58.66,458.54 57.67,458.54 C56.68,458.54 55.45,458.27 53.98,457.7 C52.51,457.13 51.13,456.44 49.9,455.63 L49.81,455.69 L50.5,462.44 C52.39,463.64 55.12,464.36 57.79,464.36 C63.19,464.36 66.49,461.69 66.49,457.34 C66.49,455.57 66.01,454.16 65.02,453.11 C64.03,452.06 62.26,451.19 59.71,450.47 C57.76,449.9 57.19,449.6 57.19,449.12 C57.19,448.67 57.58,448.46 58.42,448.46 C59.32,448.46 60.43,448.64 61.75,449.03 C63.04,449.42 64.18,449.9 65.17,450.44 L65.23,450.44 L65.23,444.11 C63.34,443.18 60.94,442.64 58.42,442.64 C55.81,442.64 53.71,443.27 52.18,444.53 C50.62,445.82 49.84,447.5 49.84,449.6 C49.84,451.31 50.35,452.66 51.34,453.71 C52.33,454.76 54.04,455.66 56.47,456.38 Z M78.61,464.33 C81.22,464.33 83.29,463.82 85.24,462.65 L86.11,455.24 L85.99,455.18 C84.19,456.71 82.09,457.52 80.02,457.52 C77.17,457.52 75.49,456.02 75.49,453.5 C75.49,451.1 77.23,449.51 79.9,449.51 C81.79,449.51 83.95,450.5 85.63,452.15 L85.72,452.12 L85.72,444.77 C83.92,443.42 81.46,442.67 78.82,442.67 C75.61,442.67 72.94,443.69 70.87,445.76 C68.8,447.83 67.75,450.44 67.75,453.53 C67.75,456.68 68.77,459.29 70.84,461.3 C72.88,463.31 75.46,464.33 78.61,464.33 Z M99.46,464.42 C96.13,464.42 93.4,463.37 91.24,461.3 C89.08,459.23 88,456.65 88,453.53 C88,450.44 89.11,447.83 91.3,445.73 C93.49,443.63 96.22,442.58 99.52,442.58 C102.82,442.58 105.55,443.63 107.74,445.7 C109.9,447.77 110.98,450.38 110.98,453.47 C110.98,456.59 109.9,459.2 107.71,461.27 C105.52,463.37 102.79,464.42 99.46,464.42 Z M99.46,449.27 C97.21,449.27 95.65,451.04 95.65,453.47 C95.65,455.9 97.24,457.73 99.52,457.73 C101.77,457.73 103.33,455.96 103.33,453.53 C103.33,451.1 101.71,449.27 99.46,449.27 Z M134.92,443 L127.42,443 L127.51,450.92 L120.61,443 L113.2,443 L113.2,464 L120.7,464 L120.61,454.67 L128.77,464 L134.92,464 L134.92,443 Z" fill="#382A2C"></path>
            </g>
            <g id="CSS-Dev-Conf" transform="translate(609.200000, 294.000000)">
                <rect id="Rectangle-Copy-5" fill="url(#linearGradient-1)" x="0" y="0" width="160" height="276"></rect>
                <path d="M27.445,317.33 C30.055,317.33 32.125,316.82 34.075,315.65 L34.945,308.24 L34.825,308.18 C33.025,309.71 30.925,310.52 28.855,310.52 C26.005,310.52 24.325,309.02 24.325,306.5 C24.325,304.1 26.065,302.51 28.735,302.51 C30.625,302.51 32.785,303.5 34.465,305.15 L34.555,305.12 L34.555,297.77 C32.755,296.42 30.295,295.67 27.655,295.67 C24.445,295.67 21.775,296.69 19.705,298.76 C17.635,300.83 16.585,303.44 16.585,306.53 C16.585,309.68 17.605,312.29 19.675,314.3 C21.715,316.31 24.295,317.33 27.445,317.33 Z M43.465,309.38 C45.655,310.01 46.135,310.28 46.135,310.79 C46.135,311.3 45.655,311.54 44.665,311.54 C43.675,311.54 42.445,311.27 40.975,310.7 C39.505,310.13 38.125,309.44 36.895,308.63 L36.805,308.69 L37.495,315.44 C39.385,316.64 42.115,317.36 44.785,317.36 C50.185,317.36 53.485,314.69 53.485,310.34 C53.485,308.57 53.005,307.16 52.015,306.11 C51.025,305.06 49.255,304.19 46.705,303.47 C44.755,302.9 44.185,302.6 44.185,302.12 C44.185,301.67 44.575,301.46 45.415,301.46 C46.315,301.46 47.425,301.64 48.745,302.03 C50.035,302.42 51.175,302.9 52.165,303.44 L52.225,303.44 L52.225,297.11 C50.335,296.18 47.935,295.64 45.415,295.64 C42.805,295.64 40.705,296.27 39.175,297.53 C37.615,298.82 36.835,300.5 36.835,302.6 C36.835,304.31 37.345,305.66 38.335,306.71 C39.325,307.76 41.035,308.66 43.465,309.38 Z M61.375,309.38 C63.565,310.01 64.045,310.28 64.045,310.79 C64.045,311.3 63.565,311.54 62.575,311.54 C61.585,311.54 60.355,311.27 58.885,310.7 C57.415,310.13 56.035,309.44 54.805,308.63 L54.715,308.69 L55.405,315.44 C57.295,316.64 60.025,317.36 62.695,317.36 C68.095,317.36 71.395,314.69 71.395,310.34 C71.395,308.57 70.915,307.16 69.925,306.11 C68.935,305.06 67.165,304.19 64.615,303.47 C62.665,302.9 62.095,302.6 62.095,302.12 C62.095,301.67 62.485,301.46 63.325,301.46 C64.225,301.46 65.335,301.64 66.655,302.03 C67.945,302.42 69.085,302.9 70.075,303.44 L70.135,303.44 L70.135,297.11 C68.245,296.18 65.845,295.64 63.325,295.64 C60.715,295.64 58.615,296.27 57.085,297.53 C55.525,298.82 54.745,300.5 54.745,302.6 C54.745,304.31 55.255,305.66 56.245,306.71 C57.235,307.76 58.945,308.66 61.375,309.38 Z M93.385,306.53 C93.385,303.8 91.705,302.39 88.495,302.39 L87.595,302.39 L87.595,310.61 L88.495,310.61 C91.705,310.61 93.385,309.17 93.385,306.53 Z M88.555,317 L80.095,317 L80.095,296 L88.555,296 C96.595,296 101.035,299.75 101.035,306.47 C101.035,309.77 99.955,312.35 97.765,314.21 C95.575,316.07 92.515,317 88.555,317 Z M119.545,310.85 L110.605,310.85 L110.605,309.05 L117.865,309.05 L117.865,303.98 L110.605,303.98 L110.605,302.15 L119.455,302.15 L118.705,296 L103.255,296 L103.255,317 L118.795,317 L119.545,310.85 Z M145.165,296 L137.305,296 L132.925,308.03 L128.545,296 L120.325,296 L128.875,317.09 L136.615,317.09 L145.165,296 Z M48.43,347.33 C51.04,347.33 53.11,346.82 55.06,345.65 L55.93,338.24 L55.81,338.18 C54.01,339.71 51.91,340.52 49.84,340.52 C46.99,340.52 45.31,339.02 45.31,336.5 C45.31,334.1 47.05,332.51 49.72,332.51 C51.61,332.51 53.77,333.5 55.45,335.15 L55.54,335.12 L55.54,327.77 C53.74,326.42 51.28,325.67 48.64,325.67 C45.43,325.67 42.76,326.69 40.69,328.76 C38.62,330.83 37.57,333.44 37.57,336.53 C37.57,339.68 38.59,342.29 40.66,344.3 C42.7,346.31 45.28,347.33 48.43,347.33 Z M69.28,347.42 C65.95,347.42 63.22,346.37 61.06,344.3 C58.9,342.23 57.82,339.65 57.82,336.53 C57.82,333.44 58.93,330.83 61.12,328.73 C63.31,326.63 66.04,325.58 69.34,325.58 C72.64,325.58 75.37,326.63 77.56,328.7 C79.72,330.77 80.8,333.38 80.8,336.47 C80.8,339.59 79.72,342.2 77.53,344.27 C75.34,346.37 72.61,347.42 69.28,347.42 Z M69.28,332.27 C67.03,332.27 65.47,334.04 65.47,336.47 C65.47,338.9 67.06,340.73 69.34,340.73 C71.59,340.73 73.15,338.96 73.15,336.53 C73.15,334.1 71.53,332.27 69.28,332.27 Z M104.74,326 L97.24,326 L97.33,333.92 L90.43,326 L83.02,326 L83.02,347 L90.52,347 L90.43,337.67 L98.59,347 L104.74,347 L104.74,326 Z M115.18,335.06 L115.18,332.36 L122.95,332.36 L123.7,326 L107.68,326 L107.68,347 L115.18,347 L115.18,340.79 L121.9,340.79 L121.9,335.06 L115.18,335.06 Z" fill="#382A2C"></path>
            </g>
            <g id="Smashing-Conf" transform="translate(405.800000, 379.000000)">
                <rect id="Rectangle-Copy-4" fill="url(#linearGradient-1)" x="7" y="0" width="160" height="191"></rect>
                <path d="M7.09,224.38 C9.28,225.01 9.76,225.28 9.76,225.79 C9.76,226.3 9.28,226.54 8.29,226.54 C7.3,226.54 6.07,226.27 4.6,225.7 C3.13,225.13 1.75,224.44 0.52,223.63 L0.43,223.69 L1.12,230.44 C3.01,231.64 5.74,232.36 8.41,232.36 C13.81,232.36 17.11,229.69 17.11,225.34 C17.11,223.57 16.63,222.16 15.64,221.11 C14.65,220.06 12.88,219.19 10.33,218.47 C8.38,217.9 7.81,217.6 7.81,217.12 C7.81,216.67 8.2,216.46 9.04,216.46 C9.94,216.46 11.05,216.64 12.37,217.03 C13.66,217.42 14.8,217.9 15.79,218.44 L15.85,218.44 L15.85,212.11 C13.96,211.18 11.56,210.64 9.04,210.64 C6.43,210.64 4.33,211.27 2.8,212.53 C1.24,213.82 0.46,215.5 0.46,217.6 C0.46,219.31 0.97,220.66 1.96,221.71 C2.95,222.76 4.66,223.66 7.09,224.38 Z M39.55,220.36 L39.55,232 L46.81,232 L46.81,211 L37,211 L33.01,218.98 L28.96,211 L19.09,211 L19.09,232 L26.29,232 L26.29,220.36 L32.77,232.27 L33.13,232.27 L39.55,220.36 Z M60.85,218.02 L58.81,223.57 L62.89,223.57 L60.85,218.02 Z M65.26,211 L73.66,232 L65.68,232 L64.69,229.21 L57.01,229.21 L56.02,232 L48.28,232 L56.68,211 L65.26,211 Z M81.04,224.38 C83.23,225.01 83.71,225.28 83.71,225.79 C83.71,226.3 83.23,226.54 82.24,226.54 C81.25,226.54 80.02,226.27 78.55,225.7 C77.08,225.13 75.7,224.44 74.47,223.63 L74.38,223.69 L75.07,230.44 C76.96,231.64 79.69,232.36 82.36,232.36 C87.76,232.36 91.06,229.69 91.06,225.34 C91.06,223.57 90.58,222.16 89.59,221.11 C88.6,220.06 86.83,219.19 84.28,218.47 C82.33,217.9 81.76,217.6 81.76,217.12 C81.76,216.67 82.15,216.46 82.99,216.46 C83.89,216.46 85,216.64 86.32,217.03 C87.61,217.42 88.75,217.9 89.74,218.44 L89.8,218.44 L89.8,212.11 C87.91,211.18 85.51,210.64 82.99,210.64 C80.38,210.64 78.28,211.27 76.75,212.53 C75.19,213.82 74.41,215.5 74.41,217.6 C74.41,219.31 74.92,220.66 75.91,221.71 C76.9,222.76 78.61,223.66 81.04,224.38 Z M114.22,211 L106.72,211 L106.72,218.02 L100.54,218.02 L100.54,211 L93.04,211 L93.04,232 L100.54,232 L100.54,224.86 L106.72,224.86 L106.72,232 L114.22,232 L114.22,211 Z M124.72,211 L117.22,211 L117.22,232 L124.72,232 L124.72,211 Z M149.44,211 L141.94,211 L142.03,218.92 L135.13,211 L127.72,211 L127.72,232 L135.22,232 L135.13,222.67 L143.29,232 L149.44,232 L149.44,211 Z M162.25,219.73 L162.25,224.14 L165.28,224.14 L165.28,226.06 C165.13,226.09 164.98,226.09 164.53,226.09 C161.26,226.09 159.4,224.5 159.4,221.74 C159.4,218.95 161.44,217.27 164.77,217.27 C166.81,217.27 168.85,217.75 171.37,218.86 L171.37,212.05 C169,211.09 166.75,210.67 164.2,210.67 C160.36,210.67 157.3,211.66 155.05,213.67 C152.8,215.68 151.66,218.38 151.66,221.83 C151.66,224.98 152.71,227.53 154.81,229.42 C156.88,231.34 159.64,232.3 163.03,232.3 C165.7,232.3 168.7,231.67 171.85,230.44 L171.85,219.73 L162.25,219.73 Z M54.43,262.33 C57.04,262.33 59.11,261.82 61.06,260.65 L61.93,253.24 L61.81,253.18 C60.01,254.71 57.91,255.52 55.84,255.52 C52.99,255.52 51.31,254.02 51.31,251.5 C51.31,249.1 53.05,247.51 55.72,247.51 C57.61,247.51 59.77,248.5 61.45,250.15 L61.54,250.12 L61.54,242.77 C59.74,241.42 57.28,240.67 54.64,240.67 C51.43,240.67 48.76,241.69 46.69,243.76 C44.62,245.83 43.57,248.44 43.57,251.53 C43.57,254.68 44.59,257.29 46.66,259.3 C48.7,261.31 51.28,262.33 54.43,262.33 Z M75.28,262.42 C71.95,262.42 69.22,261.37 67.06,259.3 C64.9,257.23 63.82,254.65 63.82,251.53 C63.82,248.44 64.93,245.83 67.12,243.73 C69.31,241.63 72.04,240.58 75.34,240.58 C78.64,240.58 81.37,241.63 83.56,243.7 C85.72,245.77 86.8,248.38 86.8,251.47 C86.8,254.59 85.72,257.2 83.53,259.27 C81.34,261.37 78.61,262.42 75.28,262.42 Z M75.28,247.27 C73.03,247.27 71.47,249.04 71.47,251.47 C71.47,253.9 73.06,255.73 75.34,255.73 C77.59,255.73 79.15,253.96 79.15,251.53 C79.15,249.1 77.53,247.27 75.28,247.27 Z M110.74,241 L103.24,241 L103.33,248.92 L96.43,241 L89.02,241 L89.02,262 L96.52,262 L96.43,252.67 L104.59,262 L110.74,262 L110.74,241 Z M121.18,250.06 L121.18,247.36 L128.95,247.36 L129.7,241 L113.68,241 L113.68,262 L121.18,262 L121.18,255.79 L127.9,255.79 L127.9,250.06 L121.18,250.06 Z" fill="#382A2C"></path>
            </g>
            <g id="Twitter" transform="translate(216.400000, 430.000000)">
                <rect id="Rectangle-Copy-3" fill="url(#linearGradient-1)" x="0" y="0" width="160" height="140"></rect>
                <path d="M4.86,160 L4.86,166.69 L11.37,166.69 L11.37,181 L18.87,181 L18.87,166.69 L25.38,166.69 L25.38,160 L4.86,160 Z M43.11,174.31 L46.53,181.15 L53.46,181.15 L59.4,160 L51.63,160 L48.99,170.95 L43.41,159.73 L43.02,159.73 L37.41,170.95 L34.77,160 L26.79,160 L32.73,181.15 L39.66,181.15 L43.11,174.31 Z M68.97,160 L61.47,160 L61.47,181 L68.97,181 L68.97,160 Z M71.37,160 L71.37,166.69 L77.88,166.69 L77.88,181 L85.38,181 L85.38,166.69 L91.89,166.69 L91.89,160 L71.37,160 Z M93.63,160 L93.63,166.69 L100.14,166.69 L100.14,181 L107.64,181 L107.64,166.69 L114.15,166.69 L114.15,160 L93.63,160 Z M132.78,174.85 L123.84,174.85 L123.84,173.05 L131.1,173.05 L131.1,167.98 L123.84,167.98 L123.84,166.15 L132.69,166.15 L131.94,160 L116.49,160 L116.49,181 L132.03,181 L132.78,174.85 Z M143.49,165.64 L142.41,165.64 L142.41,169.69 L143.49,169.69 C145.08,169.69 145.98,168.94 145.98,167.62 C145.98,166.33 145.08,165.64 143.49,165.64 Z M149.85,173.05 L155.76,181 L147.06,181 L142.53,174.67 L142.53,181 L135.03,181 L135.03,160 L144.06,160 C150.27,160 153.33,162.28 153.33,166.93 C153.33,169.54 152.1,171.73 149.85,173.05 Z" fill="#382A2C"></path>
            </g>
            <g id="Google" transform="translate(20.000000, 485.000000)">
                <rect id="Rectangle" fill="url(#linearGradient-1)" x="0" y="0" width="160" height="85"></rect>
                <path d="M26.965,113.73 L26.965,118.14 L29.995,118.14 L29.995,120.06 C29.845,120.09 29.695,120.09 29.245,120.09 C25.975,120.09 24.115,118.5 24.115,115.74 C24.115,112.95 26.155,111.27 29.485,111.27 C31.525,111.27 33.565,111.75 36.085,112.86 L36.085,106.05 C33.715,105.09 31.465,104.67 28.915,104.67 C25.075,104.67 22.015,105.66 19.765,107.67 C17.515,109.68 16.375,112.38 16.375,115.83 C16.375,118.98 17.425,121.53 19.525,123.42 C21.595,125.34 24.355,126.3 27.745,126.3 C30.415,126.3 33.415,125.67 36.565,124.44 L36.565,113.73 L26.965,113.73 Z M50.215,126.42 C46.885,126.42 44.155,125.37 41.995,123.3 C39.835,121.23 38.755,118.65 38.755,115.53 C38.755,112.44 39.865,109.83 42.055,107.73 C44.245,105.63 46.975,104.58 50.275,104.58 C53.575,104.58 56.305,105.63 58.495,107.7 C60.655,109.77 61.735,112.38 61.735,115.47 C61.735,118.59 60.655,121.2 58.465,123.27 C56.275,125.37 53.545,126.42 50.215,126.42 Z M50.215,111.27 C47.965,111.27 46.405,113.04 46.405,115.47 C46.405,117.9 47.995,119.73 50.275,119.73 C52.525,119.73 54.085,117.96 54.085,115.53 C54.085,113.1 52.465,111.27 50.215,111.27 Z M74.695,126.42 C71.365,126.42 68.635,125.37 66.475,123.3 C64.315,121.23 63.235,118.65 63.235,115.53 C63.235,112.44 64.345,109.83 66.535,107.73 C68.725,105.63 71.455,104.58 74.755,104.58 C78.055,104.58 80.785,105.63 82.975,107.7 C85.135,109.77 86.215,112.38 86.215,115.47 C86.215,118.59 85.135,121.2 82.945,123.27 C80.755,125.37 78.025,126.42 74.695,126.42 Z M74.695,111.27 C72.445,111.27 70.885,113.04 70.885,115.47 C70.885,117.9 72.475,119.73 74.755,119.73 C77.005,119.73 78.565,117.96 78.565,115.53 C78.565,113.1 76.945,111.27 74.695,111.27 Z M98.305,113.73 L98.305,118.14 L101.335,118.14 L101.335,120.06 C101.185,120.09 101.035,120.09 100.585,120.09 C97.315,120.09 95.455,118.5 95.455,115.74 C95.455,112.95 97.495,111.27 100.825,111.27 C102.865,111.27 104.905,111.75 107.425,112.86 L107.425,106.05 C105.055,105.09 102.805,104.67 100.255,104.67 C96.415,104.67 93.355,105.66 91.105,107.67 C88.855,109.68 87.715,112.38 87.715,115.83 C87.715,118.98 88.765,121.53 90.865,123.42 C92.935,125.34 95.695,126.3 99.085,126.3 C101.755,126.3 104.755,125.67 107.905,124.44 L107.905,113.73 L98.305,113.73 Z M126.115,119.31 L118.315,119.31 L118.315,105 L110.815,105 L110.815,126 L126.115,126 L126.115,119.31 Z M144.595,119.85 L135.655,119.85 L135.655,118.05 L142.915,118.05 L142.915,112.98 L135.655,112.98 L135.655,111.15 L144.505,111.15 L143.755,105 L128.305,105 L128.305,126 L143.845,126 L144.595,119.85 Z" fill="#382A2C"></path>
            </g>
            <path d="M1,112 L25,112 L25,108 L1,108 L1,112 Z M36,112 L60,112 L60,108 L36,108 L36,112 Z M71,112 L95,112 L95,108 L71,108 L71,112 Z M106,112 L130,112 L130,108 L106,108 L106,112 Z M141,112 L165,112 L165,108 L141,108 L141,112 Z M176,112 L200,112 L200,108 L176,108 L176,112 Z M211,112 L235,112 L235,108 L211,108 L211,112 Z M246,112 L270,112 L270,108 L246,108 L246,112 Z M281,112 L305,112 L305,108 L281,108 L281,112 Z M316,112 L340,112 L340,108 L316,108 L316,112 Z M351,112 L375,112 L375,108 L351,108 L351,112 Z M386,112 L410,112 L410,108 L386,108 L386,112 Z M421,112 L445,112 L445,108 L421,108 L421,112 Z M456,112 L480,112 L480,108 L456,108 L456,112 Z M491,112 L515,112 L515,108 L491,108 L491,112 Z M526,112 L550,112 L550,108 L526,108 L526,112 Z M561,112 L585,112 L585,108 L561,108 L561,112 Z M596,112 L620,112 L620,108 L596,108 L596,112 Z M631,112 L655,112 L655,108 L631,108 L631,112 Z M666,112 L690,112 L690,108 L666,108 L666,112 Z M701,112 L725,112 L725,108 L701,108 L701,112 Z M736,112 L760,112 L760,108 L736,108 L736,112 Z M771,112 L795,112 L795,108 L771,108 L771,112 Z M806,112 L830,112 L830,108 L806,108 L806,112 Z M841,112 L865,112 L865,108 L841,108 L841,112 Z M876,112 L900,112 L900,108 L876,108 L876,112 Z M911,112 L935,112 L935,108 L911,108 L911,112 Z M946,112 L970,112 L970,108 L946,108 L946,112 Z M981,112 L1005,112 L1005,108 L981,108 L981,112 Z M1016,112 L1040,112 L1040,108 L1016,108 L1016,112 Z M1051,112 L1075,112 L1075,108 L1051,108 L1051,112 Z M1086,112 L1110,112 L1110,108 L1086,108 L1086,112 Z M1121,112 L1145,112 L1145,108 L1121,108 L1121,112 Z M1156,112 L1180,112 L1180,108 L1156,108 L1156,112 Z" id="Line" fill="#56453B" fill-rule="nonzero"></path>
            <path d="M30.29,82.85 L27.29,89.42 L30.29,89.42 L30.29,82.85 Z M36.95,89.42 L39.95,89.42 L39.95,94.58 L36.95,94.58 L36.95,98 L30.17,98 L30.17,94.58 L20.39,94.58 L20.15,92.66 L28.52,76.85 L36.95,76.85 L36.95,89.42 Z M54.53,90.38 C56.72,91.01 57.2,91.28 57.2,91.79 C57.2,92.3 56.72,92.54 55.73,92.54 C54.74,92.54 53.51,92.27 52.04,91.7 C50.57,91.13 49.19,90.44 47.96,89.63 L47.87,89.69 L48.56,96.44 C50.45,97.64 53.18,98.36 55.85,98.36 C61.25,98.36 64.55,95.69 64.55,91.34 C64.55,89.57 64.07,88.16 63.08,87.11 C62.09,86.06 60.32,85.19 57.77,84.47 C55.82,83.9 55.25,83.6 55.25,83.12 C55.25,82.67 55.64,82.46 56.48,82.46 C57.38,82.46 58.49,82.64 59.81,83.03 C61.1,83.42 62.24,83.9 63.23,84.44 L63.29,84.44 L63.29,78.11 C61.4,77.18 59,76.64 56.48,76.64 C53.87,76.64 51.77,77.27 50.24,78.53 C48.68,79.82 47.9,81.5 47.9,83.6 C47.9,85.31 48.41,86.66 49.4,87.71 C50.39,88.76 52.1,89.66 54.53,90.38 Z M82.82,91.85 L73.88,91.85 L73.88,90.05 L81.14,90.05 L81.14,84.98 L73.88,84.98 L73.88,83.15 L82.73,83.15 L81.98,77 L66.53,77 L66.53,98 L82.07,98 L82.82,91.85 Z M95.21,98.33 C97.82,98.33 99.89,97.82 101.84,96.65 L102.71,89.24 L102.59,89.18 C100.79,90.71 98.69,91.52 96.62,91.52 C93.77,91.52 92.09,90.02 92.09,87.5 C92.09,85.1 93.83,83.51 96.5,83.51 C98.39,83.51 100.55,84.5 102.23,86.15 L102.32,86.12 L102.32,78.77 C100.52,77.42 98.06,76.67 95.42,76.67 C92.21,76.67 89.54,77.69 87.47,79.76 C85.4,81.83 84.35,84.44 84.35,87.53 C84.35,90.68 85.37,93.29 87.44,95.3 C89.48,97.31 92.06,98.33 95.21,98.33 Z M116.06,98.42 C112.73,98.42 110,97.37 107.84,95.3 C105.68,93.23 104.6,90.65 104.6,87.53 C104.6,84.44 105.71,81.83 107.9,79.73 C110.09,77.63 112.82,76.58 116.12,76.58 C119.42,76.58 122.15,77.63 124.34,79.7 C126.5,81.77 127.58,84.38 127.58,87.47 C127.58,90.59 126.5,93.2 124.31,95.27 C122.12,97.37 119.39,98.42 116.06,98.42 Z M116.06,83.27 C113.81,83.27 112.25,85.04 112.25,87.47 C112.25,89.9 113.84,91.73 116.12,91.73 C118.37,91.73 119.93,89.96 119.93,87.53 C119.93,85.1 118.31,83.27 116.06,83.27 Z M151.52,77 L144.02,77 L144.11,84.92 L137.21,77 L129.8,77 L129.8,98 L137.3,98 L137.21,88.67 L145.37,98 L151.52,98 L151.52,77 Z M167.75,87.53 C167.75,84.8 166.07,83.39 162.86,83.39 L161.96,83.39 L161.96,91.61 L162.86,91.61 C166.07,91.61 167.75,90.17 167.75,87.53 Z M162.92,98 L154.46,98 L154.46,77 L162.92,77 C170.96,77 175.4,80.75 175.4,87.47 C175.4,90.77 174.32,93.35 172.13,95.21 C169.94,97.07 166.88,98 162.92,98 Z M183.53,90.38 C185.72,91.01 186.2,91.28 186.2,91.79 C186.2,92.3 185.72,92.54 184.73,92.54 C183.74,92.54 182.51,92.27 181.04,91.7 C179.57,91.13 178.19,90.44 176.96,89.63 L176.87,89.69 L177.56,96.44 C179.45,97.64 182.18,98.36 184.85,98.36 C190.25,98.36 193.55,95.69 193.55,91.34 C193.55,89.57 193.07,88.16 192.08,87.11 C191.09,86.06 189.32,85.19 186.77,84.47 C184.82,83.9 184.25,83.6 184.25,83.12 C184.25,82.67 184.64,82.46 185.48,82.46 C186.38,82.46 187.49,82.64 188.81,83.03 C190.1,83.42 191.24,83.9 192.23,84.44 L192.29,84.44 L192.29,78.11 C190.4,77.18 188,76.64 185.48,76.64 C182.87,76.64 180.77,77.27 179.24,78.53 C177.68,79.82 176.9,81.5 176.9,83.6 C176.9,85.31 177.41,86.66 178.4,87.71 C179.39,88.76 181.1,89.66 183.53,90.38 Z" id="4-seconds" fill="#382A2C"></path>
        </g>
    </g>
</svg>