<?xml version="1.0" encoding="UTF-8"?>
<svg width="1182px" height="662px" viewBox="0 0 1182 662" version="1.1" xmlns="http://www.w3.org/2000/svg" xmlns:xlink="http://www.w3.org/1999/xlink" style="background: #FFFCFF;">
    <!-- Generator: Sketch 43.2 (39069) - http://www.bohemiancoding.com/sketch -->
    <title>page-size-trend</title>
    <desc>Created with Sketch.</desc>
    <defs>
        <linearGradient x1="41.1313949%" y1="0%" x2="50%" y2="100%" id="linearGradient-1">
            <stop stop-color="#C700EB" offset="0%"></stop>
            <stop stop-color="#EBB2F6" offset="100%"></stop>
        </linearGradient>
    </defs>
    <g id="Page-1" stroke="none" stroke-width="1" fill="none" fill-rule="evenodd">
        <g id="page-size-trend">
            <rect id="Baseline" fill="#382A2C" x="1" y="575" width="1180" height="5"></rect>
            <g id="Facebook" transform="translate(1002.000000, 20.000000)">
                <rect id="Rectangle-Copy-7" fill="url(#linearGradient-1)" x="0" y="0" width="160" height="550"></rect>
                <path d="M19.57,576.02 L17.53,581.57 L21.61,581.57 L19.57,576.02 Z M23.98,569 L32.38,590 L24.4,590 L23.41,587.21 L15.73,587.21 L14.74,590 L7,590 L15.4,569 L23.98,569 Z M42.01,574.85 L41.23,574.85 L41.23,578.96 L42.01,578.96 C43.78,578.96 44.68,578.24 44.68,576.89 C44.68,575.57 43.78,574.85 42.01,574.85 Z M51.91,576.65 C51.91,579.08 51.1,580.97 49.45,582.35 C47.8,583.76 45.52,584.45 42.67,584.45 L41.35,584.45 L41.35,590 L33.85,590 L33.85,569 L42.19,569 C48.46,569 51.91,571.7 51.91,576.65 Z M62.17,574.64 L61.09,574.64 L61.09,578.69 L62.17,578.69 C63.76,578.69 64.66,577.94 64.66,576.62 C64.66,575.33 63.76,574.64 62.17,574.64 Z M68.53,582.05 L74.44,590 L65.74,590 L61.21,583.67 L61.21,590 L53.71,590 L53.71,569 L62.74,569 C68.95,569 72.01,571.28 72.01,575.93 C72.01,578.54 70.78,580.73 68.53,582.05 Z M98.05,583.79 L91.18,583.91 L93.37,581.84 C94.81,580.46 95.8,579.29 96.34,578.3 C96.85,577.34 97.12,576.26 97.12,575.09 C97.12,571.22 94.3,568.64 89.74,568.64 C86.59,568.64 83.92,569.54 81.49,571.58 L81.82,578.78 L81.88,578.78 C84.49,576.38 86.65,575.18 88.42,575.18 C89.38,575.18 89.89,575.6 89.89,576.35 C89.89,576.92 89.53,577.43 88.57,578.39 L81.16,585.59 L81.52,590 L96.46,590 L98.05,583.79 Z M119.32,579.47 C119.32,582.71 118.39,585.35 116.53,587.36 C114.64,589.4 112.27,590.42 109.39,590.42 C106.42,590.42 104.05,589.43 102.22,587.42 C100.39,585.44 99.49,582.8 99.49,579.53 C99.49,576.32 100.42,573.68 102.31,571.64 C104.17,569.6 106.54,568.58 109.45,568.58 C112.36,568.58 114.76,569.57 116.59,571.58 C118.42,573.59 119.32,576.2 119.32,579.47 Z M109.39,574.88 C107.59,574.88 106.57,576.56 106.57,579.47 C106.57,582.47 107.56,584.12 109.45,584.12 C111.25,584.12 112.24,582.44 112.24,579.53 C112.24,576.56 111.19,574.88 109.39,574.88 Z M132.37,568.43 L121.18,574.31 L121.18,581.81 L125.56,579.44 L125.56,590 L132.79,590 L132.79,568.61 L132.37,568.43 Z M153.19,569 L135.25,569 L135.88,575.21 L143.44,575.21 L136.57,590 L144.01,590 L153.31,569.15 L153.19,569 Z" id="APR-2017" fill="#382A2C"></path>
            </g>
            <g id="OSCON" transform="translate(805.600000, 67.000000)">
                <rect id="Rectangle-Copy-6" fill="url(#linearGradient-1)" x="0" y="0" width="160" height="503"></rect>
                <path d="M19.57,530.02 L17.53,535.57 L21.61,535.57 L19.57,530.02 Z M23.98,523 L32.38,544 L24.4,544 L23.41,541.21 L15.73,541.21 L14.74,544 L7,544 L15.4,523 L23.98,523 Z M42.01,528.85 L41.23,528.85 L41.23,532.96 L42.01,532.96 C43.78,532.96 44.68,532.24 44.68,530.89 C44.68,529.57 43.78,528.85 42.01,528.85 Z M51.91,530.65 C51.91,533.08 51.1,534.97 49.45,536.35 C47.8,537.76 45.52,538.45 42.67,538.45 L41.35,538.45 L41.35,544 L33.85,544 L33.85,523 L42.19,523 C48.46,523 51.91,525.7 51.91,530.65 Z M62.17,528.64 L61.09,528.64 L61.09,532.69 L62.17,532.69 C63.76,532.69 64.66,531.94 64.66,530.62 C64.66,529.33 63.76,528.64 62.17,528.64 Z M68.53,536.05 L74.44,544 L65.74,544 L61.21,537.67 L61.21,544 L53.71,544 L53.71,523 L62.74,523 C68.95,523 72.01,525.28 72.01,529.93 C72.01,532.54 70.78,534.73 68.53,536.05 Z M98.05,537.79 L91.18,537.91 L93.37,535.84 C94.81,534.46 95.8,533.29 96.34,532.3 C96.85,531.34 97.12,530.26 97.12,529.09 C97.12,525.22 94.3,522.64 89.74,522.64 C86.59,522.64 83.92,523.54 81.49,525.58 L81.82,532.78 L81.88,532.78 C84.49,530.38 86.65,529.18 88.42,529.18 C89.38,529.18 89.89,529.6 89.89,530.35 C89.89,530.92 89.53,531.43 88.57,532.39 L81.16,539.59 L81.52,544 L96.46,544 L98.05,537.79 Z M119.32,533.47 C119.32,536.71 118.39,539.35 116.53,541.36 C114.64,543.4 112.27,544.42 109.39,544.42 C106.42,544.42 104.05,543.43 102.22,541.42 C100.39,539.44 99.49,536.8 99.49,533.53 C99.49,530.32 100.42,527.68 102.31,525.64 C104.17,523.6 106.54,522.58 109.45,522.58 C112.36,522.58 114.76,523.57 116.59,525.58 C118.42,527.59 119.32,530.2 119.32,533.47 Z M109.39,528.88 C107.59,528.88 106.57,530.56 106.57,533.47 C106.57,536.47 107.56,538.12 109.45,538.12 C111.25,538.12 112.24,536.44 112.24,533.53 C112.24,530.56 111.19,528.88 109.39,528.88 Z M132.37,522.43 L121.18,528.31 L121.18,535.81 L125.56,533.44 L125.56,544 L132.79,544 L132.79,522.61 L132.37,522.43 Z M153.58,536.17 C153.58,538.6 152.74,540.58 151.06,542.11 C149.35,543.64 147.13,544.42 144.4,544.42 C141.64,544.42 139.45,543.67 137.83,542.17 C136.18,540.7 135.37,538.75 135.37,536.35 C135.37,535 135.64,533.68 136.18,532.36 C136.72,531.04 137.8,529.24 139.39,526.96 L142.15,523 L150.49,523 L145.36,529.27 C145.57,529.24 145.78,529.24 146.26,529.24 C148.45,529.24 150.22,529.87 151.57,531.1 C152.92,532.33 153.58,534.04 153.58,536.17 Z M142.36,536.32 C142.36,537.73 143.23,538.66 144.52,538.66 C145.72,538.66 146.59,537.73 146.59,536.53 C146.59,535.21 145.6,534.4 143.95,534.4 C143.74,534.4 143.62,534.43 142.78,534.46 C142.51,535.21 142.36,535.75 142.36,536.32 Z" id="APR-2016" fill="#382A2C"></path>
            </g>
            <g id="CSS-Dev-Conf" transform="translate(609.200000, 134.000000)">
                <rect id="Rectangle-Copy-5" fill="url(#linearGradient-1)" x="0" y="0" width="160" height="436"></rect>
                <path d="M18.57,463.02 L16.53,468.57 L20.61,468.57 L18.57,463.02 Z M22.98,456 L31.38,477 L23.4,477 L22.41,474.21 L14.73,474.21 L13.74,477 L6,477 L14.4,456 L22.98,456 Z M41.01,461.85 L40.23,461.85 L40.23,465.96 L41.01,465.96 C42.78,465.96 43.68,465.24 43.68,463.89 C43.68,462.57 42.78,461.85 41.01,461.85 Z M50.91,463.65 C50.91,466.08 50.1,467.97 48.45,469.35 C46.8,470.76 44.52,471.45 41.67,471.45 L40.35,471.45 L40.35,477 L32.85,477 L32.85,456 L41.19,456 C47.46,456 50.91,458.7 50.91,463.65 Z M61.17,461.64 L60.09,461.64 L60.09,465.69 L61.17,465.69 C62.76,465.69 63.66,464.94 63.66,463.62 C63.66,462.33 62.76,461.64 61.17,461.64 Z M67.53,469.05 L73.44,477 L64.74,477 L60.21,470.67 L60.21,477 L52.71,477 L52.71,456 L61.74,456 C67.95,456 71.01,458.28 71.01,462.93 C71.01,465.54 69.78,467.73 67.53,469.05 Z M97.05,470.79 L90.18,470.91 L92.37,468.84 C93.81,467.46 94.8,466.29 95.34,465.3 C95.85,464.34 96.12,463.26 96.12,462.09 C96.12,458.22 93.3,455.64 88.74,455.64 C85.59,455.64 82.92,456.54 80.49,458.58 L80.82,465.78 L80.88,465.78 C83.49,463.38 85.65,462.18 87.42,462.18 C88.38,462.18 88.89,462.6 88.89,463.35 C88.89,463.92 88.53,464.43 87.57,465.39 L80.16,472.59 L80.52,477 L95.46,477 L97.05,470.79 Z M118.32,466.47 C118.32,469.71 117.39,472.35 115.53,474.36 C113.64,476.4 111.27,477.42 108.39,477.42 C105.42,477.42 103.05,476.43 101.22,474.42 C99.39,472.44 98.49,469.8 98.49,466.53 C98.49,463.32 99.42,460.68 101.31,458.64 C103.17,456.6 105.54,455.58 108.45,455.58 C111.36,455.58 113.76,456.57 115.59,458.58 C117.42,460.59 118.32,463.2 118.32,466.47 Z M108.39,461.88 C106.59,461.88 105.57,463.56 105.57,466.47 C105.57,469.47 106.56,471.12 108.45,471.12 C110.25,471.12 111.24,469.44 111.24,466.53 C111.24,463.56 110.19,461.88 108.39,461.88 Z M131.37,455.43 L120.18,461.31 L120.18,468.81 L124.56,466.44 L124.56,477 L131.79,477 L131.79,455.61 L131.37,455.43 Z M150.84,470.1 C150.84,465.78 148.02,463.5 142.65,463.5 C142.05,463.5 141.3,463.56 140.7,463.65 L140.82,462.03 L149.82,462.03 L149.82,456 L135.9,456 L135.18,468.6 L135.42,468.72 C137.43,468.27 138.72,468.12 140.19,468.12 C142.47,468.12 143.55,468.72 143.55,469.95 C143.55,471.03 142.65,471.63 141,471.63 C139.29,471.63 137.61,471.24 134.82,470.25 L135.3,476.16 C137.1,476.91 139.35,477.36 141.72,477.36 C144.51,477.36 146.73,476.7 148.38,475.41 C150.03,474.12 150.84,472.35 150.84,470.1 Z" id="APR-2015" fill="#382A2C"></path>
            </g>
            <g id="Smashing-Conf" transform="translate(412.800000, 198.000000)">
                <rect id="Rectangle-Copy-4" fill="url(#linearGradient-1)" x="0" y="0" width="160" height="372"></rect>
                <path d="M26.57,399.02 L24.53,404.57 L28.61,404.57 L26.57,399.02 Z M30.98,392 L39.38,413 L31.4,413 L30.41,410.21 L22.73,410.21 L21.74,413 L14,413 L22.4,392 L30.98,392 Z M49.01,397.85 L48.23,397.85 L48.23,401.96 L49.01,401.96 C50.78,401.96 51.68,401.24 51.68,399.89 C51.68,398.57 50.78,397.85 49.01,397.85 Z M58.91,399.65 C58.91,402.08 58.1,403.97 56.45,405.35 C54.8,406.76 52.52,407.45 49.67,407.45 L48.35,407.45 L48.35,413 L40.85,413 L40.85,392 L49.19,392 C55.46,392 58.91,394.7 58.91,399.65 Z M69.17,397.64 L68.09,397.64 L68.09,401.69 L69.17,401.69 C70.76,401.69 71.66,400.94 71.66,399.62 C71.66,398.33 70.76,397.64 69.17,397.64 Z M75.53,405.05 L81.44,413 L72.74,413 L68.21,406.67 L68.21,413 L60.71,413 L60.71,392 L69.74,392 C75.95,392 79.01,394.28 79.01,398.93 C79.01,401.54 77.78,403.73 75.53,405.05 Z M105.05,406.79 L98.18,406.91 L100.37,404.84 C101.81,403.46 102.8,402.29 103.34,401.3 C103.85,400.34 104.12,399.26 104.12,398.09 C104.12,394.22 101.3,391.64 96.74,391.64 C93.59,391.64 90.92,392.54 88.49,394.58 L88.82,401.78 L88.88,401.78 C91.49,399.38 93.65,398.18 95.42,398.18 C96.38,398.18 96.89,398.6 96.89,399.35 C96.89,399.92 96.53,400.43 95.57,401.39 L88.16,408.59 L88.52,413 L103.46,413 L105.05,406.79 Z M126.32,402.47 C126.32,405.71 125.39,408.35 123.53,410.36 C121.64,412.4 119.27,413.42 116.39,413.42 C113.42,413.42 111.05,412.43 109.22,410.42 C107.39,408.44 106.49,405.8 106.49,402.53 C106.49,399.32 107.42,396.68 109.31,394.64 C111.17,392.6 113.54,391.58 116.45,391.58 C119.36,391.58 121.76,392.57 123.59,394.58 C125.42,396.59 126.32,399.2 126.32,402.47 Z M116.39,397.88 C114.59,397.88 113.57,399.56 113.57,402.47 C113.57,405.47 114.56,407.12 116.45,407.12 C118.25,407.12 119.24,405.44 119.24,402.53 C119.24,399.56 118.19,397.88 116.39,397.88 Z M139.37,391.43 L128.18,397.31 L128.18,404.81 L132.56,402.44 L132.56,413 L139.79,413 L139.79,391.61 L139.37,391.43 Z M151.88,397.85 L148.88,404.42 L151.88,404.42 L151.88,397.85 Z M158.54,404.42 L161.54,404.42 L161.54,409.58 L158.54,409.58 L158.54,413 L151.76,413 L151.76,409.58 L141.98,409.58 L141.74,407.66 L150.11,391.85 L158.54,391.85 L158.54,404.42 Z" id="APR-2014" fill="#382A2C"></path>
            </g>
            <g id="Twitter" transform="translate(216.400000, 274.000000)">
                <rect id="Rectangle-Copy-3" fill="url(#linearGradient-1)" x="0" y="0" width="160" height="296"></rect>
                <path d="M19.57,323.02 L17.53,328.57 L21.61,328.57 L19.57,323.02 Z M23.98,316 L32.38,337 L24.4,337 L23.41,334.21 L15.73,334.21 L14.74,337 L7,337 L15.4,316 L23.98,316 Z M42.01,321.85 L41.23,321.85 L41.23,325.96 L42.01,325.96 C43.78,325.96 44.68,325.24 44.68,323.89 C44.68,322.57 43.78,321.85 42.01,321.85 Z M51.91,323.65 C51.91,326.08 51.1,327.97 49.45,329.35 C47.8,330.76 45.52,331.45 42.67,331.45 L41.35,331.45 L41.35,337 L33.85,337 L33.85,316 L42.19,316 C48.46,316 51.91,318.7 51.91,323.65 Z M62.17,321.64 L61.09,321.64 L61.09,325.69 L62.17,325.69 C63.76,325.69 64.66,324.94 64.66,323.62 C64.66,322.33 63.76,321.64 62.17,321.64 Z M68.53,329.05 L74.44,337 L65.74,337 L61.21,330.67 L61.21,337 L53.71,337 L53.71,316 L62.74,316 C68.95,316 72.01,318.28 72.01,322.93 C72.01,325.54 70.78,327.73 68.53,329.05 Z M98.05,330.79 L91.18,330.91 L93.37,328.84 C94.81,327.46 95.8,326.29 96.34,325.3 C96.85,324.34 97.12,323.26 97.12,322.09 C97.12,318.22 94.3,315.64 89.74,315.64 C86.59,315.64 83.92,316.54 81.49,318.58 L81.82,325.78 L81.88,325.78 C84.49,323.38 86.65,322.18 88.42,322.18 C89.38,322.18 89.89,322.6 89.89,323.35 C89.89,323.92 89.53,324.43 88.57,325.39 L81.16,332.59 L81.52,337 L96.46,337 L98.05,330.79 Z M119.32,326.47 C119.32,329.71 118.39,332.35 116.53,334.36 C114.64,336.4 112.27,337.42 109.39,337.42 C106.42,337.42 104.05,336.43 102.22,334.42 C100.39,332.44 99.49,329.8 99.49,326.53 C99.49,323.32 100.42,320.68 102.31,318.64 C104.17,316.6 106.54,315.58 109.45,315.58 C112.36,315.58 114.76,316.57 116.59,318.58 C118.42,320.59 119.32,323.2 119.32,326.47 Z M109.39,321.88 C107.59,321.88 106.57,323.56 106.57,326.47 C106.57,329.47 107.56,331.12 109.45,331.12 C111.25,331.12 112.24,329.44 112.24,326.53 C112.24,323.56 111.19,321.88 109.39,321.88 Z M132.37,315.43 L121.18,321.31 L121.18,328.81 L125.56,326.44 L125.56,337 L132.79,337 L132.79,315.61 L132.37,315.43 Z M151.15,331.3 C151.15,328.87 149.83,327.16 146.98,326.17 C149.65,325.09 150.97,323.47 150.97,321.22 C150.97,319.54 150.28,318.19 148.9,317.2 C147.52,316.21 145.69,315.7 143.38,315.7 C140.62,315.7 137.74,316.54 135.79,317.86 L135.79,323.71 L135.85,323.74 C137.98,322.27 140.14,321.43 141.91,321.43 C143.11,321.43 143.8,321.79 143.8,322.36 C143.8,322.87 143.23,323.23 141.22,324.19 C140.5,324.55 139.54,325 138.22,325.6 L138.22,327.4 C139.63,327.91 140.68,328.3 141.43,328.63 C143.44,329.44 144.07,329.83 144.07,330.55 C144.07,331.24 143.38,331.6 142.09,331.6 C140.32,331.6 137.62,330.64 135.46,329.23 L135.4,329.26 L136.03,335.59 C138.19,336.79 140.47,337.33 143.14,337.33 C145.48,337.33 147.4,336.76 148.9,335.65 C150.4,334.54 151.15,333.1 151.15,331.3 Z" id="APR-2013" fill="#382A2C"></path>
            </g>
            <g id="Google" transform="translate(20.000000, 357.000000)">
                <rect id="Rectangle" fill="url(#linearGradient-1)" x="0" y="0" width="160" height="213"></rect>
                <path d="M19.57,240.02 L17.53,245.57 L21.61,245.57 L19.57,240.02 Z M23.98,233 L32.38,254 L24.4,254 L23.41,251.21 L15.73,251.21 L14.74,254 L7,254 L15.4,233 L23.98,233 Z M42.01,238.85 L41.23,238.85 L41.23,242.96 L42.01,242.96 C43.78,242.96 44.68,242.24 44.68,240.89 C44.68,239.57 43.78,238.85 42.01,238.85 Z M51.91,240.65 C51.91,243.08 51.1,244.97 49.45,246.35 C47.8,247.76 45.52,248.45 42.67,248.45 L41.35,248.45 L41.35,254 L33.85,254 L33.85,233 L42.19,233 C48.46,233 51.91,235.7 51.91,240.65 Z M62.17,238.64 L61.09,238.64 L61.09,242.69 L62.17,242.69 C63.76,242.69 64.66,241.94 64.66,240.62 C64.66,239.33 63.76,238.64 62.17,238.64 Z M68.53,246.05 L74.44,254 L65.74,254 L61.21,247.67 L61.21,254 L53.71,254 L53.71,233 L62.74,233 C68.95,233 72.01,235.28 72.01,239.93 C72.01,242.54 70.78,244.73 68.53,246.05 Z M98.05,247.79 L91.18,247.91 L93.37,245.84 C94.81,244.46 95.8,243.29 96.34,242.3 C96.85,241.34 97.12,240.26 97.12,239.09 C97.12,235.22 94.3,232.64 89.74,232.64 C86.59,232.64 83.92,233.54 81.49,235.58 L81.82,242.78 L81.88,242.78 C84.49,240.38 86.65,239.18 88.42,239.18 C89.38,239.18 89.89,239.6 89.89,240.35 C89.89,240.92 89.53,241.43 88.57,242.39 L81.16,249.59 L81.52,254 L96.46,254 L98.05,247.79 Z M119.32,243.47 C119.32,246.71 118.39,249.35 116.53,251.36 C114.64,253.4 112.27,254.42 109.39,254.42 C106.42,254.42 104.05,253.43 102.22,251.42 C100.39,249.44 99.49,246.8 99.49,243.53 C99.49,240.32 100.42,237.68 102.31,235.64 C104.17,233.6 106.54,232.58 109.45,232.58 C112.36,232.58 114.76,233.57 116.59,235.58 C118.42,237.59 119.32,240.2 119.32,243.47 Z M109.39,238.88 C107.59,238.88 106.57,240.56 106.57,243.47 C106.57,246.47 107.56,248.12 109.45,248.12 C111.25,248.12 112.24,246.44 112.24,243.53 C112.24,240.56 111.19,238.88 109.39,238.88 Z M132.37,232.43 L121.18,238.31 L121.18,245.81 L125.56,243.44 L125.56,254 L132.79,254 L132.79,232.61 L132.37,232.43 Z M152.23,247.79 L145.36,247.91 L147.55,245.84 C148.99,244.46 149.98,243.29 150.52,242.3 C151.03,241.34 151.3,240.26 151.3,239.09 C151.3,235.22 148.48,232.64 143.92,232.64 C140.77,232.64 138.1,233.54 135.67,235.58 L136,242.78 L136.06,242.78 C138.67,240.38 140.83,239.18 142.6,239.18 C143.56,239.18 144.07,239.6 144.07,240.35 C144.07,240.92 143.71,241.43 142.75,242.39 L135.34,249.59 L135.7,254 L150.64,254 L152.23,247.79 Z" id="APR-2012" fill="#382A2C"></path>
            </g>
            <path d="M2,140 L26,140 L26,136 L2,136 L2,140 Z M37,140 L61,140 L61,136 L37,136 L37,140 Z M72,140 L96,140 L96,136 L72,136 L72,140 Z M107,140 L131,140 L131,136 L107,136 L107,140 Z M142,140 L166,140 L166,136 L142,136 L142,140 Z M177,140 L201,140 L201,136 L177,136 L177,140 Z M212,140 L236,140 L236,136 L212,136 L212,140 Z M247,140 L271,140 L271,136 L247,136 L247,140 Z M282,140 L306,140 L306,136 L282,136 L282,140 Z M317,140 L341,140 L341,136 L317,136 L317,140 Z M352,140 L376,140 L376,136 L352,136 L352,140 Z M387,140 L411,140 L411,136 L387,136 L387,140 Z M422,140 L446,140 L446,136 L422,136 L422,140 Z M457,140 L481,140 L481,136 L457,136 L457,140 Z M492,140 L516,140 L516,136 L492,136 L492,140 Z M527,140 L551,140 L551,136 L527,136 L527,140 Z M562,140 L586,140 L586,136 L562,136 L562,140 Z M597,140 L621,140 L621,136 L597,136 L597,140 Z M632,140 L656,140 L656,136 L632,136 L632,140 Z M667,140 L691,140 L691,136 L667,136 L667,140 Z M702,140 L726,140 L726,136 L702,136 L702,140 Z M737,140 L761,140 L761,136 L737,136 L737,140 Z M772,140 L796,140 L796,136 L772,136 L772,140 Z M807,140 L831,140 L831,136 L807,136 L807,140 Z M842,140 L866,140 L866,136 L842,136 L842,140 Z M877,140 L901,140 L901,136 L877,136 L877,140 Z M912,140 L936,140 L936,136 L912,136 L912,140 Z M947,140 L971,140 L971,136 L947,136 L947,140 Z M982,140 L1006,140 L1006,136 L982,136 L982,140 Z M1017,140 L1041,140 L1041,136 L1017,136 L1017,140 Z M1052,140 L1076,140 L1076,136 L1052,136 L1052,140 Z M1087,140 L1111,140 L1111,136 L1087,136 L1087,140 Z M1122,140 L1146,140 L1146,136 L1122,136 L1122,140 Z M1157,140 L1181,140 L1181,136 L1157,136 L1157,140 Z" id="Line" fill="#56453B" fill-rule="nonzero"></path>
            <path d="M37.64,119.79 L30.77,119.91 L32.96,117.84 C34.4,116.46 35.39,115.29 35.93,114.3 C36.44,113.34 36.71,112.26 36.71,111.09 C36.71,107.22 33.89,104.64 29.33,104.64 C26.18,104.64 23.51,105.54 21.08,107.58 L21.41,114.78 L21.47,114.78 C24.08,112.38 26.24,111.18 28.01,111.18 C28.97,111.18 29.48,111.6 29.48,112.35 C29.48,112.92 29.12,113.43 28.16,114.39 L20.75,121.59 L21.11,126 L36.05,126 L37.64,119.79 Z M66.86,114.36 L66.86,126 L74.12,126 L74.12,105 L64.31,105 L60.32,112.98 L56.27,105 L46.4,105 L46.4,126 L53.6,126 L53.6,114.36 L60.08,126.27 L60.44,126.27 L66.86,114.36 Z M95.21,119.91 C95.21,121.8 94.49,123.27 93.02,124.35 C91.55,125.46 89.6,126 87.17,126 L77.06,126 L77.06,105 L86.93,105 C91.7,105 94.55,107.13 94.55,110.61 C94.55,112.41 93.56,114 91.76,115.08 C94.04,116.07 95.21,117.72 95.21,119.91 Z M85.79,110.34 L84.08,110.34 L84.08,113.25 L85.79,113.25 C86.99,113.25 87.59,112.74 87.59,111.75 C87.59,110.82 86.99,110.34 85.79,110.34 Z M85.97,117.72 L84.08,117.72 L84.08,120.72 L85.97,120.72 C87.26,120.72 87.92,120.21 87.92,119.25 C87.92,118.2 87.29,117.72 85.97,117.72 Z" id="2-MB" fill="#382A2C"></path>
        </g>
    </g>
</svg>