<svg width="800" height="550" viewBox="0 0 800 550" version="1.1" xmlns="http://www.w3.org/2000/svg" xmlns:xlink="http://www.w3.org/1999/xlink">
<title>gramps-all-together</title>
<desc>Created using Figma</desc>
<g id="Canvas" transform="translate(-850 -600)">
<clipPath id="clip-0" clip-rule="evenodd">
<path d="M 850 600L 1650 600L 1650 1150L 850 1150L 850 600Z" fill="#FFFFFF"/>
</clipPath>
<g id="gramps-all-together" clip-path="url(#clip-0)">
<g id="Data Sources">
<g id="Component">
<g id="Plug">
<use xlink:href="#path0_fill" transform="translate(883.976 761.119)" fill="#382A2C"/>
</g>
<g id="Schema">
<use xlink:href="#path1_fill" transform="translate(875 737.61)" fill="#C700EB"/>
</g>
<g id="Resolvers">
<use xlink:href="#path2_fill" transform="translate(875 714.073)" fill="#C700EB" fill-opacity="0.75"/>
</g>
<g id="Model">
<use xlink:href="#path3_fill" transform="translate(875 690.537)" fill="#C700EB" fill-opacity="0.625"/>
</g>
<g id="Connector">
<use xlink:href="#path4_fill" transform="translate(875 667)" fill="#C700EB" fill-opacity="0.5"/>
</g>
</g>
<g id="Component">
<g id="Plug">
<use xlink:href="#path5_fill" transform="translate(1013.98 761.119)" fill="#382A2C"/>
</g>
<g id="Schema">
<use xlink:href="#path1_fill" transform="translate(1005 737.61)" fill="#C700EB"/>
</g>
<g id="Resolvers">
<use xlink:href="#path2_fill" transform="translate(1005 714.073)" fill="#C700EB" fill-opacity="0.75"/>
</g>
<g id="Model">
<use xlink:href="#path3_fill" transform="translate(1005 690.537)" fill="#C700EB" fill-opacity="0.625"/>
</g>
<g id="Connector">
<use xlink:href="#path4_fill" transform="translate(1005 667)" fill="#C700EB" fill-opacity="0.5"/>
</g>
</g>
<g id="Component">
<g id="Plug">
<use xlink:href="#path6_fill" transform="translate(1143.98 761.119)" fill="#382A2C"/>
</g>
<g id="Schema">
<use xlink:href="#path1_fill" transform="translate(1135 737.61)" fill="#C700EB"/>
</g>
<g id="Resolvers">
<use xlink:href="#path2_fill" transform="translate(1135 714.073)" fill="#C700EB" fill-opacity="0.75"/>
</g>
<g id="Model">
<use xlink:href="#path3_fill" transform="translate(1135 690.537)" fill="#C700EB" fill-opacity="0.625"/>
</g>
<g id="Connector">
<use xlink:href="#path4_fill" transform="translate(1135 667)" fill="#C700EB" fill-opacity="0.5"/>
</g>
</g>
<g id="Component">
<g id="Plug">
<use xlink:href="#path6_fill" transform="translate(1273.98 761.119)" fill="#382A2C"/>
</g>
<g id="Schema">
<use xlink:href="#path1_fill" transform="translate(1265 737.61)" fill="#C700EB"/>
</g>
<g id="Resolvers">
<use xlink:href="#path2_fill" transform="translate(1265 714.073)" fill="#C700EB" fill-opacity="0.75"/>
</g>
<g id="Model">
<use xlink:href="#path3_fill" transform="translate(1265 690.537)" fill="#C700EB" fill-opacity="0.625"/>
</g>
<g id="Connector">
<use xlink:href="#path4_fill" transform="translate(1265 667)" fill="#C700EB" fill-opacity="0.5"/>
</g>
</g>
<g id="Component">
<g id="Plug">
<use xlink:href="#path6_fill" transform="translate(1403.98 761.119)" fill="#382A2C"/>
</g>
<g id="Schema">
<use xlink:href="#path1_fill" transform="translate(1395 737.61)" fill="#C700EB"/>
</g>
<g id="Resolvers">
<use xlink:href="#path2_fill" transform="translate(1395 714.073)" fill="#C700EB" fill-opacity="0.75"/>
</g>
<g id="Model">
<use xlink:href="#path3_fill" transform="translate(1395 690.537)" fill="#C700EB" fill-opacity="0.625"/>
</g>
<g id="Connector">
<use xlink:href="#path4_fill" transform="translate(1395 667)" fill="#C700EB" fill-opacity="0.5"/>
</g>
</g>
<g id="Component">
<g id="Plug">
<use xlink:href="#path6_fill" transform="translate(1533.98 761.119)" fill="#382A2C"/>
</g>
<g id="Schema">
<use xlink:href="#path1_fill" transform="translate(1525 737.61)" fill="#C700EB"/>
</g>
<g id="Resolvers">
<use xlink:href="#path2_fill" transform="translate(1525 714.073)" fill="#C700EB" fill-opacity="0.75"/>
</g>
<g id="Model">
<use xlink:href="#path3_fill" transform="translate(1525 690.537)" fill="#C700EB" fill-opacity="0.625"/>
</g>
<g id="Connector">
<use xlink:href="#path4_fill" transform="translate(1525 667)" fill="#C700EB" fill-opacity="0.5"/>
</g>
</g>
</g>
<g id="GrAMPS">
<g id="Rectangle">
<use xlink:href="#path7_fill" transform="translate(850 775)" fill="#382A2C"/>
</g>
<g id="GrAMPS Middleware">
<use xlink:href="#path8_fill" transform="translate(1027 778.5)" fill="#FFFFFF"/>
</g>
</g>
</g>
</g>
<defs>
<path id="path0_fill" fill-rule="evenodd" d="M 0 0L 82.0477 0C 82.0477 3.47772 79.2284 6.297 75.7507 6.297L 57.4524 6.297L 57.4524 37.7383C 57.4524 38.9218 56.493 39.8812 55.3095 39.8812C 54.1261 39.8812 53.1667 38.9218 53.1667 37.7383L 53.1667 6.297L 28.881 6.297L 28.881 37.7383C 28.881 38.9218 27.9216 39.8812 26.7382 39.8812C 25.5547 39.8812 24.5953 38.9218 24.5953 37.7383L 24.5953 6.297L 6.297 6.297C 2.81927 6.297 0 3.47772 0 0Z"/>
<path id="path1_fill" d="M 0 0L 100 0L 100 0.990082C 100 12.0358 91.0457 20.9901 80 20.9901L 20 20.9901C 8.95431 20.9901 0 12.0358 0 0.990082L 0 0Z"/>
<path id="path2_fill" d="M 0 0L 100 0L 100 20.9901L 0 20.9901L 0 0Z"/>
<path id="path3_fill" d="M 0 0L 100 0L 100 20.9901L 0 20.9901L 0 0Z"/>
<path id="path4_fill" d="M 0 20C 0 8.95431 8.95431 0 20 0L 80 0C 91.0457 0 100 8.95431 100 20L 100 20.9901L 0 20.9901L 0 20Z"/>
<path id="path5_fill" fill-rule="evenodd" d="M 0 0L 82.0477 0C 82.0477 3.47772 79.2285 6.297 75.7507 6.297L 57.4523 6.297L 57.4523 37.7383C 57.4523 38.9218 56.493 39.8812 55.3095 39.8812C 54.126 39.8812 53.1667 38.9218 53.1667 37.7383L 53.1667 6.297L 28.881 6.297L 28.881 37.7383C 28.881 38.9218 27.9216 39.8812 26.7381 39.8812C 25.5546 39.8812 24.5953 38.9218 24.5953 37.7383L 24.5953 6.297L 6.297 6.297C 2.81927 6.297 0 3.47772 0 0Z"/>
<path id="path6_fill" fill-rule="evenodd" d="M 0 0L 82.0477 0C 82.0477 3.47772 79.2284 6.297 75.7507 6.297L 57.4524 6.297L 57.4524 37.7383C 57.4524 38.9218 56.493 39.8812 55.3096 39.8812C 54.1261 39.8812 53.1667 38.9218 53.1667 37.7383L 53.1667 6.297L 28.8811 6.297L 28.8811 37.7383C 28.8811 38.9218 27.9216 39.8812 26.7382 39.8812C 25.5547 39.8812 24.5953 38.9218 24.5953 37.7383L 24.5953 6.297L 6.297 6.297C 2.81921 6.297 0 3.47772 0 0Z"/>
<path id="path7_fill" d="M 0 0L 800 0L 800 40C 800 51.0457 791.046 60 780 60L 20 60C 8.9543 60 0 51.0457 0 40L 0 0Z"/>
<path id="path8_fill" d="M 31.4102 28.8086L 31.4102 24.7266L 17.918 24.7266L 17.918 30.7852L 22.6445 30.7852L 22.6016 31.2148C 22.3438 33.707 20.2383 35.3613 17.2734 35.3613C 13.2773 35.3613 10.6777 31.9883 10.6777 26.3379C 10.6777 20.8164 12.9551 17.6367 16.8223 17.6367C 19.4434 17.6367 21.4844 19.1191 22.0859 21.3965L 31.0449 21.3965C 30.3574 15.0371 24.5566 10.4609 16.7793 10.4609C 7.21875 10.4609 1.39648 16.3047 1.39648 26.4668C 1.39648 36.7578 7.21875 42.5371 17.0586 42.5371C 26.0605 42.5371 31.4102 37.2949 31.4102 28.8086ZM 36.7254 42L 45.534 42L 45.534 30.1836C 45.534 26.875 47.2313 25.1777 50.5398 25.1777C 51.4422 25.1777 52.3445 25.3496 53.0965 25.6719L 53.0965 18.2812C 52.5164 18.0664 51.8289 17.9375 51.034 17.9375C 48.2195 17.9375 46.3934 19.5703 45.491 22.9434L 45.3191 22.9434L 45.3191 18.2812L 36.7254 18.2812L 36.7254 42ZM 74.8602 42L 84.5711 42L 74.452 10.998L 63.0223 10.998L 52.9031 42L 62.1844 42L 63.7957 35.834L 73.2488 35.834L 74.8602 42ZM 68.4363 18.1523L 68.6082 18.1523L 71.5945 29.4102L 65.45 29.4102L 68.4363 18.1523ZM 122.448 42L 122.448 10.998L 111.921 10.998L 105.003 29.0879L 104.831 29.0879L 97.8914 10.998L 87.3641 10.998L 87.3641 42L 95.3133 42L 95.3133 24.0391L 95.4852 24.0391L 102.468 41.6348L 107.345 41.6348L 114.327 24.0391L 114.499 24.0391L 114.499 42L 122.448 42ZM 126.766 10.998L 126.766 42L 135.876 42L 135.876 33.5352L 140.302 33.5352C 147.542 33.5352 152.462 29.1309 152.462 22.2988C 152.462 15.4023 147.821 10.998 140.925 10.998L 126.766 10.998ZM 135.876 17.8516L 138.497 17.8516C 141.462 17.8516 143.266 19.377 143.266 22.3203C 143.266 25.2852 141.462 26.8105 138.432 26.8105L 135.876 26.8105L 135.876 17.8516ZM 154.825 32.8691C 154.846 39.0566 159.809 42.5371 168.124 42.5371C 176.374 42.5371 181.68 38.498 181.68 32.1602C 181.68 27.1328 178.866 24.2754 172.85 23.2227L 168.596 22.4922C 165.653 21.9766 164.386 21.2031 164.386 19.7207C 164.386 18.1738 165.889 17.1855 168.274 17.1855C 170.723 17.1855 172.636 18.3242 172.7 20.2578L 181.014 20.2578C 180.971 14.2422 176.352 10.4609 168.102 10.4609C 160.712 10.4609 155.341 14.4141 155.341 20.6875C 155.341 25.543 158.434 28.8086 164.128 29.7969L 168.231 30.5273C 171.561 31.1289 172.7 31.752 172.7 33.1914C 172.7 34.6953 171.024 35.791 168.296 35.791C 165.846 35.791 163.698 34.6309 163.44 32.8691L 154.825 32.8691ZM 228.581 42L 228.581 10.998L 218.054 10.998L 211.136 29.0879L 210.964 29.0879L 204.024 10.998L 193.497 10.998L 193.497 42L 201.446 42L 201.446 24.0391L 201.618 24.0391L 208.6 41.6348L 213.477 41.6348L 220.46 24.0391L 220.632 24.0391L 220.632 42L 228.581 42ZM 232.405 42L 241.214 42L 241.214 18.2812L 232.405 18.2812L 232.405 42ZM 236.809 16.9707C 239.302 16.9707 241.192 15.166 241.192 12.8027C 241.192 10.4395 239.302 8.63477 236.809 8.63477C 234.317 8.63477 232.427 10.4395 232.427 12.8027C 232.427 15.166 234.317 16.9707 236.809 16.9707ZM 253.159 42.3438C 256.725 42.3438 259.475 40.3887 260.27 37.8965L 260.442 37.8965L 260.442 42L 269.251 42L 269.251 10.998L 260.442 10.998L 260.442 22.5566L 260.27 22.5566C 259.346 19.8926 256.768 17.9375 253.309 17.9375C 247.401 17.9375 243.921 22.4492 243.921 30.0762C 243.921 37.8105 247.315 42.3438 253.159 42.3438ZM 256.704 24.7266C 259.067 24.7266 260.485 26.7676 260.485 30.1621C 260.485 33.5781 259.089 35.5547 256.704 35.5547C 254.319 35.5547 252.944 33.5352 252.944 30.1406C 252.944 26.7891 254.341 24.7266 256.704 24.7266ZM 281.218 42.3438C 284.784 42.3438 287.534 40.3887 288.329 37.8965L 288.501 37.8965L 288.501 42L 297.309 42L 297.309 10.998L 288.501 10.998L 288.501 22.5566L 288.329 22.5566C 287.405 19.8926 284.827 17.9375 281.368 17.9375C 275.46 17.9375 271.979 22.4492 271.979 30.0762C 271.979 37.8105 275.374 42.3438 281.218 42.3438ZM 284.763 24.7266C 287.126 24.7266 288.544 26.7676 288.544 30.1621C 288.544 33.5781 287.147 35.5547 284.763 35.5547C 282.378 35.5547 281.003 33.5352 281.003 30.1406C 281.003 26.7891 282.399 24.7266 284.763 24.7266ZM 300.747 42L 309.555 42L 309.555 10.998L 300.747 10.998L 300.747 42ZM 324.68 23.7383C 326.743 23.7383 328.225 25.1133 328.376 27.2402L 320.985 27.2402C 321.157 25.1992 322.682 23.7383 324.68 23.7383ZM 328.634 34.3086C 328.118 35.7266 326.679 36.5645 324.895 36.5645C 322.532 36.5645 320.856 34.8887 320.856 32.5684L 320.856 32.0098L 336.583 32.0098L 336.583 29.625C 336.583 22.3633 331.835 17.6797 324.487 17.6797C 317.032 17.6797 312.37 22.5137 312.37 30.2695C 312.37 37.9824 316.989 42.6016 324.766 42.6016C 331.276 42.6016 335.745 39.4219 336.475 34.3086L 328.634 34.3086ZM 375.255 18.2812L 366.554 18.2812L 364.04 34.2871L 363.868 34.2871L 360.71 18.2812L 352.309 18.2812L 349.194 34.2871L 349.022 34.2871L 346.509 18.2812L 337.593 18.2812L 343.608 42L 352.997 42L 356.241 26.7246L 356.413 26.7246L 359.721 42L 369.282 42L 375.255 18.2812ZM 387.307 36.457C 385.761 36.457 384.708 35.7051 384.708 34.416C 384.708 33.2559 385.653 32.4609 387.329 32.332L 391.067 32.0742L 391.067 33.6211C 391.067 35.3613 389.263 36.457 387.307 36.457ZM 384.02 42.3438C 386.77 42.3438 389.649 41.1406 390.895 38.8203L 391.067 38.8203L 391.067 42L 399.661 42L 399.661 25.7793C 399.661 20.9668 395.257 17.6797 388.682 17.6797C 381.764 17.6797 377.468 20.8809 377.253 25.9512L 385.116 25.9512C 385.245 24.748 386.405 23.7598 388.21 23.7598C 389.864 23.7598 391.067 24.6191 391.067 26.209L 391.067 27.3691L 385.868 27.6914C 379.53 28.0781 376.028 30.5488 376.028 35.1035C 376.028 39.3789 379.702 42.3438 384.02 42.3438ZM 402.991 42L 411.8 42L 411.8 30.1836C 411.8 26.875 413.497 25.1777 416.805 25.1777C 417.708 25.1777 418.61 25.3496 419.362 25.6719L 419.362 18.2812C 418.782 18.0664 418.095 17.9375 417.3 17.9375C 414.485 17.9375 412.659 19.5703 411.757 22.9434L 411.585 22.9434L 411.585 18.2812L 402.991 18.2812L 402.991 42ZM 432.747 23.7383C 434.809 23.7383 436.292 25.1133 436.442 27.2402L 429.052 27.2402C 429.223 25.1992 430.749 23.7383 432.747 23.7383ZM 436.7 34.3086C 436.184 35.7266 434.745 36.5645 432.962 36.5645C 430.598 36.5645 428.923 34.8887 428.923 32.5684L 428.923 32.0098L 444.649 32.0098L 444.649 29.625C 444.649 22.3633 439.901 17.6797 432.554 17.6797C 425.098 17.6797 420.436 22.5137 420.436 30.2695C 420.436 37.9824 425.055 42.6016 432.833 42.6016C 439.343 42.6016 443.811 39.4219 444.542 34.3086L 436.7 34.3086Z"/>
</defs>
</svg>
