<svg width="800" height="550" viewBox="0 0 800 550" version="1.1" xmlns="http://www.w3.org/2000/svg" xmlns:xlink="http://www.w3.org/1999/xlink">
<title>gramps-data-source</title>
<desc>Created using Figma</desc>
<g id="Canvas" transform="translate(0 -600)">
<clipPath id="clip-0" clip-rule="evenodd">
<path d="M 7.10543e-15 600L 800 600L 800 1150L 7.10543e-15 1150L 7.10543e-15 600Z" fill="#FFFFFF"/>
</clipPath>
<g id="gramps-data-source" clip-path="url(#clip-0)">
<g id="Component">
<g id="Schema">
<use xlink:href="#path0_fill" transform="translate(225 887.599)" fill="#C700EB"/>
</g>
<g id="Resolvers">
<use xlink:href="#path1_fill" transform="translate(225 831.533)" fill="#C700EB" fill-opacity="0.75"/>
</g>
<g id="Model">
<use xlink:href="#path2_fill" transform="translate(225 775.467)" fill="#C700EB" fill-opacity="0.625"/>
</g>
<g id="Connector">
<use xlink:href="#path3_fill" transform="translate(225 719.401)" fill="#C700EB" fill-opacity="0.5"/>
</g>
</g>
</g>
</g>
<defs>
<path id="path0_fill" fill-rule="evenodd" d="M 350 0L 0 0L 0 30C 0 41.0457 8.9543 50 20 50L 330 50C 341.046 50 350 41.0457 350 30L 350 0ZM 92.6504 42.5371C 84.3359 42.5371 79.373 39.0566 79.3516 32.8691L 87.9668 32.8691C 88.2246 34.6309 90.373 35.791 92.8223 35.791C 95.5508 35.791 97.2266 34.6953 97.2266 33.1914C 97.2266 31.752 96.0879 31.1289 92.7578 30.5273L 88.6543 29.7969C 82.9609 28.8086 79.8672 25.543 79.8672 20.6875C 79.8672 14.4141 85.2383 10.4609 92.6289 10.4609C 100.879 10.4609 105.498 14.2422 105.541 20.2578L 97.2266 20.2578C 97.1621 18.3242 95.25 17.1855 92.8008 17.1855C 90.416 17.1855 88.9121 18.1738 88.9121 19.7207C 88.9121 21.2031 90.1797 21.9766 93.123 22.4922L 97.377 23.2227C 103.393 24.2754 106.207 27.1328 106.207 32.1602C 106.207 38.498 100.9 42.5371 92.6504 42.5371ZM 138.713 29.4961C 138.67 37.2305 132.633 42.5371 124.275 42.5371C 114.779 42.5371 108.893 36.7148 108.893 26.4883C 108.893 16.2617 114.801 10.4609 124.275 10.4609C 132.461 10.4609 138.648 15.7891 138.67 23.4805L 129.947 23.4805C 129.732 19.957 127.434 17.6152 124.275 17.6152C 120.537 17.6152 118.174 20.9238 118.174 26.4668C 118.174 32.0742 120.516 35.3828 124.297 35.3828C 127.434 35.3828 129.711 33.084 129.99 29.4961L 138.713 29.4961ZM 171.305 10.998L 171.305 42L 162.195 42L 162.195 30.0117L 151.281 30.0117L 151.281 42L 142.172 42L 142.172 10.998L 151.281 10.998L 151.281 22.7715L 162.195 22.7715L 162.195 10.998L 171.305 10.998ZM 184.711 34.7598L 197.473 34.7598L 197.473 42L 175.602 42L 175.602 10.998L 197.473 10.998L 197.473 18.2383L 184.711 18.2383L 184.711 23.2441L 196.678 23.2441L 196.678 29.7754L 184.711 29.7754L 184.711 34.7598ZM 236.811 10.998L 236.811 42L 228.861 42L 228.861 24.0391L 228.689 24.0391L 221.707 41.6348L 216.83 41.6348L 209.848 24.0391L 209.676 24.0391L 209.676 42L 201.727 42L 201.727 10.998L 212.254 10.998L 219.193 29.0879L 219.365 29.0879L 226.283 10.998L 236.811 10.998ZM 271.293 42L 261.582 42L 259.971 35.834L 250.518 35.834L 248.906 42L 239.625 42L 249.744 10.998L 261.174 10.998L 271.293 42ZM 255.33 18.1523L 255.158 18.1523L 252.172 29.4102L 258.316 29.4102L 255.33 18.1523Z"/>
<path id="path1_fill" fill-rule="evenodd" d="M 350 0L 0 0L 0 50L 350 50L 350 0ZM 60.4453 17.6898L 56.6641 17.6898L 56.6641 25.553L 60.4238 25.553C 62.9805 25.553 64.5488 23.9847 64.5488 21.6429C 64.5488 19.3441 62.8945 17.6898 60.4453 17.6898ZM 59.6504 31.5687L 56.6641 31.5687L 56.6641 41.9671L 47.5547 41.9671L 47.5547 10.9651L 61.3262 10.9651C 69.5977 10.9651 73.8516 14.8538 73.8516 21.4925C 73.8516 25.1448 72.0898 28.6683 68.8457 30.2151L 74.7324 41.9671L 64.5488 41.9671L 59.6504 31.5687ZM 86.6562 34.7269L 99.418 34.7269L 99.418 41.9671L 77.5469 41.9671L 77.5469 10.9651L 99.418 10.9651L 99.418 18.2054L 86.6562 18.2054L 86.6562 23.2112L 98.623 23.2112L 98.623 29.7425L 86.6562 29.7425L 86.6562 34.7269ZM 116.111 42.5042C 107.797 42.5042 102.834 39.0237 102.812 32.8362L 111.428 32.8362C 111.686 34.598 113.834 35.7581 116.283 35.7581C 119.012 35.7581 120.688 34.6624 120.688 33.1585C 120.688 31.7191 119.549 31.096 116.219 30.4944L 112.115 29.764C 106.422 28.7757 103.328 25.5101 103.328 20.6546C 103.328 14.3812 108.699 10.428 116.09 10.428C 124.34 10.428 128.959 14.2093 129.002 20.2249L 120.688 20.2249C 120.623 18.2913 118.711 17.1526 116.262 17.1526C 113.877 17.1526 112.373 18.1409 112.373 19.6878C 112.373 21.1702 113.641 21.9437 116.584 22.4593L 120.838 23.1898C 126.854 24.2425 129.668 27.0999 129.668 32.1273C 129.668 38.4651 124.361 42.5042 116.111 42.5042ZM 132.354 26.4769C 132.354 16.5726 138.391 10.428 147.973 10.428C 157.555 10.428 163.592 16.5726 163.592 26.4769C 163.592 36.3812 157.555 42.5042 147.973 42.5042C 138.369 42.5042 132.354 36.3812 132.354 26.4769ZM 154.311 26.4769C 154.311 21.1058 151.775 17.6898 147.973 17.6898C 144.17 17.6898 141.635 21.1058 141.635 26.4769C 141.635 31.8265 144.148 35.2425 147.973 35.2425C 151.797 35.2425 154.311 31.8265 154.311 26.4769ZM 176.246 34.7269L 188.406 34.7269L 188.406 41.9671L 167.137 41.9671L 167.137 10.9651L 176.246 10.9651L 176.246 34.7269ZM 218.398 10.9651L 208.988 41.9671L 197.172 41.9671L 187.762 10.9651L 198.246 10.9651L 203.209 33.3304L 203.381 33.3304L 208.344 10.9651L 218.398 10.9651ZM 230.301 34.7269L 243.062 34.7269L 243.062 41.9671L 221.191 41.9671L 221.191 10.9651L 243.062 10.9651L 243.062 18.2054L 230.301 18.2054L 230.301 23.2112L 242.268 23.2112L 242.268 29.7425L 230.301 29.7425L 230.301 34.7269ZM 260.207 17.6898L 256.426 17.6898L 256.426 25.553L 260.186 25.553C 262.742 25.553 264.311 23.9847 264.311 21.6429C 264.311 19.3441 262.656 17.6898 260.207 17.6898ZM 259.412 31.5687L 256.426 31.5687L 256.426 41.9671L 247.316 41.9671L 247.316 10.9651L 261.088 10.9651C 269.359 10.9651 273.613 14.8538 273.613 21.4925C 273.613 25.1448 271.852 28.6683 268.607 30.2151L 274.494 41.9671L 264.311 41.9671L 259.412 31.5687ZM 289.748 42.5042C 281.434 42.5042 276.471 39.0237 276.449 32.8362L 285.064 32.8362C 285.322 34.598 287.471 35.7581 289.92 35.7581C 292.648 35.7581 294.324 34.6624 294.324 33.1585C 294.324 31.7191 293.186 31.096 289.855 30.4944L 285.752 29.764C 280.059 28.7757 276.965 25.5101 276.965 20.6546C 276.965 14.3812 282.336 10.428 289.727 10.428C 297.977 10.428 302.596 14.2093 302.639 20.2249L 294.324 20.2249C 294.26 18.2913 292.348 17.1526 289.898 17.1526C 287.514 17.1526 286.01 18.1409 286.01 19.6878C 286.01 21.1702 287.277 21.9437 290.221 22.4593L 294.475 23.1898C 300.49 24.2425 303.305 27.0999 303.305 32.1273C 303.305 38.4651 297.998 42.5042 289.748 42.5042Z"/>
<path id="path2_fill" fill-rule="evenodd" d="M 350 0L 0 0L 0 50L 350 50L 350 0ZM 134.223 10.998L 134.223 42L 126.273 42L 126.273 24.0391L 126.102 24.0391L 119.119 41.6348L 114.242 41.6348L 107.26 24.0391L 107.088 24.0391L 107.088 42L 99.1387 42L 99.1387 10.998L 109.666 10.998L 116.605 29.0879L 116.777 29.0879L 123.695 10.998L 134.223 10.998ZM 137.789 26.5098C 137.789 16.6055 143.826 10.4609 153.408 10.4609C 162.99 10.4609 169.027 16.6055 169.027 26.5098C 169.027 36.4141 162.99 42.5371 153.408 42.5371C 143.805 42.5371 137.789 36.4141 137.789 26.5098ZM 159.746 26.5098C 159.746 21.1387 157.211 17.7227 153.408 17.7227C 149.605 17.7227 147.07 21.1387 147.07 26.5098C 147.07 31.8594 149.584 35.2754 153.408 35.2754C 157.232 35.2754 159.746 31.8594 159.746 26.5098ZM 172.572 42L 172.572 10.998L 185.828 10.998C 195.238 10.998 200.76 16.3477 200.76 26.2734C 200.76 36.1992 195.217 42 185.828 42L 172.572 42ZM 184.539 18.2383L 181.682 18.2383L 181.682 34.7598L 184.539 34.7598C 189.094 34.7598 191.479 31.9883 191.479 26.2734C 191.479 21.0527 188.9 18.2383 184.539 18.2383ZM 213.436 34.7598L 226.197 34.7598L 226.197 42L 204.326 42L 204.326 10.998L 226.197 10.998L 226.197 18.2383L 213.436 18.2383L 213.436 23.2441L 225.402 23.2441L 225.402 29.7754L 213.436 29.7754L 213.436 34.7598ZM 239.561 34.7598L 251.721 34.7598L 251.721 42L 230.451 42L 230.451 10.998L 239.561 10.998L 239.561 34.7598Z"/>
<path id="path3_fill" fill-rule="evenodd" d="M 20 0C 8.9543 0 0 8.95428 0 20L 0 50L 350 50L 350 20C 350 8.95428 341.046 0 330 0L 20 0ZM 66.7832 29.4961C 66.7402 37.2305 60.7031 42.5371 52.3457 42.5371C 42.8496 42.5371 36.9629 36.7148 36.9629 26.4883C 36.9629 16.2617 42.8711 10.4609 52.3457 10.4609C 60.5312 10.4609 66.7188 15.7891 66.7402 23.4805L 58.0176 23.4805C 57.8027 19.957 55.5039 17.6152 52.3457 17.6152C 48.6074 17.6152 46.2441 20.9238 46.2441 26.4668C 46.2441 32.0742 48.5859 35.3828 52.3672 35.3828C 55.5039 35.3828 57.7812 33.084 58.0605 29.4961L 66.7832 29.4961ZM 69.4902 26.5098C 69.4902 16.6055 75.5273 10.4609 85.1094 10.4609C 94.6914 10.4609 100.729 16.6055 100.729 26.5098C 100.729 36.4141 94.6914 42.5371 85.1094 42.5371C 75.5059 42.5371 69.4902 36.4141 69.4902 26.5098ZM 91.4473 26.5098C 91.4473 21.1387 88.9121 17.7227 85.1094 17.7227C 81.3066 17.7227 78.7715 21.1387 78.7715 26.5098C 78.7715 31.8594 81.2852 35.2754 85.1094 35.2754C 88.9336 35.2754 91.4473 31.8594 91.4473 26.5098ZM 112.867 25.6719L 112.867 42L 104.273 42L 104.273 10.998L 111.342 10.998L 123.309 27.0684L 123.48 27.0684L 123.48 10.998L 132.074 10.998L 132.074 42L 125.092 42L 113.039 25.6719L 112.867 25.6719ZM 144.965 25.6719L 144.965 42L 136.371 42L 136.371 10.998L 143.439 10.998L 155.406 27.0684L 155.578 27.0684L 155.578 10.998L 164.172 10.998L 164.172 42L 157.189 42L 145.137 25.6719L 144.965 25.6719ZM 177.578 34.7598L 190.34 34.7598L 190.34 42L 168.469 42L 168.469 10.998L 190.34 10.998L 190.34 18.2383L 177.578 18.2383L 177.578 23.2441L 189.545 23.2441L 189.545 29.7754L 177.578 29.7754L 177.578 34.7598ZM 223.662 29.4961C 223.619 37.2305 217.582 42.5371 209.225 42.5371C 199.729 42.5371 193.842 36.7148 193.842 26.4883C 193.842 16.2617 199.75 10.4609 209.225 10.4609C 217.41 10.4609 223.598 15.7891 223.619 23.4805L 214.896 23.4805C 214.682 19.957 212.383 17.6152 209.225 17.6152C 205.486 17.6152 203.123 20.9238 203.123 26.4668C 203.123 32.0742 205.465 35.3828 209.246 35.3828C 212.383 35.3828 214.66 33.084 214.939 29.4961L 223.662 29.4961ZM 242.783 18.2383L 242.783 42L 233.674 42L 233.674 18.2383L 225.51 18.2383L 225.51 10.998L 250.947 10.998L 250.947 18.2383L 242.783 18.2383ZM 251.807 26.5098C 251.807 16.6055 257.844 10.4609 267.426 10.4609C 277.008 10.4609 283.045 16.6055 283.045 26.5098C 283.045 36.4141 277.008 42.5371 267.426 42.5371C 257.822 42.5371 251.807 36.4141 251.807 26.5098ZM 273.764 26.5098C 273.764 21.1387 271.229 17.7227 267.426 17.7227C 263.623 17.7227 261.088 21.1387 261.088 26.5098C 261.088 31.8594 263.602 35.2754 267.426 35.2754C 271.25 35.2754 273.764 31.8594 273.764 26.5098ZM 299.48 17.7227L 295.699 17.7227L 295.699 25.5859L 299.459 25.5859C 302.016 25.5859 303.584 24.0176 303.584 21.6758C 303.584 19.377 301.93 17.7227 299.48 17.7227ZM 298.686 31.6016L 295.699 31.6016L 295.699 42L 286.59 42L 286.59 10.998L 300.361 10.998C 308.633 10.998 312.887 14.8867 312.887 21.5254C 312.887 25.1777 311.125 28.7012 307.881 30.248L 313.768 42L 303.584 42L 298.686 31.6016Z"/>
</defs>
</svg>
