<svg width="1398" height="978" viewBox="0 0 1398 978" version="1.1" xmlns="http://www.w3.org/2000/svg" xmlns:xlink="http://www.w3.org/1999/xlink">
<title>GrAMPS-logo</title>
<desc>Created using Figma</desc>
<g id="Canvas" transform="translate(1553 530)">
<g id="GrAMPS-logo">
<g id="Hat">
<use xlink:href="#path0_fill" transform="translate(-1552.28 -529.926)" fill="#220218"/>
</g>
<g id="Card">
<use xlink:href="#path1_fill" transform="translate(-1321.61 -277.499)" fill="#E10098"/>
</g>
<g id="Hat Band">
<use xlink:href="#path2_fill" transform="translate(-1421.79 -117.811)" fill="#FFFFFF"/>
</g>
<g id="GraphQL Logo">
<use xlink:href="#path3_fill" transform="translate(-1220.55 -195.489)" fill="#FFFFFF"/>
</g>
</g>
</g>
<defs>
<path id="path0_fill" fill-rule="evenodd" d="M 183.483 359.2C 146.542 362.195 63.0764 381.165 24.738 433.082C -23.185 497.977 -6.2122 603.807 117.589 713.631C 241.39 823.455 584.925 964.902 860.354 976.658C 1135.78 988.414 1300.37 891.006 1349.07 849.02C 1397.78 807.034 1409.53 729.78 1384.34 682.755C 1362.85 642.643 1275.85 573.761 1233.66 540.351C 1226.38 534.593 1220.44 529.889 1216.4 526.567C 1203.75 516.182 1194.48 511.363 1174.99 501.222C 1171.5 499.409 1167.69 497.426 1163.48 495.211C 1173.33 551.302 1186.31 626.188 1188.87 644.742L 1188.92 645.092C 1192.89 673.905 1196.46 699.787 1100.01 732.6C 1003.17 765.548 679.686 796.498 432.084 767.544C 184.481 738.591 132.565 633.759 130.568 607.801C 128.971 587.034 155.195 468.691 168.507 412.115C 168.507 427.091 175.496 463.033 266.35 503.968C 357.204 544.902 529.927 566.867 708.64 565.868C 887.353 564.87 1037.11 528.928 1100.01 510.956C 1140.65 499.344 1154.07 479.568 1156.68 466.255C 1154.82 460.022 1152.94 454.861 1151.09 449.797C 1147.35 439.542 1143.76 429.683 1140.82 412.115C 1127.39 331.752 1083.72 183.961 1063.57 160.448C 1043.41 136.936 892.263 19.3752 793.176 2.58076C 713.906 -10.8548 519.419 31.2893 432.084 57.0408C 437.106 57.0408 442.889 57.0237 449.265 57.0049C 497.842 56.8615 580.894 56.6163 624.873 63.0408C 680.994 71.2391 791.585 112.745 869.427 141.961C 906.916 156.03 936.809 167.25 949.364 170.525C 885.834 163.93 826.11 143.907 768.528 124.602C 711.944 105.633 657.427 87.356 603.399 83.1941C 514.257 76.3274 386.751 73.1174 336.367 83.1941C 330.387 84.3901 324.667 85.4206 319.196 86.4061C 278.575 93.7239 251.683 98.5683 233.921 150.372C 217.799 197.396 193.578 309.184 183.483 359.2Z"/>
<path id="path1_fill" d="M 341.992 129.799C 353.366 169.608 366.277 262.759 374.571 320.814L 76.0025 320.814C 77.1873 310.151 75.2916 274.607 58.2306 217.737C 41.1695 160.867 18.9567 98.2453 0 73.3646L 300.23 0C 310.893 16.5871 330.618 89.9897 341.992 129.799Z"/>
<path id="path2_fill" d="M 0.0697836 195.686C -1.52764 174.919 24.6969 56.5758 38.0089 0C 38.0089 14.9759 44.9976 50.9182 135.852 91.8525C 226.706 132.787 399.428 154.751 578.141 153.753C 756.854 152.755 906.614 116.812 969.513 98.8412C 1019.83 84.4643 1028.42 57.5742 1026.42 45.9262C 1035.74 98.5085 1055.18 209.464 1058.37 232.626L 1058.42 232.977C 1062.39 261.79 1065.97 287.671 969.513 320.485C 872.668 353.432 549.188 384.383 301.586 355.429C 53.9832 326.476 2.06656 221.644 0.0697836 195.686Z"/>
<path id="path3_fill" fill-rule="evenodd" d="M 68.9332 0.537659C 59.2822 2.88136 53.1458 12.2647 55.4265 21.6566C 55.7084 22.8011 56.1276 23.9489 56.635 25.0068L 26.8224 52.2884C 25.7207 51.7281 24.5138 51.2531 23.2991 50.9171L 23.2916 50.915C 13.8109 48.3646 3.69714 53.665 0.789551 62.9107C -2.13293 72.2033 3.31641 81.8419 12.8617 84.4096C 14.0547 84.7271 15.3175 84.9276 16.545 85.0083L 25.7035 122.722C 24.6653 123.351 23.65 124.099 22.7472 124.918L 22.7415 124.924C 15.4592 131.622 15.0171 142.638 21.8799 149.559C 28.705 156.443 40.0756 156.522 47.3741 149.902L 47.3832 149.893C 48.2964 149.049 49.1411 148.087 49.8568 147.099L 88.8447 157.664C 88.8804 158.829 89.0342 160.033 89.3068 161.171C 91.5875 170.563 101.344 176.087 110.995 173.743C 120.65 171.398 126.771 161.969 124.502 152.624C 124.178 151.311 123.676 150.003 123.061 148.814L 152.609 121.774C 153.839 122.442 155.206 122.999 156.591 123.377C 166.071 125.927 176.183 120.628 179.092 111.385C 182.066 102.07 176.614 92.4816 167.025 89.8829L 167.021 89.8821C 165.844 89.5687 164.598 89.3691 163.386 89.2864L 154.228 51.573C 155.282 50.9382 156.312 50.1808 157.227 49.3513L 157.233 49.3461C 164.515 42.6481 164.957 31.6312 158.094 24.7101L 158.089 24.7044C 151.224 17.8447 139.856 17.7525 132.597 24.371L 132.591 24.3762C 131.659 25.2378 130.799 26.2208 130.074 27.2316L 91.085 16.666C 91.0522 15.4851 90.8982 14.2642 90.6217 13.1096C 88.3409 3.71776 78.5844 -1.80605 68.9332 0.537659ZM 35.3639 72.4139C 36.6956 68.1791 36.2898 63.8604 34.5331 60.1729L 61.4081 35.5797L 35.8082 116.433L 27.5194 82.3002C 31.1426 80.1016 34.0225 76.679 35.3639 72.4139ZM 143.234 54.1995L 151.516 88.3063L 91.7516 28.2666L 126.854 37.7789C 126.99 41.8526 128.61 45.8664 131.729 49.0121C 134.877 52.1868 139.006 53.9073 143.234 54.1995ZM 46.3916 125.931L 47.0278 124.158C 47.4504 124.506 47.8569 124.872 48.2391 125.252L 48.2449 125.257C 49.0819 126.107 49.8479 127.071 50.4878 128.059L 143.812 105.396C 143.927 104.224 144.165 103.016 144.519 101.878C 144.877 100.752 145.37 99.6278 145.945 98.5941L 80.6426 32.991C 80.2964 33.1505 79.9412 33.3018 79.5797 33.4435C 78.7784 33.7575 77.9467 34.0244 77.1149 34.2286C 75.9111 34.5178 74.6467 34.6907 73.4265 34.7462L 45.4799 123.011C 46.0084 123.362 46.5283 123.746 47.0259 124.156L 46.3896 125.929C 46.3903 125.929 46.391 125.93 46.3916 125.931ZM 47.0259 124.156L 79.5797 33.4435L 47.0278 124.158C 47.0272 124.157 47.0265 124.156 47.0259 124.156ZM 92.1519 147.14L 57.2258 137.676L 143.098 116.822L 115.943 141.671C 112.106 139.613 107.456 138.925 102.813 140.052C 98.3333 141.14 94.6222 143.734 92.1519 147.14Z"/>
</defs>
</svg>
