<svg width="800" height="550" viewBox="0 0 800 550" version="1.1" xmlns="http://www.w3.org/2000/svg" xmlns:xlink="http://www.w3.org/1999/xlink">
<title>gramps-data-source</title>
<desc>Created using Figma</desc>
<g id="Canvas" transform="translate(0 -600)">
<clipPath id="clip-0" clip-rule="evenodd">
<path d="M 7.10543e-15 600L 800 600L 800 1150L 7.10543e-15 1150L 7.10543e-15 600Z" fill="#FFFFFF"/>
</clipPath>
<g id="gramps-data-source" clip-path="url(#clip-0)">
<g id="Component">
<g id="Schema">
<use xlink:href="#path0_fill" transform="translate(225 887.599)" fill="#C700EB"/>
</g>
</g>
</g>
</g>
<defs>
<path id="path0_fill" fill-rule="evenodd" d="M 350 0L 0 0L 0 30C 0 41.0457 8.9543 50 20 50L 330 50C 341.046 50 350 41.0457 350 30L 350 0ZM 92.6504 42.5371C 84.3359 42.5371 79.373 39.0566 79.3516 32.8691L 87.9668 32.8691C 88.2246 34.6309 90.373 35.791 92.8223 35.791C 95.5508 35.791 97.2266 34.6953 97.2266 33.1914C 97.2266 31.752 96.0879 31.1289 92.7578 30.5273L 88.6543 29.7969C 82.9609 28.8086 79.8672 25.543 79.8672 20.6875C 79.8672 14.4141 85.2383 10.4609 92.6289 10.4609C 100.879 10.4609 105.498 14.2422 105.541 20.2578L 97.2266 20.2578C 97.1621 18.3242 95.25 17.1855 92.8008 17.1855C 90.416 17.1855 88.9121 18.1738 88.9121 19.7207C 88.9121 21.2031 90.1797 21.9766 93.123 22.4922L 97.377 23.2227C 103.393 24.2754 106.207 27.1328 106.207 32.1602C 106.207 38.498 100.9 42.5371 92.6504 42.5371ZM 138.713 29.4961C 138.67 37.2305 132.633 42.5371 124.275 42.5371C 114.779 42.5371 108.893 36.7148 108.893 26.4883C 108.893 16.2617 114.801 10.4609 124.275 10.4609C 132.461 10.4609 138.648 15.7891 138.67 23.4805L 129.947 23.4805C 129.732 19.957 127.434 17.6152 124.275 17.6152C 120.537 17.6152 118.174 20.9238 118.174 26.4668C 118.174 32.0742 120.516 35.3828 124.297 35.3828C 127.434 35.3828 129.711 33.084 129.99 29.4961L 138.713 29.4961ZM 171.305 10.998L 171.305 42L 162.195 42L 162.195 30.0117L 151.281 30.0117L 151.281 42L 142.172 42L 142.172 10.998L 151.281 10.998L 151.281 22.7715L 162.195 22.7715L 162.195 10.998L 171.305 10.998ZM 184.711 34.7598L 197.473 34.7598L 197.473 42L 175.602 42L 175.602 10.998L 197.473 10.998L 197.473 18.2383L 184.711 18.2383L 184.711 23.2441L 196.678 23.2441L 196.678 29.7754L 184.711 29.7754L 184.711 34.7598ZM 236.811 10.998L 236.811 42L 228.861 42L 228.861 24.0391L 228.689 24.0391L 221.707 41.6348L 216.83 41.6348L 209.848 24.0391L 209.676 24.0391L 209.676 42L 201.727 42L 201.727 10.998L 212.254 10.998L 219.193 29.0879L 219.365 29.0879L 226.283 10.998L 236.811 10.998ZM 271.293 42L 261.582 42L 259.971 35.834L 250.518 35.834L 248.906 42L 239.625 42L 249.744 10.998L 261.174 10.998L 271.293 42ZM 255.33 18.1523L 255.158 18.1523L 252.172 29.4102L 258.316 29.4102L 255.33 18.1523Z"/>
</defs>
</svg>
